G04 #@! TF.GenerationSoftware,KiCad,Pcbnew,(5.1.4)-1*
G04 #@! TF.CreationDate,2020-08-22T15:05:13-05:00*
G04 #@! TF.ProjectId,NetworkBreaker,4e657477-6f72-46b4-9272-65616b65722e,rev?*
G04 #@! TF.SameCoordinates,Original*
G04 #@! TF.FileFunction,Legend,Bot*
G04 #@! TF.FilePolarity,Positive*
%FSLAX46Y46*%
G04 Gerber Fmt 4.6, Leading zero omitted, Abs format (unit mm)*
G04 Created by KiCad (PCBNEW (5.1.4)-1) date 2020-08-22 15:05:13*
%MOMM*%
%LPD*%
G04 APERTURE LIST*
%ADD10C,0.150000*%
%ADD11C,0.120000*%
G04 APERTURE END LIST*
D10*
X206338819Y-114974942D02*
X206386438Y-115022561D01*
X206529295Y-115070180D01*
X206624533Y-115070180D01*
X206767390Y-115022561D01*
X206862628Y-114927323D01*
X206910247Y-114832085D01*
X206957866Y-114641609D01*
X206957866Y-114498752D01*
X206910247Y-114308276D01*
X206862628Y-114213038D01*
X206767390Y-114117800D01*
X206624533Y-114070180D01*
X206529295Y-114070180D01*
X206386438Y-114117800D01*
X206338819Y-114165419D01*
X206053104Y-114070180D02*
X205481676Y-114070180D01*
X205767390Y-115070180D02*
X205767390Y-114070180D01*
X205195961Y-115022561D02*
X205053104Y-115070180D01*
X204815009Y-115070180D01*
X204719771Y-115022561D01*
X204672152Y-114974942D01*
X204624533Y-114879704D01*
X204624533Y-114784466D01*
X204672152Y-114689228D01*
X204719771Y-114641609D01*
X204815009Y-114593990D01*
X205005485Y-114546371D01*
X205100723Y-114498752D01*
X205148342Y-114451133D01*
X205195961Y-114355895D01*
X205195961Y-114260657D01*
X205148342Y-114165419D01*
X205100723Y-114117800D01*
X205005485Y-114070180D01*
X204767390Y-114070180D01*
X204624533Y-114117800D01*
X206457866Y-120251780D02*
X206791200Y-119775590D01*
X207029295Y-120251780D02*
X207029295Y-119251780D01*
X206648342Y-119251780D01*
X206553104Y-119299400D01*
X206505485Y-119347019D01*
X206457866Y-119442257D01*
X206457866Y-119585114D01*
X206505485Y-119680352D01*
X206553104Y-119727971D01*
X206648342Y-119775590D01*
X207029295Y-119775590D01*
X206124533Y-119251780D02*
X205457866Y-120251780D01*
X205457866Y-119251780D02*
X206124533Y-120251780D01*
X205076914Y-120251780D02*
X205076914Y-119251780D01*
X204838819Y-119251780D01*
X204695961Y-119299400D01*
X204600723Y-119394638D01*
X204553104Y-119489876D01*
X204505485Y-119680352D01*
X204505485Y-119823209D01*
X204553104Y-120013685D01*
X204600723Y-120108923D01*
X204695961Y-120204161D01*
X204838819Y-120251780D01*
X205076914Y-120251780D01*
X205934057Y-127024180D02*
X206410247Y-127024180D01*
X206457866Y-127500371D01*
X206410247Y-127452752D01*
X206315009Y-127405133D01*
X206076914Y-127405133D01*
X205981676Y-127452752D01*
X205934057Y-127500371D01*
X205886438Y-127595609D01*
X205886438Y-127833704D01*
X205934057Y-127928942D01*
X205981676Y-127976561D01*
X206076914Y-128024180D01*
X206315009Y-128024180D01*
X206410247Y-127976561D01*
X206457866Y-127928942D01*
X205553104Y-127357514D02*
X205315009Y-128024180D01*
X205076914Y-127357514D01*
X206553104Y-124481000D02*
X206648342Y-124433380D01*
X206791200Y-124433380D01*
X206934057Y-124481000D01*
X207029295Y-124576238D01*
X207076914Y-124671476D01*
X207124533Y-124861952D01*
X207124533Y-125004809D01*
X207076914Y-125195285D01*
X207029295Y-125290523D01*
X206934057Y-125385761D01*
X206791200Y-125433380D01*
X206695961Y-125433380D01*
X206553104Y-125385761D01*
X206505485Y-125338142D01*
X206505485Y-125004809D01*
X206695961Y-125004809D01*
X206076914Y-125433380D02*
X206076914Y-124433380D01*
X205505485Y-125433380D01*
X205505485Y-124433380D01*
X205029295Y-125433380D02*
X205029295Y-124433380D01*
X204791200Y-124433380D01*
X204648342Y-124481000D01*
X204553104Y-124576238D01*
X204505485Y-124671476D01*
X204457866Y-124861952D01*
X204457866Y-125004809D01*
X204505485Y-125195285D01*
X204553104Y-125290523D01*
X204648342Y-125385761D01*
X204791200Y-125433380D01*
X205029295Y-125433380D01*
X206338819Y-117660980D02*
X206672152Y-117184790D01*
X206910247Y-117660980D02*
X206910247Y-116660980D01*
X206529295Y-116660980D01*
X206434057Y-116708600D01*
X206386438Y-116756219D01*
X206338819Y-116851457D01*
X206338819Y-116994314D01*
X206386438Y-117089552D01*
X206434057Y-117137171D01*
X206529295Y-117184790D01*
X206910247Y-117184790D01*
X206053104Y-116660980D02*
X205481676Y-116660980D01*
X205767390Y-117660980D02*
X205767390Y-116660980D01*
X205195961Y-117613361D02*
X205053104Y-117660980D01*
X204815009Y-117660980D01*
X204719771Y-117613361D01*
X204672152Y-117565742D01*
X204624533Y-117470504D01*
X204624533Y-117375266D01*
X204672152Y-117280028D01*
X204719771Y-117232409D01*
X204815009Y-117184790D01*
X205005485Y-117137171D01*
X205100723Y-117089552D01*
X205148342Y-117041933D01*
X205195961Y-116946695D01*
X205195961Y-116851457D01*
X205148342Y-116756219D01*
X205100723Y-116708600D01*
X205005485Y-116660980D01*
X204767390Y-116660980D01*
X204624533Y-116708600D01*
X207053104Y-121842580D02*
X206481676Y-121842580D01*
X206767390Y-122842580D02*
X206767390Y-121842580D01*
X206243580Y-121842580D02*
X205576914Y-122842580D01*
X205576914Y-121842580D02*
X206243580Y-122842580D01*
X205195961Y-122842580D02*
X205195961Y-121842580D01*
X204957866Y-121842580D01*
X204815009Y-121890200D01*
X204719771Y-121985438D01*
X204672152Y-122080676D01*
X204624533Y-122271152D01*
X204624533Y-122414009D01*
X204672152Y-122604485D01*
X204719771Y-122699723D01*
X204815009Y-122794961D01*
X204957866Y-122842580D01*
X205195961Y-122842580D01*
X240251733Y-148953780D02*
X240251733Y-147953780D01*
X239680304Y-148953780D01*
X239680304Y-147953780D01*
X239061257Y-148953780D02*
X239156495Y-148906161D01*
X239204114Y-148858542D01*
X239251733Y-148763304D01*
X239251733Y-148477590D01*
X239204114Y-148382352D01*
X239156495Y-148334733D01*
X239061257Y-148287114D01*
X238918400Y-148287114D01*
X238823161Y-148334733D01*
X238775542Y-148382352D01*
X238727923Y-148477590D01*
X238727923Y-148763304D01*
X238775542Y-148858542D01*
X238823161Y-148906161D01*
X238918400Y-148953780D01*
X239061257Y-148953780D01*
X238299352Y-148953780D02*
X238299352Y-148287114D01*
X238299352Y-148477590D02*
X238251733Y-148382352D01*
X238204114Y-148334733D01*
X238108876Y-148287114D01*
X238013638Y-148287114D01*
X237680304Y-148953780D02*
X237680304Y-148287114D01*
X237680304Y-148382352D02*
X237632685Y-148334733D01*
X237537447Y-148287114D01*
X237394590Y-148287114D01*
X237299352Y-148334733D01*
X237251733Y-148429971D01*
X237251733Y-148953780D01*
X237251733Y-148429971D02*
X237204114Y-148334733D01*
X237108876Y-148287114D01*
X236966019Y-148287114D01*
X236870780Y-148334733D01*
X236823161Y-148429971D01*
X236823161Y-148953780D01*
X235918400Y-148953780D02*
X235918400Y-148429971D01*
X235966019Y-148334733D01*
X236061257Y-148287114D01*
X236251733Y-148287114D01*
X236346971Y-148334733D01*
X235918400Y-148906161D02*
X236013638Y-148953780D01*
X236251733Y-148953780D01*
X236346971Y-148906161D01*
X236394590Y-148810923D01*
X236394590Y-148715685D01*
X236346971Y-148620447D01*
X236251733Y-148572828D01*
X236013638Y-148572828D01*
X235918400Y-148525209D01*
X235299352Y-148953780D02*
X235394590Y-148906161D01*
X235442209Y-148810923D01*
X235442209Y-147953780D01*
X234775542Y-148953780D02*
X234870780Y-148906161D01*
X234918400Y-148810923D01*
X234918400Y-147953780D01*
X234489828Y-148287114D02*
X234251733Y-148953780D01*
X234013638Y-148287114D02*
X234251733Y-148953780D01*
X234346971Y-149191876D01*
X234394590Y-149239495D01*
X234489828Y-149287114D01*
X232299352Y-148858542D02*
X232346971Y-148906161D01*
X232489828Y-148953780D01*
X232585066Y-148953780D01*
X232727923Y-148906161D01*
X232823161Y-148810923D01*
X232870780Y-148715685D01*
X232918400Y-148525209D01*
X232918400Y-148382352D01*
X232870780Y-148191876D01*
X232823161Y-148096638D01*
X232727923Y-148001400D01*
X232585066Y-147953780D01*
X232489828Y-147953780D01*
X232346971Y-148001400D01*
X232299352Y-148049019D01*
X231727923Y-148953780D02*
X231823161Y-148906161D01*
X231870780Y-148858542D01*
X231918400Y-148763304D01*
X231918400Y-148477590D01*
X231870780Y-148382352D01*
X231823161Y-148334733D01*
X231727923Y-148287114D01*
X231585066Y-148287114D01*
X231489828Y-148334733D01*
X231442209Y-148382352D01*
X231394590Y-148477590D01*
X231394590Y-148763304D01*
X231442209Y-148858542D01*
X231489828Y-148906161D01*
X231585066Y-148953780D01*
X231727923Y-148953780D01*
X230966019Y-148287114D02*
X230966019Y-148953780D01*
X230966019Y-148382352D02*
X230918400Y-148334733D01*
X230823161Y-148287114D01*
X230680304Y-148287114D01*
X230585066Y-148334733D01*
X230537447Y-148429971D01*
X230537447Y-148953780D01*
X230061257Y-148287114D02*
X230061257Y-148953780D01*
X230061257Y-148382352D02*
X230013638Y-148334733D01*
X229918400Y-148287114D01*
X229775542Y-148287114D01*
X229680304Y-148334733D01*
X229632685Y-148429971D01*
X229632685Y-148953780D01*
X228775542Y-148906161D02*
X228870780Y-148953780D01*
X229061257Y-148953780D01*
X229156495Y-148906161D01*
X229204114Y-148810923D01*
X229204114Y-148429971D01*
X229156495Y-148334733D01*
X229061257Y-148287114D01*
X228870780Y-148287114D01*
X228775542Y-148334733D01*
X228727923Y-148429971D01*
X228727923Y-148525209D01*
X229204114Y-148620447D01*
X227870780Y-148906161D02*
X227966019Y-148953780D01*
X228156495Y-148953780D01*
X228251733Y-148906161D01*
X228299352Y-148858542D01*
X228346971Y-148763304D01*
X228346971Y-148477590D01*
X228299352Y-148382352D01*
X228251733Y-148334733D01*
X228156495Y-148287114D01*
X227966019Y-148287114D01*
X227870780Y-148334733D01*
X227585066Y-148287114D02*
X227204114Y-148287114D01*
X227442209Y-147953780D02*
X227442209Y-148810923D01*
X227394590Y-148906161D01*
X227299352Y-148953780D01*
X227204114Y-148953780D01*
X226489828Y-148906161D02*
X226585066Y-148953780D01*
X226775542Y-148953780D01*
X226870780Y-148906161D01*
X226918400Y-148810923D01*
X226918400Y-148429971D01*
X226870780Y-148334733D01*
X226775542Y-148287114D01*
X226585066Y-148287114D01*
X226489828Y-148334733D01*
X226442209Y-148429971D01*
X226442209Y-148525209D01*
X226918400Y-148620447D01*
X225585066Y-148953780D02*
X225585066Y-147953780D01*
X225585066Y-148906161D02*
X225680304Y-148953780D01*
X225870780Y-148953780D01*
X225966019Y-148906161D01*
X226013638Y-148858542D01*
X226061257Y-148763304D01*
X226061257Y-148477590D01*
X226013638Y-148382352D01*
X225966019Y-148334733D01*
X225870780Y-148287114D01*
X225680304Y-148287114D01*
X225585066Y-148334733D01*
X215612857Y-148902980D02*
X215612857Y-147902980D01*
X215136666Y-148236314D02*
X215136666Y-148902980D01*
X215136666Y-148331552D02*
X215089047Y-148283933D01*
X214993809Y-148236314D01*
X214850952Y-148236314D01*
X214755714Y-148283933D01*
X214708095Y-148379171D01*
X214708095Y-148902980D01*
X214231904Y-148236314D02*
X214231904Y-149236314D01*
X214231904Y-148283933D02*
X214136666Y-148236314D01*
X213946190Y-148236314D01*
X213850952Y-148283933D01*
X213803333Y-148331552D01*
X213755714Y-148426790D01*
X213755714Y-148712504D01*
X213803333Y-148807742D01*
X213850952Y-148855361D01*
X213946190Y-148902980D01*
X214136666Y-148902980D01*
X214231904Y-148855361D01*
X212898571Y-148236314D02*
X212898571Y-148902980D01*
X213327142Y-148236314D02*
X213327142Y-148760123D01*
X213279523Y-148855361D01*
X213184285Y-148902980D01*
X213041428Y-148902980D01*
X212946190Y-148855361D01*
X212898571Y-148807742D01*
X212565238Y-148236314D02*
X212184285Y-148236314D01*
X212422380Y-147902980D02*
X212422380Y-148760123D01*
X212374761Y-148855361D01*
X212279523Y-148902980D01*
X212184285Y-148902980D01*
X254527057Y-148744266D02*
X254050866Y-148744266D01*
X254622295Y-149029980D02*
X254288961Y-148029980D01*
X253955628Y-149029980D01*
X253479438Y-149029980D02*
X253574676Y-148982361D01*
X253622295Y-148887123D01*
X253622295Y-148029980D01*
X253241342Y-148363314D02*
X252860390Y-148363314D01*
X253098485Y-148029980D02*
X253098485Y-148887123D01*
X253050866Y-148982361D01*
X252955628Y-149029980D01*
X252860390Y-149029980D01*
X252146104Y-148982361D02*
X252241342Y-149029980D01*
X252431819Y-149029980D01*
X252527057Y-148982361D01*
X252574676Y-148887123D01*
X252574676Y-148506171D01*
X252527057Y-148410933D01*
X252431819Y-148363314D01*
X252241342Y-148363314D01*
X252146104Y-148410933D01*
X252098485Y-148506171D01*
X252098485Y-148601409D01*
X252574676Y-148696647D01*
X251669914Y-149029980D02*
X251669914Y-148363314D01*
X251669914Y-148553790D02*
X251622295Y-148458552D01*
X251574676Y-148410933D01*
X251479438Y-148363314D01*
X251384200Y-148363314D01*
X251050866Y-148363314D02*
X251050866Y-149029980D01*
X251050866Y-148458552D02*
X251003247Y-148410933D01*
X250908009Y-148363314D01*
X250765152Y-148363314D01*
X250669914Y-148410933D01*
X250622295Y-148506171D01*
X250622295Y-149029980D01*
X249717533Y-149029980D02*
X249717533Y-148506171D01*
X249765152Y-148410933D01*
X249860390Y-148363314D01*
X250050866Y-148363314D01*
X250146104Y-148410933D01*
X249717533Y-148982361D02*
X249812771Y-149029980D01*
X250050866Y-149029980D01*
X250146104Y-148982361D01*
X250193723Y-148887123D01*
X250193723Y-148791885D01*
X250146104Y-148696647D01*
X250050866Y-148649028D01*
X249812771Y-148649028D01*
X249717533Y-148601409D01*
X249384200Y-148363314D02*
X249003247Y-148363314D01*
X249241342Y-148029980D02*
X249241342Y-148887123D01*
X249193723Y-148982361D01*
X249098485Y-149029980D01*
X249003247Y-149029980D01*
X248288961Y-148982361D02*
X248384200Y-149029980D01*
X248574676Y-149029980D01*
X248669914Y-148982361D01*
X248717533Y-148887123D01*
X248717533Y-148506171D01*
X248669914Y-148410933D01*
X248574676Y-148363314D01*
X248384200Y-148363314D01*
X248288961Y-148410933D01*
X248241342Y-148506171D01*
X248241342Y-148601409D01*
X248717533Y-148696647D01*
D11*
X233565166Y-112557500D02*
X233565166Y-116407500D01*
X235565166Y-112557500D02*
X235565166Y-116407500D01*
X233565166Y-112557500D02*
X235565166Y-112557500D01*
X210669200Y-114444578D02*
X210669200Y-113927422D01*
X212089200Y-114444578D02*
X212089200Y-113927422D01*
X210669200Y-110888578D02*
X210669200Y-110371422D01*
X212089200Y-110888578D02*
X212089200Y-110371422D01*
X210720000Y-103169652D02*
X210720000Y-102647148D01*
X212140000Y-103169652D02*
X212140000Y-102647148D01*
X207519600Y-103166978D02*
X207519600Y-102649822D01*
X208939600Y-103166978D02*
X208939600Y-102649822D01*
X221436400Y-117178622D02*
X221436400Y-117695778D01*
X220016400Y-117178622D02*
X220016400Y-117695778D01*
X209701600Y-113927422D02*
X209701600Y-114444578D01*
X208281600Y-113927422D02*
X208281600Y-114444578D01*
X209701600Y-110371422D02*
X209701600Y-110888578D01*
X208281600Y-110371422D02*
X208281600Y-110888578D01*
X214165664Y-106815600D02*
X212961536Y-106815600D01*
X214165664Y-104995600D02*
X212961536Y-104995600D01*
X213822178Y-108698400D02*
X213305022Y-108698400D01*
X213822178Y-107278400D02*
X213305022Y-107278400D01*
X245468000Y-121100000D02*
X246928000Y-121100000D01*
X245468000Y-117940000D02*
X247628000Y-117940000D01*
X245468000Y-117940000D02*
X245468000Y-118870000D01*
X245468000Y-121100000D02*
X245468000Y-120170000D01*
X234630666Y-121163500D02*
X236090666Y-121163500D01*
X234630666Y-118003500D02*
X236790666Y-118003500D01*
X234630666Y-118003500D02*
X234630666Y-118933500D01*
X234630666Y-121163500D02*
X234630666Y-120233500D01*
X223776400Y-121163500D02*
X225236400Y-121163500D01*
X223776400Y-118003500D02*
X225936400Y-118003500D01*
X223776400Y-118003500D02*
X223776400Y-118933500D01*
X223776400Y-121163500D02*
X223776400Y-120233500D01*
X244444832Y-112557500D02*
X244444832Y-116407500D01*
X246444832Y-112557500D02*
X246444832Y-116407500D01*
X244444832Y-112557500D02*
X246444832Y-112557500D01*
X222685500Y-112522500D02*
X222685500Y-116372500D01*
X224685500Y-112522500D02*
X224685500Y-116372500D01*
X222685500Y-112522500D02*
X224685500Y-112522500D01*
X255324500Y-112557500D02*
X255324500Y-116407500D01*
X257324500Y-112557500D02*
X257324500Y-116407500D01*
X255324500Y-112557500D02*
X257324500Y-112557500D01*
D10*
X218422200Y-115937000D02*
X218422200Y-110662000D01*
X213022200Y-114662000D02*
X213022200Y-110662000D01*
D11*
X246978500Y-115536078D02*
X246978500Y-115018922D01*
X248398500Y-115536078D02*
X248398500Y-115018922D01*
X236120000Y-115536078D02*
X236120000Y-115018922D01*
X237540000Y-115536078D02*
X237540000Y-115018922D01*
X225248800Y-115501078D02*
X225248800Y-114983922D01*
X226668800Y-115501078D02*
X226668800Y-114983922D01*
X257900500Y-115536078D02*
X257900500Y-115018922D01*
X259320500Y-115536078D02*
X259320500Y-115018922D01*
X244969500Y-105545422D02*
X244969500Y-106062578D01*
X243549500Y-105545422D02*
X243549500Y-106062578D01*
X239889500Y-105545422D02*
X239889500Y-106062578D01*
X238469500Y-105545422D02*
X238469500Y-106062578D01*
X234809500Y-105545422D02*
X234809500Y-106062578D01*
X233389500Y-105545422D02*
X233389500Y-106062578D01*
X250049500Y-105545422D02*
X250049500Y-106062578D01*
X248629500Y-105545422D02*
X248629500Y-106062578D01*
X256390000Y-121163500D02*
X257850000Y-121163500D01*
X256390000Y-118003500D02*
X258550000Y-118003500D01*
X256390000Y-118003500D02*
X256390000Y-118933500D01*
X256390000Y-121163500D02*
X256390000Y-120233500D01*
X207306000Y-98882500D02*
X207306000Y-100212500D01*
X207306000Y-100212500D02*
X208636000Y-100212500D01*
X207306000Y-97612500D02*
X209906000Y-97612500D01*
X209906000Y-97612500D02*
X209906000Y-100212500D01*
X209906000Y-100212500D02*
X258226000Y-100212500D01*
X258226000Y-95012500D02*
X258226000Y-100212500D01*
X207306000Y-95012500D02*
X258226000Y-95012500D01*
X207306000Y-95012500D02*
X207306000Y-97612500D01*
X260672000Y-102744266D02*
X263357000Y-102744266D01*
X260672000Y-104664266D02*
X260672000Y-102744266D01*
X263357000Y-104664266D02*
X260672000Y-104664266D01*
X260672000Y-104708532D02*
X263357000Y-104708532D01*
X260672000Y-106628532D02*
X260672000Y-104708532D01*
X263357000Y-106628532D02*
X260672000Y-106628532D01*
X260672000Y-106672798D02*
X263357000Y-106672798D01*
X260672000Y-108592798D02*
X260672000Y-106672798D01*
X263357000Y-108592798D02*
X260672000Y-108592798D01*
X260672000Y-100780000D02*
X263357000Y-100780000D01*
X260672000Y-102700000D02*
X260672000Y-100780000D01*
X263357000Y-102700000D02*
X260672000Y-102700000D01*
D10*
X235155095Y-112403180D02*
X235155095Y-111403180D01*
X234917000Y-111403180D01*
X234774142Y-111450800D01*
X234678904Y-111546038D01*
X234631285Y-111641276D01*
X234583666Y-111831752D01*
X234583666Y-111974609D01*
X234631285Y-112165085D01*
X234678904Y-112260323D01*
X234774142Y-112355561D01*
X234917000Y-112403180D01*
X235155095Y-112403180D01*
X234250333Y-111403180D02*
X233583666Y-111403180D01*
X234012238Y-112403180D01*
X211882380Y-116768942D02*
X211406190Y-116435609D01*
X211882380Y-116197514D02*
X210882380Y-116197514D01*
X210882380Y-116578466D01*
X210930000Y-116673704D01*
X210977619Y-116721323D01*
X211072857Y-116768942D01*
X211215714Y-116768942D01*
X211310952Y-116721323D01*
X211358571Y-116673704D01*
X211406190Y-116578466D01*
X211406190Y-116197514D01*
X211882380Y-117721323D02*
X211882380Y-117149895D01*
X211882380Y-117435609D02*
X210882380Y-117435609D01*
X211025238Y-117340371D01*
X211120476Y-117245133D01*
X211168095Y-117149895D01*
X210882380Y-118340371D02*
X210882380Y-118435609D01*
X210930000Y-118530847D01*
X210977619Y-118578466D01*
X211072857Y-118626085D01*
X211263333Y-118673704D01*
X211501428Y-118673704D01*
X211691904Y-118626085D01*
X211787142Y-118578466D01*
X211834761Y-118530847D01*
X211882380Y-118435609D01*
X211882380Y-118340371D01*
X211834761Y-118245133D01*
X211787142Y-118197514D01*
X211691904Y-118149895D01*
X211501428Y-118102276D01*
X211263333Y-118102276D01*
X211072857Y-118149895D01*
X210977619Y-118197514D01*
X210930000Y-118245133D01*
X210882380Y-118340371D01*
X211806180Y-107821733D02*
X211329990Y-107488400D01*
X211806180Y-107250304D02*
X210806180Y-107250304D01*
X210806180Y-107631257D01*
X210853800Y-107726495D01*
X210901419Y-107774114D01*
X210996657Y-107821733D01*
X211139514Y-107821733D01*
X211234752Y-107774114D01*
X211282371Y-107726495D01*
X211329990Y-107631257D01*
X211329990Y-107250304D01*
X211806180Y-108297923D02*
X211806180Y-108488400D01*
X211758561Y-108583638D01*
X211710942Y-108631257D01*
X211568085Y-108726495D01*
X211377609Y-108774114D01*
X210996657Y-108774114D01*
X210901419Y-108726495D01*
X210853800Y-108678876D01*
X210806180Y-108583638D01*
X210806180Y-108393161D01*
X210853800Y-108297923D01*
X210901419Y-108250304D01*
X210996657Y-108202685D01*
X211234752Y-108202685D01*
X211329990Y-108250304D01*
X211377609Y-108297923D01*
X211425228Y-108393161D01*
X211425228Y-108583638D01*
X211377609Y-108678876D01*
X211329990Y-108726495D01*
X211234752Y-108774114D01*
X213008571Y-102075066D02*
X213008571Y-101741733D01*
X213532380Y-101741733D02*
X212532380Y-101741733D01*
X212532380Y-102217923D01*
X213008571Y-102932209D02*
X213056190Y-103075066D01*
X213103809Y-103122685D01*
X213199047Y-103170304D01*
X213341904Y-103170304D01*
X213437142Y-103122685D01*
X213484761Y-103075066D01*
X213532380Y-102979828D01*
X213532380Y-102598876D01*
X212532380Y-102598876D01*
X212532380Y-102932209D01*
X212580000Y-103027447D01*
X212627619Y-103075066D01*
X212722857Y-103122685D01*
X212818095Y-103122685D01*
X212913333Y-103075066D01*
X212960952Y-103027447D01*
X213008571Y-102932209D01*
X213008571Y-102598876D01*
X213532380Y-104122685D02*
X213532380Y-103551257D01*
X213532380Y-103836971D02*
X212532380Y-103836971D01*
X212675238Y-103741733D01*
X212770476Y-103646495D01*
X212818095Y-103551257D01*
X210110742Y-102487733D02*
X210158361Y-102440114D01*
X210205980Y-102297257D01*
X210205980Y-102202019D01*
X210158361Y-102059161D01*
X210063123Y-101963923D01*
X209967885Y-101916304D01*
X209777409Y-101868685D01*
X209634552Y-101868685D01*
X209444076Y-101916304D01*
X209348838Y-101963923D01*
X209253600Y-102059161D01*
X209205980Y-102202019D01*
X209205980Y-102297257D01*
X209253600Y-102440114D01*
X209301219Y-102487733D01*
X209205980Y-103344876D02*
X209205980Y-103154400D01*
X209253600Y-103059161D01*
X209301219Y-103011542D01*
X209444076Y-102916304D01*
X209634552Y-102868685D01*
X210015504Y-102868685D01*
X210110742Y-102916304D01*
X210158361Y-102963923D01*
X210205980Y-103059161D01*
X210205980Y-103249638D01*
X210158361Y-103344876D01*
X210110742Y-103392495D01*
X210015504Y-103440114D01*
X209777409Y-103440114D01*
X209682171Y-103392495D01*
X209634552Y-103344876D01*
X209586933Y-103249638D01*
X209586933Y-103059161D01*
X209634552Y-102963923D01*
X209682171Y-102916304D01*
X209777409Y-102868685D01*
X219433542Y-117270533D02*
X219481161Y-117222914D01*
X219528780Y-117080057D01*
X219528780Y-116984819D01*
X219481161Y-116841961D01*
X219385923Y-116746723D01*
X219290685Y-116699104D01*
X219100209Y-116651485D01*
X218957352Y-116651485D01*
X218766876Y-116699104D01*
X218671638Y-116746723D01*
X218576400Y-116841961D01*
X218528780Y-116984819D01*
X218528780Y-117080057D01*
X218576400Y-117222914D01*
X218624019Y-117270533D01*
X218528780Y-118175295D02*
X218528780Y-117699104D01*
X219004971Y-117651485D01*
X218957352Y-117699104D01*
X218909733Y-117794342D01*
X218909733Y-118032438D01*
X218957352Y-118127676D01*
X219004971Y-118175295D01*
X219100209Y-118222914D01*
X219338304Y-118222914D01*
X219433542Y-118175295D01*
X219481161Y-118127676D01*
X219528780Y-118032438D01*
X219528780Y-117794342D01*
X219481161Y-117699104D01*
X219433542Y-117651485D01*
X209323342Y-117118133D02*
X209370961Y-117070514D01*
X209418580Y-116927657D01*
X209418580Y-116832419D01*
X209370961Y-116689561D01*
X209275723Y-116594323D01*
X209180485Y-116546704D01*
X208990009Y-116499085D01*
X208847152Y-116499085D01*
X208656676Y-116546704D01*
X208561438Y-116594323D01*
X208466200Y-116689561D01*
X208418580Y-116832419D01*
X208418580Y-116927657D01*
X208466200Y-117070514D01*
X208513819Y-117118133D01*
X208751914Y-117975276D02*
X209418580Y-117975276D01*
X208370961Y-117737180D02*
X209085247Y-117499085D01*
X209085247Y-118118133D01*
X209450342Y-107821733D02*
X209497961Y-107774114D01*
X209545580Y-107631257D01*
X209545580Y-107536019D01*
X209497961Y-107393161D01*
X209402723Y-107297923D01*
X209307485Y-107250304D01*
X209117009Y-107202685D01*
X208974152Y-107202685D01*
X208783676Y-107250304D01*
X208688438Y-107297923D01*
X208593200Y-107393161D01*
X208545580Y-107536019D01*
X208545580Y-107631257D01*
X208593200Y-107774114D01*
X208640819Y-107821733D01*
X208545580Y-108155066D02*
X208545580Y-108774114D01*
X208926533Y-108440780D01*
X208926533Y-108583638D01*
X208974152Y-108678876D01*
X209021771Y-108726495D01*
X209117009Y-108774114D01*
X209355104Y-108774114D01*
X209450342Y-108726495D01*
X209497961Y-108678876D01*
X209545580Y-108583638D01*
X209545580Y-108297923D01*
X209497961Y-108202685D01*
X209450342Y-108155066D01*
X217184666Y-106237342D02*
X217232285Y-106284961D01*
X217375142Y-106332580D01*
X217470380Y-106332580D01*
X217613238Y-106284961D01*
X217708476Y-106189723D01*
X217756095Y-106094485D01*
X217803714Y-105904009D01*
X217803714Y-105761152D01*
X217756095Y-105570676D01*
X217708476Y-105475438D01*
X217613238Y-105380200D01*
X217470380Y-105332580D01*
X217375142Y-105332580D01*
X217232285Y-105380200D01*
X217184666Y-105427819D01*
X216803714Y-105427819D02*
X216756095Y-105380200D01*
X216660857Y-105332580D01*
X216422761Y-105332580D01*
X216327523Y-105380200D01*
X216279904Y-105427819D01*
X216232285Y-105523057D01*
X216232285Y-105618295D01*
X216279904Y-105761152D01*
X216851333Y-106332580D01*
X216232285Y-106332580D01*
X216575066Y-108345542D02*
X216622685Y-108393161D01*
X216765542Y-108440780D01*
X216860780Y-108440780D01*
X217003638Y-108393161D01*
X217098876Y-108297923D01*
X217146495Y-108202685D01*
X217194114Y-108012209D01*
X217194114Y-107869352D01*
X217146495Y-107678876D01*
X217098876Y-107583638D01*
X217003638Y-107488400D01*
X216860780Y-107440780D01*
X216765542Y-107440780D01*
X216622685Y-107488400D01*
X216575066Y-107536019D01*
X215622685Y-108440780D02*
X216194114Y-108440780D01*
X215908400Y-108440780D02*
X215908400Y-107440780D01*
X216003638Y-107583638D01*
X216098876Y-107678876D01*
X216194114Y-107726495D01*
X243681638Y-118848419D02*
X243776876Y-118800800D01*
X243872114Y-118705561D01*
X244014971Y-118562704D01*
X244110209Y-118515085D01*
X244205447Y-118515085D01*
X244157828Y-118753180D02*
X244253066Y-118705561D01*
X244348304Y-118610323D01*
X244395923Y-118419847D01*
X244395923Y-118086514D01*
X244348304Y-117896038D01*
X244253066Y-117800800D01*
X244157828Y-117753180D01*
X243967352Y-117753180D01*
X243872114Y-117800800D01*
X243776876Y-117896038D01*
X243729257Y-118086514D01*
X243729257Y-118419847D01*
X243776876Y-118610323D01*
X243872114Y-118705561D01*
X243967352Y-118753180D01*
X244157828Y-118753180D01*
X242872114Y-118086514D02*
X242872114Y-118753180D01*
X243110209Y-117705561D02*
X243348304Y-118419847D01*
X242729257Y-118419847D01*
X233674038Y-118619819D02*
X233769276Y-118572200D01*
X233864514Y-118476961D01*
X234007371Y-118334104D01*
X234102609Y-118286485D01*
X234197847Y-118286485D01*
X234150228Y-118524580D02*
X234245466Y-118476961D01*
X234340704Y-118381723D01*
X234388323Y-118191247D01*
X234388323Y-117857914D01*
X234340704Y-117667438D01*
X234245466Y-117572200D01*
X234150228Y-117524580D01*
X233959752Y-117524580D01*
X233864514Y-117572200D01*
X233769276Y-117667438D01*
X233721657Y-117857914D01*
X233721657Y-118191247D01*
X233769276Y-118381723D01*
X233864514Y-118476961D01*
X233959752Y-118524580D01*
X234150228Y-118524580D01*
X233388323Y-117524580D02*
X232769276Y-117524580D01*
X233102609Y-117905533D01*
X232959752Y-117905533D01*
X232864514Y-117953152D01*
X232816895Y-118000771D01*
X232769276Y-118096009D01*
X232769276Y-118334104D01*
X232816895Y-118429342D01*
X232864514Y-118476961D01*
X232959752Y-118524580D01*
X233245466Y-118524580D01*
X233340704Y-118476961D01*
X233388323Y-118429342D01*
X221964638Y-120042219D02*
X222059876Y-119994600D01*
X222155114Y-119899361D01*
X222297971Y-119756504D01*
X222393209Y-119708885D01*
X222488447Y-119708885D01*
X222440828Y-119946980D02*
X222536066Y-119899361D01*
X222631304Y-119804123D01*
X222678923Y-119613647D01*
X222678923Y-119280314D01*
X222631304Y-119089838D01*
X222536066Y-118994600D01*
X222440828Y-118946980D01*
X222250352Y-118946980D01*
X222155114Y-118994600D01*
X222059876Y-119089838D01*
X222012257Y-119280314D01*
X222012257Y-119613647D01*
X222059876Y-119804123D01*
X222155114Y-119899361D01*
X222250352Y-119946980D01*
X222440828Y-119946980D01*
X221631304Y-119042219D02*
X221583685Y-118994600D01*
X221488447Y-118946980D01*
X221250352Y-118946980D01*
X221155114Y-118994600D01*
X221107495Y-119042219D01*
X221059876Y-119137457D01*
X221059876Y-119232695D01*
X221107495Y-119375552D01*
X221678923Y-119946980D01*
X221059876Y-119946980D01*
X246153295Y-112276180D02*
X246153295Y-111276180D01*
X245915200Y-111276180D01*
X245772342Y-111323800D01*
X245677104Y-111419038D01*
X245629485Y-111514276D01*
X245581866Y-111704752D01*
X245581866Y-111847609D01*
X245629485Y-112038085D01*
X245677104Y-112133323D01*
X245772342Y-112228561D01*
X245915200Y-112276180D01*
X246153295Y-112276180D01*
X245010438Y-111704752D02*
X245105676Y-111657133D01*
X245153295Y-111609514D01*
X245200914Y-111514276D01*
X245200914Y-111466657D01*
X245153295Y-111371419D01*
X245105676Y-111323800D01*
X245010438Y-111276180D01*
X244819961Y-111276180D01*
X244724723Y-111323800D01*
X244677104Y-111371419D01*
X244629485Y-111466657D01*
X244629485Y-111514276D01*
X244677104Y-111609514D01*
X244724723Y-111657133D01*
X244819961Y-111704752D01*
X245010438Y-111704752D01*
X245105676Y-111752371D01*
X245153295Y-111799990D01*
X245200914Y-111895228D01*
X245200914Y-112085704D01*
X245153295Y-112180942D01*
X245105676Y-112228561D01*
X245010438Y-112276180D01*
X244819961Y-112276180D01*
X244724723Y-112228561D01*
X244677104Y-112180942D01*
X244629485Y-112085704D01*
X244629485Y-111895228D01*
X244677104Y-111799990D01*
X244724723Y-111752371D01*
X244819961Y-111704752D01*
X224360095Y-112047580D02*
X224360095Y-111047580D01*
X224122000Y-111047580D01*
X223979142Y-111095200D01*
X223883904Y-111190438D01*
X223836285Y-111285676D01*
X223788666Y-111476152D01*
X223788666Y-111619009D01*
X223836285Y-111809485D01*
X223883904Y-111904723D01*
X223979142Y-111999961D01*
X224122000Y-112047580D01*
X224360095Y-112047580D01*
X222931523Y-111047580D02*
X223122000Y-111047580D01*
X223217238Y-111095200D01*
X223264857Y-111142819D01*
X223360095Y-111285676D01*
X223407714Y-111476152D01*
X223407714Y-111857104D01*
X223360095Y-111952342D01*
X223312476Y-111999961D01*
X223217238Y-112047580D01*
X223026761Y-112047580D01*
X222931523Y-111999961D01*
X222883904Y-111952342D01*
X222836285Y-111857104D01*
X222836285Y-111619009D01*
X222883904Y-111523771D01*
X222931523Y-111476152D01*
X223026761Y-111428533D01*
X223217238Y-111428533D01*
X223312476Y-111476152D01*
X223360095Y-111523771D01*
X223407714Y-111619009D01*
X256745095Y-112098380D02*
X256745095Y-111098380D01*
X256507000Y-111098380D01*
X256364142Y-111146000D01*
X256268904Y-111241238D01*
X256221285Y-111336476D01*
X256173666Y-111526952D01*
X256173666Y-111669809D01*
X256221285Y-111860285D01*
X256268904Y-111955523D01*
X256364142Y-112050761D01*
X256507000Y-112098380D01*
X256745095Y-112098380D01*
X255268904Y-111098380D02*
X255745095Y-111098380D01*
X255792714Y-111574571D01*
X255745095Y-111526952D01*
X255649857Y-111479333D01*
X255411761Y-111479333D01*
X255316523Y-111526952D01*
X255268904Y-111574571D01*
X255221285Y-111669809D01*
X255221285Y-111907904D01*
X255268904Y-112003142D01*
X255316523Y-112050761D01*
X255411761Y-112098380D01*
X255649857Y-112098380D01*
X255745095Y-112050761D01*
X255792714Y-112003142D01*
X218649580Y-111900095D02*
X219459104Y-111900095D01*
X219554342Y-111947714D01*
X219601961Y-111995333D01*
X219649580Y-112090571D01*
X219649580Y-112281047D01*
X219601961Y-112376285D01*
X219554342Y-112423904D01*
X219459104Y-112471523D01*
X218649580Y-112471523D01*
X218744819Y-112900095D02*
X218697200Y-112947714D01*
X218649580Y-113042952D01*
X218649580Y-113281047D01*
X218697200Y-113376285D01*
X218744819Y-113423904D01*
X218840057Y-113471523D01*
X218935295Y-113471523D01*
X219078152Y-113423904D01*
X219649580Y-112852476D01*
X219649580Y-113471523D01*
X249747466Y-116568780D02*
X250080800Y-116092590D01*
X250318895Y-116568780D02*
X250318895Y-115568780D01*
X249937942Y-115568780D01*
X249842704Y-115616400D01*
X249795085Y-115664019D01*
X249747466Y-115759257D01*
X249747466Y-115902114D01*
X249795085Y-115997352D01*
X249842704Y-116044971D01*
X249937942Y-116092590D01*
X250318895Y-116092590D01*
X249176038Y-115997352D02*
X249271276Y-115949733D01*
X249318895Y-115902114D01*
X249366514Y-115806876D01*
X249366514Y-115759257D01*
X249318895Y-115664019D01*
X249271276Y-115616400D01*
X249176038Y-115568780D01*
X248985561Y-115568780D01*
X248890323Y-115616400D01*
X248842704Y-115664019D01*
X248795085Y-115759257D01*
X248795085Y-115806876D01*
X248842704Y-115902114D01*
X248890323Y-115949733D01*
X248985561Y-115997352D01*
X249176038Y-115997352D01*
X249271276Y-116044971D01*
X249318895Y-116092590D01*
X249366514Y-116187828D01*
X249366514Y-116378304D01*
X249318895Y-116473542D01*
X249271276Y-116521161D01*
X249176038Y-116568780D01*
X248985561Y-116568780D01*
X248890323Y-116521161D01*
X248842704Y-116473542D01*
X248795085Y-116378304D01*
X248795085Y-116187828D01*
X248842704Y-116092590D01*
X248890323Y-116044971D01*
X248985561Y-115997352D01*
X238749266Y-116721180D02*
X239082600Y-116244990D01*
X239320695Y-116721180D02*
X239320695Y-115721180D01*
X238939742Y-115721180D01*
X238844504Y-115768800D01*
X238796885Y-115816419D01*
X238749266Y-115911657D01*
X238749266Y-116054514D01*
X238796885Y-116149752D01*
X238844504Y-116197371D01*
X238939742Y-116244990D01*
X239320695Y-116244990D01*
X238415933Y-115721180D02*
X237749266Y-115721180D01*
X238177838Y-116721180D01*
X228132066Y-116822780D02*
X228465400Y-116346590D01*
X228703495Y-116822780D02*
X228703495Y-115822780D01*
X228322542Y-115822780D01*
X228227304Y-115870400D01*
X228179685Y-115918019D01*
X228132066Y-116013257D01*
X228132066Y-116156114D01*
X228179685Y-116251352D01*
X228227304Y-116298971D01*
X228322542Y-116346590D01*
X228703495Y-116346590D01*
X227274923Y-115822780D02*
X227465400Y-115822780D01*
X227560638Y-115870400D01*
X227608257Y-115918019D01*
X227703495Y-116060876D01*
X227751114Y-116251352D01*
X227751114Y-116632304D01*
X227703495Y-116727542D01*
X227655876Y-116775161D01*
X227560638Y-116822780D01*
X227370161Y-116822780D01*
X227274923Y-116775161D01*
X227227304Y-116727542D01*
X227179685Y-116632304D01*
X227179685Y-116394209D01*
X227227304Y-116298971D01*
X227274923Y-116251352D01*
X227370161Y-116203733D01*
X227560638Y-116203733D01*
X227655876Y-116251352D01*
X227703495Y-116298971D01*
X227751114Y-116394209D01*
X260771066Y-116771980D02*
X261104400Y-116295790D01*
X261342495Y-116771980D02*
X261342495Y-115771980D01*
X260961542Y-115771980D01*
X260866304Y-115819600D01*
X260818685Y-115867219D01*
X260771066Y-115962457D01*
X260771066Y-116105314D01*
X260818685Y-116200552D01*
X260866304Y-116248171D01*
X260961542Y-116295790D01*
X261342495Y-116295790D01*
X259866304Y-115771980D02*
X260342495Y-115771980D01*
X260390114Y-116248171D01*
X260342495Y-116200552D01*
X260247257Y-116152933D01*
X260009161Y-116152933D01*
X259913923Y-116200552D01*
X259866304Y-116248171D01*
X259818685Y-116343409D01*
X259818685Y-116581504D01*
X259866304Y-116676742D01*
X259913923Y-116724361D01*
X260009161Y-116771980D01*
X260247257Y-116771980D01*
X260342495Y-116724361D01*
X260390114Y-116676742D01*
X243061880Y-105637333D02*
X242585690Y-105304000D01*
X243061880Y-105065904D02*
X242061880Y-105065904D01*
X242061880Y-105446857D01*
X242109500Y-105542095D01*
X242157119Y-105589714D01*
X242252357Y-105637333D01*
X242395214Y-105637333D01*
X242490452Y-105589714D01*
X242538071Y-105542095D01*
X242585690Y-105446857D01*
X242585690Y-105065904D01*
X242395214Y-106494476D02*
X243061880Y-106494476D01*
X242014261Y-106256380D02*
X242728547Y-106018285D01*
X242728547Y-106637333D01*
X237981880Y-105637333D02*
X237505690Y-105304000D01*
X237981880Y-105065904D02*
X236981880Y-105065904D01*
X236981880Y-105446857D01*
X237029500Y-105542095D01*
X237077119Y-105589714D01*
X237172357Y-105637333D01*
X237315214Y-105637333D01*
X237410452Y-105589714D01*
X237458071Y-105542095D01*
X237505690Y-105446857D01*
X237505690Y-105065904D01*
X236981880Y-105970666D02*
X236981880Y-106589714D01*
X237362833Y-106256380D01*
X237362833Y-106399238D01*
X237410452Y-106494476D01*
X237458071Y-106542095D01*
X237553309Y-106589714D01*
X237791404Y-106589714D01*
X237886642Y-106542095D01*
X237934261Y-106494476D01*
X237981880Y-106399238D01*
X237981880Y-106113523D01*
X237934261Y-106018285D01*
X237886642Y-105970666D01*
X232901880Y-105637333D02*
X232425690Y-105304000D01*
X232901880Y-105065904D02*
X231901880Y-105065904D01*
X231901880Y-105446857D01*
X231949500Y-105542095D01*
X231997119Y-105589714D01*
X232092357Y-105637333D01*
X232235214Y-105637333D01*
X232330452Y-105589714D01*
X232378071Y-105542095D01*
X232425690Y-105446857D01*
X232425690Y-105065904D01*
X231997119Y-106018285D02*
X231949500Y-106065904D01*
X231901880Y-106161142D01*
X231901880Y-106399238D01*
X231949500Y-106494476D01*
X231997119Y-106542095D01*
X232092357Y-106589714D01*
X232187595Y-106589714D01*
X232330452Y-106542095D01*
X232901880Y-105970666D01*
X232901880Y-106589714D01*
X248141880Y-105637333D02*
X247665690Y-105304000D01*
X248141880Y-105065904D02*
X247141880Y-105065904D01*
X247141880Y-105446857D01*
X247189500Y-105542095D01*
X247237119Y-105589714D01*
X247332357Y-105637333D01*
X247475214Y-105637333D01*
X247570452Y-105589714D01*
X247618071Y-105542095D01*
X247665690Y-105446857D01*
X247665690Y-105065904D01*
X248141880Y-106589714D02*
X248141880Y-106018285D01*
X248141880Y-106304000D02*
X247141880Y-106304000D01*
X247284738Y-106208761D01*
X247379976Y-106113523D01*
X247427595Y-106018285D01*
X255289438Y-119026219D02*
X255384676Y-118978600D01*
X255479914Y-118883361D01*
X255622771Y-118740504D01*
X255718009Y-118692885D01*
X255813247Y-118692885D01*
X255765628Y-118930980D02*
X255860866Y-118883361D01*
X255956104Y-118788123D01*
X256003723Y-118597647D01*
X256003723Y-118264314D01*
X255956104Y-118073838D01*
X255860866Y-117978600D01*
X255765628Y-117930980D01*
X255575152Y-117930980D01*
X255479914Y-117978600D01*
X255384676Y-118073838D01*
X255337057Y-118264314D01*
X255337057Y-118597647D01*
X255384676Y-118788123D01*
X255479914Y-118883361D01*
X255575152Y-118930980D01*
X255765628Y-118930980D01*
X254384676Y-118930980D02*
X254956104Y-118930980D01*
X254670390Y-118930980D02*
X254670390Y-117930980D01*
X254765628Y-118073838D01*
X254860866Y-118169076D01*
X254956104Y-118216695D01*
X206318380Y-96874404D02*
X205318380Y-96874404D01*
X205318380Y-97255357D01*
X205366000Y-97350595D01*
X205413619Y-97398214D01*
X205508857Y-97445833D01*
X205651714Y-97445833D01*
X205746952Y-97398214D01*
X205794571Y-97350595D01*
X205842190Y-97255357D01*
X205842190Y-96874404D01*
X206318380Y-98398214D02*
X206318380Y-97826785D01*
X206318380Y-98112500D02*
X205318380Y-98112500D01*
X205461238Y-98017261D01*
X205556476Y-97922023D01*
X205604095Y-97826785D01*
X260250295Y-104038113D02*
X260250295Y-103038113D01*
X260012200Y-103038113D01*
X259869342Y-103085733D01*
X259774104Y-103180971D01*
X259726485Y-103276209D01*
X259678866Y-103466685D01*
X259678866Y-103609542D01*
X259726485Y-103800018D01*
X259774104Y-103895256D01*
X259869342Y-103990494D01*
X260012200Y-104038113D01*
X260250295Y-104038113D01*
X258821723Y-103371447D02*
X258821723Y-104038113D01*
X259059819Y-102990494D02*
X259297914Y-103704780D01*
X258678866Y-103704780D01*
X260250295Y-106061646D02*
X260250295Y-105061646D01*
X260012200Y-105061646D01*
X259869342Y-105109266D01*
X259774104Y-105204504D01*
X259726485Y-105299742D01*
X259678866Y-105490218D01*
X259678866Y-105633075D01*
X259726485Y-105823551D01*
X259774104Y-105918789D01*
X259869342Y-106014027D01*
X260012200Y-106061646D01*
X260250295Y-106061646D01*
X259345533Y-105061646D02*
X258726485Y-105061646D01*
X259059819Y-105442599D01*
X258916961Y-105442599D01*
X258821723Y-105490218D01*
X258774104Y-105537837D01*
X258726485Y-105633075D01*
X258726485Y-105871170D01*
X258774104Y-105966408D01*
X258821723Y-106014027D01*
X258916961Y-106061646D01*
X259202676Y-106061646D01*
X259297914Y-106014027D01*
X259345533Y-105966408D01*
X260250295Y-108085180D02*
X260250295Y-107085180D01*
X260012200Y-107085180D01*
X259869342Y-107132800D01*
X259774104Y-107228038D01*
X259726485Y-107323276D01*
X259678866Y-107513752D01*
X259678866Y-107656609D01*
X259726485Y-107847085D01*
X259774104Y-107942323D01*
X259869342Y-108037561D01*
X260012200Y-108085180D01*
X260250295Y-108085180D01*
X259297914Y-107180419D02*
X259250295Y-107132800D01*
X259155057Y-107085180D01*
X258916961Y-107085180D01*
X258821723Y-107132800D01*
X258774104Y-107180419D01*
X258726485Y-107275657D01*
X258726485Y-107370895D01*
X258774104Y-107513752D01*
X259345533Y-108085180D01*
X258726485Y-108085180D01*
X260250295Y-102014580D02*
X260250295Y-101014580D01*
X260012200Y-101014580D01*
X259869342Y-101062200D01*
X259774104Y-101157438D01*
X259726485Y-101252676D01*
X259678866Y-101443152D01*
X259678866Y-101586009D01*
X259726485Y-101776485D01*
X259774104Y-101871723D01*
X259869342Y-101966961D01*
X260012200Y-102014580D01*
X260250295Y-102014580D01*
X258726485Y-102014580D02*
X259297914Y-102014580D01*
X259012200Y-102014580D02*
X259012200Y-101014580D01*
X259107438Y-101157438D01*
X259202676Y-101252676D01*
X259297914Y-101300295D01*
M02*
