M48
; DRILL file {KiCad (5.1.4)-1} date 8/22/2020 7:18:42 PM
; FORMAT={-:-/ absolute / inch / decimal}
; #@! TF.CreationDate,2020-08-22T19:18:42-05:00
; #@! TF.GenerationSoftware,Kicad,Pcbnew,(5.1.4)-1
FMAT,2
INCH
T1C0.0217
T2C0.0236
T3C0.0315
T4C0.0335
T5C0.0350
T6C0.0394
T7C0.0618
T8C0.0315
T9C0.1063
T10C0.1280
%
G90
G05
T2
X8.138Y-4.1015
X8.148Y-4.1537
X8.1851Y-4.1761
X8.29Y-3.9595
X8.424Y-4.4295
X8.456Y-4.0675
X8.468Y-4.8095
X8.4722Y-4.7513
X8.49Y-4.4755
X8.5009Y-4.8389
X8.5101Y-4.9413
X8.5238Y-4.394
X8.574Y-4.6855
X8.5748Y-4.7895
X8.5933Y-4.8601
X8.5986Y-4.4647
X8.6137Y-4.1778
X8.6444Y-4.5379
X8.6517Y-4.8009
X8.698Y-4.1635
X8.754Y-4.6255
X9.024Y-4.1695
X9.1073Y-4.2916
X9.116Y-4.2275
X9.142Y-4.6735
X9.152Y-4.1675
X9.188Y-5.0575
X9.19Y-4.2715
X9.2276Y-5.0206
X9.2367Y-5.0629
X9.2485Y-4.9556
X9.2888Y-4.9397
X9.318Y-4.2515
X9.3429Y-4.9444
X9.3665Y-5.0321
X9.386Y-4.6775
X9.434Y-4.5555
X9.4377Y-5.0629
X9.492Y-4.1955
X9.664Y-5.1355
X9.696Y-4.2015
X9.708Y-4.9735
X9.738Y-5.1775
X9.754Y-4.1455
X9.756Y-5.1375
X9.774Y-4.4315
X9.7834Y-5.1825
X9.844Y-4.5595
X9.8859Y-5.2229
X9.9338Y-5.2778
X9.9745Y-5.2618
X10.05Y-5.2155
X10.222Y-4.0055
X10.222Y-4.0835
X10.222Y-4.1635
X10.222Y-4.2355
T3
X9.1298Y-4.473
X9.1298Y-4.773
X9.1298Y-4.973
X9.1298Y-5.173
X9.4298Y-4.473
X9.4298Y-4.773
X9.4298Y-4.973
X9.4298Y-5.173
X9.5582Y-4.473
X9.5582Y-4.773
X9.5582Y-4.973
X9.5582Y-5.173
X9.8582Y-4.473
X9.8582Y-4.773
X9.8582Y-4.973
X9.8582Y-5.173
X9.9865Y-4.473
X9.9865Y-4.773
X9.9865Y-4.973
X9.9865Y-5.173
X10.2865Y-4.473
X10.2865Y-4.773
X10.2865Y-4.973
X10.2865Y-5.173
X8.7015Y-4.473
X8.7015Y-4.773
X8.7015Y-4.973
X8.7015Y-5.173
X9.0015Y-4.473
X9.0015Y-4.773
X9.0015Y-4.973
X9.0015Y-5.173
X9.1165Y-4.048
X9.1165Y-4.348
X9.2165Y-4.048
X9.2165Y-4.348
X9.3165Y-4.048
X9.3165Y-4.348
X9.4165Y-4.048
X9.4165Y-4.348
X9.5165Y-4.048
X9.5165Y-4.348
X9.6165Y-4.048
X9.6165Y-4.348
X9.7165Y-4.048
X9.7165Y-4.348
X9.8165Y-4.048
X9.8165Y-4.348
T5
X9.0126Y-5.6205
X9.0528Y-5.6906
X9.0929Y-5.6205
X9.1331Y-5.6906
X9.1732Y-5.6205
X9.2134Y-5.6906
X9.2536Y-5.6205
X9.2937Y-5.6906
X9.7564Y-5.6205
X9.7965Y-5.6906
X9.8367Y-5.6205
X9.8768Y-5.6906
X9.917Y-5.6205
X9.9571Y-5.6906
X9.9973Y-5.6205
X10.0375Y-5.6906
X8.2689Y-5.6205
X8.309Y-5.6906
X8.3492Y-5.6205
X8.3893Y-5.6906
X8.4295Y-5.6205
X8.4696Y-5.6906
X8.5098Y-5.6205
X8.55Y-5.6906
T6
X7.968Y-4.5185
X7.968Y-4.6185
X7.968Y-4.7185
X7.968Y-4.8185
X7.968Y-4.9185
X7.968Y-5.0185
X8.214Y-3.793
X8.214Y-3.893
X8.314Y-3.793
X8.314Y-3.893
X8.414Y-3.793
X8.414Y-3.893
X8.514Y-3.793
X8.514Y-3.893
X8.614Y-3.793
X8.614Y-3.893
X8.714Y-3.793
X8.714Y-3.893
X8.814Y-3.793
X8.814Y-3.893
X8.914Y-3.793
X8.914Y-3.893
X9.014Y-3.793
X9.014Y-3.893
X9.114Y-3.793
X9.114Y-3.893
X9.214Y-3.793
X9.214Y-3.893
X9.314Y-3.793
X9.314Y-3.893
X9.414Y-3.793
X9.414Y-3.893
X9.514Y-3.793
X9.514Y-3.893
X9.614Y-3.793
X9.614Y-3.893
X9.714Y-3.793
X9.714Y-3.893
X9.814Y-3.793
X9.814Y-3.893
X9.914Y-3.793
X9.914Y-3.893
X10.014Y-3.793
X10.014Y-3.893
X10.114Y-3.793
X10.114Y-3.893
T7
X8.8327Y-5.6556
X9.4728Y-5.6556
X9.5764Y-5.6556
X10.2166Y-5.6556
X8.0889Y-5.6556
X8.7291Y-5.6556
T8
X8.0315Y-4.073
X8.0315Y-4.2699
T9
X8.0118Y-5.7677
X10.2953Y-3.8386
X8.0118Y-3.8386
X10.2953Y-5.7677
T10
X8.9028Y-5.5205
X9.4028Y-5.5205
X9.6465Y-5.5205
X10.1465Y-5.5205
X8.159Y-5.5205
X8.659Y-5.5205
T1
G00X7.936Y-4.0189
M15
G01X7.9105Y-4.0189
M16
G05
G00X7.936Y-4.324
M15
G01X7.9105Y-4.324
M16
G05
T4
G00X8.0837Y-4.0248
M15
G01X8.062Y-4.0248
M16
G05
G00X8.0837Y-4.3181
M15
G01X8.062Y-4.3181
M16
G05
T0
M30
