G04 #@! TF.GenerationSoftware,KiCad,Pcbnew,(5.1.4)-1*
G04 #@! TF.CreationDate,2020-09-12T21:49:09-05:00*
G04 #@! TF.ProjectId,NetworkBreaker,4e657477-6f72-46b4-9272-65616b65722e,rev?*
G04 #@! TF.SameCoordinates,Original*
G04 #@! TF.FileFunction,Legend,Bot*
G04 #@! TF.FilePolarity,Positive*
%FSLAX46Y46*%
G04 Gerber Fmt 4.6, Leading zero omitted, Abs format (unit mm)*
G04 Created by KiCad (PCBNEW (5.1.4)-1) date 2020-09-12 21:49:09*
%MOMM*%
%LPD*%
G04 APERTURE LIST*
%ADD10C,0.100000*%
%ADD11C,0.150000*%
%ADD12C,0.200000*%
%ADD13C,0.120000*%
G04 APERTURE END LIST*
D10*
X216859204Y-105430980D02*
X216059204Y-105430980D01*
X216859204Y-105773838D02*
X216440157Y-105773838D01*
X216363966Y-105735742D01*
X216325871Y-105659552D01*
X216325871Y-105545266D01*
X216363966Y-105469076D01*
X216402061Y-105430980D01*
X216325871Y-106040504D02*
X216325871Y-106345266D01*
X216059204Y-106154790D02*
X216744919Y-106154790D01*
X216821109Y-106192885D01*
X216859204Y-106269076D01*
X216859204Y-106345266D01*
X216325871Y-106497647D02*
X216325871Y-106802409D01*
X216059204Y-106611933D02*
X216744919Y-106611933D01*
X216821109Y-106650028D01*
X216859204Y-106726219D01*
X216859204Y-106802409D01*
X216325871Y-107069076D02*
X217125871Y-107069076D01*
X216363966Y-107069076D02*
X216325871Y-107145266D01*
X216325871Y-107297647D01*
X216363966Y-107373838D01*
X216402061Y-107411933D01*
X216478252Y-107450028D01*
X216706823Y-107450028D01*
X216783014Y-107411933D01*
X216821109Y-107373838D01*
X216859204Y-107297647D01*
X216859204Y-107145266D01*
X216821109Y-107069076D01*
X216821109Y-107754790D02*
X216859204Y-107830980D01*
X216859204Y-107983361D01*
X216821109Y-108059552D01*
X216744919Y-108097647D01*
X216706823Y-108097647D01*
X216630633Y-108059552D01*
X216592538Y-107983361D01*
X216592538Y-107869076D01*
X216554442Y-107792885D01*
X216478252Y-107754790D01*
X216440157Y-107754790D01*
X216363966Y-107792885D01*
X216325871Y-107869076D01*
X216325871Y-107983361D01*
X216363966Y-108059552D01*
X216783014Y-108440504D02*
X216821109Y-108478600D01*
X216859204Y-108440504D01*
X216821109Y-108402409D01*
X216783014Y-108440504D01*
X216859204Y-108440504D01*
X216363966Y-108440504D02*
X216402061Y-108478600D01*
X216440157Y-108440504D01*
X216402061Y-108402409D01*
X216363966Y-108440504D01*
X216440157Y-108440504D01*
X216021109Y-109392885D02*
X217049680Y-108707171D01*
X216021109Y-110230980D02*
X217049680Y-109545266D01*
X216325871Y-110840504D02*
X216973490Y-110840504D01*
X217049680Y-110802409D01*
X217087776Y-110764314D01*
X217125871Y-110688123D01*
X217125871Y-110573838D01*
X217087776Y-110497647D01*
X216821109Y-110840504D02*
X216859204Y-110764314D01*
X216859204Y-110611933D01*
X216821109Y-110535742D01*
X216783014Y-110497647D01*
X216706823Y-110459552D01*
X216478252Y-110459552D01*
X216402061Y-110497647D01*
X216363966Y-110535742D01*
X216325871Y-110611933D01*
X216325871Y-110764314D01*
X216363966Y-110840504D01*
X216859204Y-111221457D02*
X216325871Y-111221457D01*
X216059204Y-111221457D02*
X216097300Y-111183361D01*
X216135395Y-111221457D01*
X216097300Y-111259552D01*
X216059204Y-111221457D01*
X216135395Y-111221457D01*
X216325871Y-111488123D02*
X216325871Y-111792885D01*
X216059204Y-111602409D02*
X216744919Y-111602409D01*
X216821109Y-111640504D01*
X216859204Y-111716695D01*
X216859204Y-111792885D01*
X216859204Y-112059552D02*
X216059204Y-112059552D01*
X216859204Y-112402409D02*
X216440157Y-112402409D01*
X216363966Y-112364314D01*
X216325871Y-112288123D01*
X216325871Y-112173838D01*
X216363966Y-112097647D01*
X216402061Y-112059552D01*
X216325871Y-113126219D02*
X216859204Y-113126219D01*
X216325871Y-112783361D02*
X216744919Y-112783361D01*
X216821109Y-112821457D01*
X216859204Y-112897647D01*
X216859204Y-113011933D01*
X216821109Y-113088123D01*
X216783014Y-113126219D01*
X216859204Y-113507171D02*
X216059204Y-113507171D01*
X216363966Y-113507171D02*
X216325871Y-113583361D01*
X216325871Y-113735742D01*
X216363966Y-113811933D01*
X216402061Y-113850028D01*
X216478252Y-113888123D01*
X216706823Y-113888123D01*
X216783014Y-113850028D01*
X216821109Y-113811933D01*
X216859204Y-113735742D01*
X216859204Y-113583361D01*
X216821109Y-113507171D01*
X216783014Y-114230980D02*
X216821109Y-114269076D01*
X216859204Y-114230980D01*
X216821109Y-114192885D01*
X216783014Y-114230980D01*
X216859204Y-114230980D01*
X216821109Y-114954790D02*
X216859204Y-114878600D01*
X216859204Y-114726219D01*
X216821109Y-114650028D01*
X216783014Y-114611933D01*
X216706823Y-114573838D01*
X216478252Y-114573838D01*
X216402061Y-114611933D01*
X216363966Y-114650028D01*
X216325871Y-114726219D01*
X216325871Y-114878600D01*
X216363966Y-114954790D01*
X216859204Y-115411933D02*
X216821109Y-115335742D01*
X216783014Y-115297647D01*
X216706823Y-115259552D01*
X216478252Y-115259552D01*
X216402061Y-115297647D01*
X216363966Y-115335742D01*
X216325871Y-115411933D01*
X216325871Y-115526219D01*
X216363966Y-115602409D01*
X216402061Y-115640504D01*
X216478252Y-115678600D01*
X216706823Y-115678600D01*
X216783014Y-115640504D01*
X216821109Y-115602409D01*
X216859204Y-115526219D01*
X216859204Y-115411933D01*
X216859204Y-116021457D02*
X216325871Y-116021457D01*
X216402061Y-116021457D02*
X216363966Y-116059552D01*
X216325871Y-116135742D01*
X216325871Y-116250028D01*
X216363966Y-116326219D01*
X216440157Y-116364314D01*
X216859204Y-116364314D01*
X216440157Y-116364314D02*
X216363966Y-116402409D01*
X216325871Y-116478600D01*
X216325871Y-116592885D01*
X216363966Y-116669076D01*
X216440157Y-116707171D01*
X216859204Y-116707171D01*
X216021109Y-117659552D02*
X217049680Y-116973838D01*
X216859204Y-118269076D02*
X216440157Y-118269076D01*
X216363966Y-118230980D01*
X216325871Y-118154790D01*
X216325871Y-118002409D01*
X216363966Y-117926219D01*
X216821109Y-118269076D02*
X216859204Y-118192885D01*
X216859204Y-118002409D01*
X216821109Y-117926219D01*
X216744919Y-117888123D01*
X216668728Y-117888123D01*
X216592538Y-117926219D01*
X216554442Y-118002409D01*
X216554442Y-118192885D01*
X216516347Y-118269076D01*
X216859204Y-118650028D02*
X216059204Y-118650028D01*
X216554442Y-118726219D02*
X216859204Y-118954790D01*
X216325871Y-118954790D02*
X216630633Y-118650028D01*
X216325871Y-119640504D02*
X216859204Y-119640504D01*
X216325871Y-119297647D02*
X216744919Y-119297647D01*
X216821109Y-119335742D01*
X216859204Y-119411933D01*
X216859204Y-119526219D01*
X216821109Y-119602409D01*
X216783014Y-119640504D01*
X216859204Y-120021457D02*
X216059204Y-120021457D01*
X216554442Y-120097647D02*
X216859204Y-120326219D01*
X216325871Y-120326219D02*
X216630633Y-120021457D01*
X216821109Y-120973838D02*
X216859204Y-120897647D01*
X216859204Y-120745266D01*
X216821109Y-120669076D01*
X216744919Y-120630980D01*
X216440157Y-120630980D01*
X216363966Y-120669076D01*
X216325871Y-120745266D01*
X216325871Y-120897647D01*
X216363966Y-120973838D01*
X216440157Y-121011933D01*
X216516347Y-121011933D01*
X216592538Y-120630980D01*
X216859204Y-121354790D02*
X216325871Y-121354790D01*
X216478252Y-121354790D02*
X216402061Y-121392885D01*
X216363966Y-121430980D01*
X216325871Y-121507171D01*
X216325871Y-121583361D01*
X216021109Y-122421457D02*
X217049680Y-121735742D01*
X216859204Y-122688123D02*
X216059204Y-122688123D01*
X216859204Y-123145266D01*
X216059204Y-123145266D01*
X216821109Y-123830980D02*
X216859204Y-123754790D01*
X216859204Y-123602409D01*
X216821109Y-123526219D01*
X216744919Y-123488123D01*
X216440157Y-123488123D01*
X216363966Y-123526219D01*
X216325871Y-123602409D01*
X216325871Y-123754790D01*
X216363966Y-123830980D01*
X216440157Y-123869076D01*
X216516347Y-123869076D01*
X216592538Y-123488123D01*
X216325871Y-124097647D02*
X216325871Y-124402409D01*
X216059204Y-124211933D02*
X216744919Y-124211933D01*
X216821109Y-124250028D01*
X216859204Y-124326219D01*
X216859204Y-124402409D01*
X216325871Y-124592885D02*
X216859204Y-124745266D01*
X216478252Y-124897647D01*
X216859204Y-125050028D01*
X216325871Y-125202409D01*
X216859204Y-125621457D02*
X216821109Y-125545266D01*
X216783014Y-125507171D01*
X216706823Y-125469076D01*
X216478252Y-125469076D01*
X216402061Y-125507171D01*
X216363966Y-125545266D01*
X216325871Y-125621457D01*
X216325871Y-125735742D01*
X216363966Y-125811933D01*
X216402061Y-125850028D01*
X216478252Y-125888123D01*
X216706823Y-125888123D01*
X216783014Y-125850028D01*
X216821109Y-125811933D01*
X216859204Y-125735742D01*
X216859204Y-125621457D01*
X216859204Y-126230980D02*
X216325871Y-126230980D01*
X216478252Y-126230980D02*
X216402061Y-126269076D01*
X216363966Y-126307171D01*
X216325871Y-126383361D01*
X216325871Y-126459552D01*
X216859204Y-126726219D02*
X216059204Y-126726219D01*
X216554442Y-126802409D02*
X216859204Y-127030980D01*
X216325871Y-127030980D02*
X216630633Y-126726219D01*
X216440157Y-127640504D02*
X216478252Y-127754790D01*
X216516347Y-127792885D01*
X216592538Y-127830980D01*
X216706823Y-127830980D01*
X216783014Y-127792885D01*
X216821109Y-127754790D01*
X216859204Y-127678600D01*
X216859204Y-127373838D01*
X216059204Y-127373838D01*
X216059204Y-127640504D01*
X216097300Y-127716695D01*
X216135395Y-127754790D01*
X216211585Y-127792885D01*
X216287776Y-127792885D01*
X216363966Y-127754790D01*
X216402061Y-127716695D01*
X216440157Y-127640504D01*
X216440157Y-127373838D01*
X216859204Y-128173838D02*
X216325871Y-128173838D01*
X216478252Y-128173838D02*
X216402061Y-128211933D01*
X216363966Y-128250028D01*
X216325871Y-128326219D01*
X216325871Y-128402409D01*
X216821109Y-128973838D02*
X216859204Y-128897647D01*
X216859204Y-128745266D01*
X216821109Y-128669076D01*
X216744919Y-128630980D01*
X216440157Y-128630980D01*
X216363966Y-128669076D01*
X216325871Y-128745266D01*
X216325871Y-128897647D01*
X216363966Y-128973838D01*
X216440157Y-129011933D01*
X216516347Y-129011933D01*
X216592538Y-128630980D01*
X216859204Y-129697647D02*
X216440157Y-129697647D01*
X216363966Y-129659552D01*
X216325871Y-129583361D01*
X216325871Y-129430980D01*
X216363966Y-129354790D01*
X216821109Y-129697647D02*
X216859204Y-129621457D01*
X216859204Y-129430980D01*
X216821109Y-129354790D01*
X216744919Y-129316695D01*
X216668728Y-129316695D01*
X216592538Y-129354790D01*
X216554442Y-129430980D01*
X216554442Y-129621457D01*
X216516347Y-129697647D01*
X216859204Y-130078600D02*
X216059204Y-130078600D01*
X216554442Y-130154790D02*
X216859204Y-130383361D01*
X216325871Y-130383361D02*
X216630633Y-130078600D01*
X216821109Y-131030980D02*
X216859204Y-130954790D01*
X216859204Y-130802409D01*
X216821109Y-130726219D01*
X216744919Y-130688123D01*
X216440157Y-130688123D01*
X216363966Y-130726219D01*
X216325871Y-130802409D01*
X216325871Y-130954790D01*
X216363966Y-131030980D01*
X216440157Y-131069076D01*
X216516347Y-131069076D01*
X216592538Y-130688123D01*
X216859204Y-131411933D02*
X216325871Y-131411933D01*
X216478252Y-131411933D02*
X216402061Y-131450028D01*
X216363966Y-131488123D01*
X216325871Y-131564314D01*
X216325871Y-131640504D01*
D11*
X207240542Y-106438671D02*
X207288161Y-106391052D01*
X207335780Y-106248195D01*
X207335780Y-106152957D01*
X207288161Y-106010100D01*
X207192923Y-105914861D01*
X207097685Y-105867242D01*
X206907209Y-105819623D01*
X206764352Y-105819623D01*
X206573876Y-105867242D01*
X206478638Y-105914861D01*
X206383400Y-106010100D01*
X206335780Y-106152957D01*
X206335780Y-106248195D01*
X206383400Y-106391052D01*
X206431019Y-106438671D01*
X207335780Y-107010100D02*
X207288161Y-106914861D01*
X207240542Y-106867242D01*
X207145304Y-106819623D01*
X206859590Y-106819623D01*
X206764352Y-106867242D01*
X206716733Y-106914861D01*
X206669114Y-107010100D01*
X206669114Y-107152957D01*
X206716733Y-107248195D01*
X206764352Y-107295814D01*
X206859590Y-107343433D01*
X207145304Y-107343433D01*
X207240542Y-107295814D01*
X207288161Y-107248195D01*
X207335780Y-107152957D01*
X207335780Y-107010100D01*
X206669114Y-107772004D02*
X207669114Y-107772004D01*
X206716733Y-107772004D02*
X206669114Y-107867242D01*
X206669114Y-108057719D01*
X206716733Y-108152957D01*
X206764352Y-108200576D01*
X206859590Y-108248195D01*
X207145304Y-108248195D01*
X207240542Y-108200576D01*
X207288161Y-108152957D01*
X207335780Y-108057719D01*
X207335780Y-107867242D01*
X207288161Y-107772004D01*
X206669114Y-108581528D02*
X207335780Y-108819623D01*
X206669114Y-109057719D02*
X207335780Y-108819623D01*
X207573876Y-108724385D01*
X207621495Y-108676766D01*
X207669114Y-108581528D01*
X207335780Y-109438671D02*
X206669114Y-109438671D01*
X206859590Y-109438671D02*
X206764352Y-109486290D01*
X206716733Y-109533909D01*
X206669114Y-109629147D01*
X206669114Y-109724385D01*
X207335780Y-110057719D02*
X206669114Y-110057719D01*
X206335780Y-110057719D02*
X206383400Y-110010100D01*
X206431019Y-110057719D01*
X206383400Y-110105338D01*
X206335780Y-110057719D01*
X206431019Y-110057719D01*
X206669114Y-110962480D02*
X207478638Y-110962480D01*
X207573876Y-110914861D01*
X207621495Y-110867242D01*
X207669114Y-110772004D01*
X207669114Y-110629147D01*
X207621495Y-110533909D01*
X207288161Y-110962480D02*
X207335780Y-110867242D01*
X207335780Y-110676766D01*
X207288161Y-110581528D01*
X207240542Y-110533909D01*
X207145304Y-110486290D01*
X206859590Y-110486290D01*
X206764352Y-110533909D01*
X206716733Y-110581528D01*
X206669114Y-110676766D01*
X206669114Y-110867242D01*
X206716733Y-110962480D01*
X207335780Y-111438671D02*
X206335780Y-111438671D01*
X207335780Y-111867242D02*
X206811971Y-111867242D01*
X206716733Y-111819623D01*
X206669114Y-111724385D01*
X206669114Y-111581528D01*
X206716733Y-111486290D01*
X206764352Y-111438671D01*
X206669114Y-112200576D02*
X206669114Y-112581528D01*
X206335780Y-112343433D02*
X207192923Y-112343433D01*
X207288161Y-112391052D01*
X207335780Y-112486290D01*
X207335780Y-112581528D01*
X207716733Y-113962480D02*
X207669114Y-113914861D01*
X207526257Y-113819623D01*
X207431019Y-113772004D01*
X207288161Y-113724385D01*
X207050066Y-113676766D01*
X206859590Y-113676766D01*
X206621495Y-113724385D01*
X206478638Y-113772004D01*
X206383400Y-113819623D01*
X206240542Y-113914861D01*
X206192923Y-113962480D01*
X207240542Y-114914861D02*
X207288161Y-114867242D01*
X207335780Y-114724385D01*
X207335780Y-114629147D01*
X207288161Y-114486290D01*
X207192923Y-114391052D01*
X207097685Y-114343433D01*
X206907209Y-114295814D01*
X206764352Y-114295814D01*
X206573876Y-114343433D01*
X206478638Y-114391052D01*
X206383400Y-114486290D01*
X206335780Y-114629147D01*
X206335780Y-114724385D01*
X206383400Y-114867242D01*
X206431019Y-114914861D01*
X207716733Y-115248195D02*
X207669114Y-115295814D01*
X207526257Y-115391052D01*
X207431019Y-115438671D01*
X207288161Y-115486290D01*
X207050066Y-115533909D01*
X206859590Y-115533909D01*
X206621495Y-115486290D01*
X206478638Y-115438671D01*
X206383400Y-115391052D01*
X206240542Y-115295814D01*
X206192923Y-115248195D01*
X206431019Y-116724385D02*
X206383400Y-116772004D01*
X206335780Y-116867242D01*
X206335780Y-117105338D01*
X206383400Y-117200576D01*
X206431019Y-117248195D01*
X206526257Y-117295814D01*
X206621495Y-117295814D01*
X206764352Y-117248195D01*
X207335780Y-116676766D01*
X207335780Y-117295814D01*
X206335780Y-117914861D02*
X206335780Y-118010100D01*
X206383400Y-118105338D01*
X206431019Y-118152957D01*
X206526257Y-118200576D01*
X206716733Y-118248195D01*
X206954828Y-118248195D01*
X207145304Y-118200576D01*
X207240542Y-118152957D01*
X207288161Y-118105338D01*
X207335780Y-118010100D01*
X207335780Y-117914861D01*
X207288161Y-117819623D01*
X207240542Y-117772004D01*
X207145304Y-117724385D01*
X206954828Y-117676766D01*
X206716733Y-117676766D01*
X206526257Y-117724385D01*
X206431019Y-117772004D01*
X206383400Y-117819623D01*
X206335780Y-117914861D01*
X206431019Y-118629147D02*
X206383400Y-118676766D01*
X206335780Y-118772004D01*
X206335780Y-119010100D01*
X206383400Y-119105338D01*
X206431019Y-119152957D01*
X206526257Y-119200576D01*
X206621495Y-119200576D01*
X206764352Y-119152957D01*
X207335780Y-118581528D01*
X207335780Y-119200576D01*
X206335780Y-119819623D02*
X206335780Y-119914861D01*
X206383400Y-120010100D01*
X206431019Y-120057719D01*
X206526257Y-120105338D01*
X206716733Y-120152957D01*
X206954828Y-120152957D01*
X207145304Y-120105338D01*
X207240542Y-120057719D01*
X207288161Y-120010100D01*
X207335780Y-119914861D01*
X207335780Y-119819623D01*
X207288161Y-119724385D01*
X207240542Y-119676766D01*
X207145304Y-119629147D01*
X206954828Y-119581528D01*
X206716733Y-119581528D01*
X206526257Y-119629147D01*
X206431019Y-119676766D01*
X206383400Y-119724385D01*
X206335780Y-119819623D01*
X207050066Y-121295814D02*
X207050066Y-121772004D01*
X207335780Y-121200576D02*
X206335780Y-121533909D01*
X207335780Y-121867242D01*
X207240542Y-122200576D02*
X207288161Y-122248195D01*
X207335780Y-122200576D01*
X207288161Y-122152957D01*
X207240542Y-122200576D01*
X207335780Y-122200576D01*
X207335780Y-123438671D02*
X206335780Y-123438671D01*
X207335780Y-124010100D02*
X206764352Y-123581528D01*
X206335780Y-124010100D02*
X206907209Y-123438671D01*
X206669114Y-124867242D02*
X207335780Y-124867242D01*
X206669114Y-124438671D02*
X207192923Y-124438671D01*
X207288161Y-124486290D01*
X207335780Y-124581528D01*
X207335780Y-124724385D01*
X207288161Y-124819623D01*
X207240542Y-124867242D01*
X207335780Y-125343433D02*
X206335780Y-125343433D01*
X206954828Y-125438671D02*
X207335780Y-125724385D01*
X206669114Y-125724385D02*
X207050066Y-125343433D01*
X207288161Y-126533909D02*
X207335780Y-126438671D01*
X207335780Y-126248195D01*
X207288161Y-126152957D01*
X207192923Y-126105338D01*
X206811971Y-126105338D01*
X206716733Y-126152957D01*
X206669114Y-126248195D01*
X206669114Y-126438671D01*
X206716733Y-126533909D01*
X206811971Y-126581528D01*
X206907209Y-126581528D01*
X207002447Y-126105338D01*
X207335780Y-127010100D02*
X206669114Y-127010100D01*
X206859590Y-127010100D02*
X206764352Y-127057719D01*
X206716733Y-127105338D01*
X206669114Y-127200576D01*
X206669114Y-127295814D01*
D12*
X205377571Y-106761325D02*
X203877571Y-106948825D01*
X205377571Y-107618467D01*
X203877571Y-107805967D01*
X205306142Y-108913110D02*
X205377571Y-108761325D01*
X205377571Y-108475610D01*
X205306142Y-108341682D01*
X205163285Y-108288110D01*
X204591857Y-108359539D01*
X204449000Y-108448825D01*
X204377571Y-108600610D01*
X204377571Y-108886325D01*
X204449000Y-109020253D01*
X204591857Y-109073825D01*
X204734714Y-109055967D01*
X204877571Y-108323825D01*
X204377571Y-109529182D02*
X204377571Y-110100610D01*
X203877571Y-109805967D02*
X205163285Y-109645253D01*
X205306142Y-109698825D01*
X205377571Y-109832753D01*
X205377571Y-109975610D01*
X204377571Y-110457753D02*
X205377571Y-110618467D01*
X204663285Y-110993467D01*
X205377571Y-111189896D01*
X204377571Y-111600610D01*
X205377571Y-112261325D02*
X205306142Y-112127396D01*
X205234714Y-112064896D01*
X205091857Y-112011325D01*
X204663285Y-112064896D01*
X204520428Y-112154182D01*
X204449000Y-112234539D01*
X204377571Y-112386325D01*
X204377571Y-112600610D01*
X204449000Y-112734539D01*
X204520428Y-112797039D01*
X204663285Y-112850610D01*
X205091857Y-112797039D01*
X205234714Y-112707753D01*
X205306142Y-112627396D01*
X205377571Y-112475610D01*
X205377571Y-112261325D01*
X205377571Y-113404182D02*
X204377571Y-113529182D01*
X204663285Y-113493467D02*
X204520428Y-113582753D01*
X204449000Y-113663110D01*
X204377571Y-113814896D01*
X204377571Y-113957753D01*
X205377571Y-114332753D02*
X203877571Y-114520253D01*
X204806142Y-114547039D02*
X205377571Y-114904182D01*
X204377571Y-115029182D02*
X204949000Y-114386325D01*
X205306142Y-116627396D02*
X205377571Y-116832753D01*
X205377571Y-117189896D01*
X205306142Y-117341682D01*
X205234714Y-117422039D01*
X205091857Y-117511325D01*
X204949000Y-117529182D01*
X204806142Y-117475610D01*
X204734714Y-117413110D01*
X204663285Y-117279182D01*
X204591857Y-117002396D01*
X204520428Y-116868467D01*
X204449000Y-116805967D01*
X204306142Y-116752396D01*
X204163285Y-116770253D01*
X204020428Y-116859539D01*
X203949000Y-116939896D01*
X203877571Y-117091682D01*
X203877571Y-117448825D01*
X203949000Y-117654182D01*
X204377571Y-118100610D02*
X205377571Y-118261325D01*
X204663285Y-118636325D01*
X205377571Y-118832753D01*
X204377571Y-119243467D01*
X205377571Y-119689896D02*
X204377571Y-119814896D01*
X203877571Y-119877396D02*
X203949000Y-119797039D01*
X204020428Y-119859539D01*
X203949000Y-119939896D01*
X203877571Y-119877396D01*
X204020428Y-119859539D01*
X204377571Y-120314896D02*
X204377571Y-120886325D01*
X203877571Y-120591682D02*
X205163285Y-120430967D01*
X205306142Y-120484539D01*
X205377571Y-120618467D01*
X205377571Y-120761325D01*
X205306142Y-121913110D02*
X205377571Y-121761325D01*
X205377571Y-121475610D01*
X205306142Y-121341682D01*
X205234714Y-121279182D01*
X205091857Y-121225610D01*
X204663285Y-121279182D01*
X204520428Y-121368467D01*
X204449000Y-121448825D01*
X204377571Y-121600610D01*
X204377571Y-121886325D01*
X204449000Y-122020253D01*
X205377571Y-122547039D02*
X203877571Y-122734539D01*
X205377571Y-123189896D02*
X204591857Y-123288110D01*
X204449000Y-123234539D01*
X204377571Y-123100610D01*
X204377571Y-122886325D01*
X204449000Y-122734539D01*
X204520428Y-122654182D01*
X205306142Y-124484539D02*
X205377571Y-124332753D01*
X205377571Y-124047039D01*
X205306142Y-123913110D01*
X205163285Y-123859539D01*
X204591857Y-123930967D01*
X204449000Y-124020253D01*
X204377571Y-124172039D01*
X204377571Y-124457753D01*
X204449000Y-124591682D01*
X204591857Y-124645253D01*
X204734714Y-124627396D01*
X204877571Y-123895253D01*
X205377571Y-125189896D02*
X204377571Y-125314896D01*
X204663285Y-125279182D02*
X204520428Y-125368467D01*
X204449000Y-125448825D01*
X204377571Y-125600610D01*
X204377571Y-125743467D01*
D11*
X215205000Y-97100000D02*
X209230000Y-97100000D01*
X213630000Y-102625000D02*
X209230000Y-102625000D01*
D13*
X219657500Y-69561700D02*
X219657500Y-67141700D01*
X216537500Y-69561700D02*
X216537500Y-67141700D01*
X219607500Y-70941700D02*
X219607500Y-69561700D01*
X219657500Y-69561700D02*
X219607500Y-69561700D01*
X219657500Y-67141700D02*
X219607500Y-67141700D01*
X216587500Y-69561700D02*
X216537500Y-69561700D01*
X216587500Y-67141700D02*
X216537500Y-67141700D01*
X206659378Y-79050532D02*
X206142222Y-79050532D01*
X206659378Y-80470532D02*
X206142222Y-80470532D01*
X206659378Y-77090500D02*
X206142222Y-77090500D01*
X206659378Y-78510500D02*
X206142222Y-78510500D01*
X204757052Y-71985100D02*
X204234548Y-71985100D01*
X204757052Y-73405100D02*
X204234548Y-73405100D01*
X204237222Y-71335000D02*
X204754378Y-71335000D01*
X204237222Y-69915000D02*
X204754378Y-69915000D01*
X204703578Y-67870300D02*
X204186422Y-67870300D01*
X204703578Y-69290300D02*
X204186422Y-69290300D01*
X202595378Y-79050532D02*
X202078222Y-79050532D01*
X202595378Y-80470532D02*
X202078222Y-80470532D01*
X202595378Y-77090500D02*
X202078222Y-77090500D01*
X202595378Y-78510500D02*
X202078222Y-78510500D01*
X208568100Y-71963664D02*
X208568100Y-70759536D01*
X206748100Y-71963664D02*
X206748100Y-70759536D01*
X204408100Y-85187322D02*
X204408100Y-85704478D01*
X205828100Y-85187322D02*
X205828100Y-85704478D01*
D11*
X212191904Y-95802380D02*
X212191904Y-96611904D01*
X212144285Y-96707142D01*
X212096666Y-96754761D01*
X212001428Y-96802380D01*
X211810952Y-96802380D01*
X211715714Y-96754761D01*
X211668095Y-96707142D01*
X211620476Y-96611904D01*
X211620476Y-95802380D01*
X210620476Y-96802380D02*
X211191904Y-96802380D01*
X210906190Y-96802380D02*
X210906190Y-95802380D01*
X211001428Y-95945238D01*
X211096666Y-96040476D01*
X211191904Y-96088095D01*
X221205119Y-68685033D02*
X220490833Y-68685033D01*
X220347976Y-68732652D01*
X220252738Y-68827890D01*
X220205119Y-68970747D01*
X220205119Y-69065985D01*
X221205119Y-67732652D02*
X221205119Y-68208842D01*
X220728928Y-68256461D01*
X220776547Y-68208842D01*
X220824166Y-68113604D01*
X220824166Y-67875509D01*
X220776547Y-67780271D01*
X220728928Y-67732652D01*
X220633690Y-67685033D01*
X220395595Y-67685033D01*
X220300357Y-67732652D01*
X220252738Y-67780271D01*
X220205119Y-67875509D01*
X220205119Y-68113604D01*
X220252738Y-68208842D01*
X220300357Y-68256461D01*
X209793266Y-80162112D02*
X210126600Y-79685922D01*
X210364695Y-80162112D02*
X210364695Y-79162112D01*
X209983742Y-79162112D01*
X209888504Y-79209732D01*
X209840885Y-79257351D01*
X209793266Y-79352589D01*
X209793266Y-79495446D01*
X209840885Y-79590684D01*
X209888504Y-79638303D01*
X209983742Y-79685922D01*
X210364695Y-79685922D01*
X208888504Y-79162112D02*
X209364695Y-79162112D01*
X209412314Y-79638303D01*
X209364695Y-79590684D01*
X209269457Y-79543065D01*
X209031361Y-79543065D01*
X208936123Y-79590684D01*
X208888504Y-79638303D01*
X208840885Y-79733541D01*
X208840885Y-79971636D01*
X208888504Y-80066874D01*
X208936123Y-80114493D01*
X209031361Y-80162112D01*
X209269457Y-80162112D01*
X209364695Y-80114493D01*
X209412314Y-80066874D01*
X203925866Y-78278280D02*
X204259200Y-77802090D01*
X204497295Y-78278280D02*
X204497295Y-77278280D01*
X204116342Y-77278280D01*
X204021104Y-77325900D01*
X203973485Y-77373519D01*
X203925866Y-77468757D01*
X203925866Y-77611614D01*
X203973485Y-77706852D01*
X204021104Y-77754471D01*
X204116342Y-77802090D01*
X204497295Y-77802090D01*
X203068723Y-77611614D02*
X203068723Y-78278280D01*
X203306819Y-77230661D02*
X203544914Y-77944947D01*
X202925866Y-77944947D01*
X205329133Y-70973671D02*
X205662466Y-70973671D01*
X205662466Y-71497480D02*
X205662466Y-70497480D01*
X205186276Y-70497480D01*
X204471990Y-70973671D02*
X204329133Y-71021290D01*
X204281514Y-71068909D01*
X204233895Y-71164147D01*
X204233895Y-71307004D01*
X204281514Y-71402242D01*
X204329133Y-71449861D01*
X204424371Y-71497480D01*
X204805323Y-71497480D01*
X204805323Y-70497480D01*
X204471990Y-70497480D01*
X204376752Y-70545100D01*
X204329133Y-70592719D01*
X204281514Y-70687957D01*
X204281514Y-70783195D01*
X204329133Y-70878433D01*
X204376752Y-70926052D01*
X204471990Y-70973671D01*
X204805323Y-70973671D01*
X203281514Y-71497480D02*
X203852942Y-71497480D01*
X203567228Y-71497480D02*
X203567228Y-70497480D01*
X203662466Y-70640338D01*
X203757704Y-70735576D01*
X203852942Y-70783195D01*
X204916466Y-72506142D02*
X204964085Y-72553761D01*
X205106942Y-72601380D01*
X205202180Y-72601380D01*
X205345038Y-72553761D01*
X205440276Y-72458523D01*
X205487895Y-72363285D01*
X205535514Y-72172809D01*
X205535514Y-72029952D01*
X205487895Y-71839476D01*
X205440276Y-71744238D01*
X205345038Y-71649000D01*
X205202180Y-71601380D01*
X205106942Y-71601380D01*
X204964085Y-71649000D01*
X204916466Y-71696619D01*
X204011704Y-71601380D02*
X204487895Y-71601380D01*
X204535514Y-72077571D01*
X204487895Y-72029952D01*
X204392657Y-71982333D01*
X204154561Y-71982333D01*
X204059323Y-72029952D01*
X204011704Y-72077571D01*
X203964085Y-72172809D01*
X203964085Y-72410904D01*
X204011704Y-72506142D01*
X204059323Y-72553761D01*
X204154561Y-72601380D01*
X204392657Y-72601380D01*
X204487895Y-72553761D01*
X204535514Y-72506142D01*
X204611666Y-67287442D02*
X204659285Y-67335061D01*
X204802142Y-67382680D01*
X204897380Y-67382680D01*
X205040238Y-67335061D01*
X205135476Y-67239823D01*
X205183095Y-67144585D01*
X205230714Y-66954109D01*
X205230714Y-66811252D01*
X205183095Y-66620776D01*
X205135476Y-66525538D01*
X205040238Y-66430300D01*
X204897380Y-66382680D01*
X204802142Y-66382680D01*
X204659285Y-66430300D01*
X204611666Y-66477919D01*
X203754523Y-66382680D02*
X203945000Y-66382680D01*
X204040238Y-66430300D01*
X204087857Y-66477919D01*
X204183095Y-66620776D01*
X204230714Y-66811252D01*
X204230714Y-67192204D01*
X204183095Y-67287442D01*
X204135476Y-67335061D01*
X204040238Y-67382680D01*
X203849761Y-67382680D01*
X203754523Y-67335061D01*
X203706904Y-67287442D01*
X203659285Y-67192204D01*
X203659285Y-66954109D01*
X203706904Y-66858871D01*
X203754523Y-66811252D01*
X203849761Y-66763633D01*
X204040238Y-66763633D01*
X204135476Y-66811252D01*
X204183095Y-66858871D01*
X204230714Y-66954109D01*
X199404666Y-80092274D02*
X199452285Y-80139893D01*
X199595142Y-80187512D01*
X199690380Y-80187512D01*
X199833238Y-80139893D01*
X199928476Y-80044655D01*
X199976095Y-79949417D01*
X200023714Y-79758941D01*
X200023714Y-79616084D01*
X199976095Y-79425608D01*
X199928476Y-79330370D01*
X199833238Y-79235132D01*
X199690380Y-79187512D01*
X199595142Y-79187512D01*
X199452285Y-79235132D01*
X199404666Y-79282751D01*
X198547523Y-79520846D02*
X198547523Y-80187512D01*
X198785619Y-79139893D02*
X199023714Y-79854179D01*
X198404666Y-79854179D01*
X205145066Y-78259242D02*
X205192685Y-78306861D01*
X205335542Y-78354480D01*
X205430780Y-78354480D01*
X205573638Y-78306861D01*
X205668876Y-78211623D01*
X205716495Y-78116385D01*
X205764114Y-77925909D01*
X205764114Y-77783052D01*
X205716495Y-77592576D01*
X205668876Y-77497338D01*
X205573638Y-77402100D01*
X205430780Y-77354480D01*
X205335542Y-77354480D01*
X205192685Y-77402100D01*
X205145066Y-77449719D01*
X204811733Y-77354480D02*
X204192685Y-77354480D01*
X204526019Y-77735433D01*
X204383161Y-77735433D01*
X204287923Y-77783052D01*
X204240304Y-77830671D01*
X204192685Y-77925909D01*
X204192685Y-78164004D01*
X204240304Y-78259242D01*
X204287923Y-78306861D01*
X204383161Y-78354480D01*
X204668876Y-78354480D01*
X204764114Y-78306861D01*
X204811733Y-78259242D01*
X208040642Y-74649333D02*
X208088261Y-74601714D01*
X208135880Y-74458857D01*
X208135880Y-74363619D01*
X208088261Y-74220761D01*
X207993023Y-74125523D01*
X207897785Y-74077904D01*
X207707309Y-74030285D01*
X207564452Y-74030285D01*
X207373976Y-74077904D01*
X207278738Y-74125523D01*
X207183500Y-74220761D01*
X207135880Y-74363619D01*
X207135880Y-74458857D01*
X207183500Y-74601714D01*
X207231119Y-74649333D01*
X207231119Y-75030285D02*
X207183500Y-75077904D01*
X207135880Y-75173142D01*
X207135880Y-75411238D01*
X207183500Y-75506476D01*
X207231119Y-75554095D01*
X207326357Y-75601714D01*
X207421595Y-75601714D01*
X207564452Y-75554095D01*
X208135880Y-74982666D01*
X208135880Y-75601714D01*
X205475242Y-82434433D02*
X205522861Y-82386814D01*
X205570480Y-82243957D01*
X205570480Y-82148719D01*
X205522861Y-82005861D01*
X205427623Y-81910623D01*
X205332385Y-81863004D01*
X205141909Y-81815385D01*
X204999052Y-81815385D01*
X204808576Y-81863004D01*
X204713338Y-81910623D01*
X204618100Y-82005861D01*
X204570480Y-82148719D01*
X204570480Y-82243957D01*
X204618100Y-82386814D01*
X204665719Y-82434433D01*
X205570480Y-83386814D02*
X205570480Y-82815385D01*
X205570480Y-83101100D02*
X204570480Y-83101100D01*
X204713338Y-83005861D01*
X204808576Y-82910623D01*
X204856195Y-82815385D01*
M02*
