G04 #@! TF.GenerationSoftware,KiCad,Pcbnew,(5.1.6-0-10_14)*
G04 #@! TF.CreationDate,2020-09-12T18:40:15-05:00*
G04 #@! TF.ProjectId,NetworkBreaker,4e657477-6f72-46b4-9272-65616b65722e,rev?*
G04 #@! TF.SameCoordinates,Original*
G04 #@! TF.FileFunction,Soldermask,Bot*
G04 #@! TF.FilePolarity,Negative*
%FSLAX46Y46*%
G04 Gerber Fmt 4.6, Leading zero omitted, Abs format (unit mm)*
G04 Created by KiCad (PCBNEW (5.1.6-0-10_14)) date 2020-09-12 18:40:15*
%MOMM*%
%LPD*%
G01*
G04 APERTURE LIST*
%ADD10R,0.500000X2.000000*%
%ADD11O,0.800000X0.800000*%
%ADD12O,1.800000X1.150000*%
%ADD13O,2.000000X1.450000*%
%ADD14C,2.000000*%
%ADD15C,3.250000*%
%ADD16C,1.500000*%
%ADD17R,1.500000X1.500000*%
%ADD18C,1.600000*%
%ADD19R,1.800000X1.600000*%
G04 APERTURE END LIST*
G36*
G01*
X209132200Y-97501000D02*
X209132200Y-97701000D01*
G75*
G02*
X209032200Y-97801000I-100000J0D01*
G01*
X207757200Y-97801000D01*
G75*
G02*
X207657200Y-97701000I0J100000D01*
G01*
X207657200Y-97501000D01*
G75*
G02*
X207757200Y-97401000I100000J0D01*
G01*
X209032200Y-97401000D01*
G75*
G02*
X209132200Y-97501000I0J-100000D01*
G01*
G37*
G36*
G01*
X209132200Y-98151000D02*
X209132200Y-98351000D01*
G75*
G02*
X209032200Y-98451000I-100000J0D01*
G01*
X207757200Y-98451000D01*
G75*
G02*
X207657200Y-98351000I0J100000D01*
G01*
X207657200Y-98151000D01*
G75*
G02*
X207757200Y-98051000I100000J0D01*
G01*
X209032200Y-98051000D01*
G75*
G02*
X209132200Y-98151000I0J-100000D01*
G01*
G37*
G36*
G01*
X209132200Y-98801000D02*
X209132200Y-99001000D01*
G75*
G02*
X209032200Y-99101000I-100000J0D01*
G01*
X207757200Y-99101000D01*
G75*
G02*
X207657200Y-99001000I0J100000D01*
G01*
X207657200Y-98801000D01*
G75*
G02*
X207757200Y-98701000I100000J0D01*
G01*
X209032200Y-98701000D01*
G75*
G02*
X209132200Y-98801000I0J-100000D01*
G01*
G37*
G36*
G01*
X209132200Y-99451000D02*
X209132200Y-99651000D01*
G75*
G02*
X209032200Y-99751000I-100000J0D01*
G01*
X207757200Y-99751000D01*
G75*
G02*
X207657200Y-99651000I0J100000D01*
G01*
X207657200Y-99451000D01*
G75*
G02*
X207757200Y-99351000I100000J0D01*
G01*
X209032200Y-99351000D01*
G75*
G02*
X209132200Y-99451000I0J-100000D01*
G01*
G37*
G36*
G01*
X209132200Y-100101000D02*
X209132200Y-100301000D01*
G75*
G02*
X209032200Y-100401000I-100000J0D01*
G01*
X207757200Y-100401000D01*
G75*
G02*
X207657200Y-100301000I0J100000D01*
G01*
X207657200Y-100101000D01*
G75*
G02*
X207757200Y-100001000I100000J0D01*
G01*
X209032200Y-100001000D01*
G75*
G02*
X209132200Y-100101000I0J-100000D01*
G01*
G37*
G36*
G01*
X209132200Y-100751000D02*
X209132200Y-100951000D01*
G75*
G02*
X209032200Y-101051000I-100000J0D01*
G01*
X207757200Y-101051000D01*
G75*
G02*
X207657200Y-100951000I0J100000D01*
G01*
X207657200Y-100751000D01*
G75*
G02*
X207757200Y-100651000I100000J0D01*
G01*
X209032200Y-100651000D01*
G75*
G02*
X209132200Y-100751000I0J-100000D01*
G01*
G37*
G36*
G01*
X209132200Y-101401000D02*
X209132200Y-101601000D01*
G75*
G02*
X209032200Y-101701000I-100000J0D01*
G01*
X207757200Y-101701000D01*
G75*
G02*
X207657200Y-101601000I0J100000D01*
G01*
X207657200Y-101401000D01*
G75*
G02*
X207757200Y-101301000I100000J0D01*
G01*
X209032200Y-101301000D01*
G75*
G02*
X209132200Y-101401000I0J-100000D01*
G01*
G37*
G36*
G01*
X209132200Y-102051000D02*
X209132200Y-102251000D01*
G75*
G02*
X209032200Y-102351000I-100000J0D01*
G01*
X207757200Y-102351000D01*
G75*
G02*
X207657200Y-102251000I0J100000D01*
G01*
X207657200Y-102051000D01*
G75*
G02*
X207757200Y-101951000I100000J0D01*
G01*
X209032200Y-101951000D01*
G75*
G02*
X209132200Y-102051000I0J-100000D01*
G01*
G37*
G36*
G01*
X214857200Y-102051000D02*
X214857200Y-102251000D01*
G75*
G02*
X214757200Y-102351000I-100000J0D01*
G01*
X213482200Y-102351000D01*
G75*
G02*
X213382200Y-102251000I0J100000D01*
G01*
X213382200Y-102051000D01*
G75*
G02*
X213482200Y-101951000I100000J0D01*
G01*
X214757200Y-101951000D01*
G75*
G02*
X214857200Y-102051000I0J-100000D01*
G01*
G37*
G36*
G01*
X214857200Y-101401000D02*
X214857200Y-101601000D01*
G75*
G02*
X214757200Y-101701000I-100000J0D01*
G01*
X213482200Y-101701000D01*
G75*
G02*
X213382200Y-101601000I0J100000D01*
G01*
X213382200Y-101401000D01*
G75*
G02*
X213482200Y-101301000I100000J0D01*
G01*
X214757200Y-101301000D01*
G75*
G02*
X214857200Y-101401000I0J-100000D01*
G01*
G37*
G36*
G01*
X214857200Y-100751000D02*
X214857200Y-100951000D01*
G75*
G02*
X214757200Y-101051000I-100000J0D01*
G01*
X213482200Y-101051000D01*
G75*
G02*
X213382200Y-100951000I0J100000D01*
G01*
X213382200Y-100751000D01*
G75*
G02*
X213482200Y-100651000I100000J0D01*
G01*
X214757200Y-100651000D01*
G75*
G02*
X214857200Y-100751000I0J-100000D01*
G01*
G37*
G36*
G01*
X214857200Y-100101000D02*
X214857200Y-100301000D01*
G75*
G02*
X214757200Y-100401000I-100000J0D01*
G01*
X213482200Y-100401000D01*
G75*
G02*
X213382200Y-100301000I0J100000D01*
G01*
X213382200Y-100101000D01*
G75*
G02*
X213482200Y-100001000I100000J0D01*
G01*
X214757200Y-100001000D01*
G75*
G02*
X214857200Y-100101000I0J-100000D01*
G01*
G37*
G36*
G01*
X214857200Y-99451000D02*
X214857200Y-99651000D01*
G75*
G02*
X214757200Y-99751000I-100000J0D01*
G01*
X213482200Y-99751000D01*
G75*
G02*
X213382200Y-99651000I0J100000D01*
G01*
X213382200Y-99451000D01*
G75*
G02*
X213482200Y-99351000I100000J0D01*
G01*
X214757200Y-99351000D01*
G75*
G02*
X214857200Y-99451000I0J-100000D01*
G01*
G37*
G36*
G01*
X214857200Y-98801000D02*
X214857200Y-99001000D01*
G75*
G02*
X214757200Y-99101000I-100000J0D01*
G01*
X213482200Y-99101000D01*
G75*
G02*
X213382200Y-99001000I0J100000D01*
G01*
X213382200Y-98801000D01*
G75*
G02*
X213482200Y-98701000I100000J0D01*
G01*
X214757200Y-98701000D01*
G75*
G02*
X214857200Y-98801000I0J-100000D01*
G01*
G37*
G36*
G01*
X214857200Y-98151000D02*
X214857200Y-98351000D01*
G75*
G02*
X214757200Y-98451000I-100000J0D01*
G01*
X213482200Y-98451000D01*
G75*
G02*
X213382200Y-98351000I0J100000D01*
G01*
X213382200Y-98151000D01*
G75*
G02*
X213482200Y-98051000I100000J0D01*
G01*
X214757200Y-98051000D01*
G75*
G02*
X214857200Y-98151000I0J-100000D01*
G01*
G37*
G36*
G01*
X214857200Y-97501000D02*
X214857200Y-97701000D01*
G75*
G02*
X214757200Y-97801000I-100000J0D01*
G01*
X213482200Y-97801000D01*
G75*
G02*
X213382200Y-97701000I0J100000D01*
G01*
X213382200Y-97501000D01*
G75*
G02*
X213482200Y-97401000I100000J0D01*
G01*
X214757200Y-97401000D01*
G75*
G02*
X214857200Y-97501000I0J-100000D01*
G01*
G37*
D10*
X217097500Y-66701700D03*
X217097500Y-70001700D03*
X218097500Y-66701700D03*
X218097500Y-70001700D03*
X219097500Y-66701700D03*
X219097500Y-70001700D03*
G36*
G01*
X205950800Y-79304282D02*
X205950800Y-80216782D01*
G75*
G02*
X205707050Y-80460532I-243750J0D01*
G01*
X205219550Y-80460532D01*
G75*
G02*
X204975800Y-80216782I0J243750D01*
G01*
X204975800Y-79304282D01*
G75*
G02*
X205219550Y-79060532I243750J0D01*
G01*
X205707050Y-79060532D01*
G75*
G02*
X205950800Y-79304282I0J-243750D01*
G01*
G37*
G36*
G01*
X207825800Y-79304282D02*
X207825800Y-80216782D01*
G75*
G02*
X207582050Y-80460532I-243750J0D01*
G01*
X207094550Y-80460532D01*
G75*
G02*
X206850800Y-80216782I0J243750D01*
G01*
X206850800Y-79304282D01*
G75*
G02*
X207094550Y-79060532I243750J0D01*
G01*
X207582050Y-79060532D01*
G75*
G02*
X207825800Y-79304282I0J-243750D01*
G01*
G37*
G36*
G01*
X205950800Y-77344250D02*
X205950800Y-78256750D01*
G75*
G02*
X205707050Y-78500500I-243750J0D01*
G01*
X205219550Y-78500500D01*
G75*
G02*
X204975800Y-78256750I0J243750D01*
G01*
X204975800Y-77344250D01*
G75*
G02*
X205219550Y-77100500I243750J0D01*
G01*
X205707050Y-77100500D01*
G75*
G02*
X205950800Y-77344250I0J-243750D01*
G01*
G37*
G36*
G01*
X207825800Y-77344250D02*
X207825800Y-78256750D01*
G75*
G02*
X207582050Y-78500500I-243750J0D01*
G01*
X207094550Y-78500500D01*
G75*
G02*
X206850800Y-78256750I0J243750D01*
G01*
X206850800Y-77344250D01*
G75*
G02*
X207094550Y-77100500I243750J0D01*
G01*
X207582050Y-77100500D01*
G75*
G02*
X207825800Y-77344250I0J-243750D01*
G01*
G37*
G36*
G01*
X204045800Y-72245099D02*
X204045800Y-73145101D01*
G75*
G02*
X203795801Y-73395100I-249999J0D01*
G01*
X203145799Y-73395100D01*
G75*
G02*
X202895800Y-73145101I0J249999D01*
G01*
X202895800Y-72245099D01*
G75*
G02*
X203145799Y-71995100I249999J0D01*
G01*
X203795801Y-71995100D01*
G75*
G02*
X204045800Y-72245099I0J-249999D01*
G01*
G37*
G36*
G01*
X206095800Y-72245099D02*
X206095800Y-73145101D01*
G75*
G02*
X205845801Y-73395100I-249999J0D01*
G01*
X205195799Y-73395100D01*
G75*
G02*
X204945800Y-73145101I0J249999D01*
G01*
X204945800Y-72245099D01*
G75*
G02*
X205195799Y-71995100I249999J0D01*
G01*
X205845801Y-71995100D01*
G75*
G02*
X206095800Y-72245099I0J-249999D01*
G01*
G37*
G36*
G01*
X204945800Y-71081250D02*
X204945800Y-70168750D01*
G75*
G02*
X205189550Y-69925000I243750J0D01*
G01*
X205677050Y-69925000D01*
G75*
G02*
X205920800Y-70168750I0J-243750D01*
G01*
X205920800Y-71081250D01*
G75*
G02*
X205677050Y-71325000I-243750J0D01*
G01*
X205189550Y-71325000D01*
G75*
G02*
X204945800Y-71081250I0J243750D01*
G01*
G37*
G36*
G01*
X203070800Y-71081250D02*
X203070800Y-70168750D01*
G75*
G02*
X203314550Y-69925000I243750J0D01*
G01*
X203802050Y-69925000D01*
G75*
G02*
X204045800Y-70168750I0J-243750D01*
G01*
X204045800Y-71081250D01*
G75*
G02*
X203802050Y-71325000I-243750J0D01*
G01*
X203314550Y-71325000D01*
G75*
G02*
X203070800Y-71081250I0J243750D01*
G01*
G37*
G36*
G01*
X203995000Y-68124050D02*
X203995000Y-69036550D01*
G75*
G02*
X203751250Y-69280300I-243750J0D01*
G01*
X203263750Y-69280300D01*
G75*
G02*
X203020000Y-69036550I0J243750D01*
G01*
X203020000Y-68124050D01*
G75*
G02*
X203263750Y-67880300I243750J0D01*
G01*
X203751250Y-67880300D01*
G75*
G02*
X203995000Y-68124050I0J-243750D01*
G01*
G37*
G36*
G01*
X205870000Y-68124050D02*
X205870000Y-69036550D01*
G75*
G02*
X205626250Y-69280300I-243750J0D01*
G01*
X205138750Y-69280300D01*
G75*
G02*
X204895000Y-69036550I0J243750D01*
G01*
X204895000Y-68124050D01*
G75*
G02*
X205138750Y-67880300I243750J0D01*
G01*
X205626250Y-67880300D01*
G75*
G02*
X205870000Y-68124050I0J-243750D01*
G01*
G37*
G36*
G01*
X201886800Y-79304282D02*
X201886800Y-80216782D01*
G75*
G02*
X201643050Y-80460532I-243750J0D01*
G01*
X201155550Y-80460532D01*
G75*
G02*
X200911800Y-80216782I0J243750D01*
G01*
X200911800Y-79304282D01*
G75*
G02*
X201155550Y-79060532I243750J0D01*
G01*
X201643050Y-79060532D01*
G75*
G02*
X201886800Y-79304282I0J-243750D01*
G01*
G37*
G36*
G01*
X203761800Y-79304282D02*
X203761800Y-80216782D01*
G75*
G02*
X203518050Y-80460532I-243750J0D01*
G01*
X203030550Y-80460532D01*
G75*
G02*
X202786800Y-80216782I0J243750D01*
G01*
X202786800Y-79304282D01*
G75*
G02*
X203030550Y-79060532I243750J0D01*
G01*
X203518050Y-79060532D01*
G75*
G02*
X203761800Y-79304282I0J-243750D01*
G01*
G37*
G36*
G01*
X201886800Y-77344250D02*
X201886800Y-78256750D01*
G75*
G02*
X201643050Y-78500500I-243750J0D01*
G01*
X201155550Y-78500500D01*
G75*
G02*
X200911800Y-78256750I0J243750D01*
G01*
X200911800Y-77344250D01*
G75*
G02*
X201155550Y-77100500I243750J0D01*
G01*
X201643050Y-77100500D01*
G75*
G02*
X201886800Y-77344250I0J-243750D01*
G01*
G37*
G36*
G01*
X203761800Y-77344250D02*
X203761800Y-78256750D01*
G75*
G02*
X203518050Y-78500500I-243750J0D01*
G01*
X203030550Y-78500500D01*
G75*
G02*
X202786800Y-78256750I0J243750D01*
G01*
X202786800Y-77344250D01*
G75*
G02*
X203030550Y-77100500I243750J0D01*
G01*
X203518050Y-77100500D01*
G75*
G02*
X203761800Y-77344250I0J-243750D01*
G01*
G37*
G36*
G01*
X208283100Y-70586600D02*
X207033100Y-70586600D01*
G75*
G02*
X206783100Y-70336600I0J250000D01*
G01*
X206783100Y-69586600D01*
G75*
G02*
X207033100Y-69336600I250000J0D01*
G01*
X208283100Y-69336600D01*
G75*
G02*
X208533100Y-69586600I0J-250000D01*
G01*
X208533100Y-70336600D01*
G75*
G02*
X208283100Y-70586600I-250000J0D01*
G01*
G37*
G36*
G01*
X208283100Y-73386600D02*
X207033100Y-73386600D01*
G75*
G02*
X206783100Y-73136600I0J250000D01*
G01*
X206783100Y-72386600D01*
G75*
G02*
X207033100Y-72136600I250000J0D01*
G01*
X208283100Y-72136600D01*
G75*
G02*
X208533100Y-72386600I0J-250000D01*
G01*
X208533100Y-73136600D01*
G75*
G02*
X208283100Y-73386600I-250000J0D01*
G01*
G37*
G36*
G01*
X204661850Y-85895900D02*
X205574350Y-85895900D01*
G75*
G02*
X205818100Y-86139650I0J-243750D01*
G01*
X205818100Y-86627150D01*
G75*
G02*
X205574350Y-86870900I-243750J0D01*
G01*
X204661850Y-86870900D01*
G75*
G02*
X204418100Y-86627150I0J243750D01*
G01*
X204418100Y-86139650D01*
G75*
G02*
X204661850Y-85895900I243750J0D01*
G01*
G37*
G36*
G01*
X204661850Y-84020900D02*
X205574350Y-84020900D01*
G75*
G02*
X205818100Y-84264650I0J-243750D01*
G01*
X205818100Y-84752150D01*
G75*
G02*
X205574350Y-84995900I-243750J0D01*
G01*
X204661850Y-84995900D01*
G75*
G02*
X204418100Y-84752150I0J243750D01*
G01*
X204418100Y-84264650D01*
G75*
G02*
X204661850Y-84020900I243750J0D01*
G01*
G37*
D11*
X204356000Y-81278400D03*
X204356000Y-76278400D03*
D12*
X201606000Y-82653400D03*
X201606000Y-74903400D03*
D13*
X205406000Y-82503400D03*
X205406000Y-75053400D03*
D14*
X202034000Y-62853600D03*
X218294000Y-62853600D03*
D15*
X216514000Y-59423600D03*
X203814000Y-59423600D03*
D16*
X213744000Y-63743600D03*
X211704000Y-63743600D03*
X209664000Y-63743600D03*
X207624000Y-63743600D03*
X212724000Y-61963600D03*
X210684000Y-61963600D03*
X208644000Y-61963600D03*
D17*
X206604000Y-61963600D03*
D14*
X218344800Y-135546400D03*
X202084800Y-135546400D03*
D15*
X203864800Y-138976400D03*
X216564800Y-138976400D03*
D16*
X206634800Y-134656400D03*
X208674800Y-134656400D03*
X210714800Y-134656400D03*
X212754800Y-134656400D03*
X207654800Y-136436400D03*
X209694800Y-136436400D03*
X211734800Y-136436400D03*
D17*
X213774800Y-136436400D03*
D18*
X214087300Y-126174800D03*
X219167300Y-126174800D03*
X209007300Y-126174800D03*
X201387300Y-118554800D03*
D19*
X201387300Y-126174800D03*
D18*
X219167300Y-118554800D03*
X214087300Y-118554800D03*
X209007300Y-118554800D03*
X214087300Y-114440000D03*
X219167300Y-114440000D03*
X209007300Y-114440000D03*
X201387300Y-106820000D03*
D19*
X201387300Y-114440000D03*
D18*
X219167300Y-106820000D03*
X214087300Y-106820000D03*
X209007300Y-106820000D03*
X214087300Y-103670400D03*
X219167300Y-103670400D03*
X209007300Y-103670400D03*
X201387300Y-96050400D03*
D19*
X201387300Y-103670400D03*
D18*
X219167300Y-96050400D03*
X214087300Y-96050400D03*
X209007300Y-96050400D03*
X214087300Y-92900800D03*
X219167300Y-92900800D03*
X209007300Y-92900800D03*
X201387300Y-85280800D03*
D19*
X201387300Y-92900800D03*
D18*
X219167300Y-85280800D03*
X214087300Y-85280800D03*
X209007300Y-85280800D03*
M02*
