G04 #@! TF.GenerationSoftware,KiCad,Pcbnew,(5.1.6-0-10_14)*
G04 #@! TF.CreationDate,2020-09-12T18:40:15-05:00*
G04 #@! TF.ProjectId,NetworkBreaker,4e657477-6f72-46b4-9272-65616b65722e,rev?*
G04 #@! TF.SameCoordinates,Original*
G04 #@! TF.FileFunction,Soldermask,Top*
G04 #@! TF.FilePolarity,Negative*
%FSLAX46Y46*%
G04 Gerber Fmt 4.6, Leading zero omitted, Abs format (unit mm)*
G04 Created by KiCad (PCBNEW (5.1.6-0-10_14)) date 2020-09-12 18:40:15*
%MOMM*%
%LPD*%
G01*
G04 APERTURE LIST*
%ADD10R,0.400000X1.200000*%
%ADD11O,0.800000X0.800000*%
%ADD12O,1.800000X1.150000*%
%ADD13O,2.000000X1.450000*%
%ADD14R,1.300000X0.450000*%
%ADD15C,2.000000*%
%ADD16C,3.250000*%
%ADD17C,1.500000*%
%ADD18R,1.500000X1.500000*%
%ADD19C,1.600000*%
%ADD20R,1.800000X1.600000*%
G04 APERTURE END LIST*
G36*
G01*
X216045600Y-82587450D02*
X216045600Y-81674950D01*
G75*
G02*
X216289350Y-81431200I243750J0D01*
G01*
X216776850Y-81431200D01*
G75*
G02*
X217020600Y-81674950I0J-243750D01*
G01*
X217020600Y-82587450D01*
G75*
G02*
X216776850Y-82831200I-243750J0D01*
G01*
X216289350Y-82831200D01*
G75*
G02*
X216045600Y-82587450I0J243750D01*
G01*
G37*
G36*
G01*
X214170600Y-82587450D02*
X214170600Y-81674950D01*
G75*
G02*
X214414350Y-81431200I243750J0D01*
G01*
X214901850Y-81431200D01*
G75*
G02*
X215145600Y-81674950I0J-243750D01*
G01*
X215145600Y-82587450D01*
G75*
G02*
X214901850Y-82831200I-243750J0D01*
G01*
X214414350Y-82831200D01*
G75*
G02*
X214170600Y-82587450I0J243750D01*
G01*
G37*
G36*
G01*
X219449200Y-82587450D02*
X219449200Y-81674950D01*
G75*
G02*
X219692950Y-81431200I243750J0D01*
G01*
X220180450Y-81431200D01*
G75*
G02*
X220424200Y-81674950I0J-243750D01*
G01*
X220424200Y-82587450D01*
G75*
G02*
X220180450Y-82831200I-243750J0D01*
G01*
X219692950Y-82831200D01*
G75*
G02*
X219449200Y-82587450I0J243750D01*
G01*
G37*
G36*
G01*
X217574200Y-82587450D02*
X217574200Y-81674950D01*
G75*
G02*
X217817950Y-81431200I243750J0D01*
G01*
X218305450Y-81431200D01*
G75*
G02*
X218549200Y-81674950I0J-243750D01*
G01*
X218549200Y-82587450D01*
G75*
G02*
X218305450Y-82831200I-243750J0D01*
G01*
X217817950Y-82831200D01*
G75*
G02*
X217574200Y-82587450I0J243750D01*
G01*
G37*
G36*
G01*
X216045600Y-80352250D02*
X216045600Y-79439750D01*
G75*
G02*
X216289350Y-79196000I243750J0D01*
G01*
X216776850Y-79196000D01*
G75*
G02*
X217020600Y-79439750I0J-243750D01*
G01*
X217020600Y-80352250D01*
G75*
G02*
X216776850Y-80596000I-243750J0D01*
G01*
X216289350Y-80596000D01*
G75*
G02*
X216045600Y-80352250I0J243750D01*
G01*
G37*
G36*
G01*
X214170600Y-80352250D02*
X214170600Y-79439750D01*
G75*
G02*
X214414350Y-79196000I243750J0D01*
G01*
X214901850Y-79196000D01*
G75*
G02*
X215145600Y-79439750I0J-243750D01*
G01*
X215145600Y-80352250D01*
G75*
G02*
X214901850Y-80596000I-243750J0D01*
G01*
X214414350Y-80596000D01*
G75*
G02*
X214170600Y-80352250I0J243750D01*
G01*
G37*
G36*
G01*
X216045600Y-78117050D02*
X216045600Y-77204550D01*
G75*
G02*
X216289350Y-76960800I243750J0D01*
G01*
X216776850Y-76960800D01*
G75*
G02*
X217020600Y-77204550I0J-243750D01*
G01*
X217020600Y-78117050D01*
G75*
G02*
X216776850Y-78360800I-243750J0D01*
G01*
X216289350Y-78360800D01*
G75*
G02*
X216045600Y-78117050I0J243750D01*
G01*
G37*
G36*
G01*
X214170600Y-78117050D02*
X214170600Y-77204550D01*
G75*
G02*
X214414350Y-76960800I243750J0D01*
G01*
X214901850Y-76960800D01*
G75*
G02*
X215145600Y-77204550I0J-243750D01*
G01*
X215145600Y-78117050D01*
G75*
G02*
X214901850Y-78360800I-243750J0D01*
G01*
X214414350Y-78360800D01*
G75*
G02*
X214170600Y-78117050I0J243750D01*
G01*
G37*
G36*
G01*
X216045600Y-75881850D02*
X216045600Y-74969350D01*
G75*
G02*
X216289350Y-74725600I243750J0D01*
G01*
X216776850Y-74725600D01*
G75*
G02*
X217020600Y-74969350I0J-243750D01*
G01*
X217020600Y-75881850D01*
G75*
G02*
X216776850Y-76125600I-243750J0D01*
G01*
X216289350Y-76125600D01*
G75*
G02*
X216045600Y-75881850I0J243750D01*
G01*
G37*
G36*
G01*
X214170600Y-75881850D02*
X214170600Y-74969350D01*
G75*
G02*
X214414350Y-74725600I243750J0D01*
G01*
X214901850Y-74725600D01*
G75*
G02*
X215145600Y-74969350I0J-243750D01*
G01*
X215145600Y-75881850D01*
G75*
G02*
X214901850Y-76125600I-243750J0D01*
G01*
X214414350Y-76125600D01*
G75*
G02*
X214170600Y-75881850I0J243750D01*
G01*
G37*
G36*
G01*
X219449200Y-80352250D02*
X219449200Y-79439750D01*
G75*
G02*
X219692950Y-79196000I243750J0D01*
G01*
X220180450Y-79196000D01*
G75*
G02*
X220424200Y-79439750I0J-243750D01*
G01*
X220424200Y-80352250D01*
G75*
G02*
X220180450Y-80596000I-243750J0D01*
G01*
X219692950Y-80596000D01*
G75*
G02*
X219449200Y-80352250I0J243750D01*
G01*
G37*
G36*
G01*
X217574200Y-80352250D02*
X217574200Y-79439750D01*
G75*
G02*
X217817950Y-79196000I243750J0D01*
G01*
X218305450Y-79196000D01*
G75*
G02*
X218549200Y-79439750I0J-243750D01*
G01*
X218549200Y-80352250D01*
G75*
G02*
X218305450Y-80596000I-243750J0D01*
G01*
X217817950Y-80596000D01*
G75*
G02*
X217574200Y-80352250I0J243750D01*
G01*
G37*
G36*
G01*
X219449200Y-78117050D02*
X219449200Y-77204550D01*
G75*
G02*
X219692950Y-76960800I243750J0D01*
G01*
X220180450Y-76960800D01*
G75*
G02*
X220424200Y-77204550I0J-243750D01*
G01*
X220424200Y-78117050D01*
G75*
G02*
X220180450Y-78360800I-243750J0D01*
G01*
X219692950Y-78360800D01*
G75*
G02*
X219449200Y-78117050I0J243750D01*
G01*
G37*
G36*
G01*
X217574200Y-78117050D02*
X217574200Y-77204550D01*
G75*
G02*
X217817950Y-76960800I243750J0D01*
G01*
X218305450Y-76960800D01*
G75*
G02*
X218549200Y-77204550I0J-243750D01*
G01*
X218549200Y-78117050D01*
G75*
G02*
X218305450Y-78360800I-243750J0D01*
G01*
X217817950Y-78360800D01*
G75*
G02*
X217574200Y-78117050I0J243750D01*
G01*
G37*
G36*
G01*
X219449200Y-75881850D02*
X219449200Y-74969350D01*
G75*
G02*
X219692950Y-74725600I243750J0D01*
G01*
X220180450Y-74725600D01*
G75*
G02*
X220424200Y-74969350I0J-243750D01*
G01*
X220424200Y-75881850D01*
G75*
G02*
X220180450Y-76125600I-243750J0D01*
G01*
X219692950Y-76125600D01*
G75*
G02*
X219449200Y-75881850I0J243750D01*
G01*
G37*
G36*
G01*
X217574200Y-75881850D02*
X217574200Y-74969350D01*
G75*
G02*
X217817950Y-74725600I243750J0D01*
G01*
X218305450Y-74725600D01*
G75*
G02*
X218549200Y-74969350I0J-243750D01*
G01*
X218549200Y-75881850D01*
G75*
G02*
X218305450Y-76125600I-243750J0D01*
G01*
X217817950Y-76125600D01*
G75*
G02*
X217574200Y-75881850I0J243750D01*
G01*
G37*
D10*
X212534900Y-81429200D03*
X211899900Y-81429200D03*
X211264900Y-81429200D03*
X210629900Y-81429200D03*
X209994900Y-81429200D03*
X209359900Y-81429200D03*
X208724900Y-81429200D03*
X208089900Y-81429200D03*
X208089900Y-76229200D03*
X208724900Y-76229200D03*
X209359900Y-76229200D03*
X209994900Y-76229200D03*
X210629900Y-76229200D03*
X211264900Y-76229200D03*
X211899900Y-76229200D03*
X212534900Y-76229200D03*
D11*
X204356000Y-81278400D03*
X204356000Y-76278400D03*
D12*
X201606000Y-82653400D03*
X201606000Y-74903400D03*
D13*
X205406000Y-82503400D03*
X205406000Y-75053400D03*
D14*
X205456000Y-80078400D03*
X205456000Y-79428400D03*
X205456000Y-78778400D03*
X205456000Y-78128400D03*
X205456000Y-77478400D03*
D15*
X202034000Y-62853600D03*
X218294000Y-62853600D03*
D16*
X216514000Y-59423600D03*
X203814000Y-59423600D03*
D17*
X213744000Y-63743600D03*
X211704000Y-63743600D03*
X209664000Y-63743600D03*
X207624000Y-63743600D03*
X212724000Y-61963600D03*
X210684000Y-61963600D03*
X208644000Y-61963600D03*
D18*
X206604000Y-61963600D03*
D15*
X218344800Y-135546400D03*
X202084800Y-135546400D03*
D16*
X203864800Y-138976400D03*
X216564800Y-138976400D03*
D17*
X206634800Y-134656400D03*
X208674800Y-134656400D03*
X210714800Y-134656400D03*
X212754800Y-134656400D03*
X207654800Y-136436400D03*
X209694800Y-136436400D03*
X211734800Y-136436400D03*
D18*
X213774800Y-136436400D03*
D19*
X214087300Y-126174800D03*
X219167300Y-126174800D03*
X209007300Y-126174800D03*
X201387300Y-118554800D03*
D20*
X201387300Y-126174800D03*
D19*
X219167300Y-118554800D03*
X214087300Y-118554800D03*
X209007300Y-118554800D03*
X214087300Y-114440000D03*
X219167300Y-114440000D03*
X209007300Y-114440000D03*
X201387300Y-106820000D03*
D20*
X201387300Y-114440000D03*
D19*
X219167300Y-106820000D03*
X214087300Y-106820000D03*
X209007300Y-106820000D03*
X214087300Y-103670400D03*
X219167300Y-103670400D03*
X209007300Y-103670400D03*
X201387300Y-96050400D03*
D20*
X201387300Y-103670400D03*
D19*
X219167300Y-96050400D03*
X214087300Y-96050400D03*
X209007300Y-96050400D03*
X214087300Y-92900800D03*
X219167300Y-92900800D03*
X209007300Y-92900800D03*
X201387300Y-85280800D03*
D20*
X201387300Y-92900800D03*
D19*
X219167300Y-85280800D03*
X214087300Y-85280800D03*
X209007300Y-85280800D03*
M02*
