M48
; DRILL file {KiCad (5.1.4)-1} date 9/12/2020 9:49:06 PM
; FORMAT={-:-/ absolute / inch / decimal}
; #@! TF.CreationDate,2020-09-12T21:49:06-05:00
; #@! TF.GenerationSoftware,Kicad,Pcbnew,(5.1.4)-1
FMAT,2
INCH
T1C0.0197
T2C0.0217
T3C0.0236
T4C0.0315
T5C0.0335
T6C0.0350
T7C0.0618
T8C0.0315
T9C0.1280
%
G90
G05
T1
X7.9225Y-3.914
X7.926Y-4.788
X7.9355Y-4.3495
X8.0385Y-4.3055
X8.0505Y-3.5085
X8.052Y-3.7965
X8.052Y-3.9265
X8.0837Y-3.3003
X8.0914Y-2.862
X8.097Y-3.0105
X8.1056Y-4.111
X8.169Y-3.597
X8.24Y-3.4615
X8.2455Y-2.7885
X8.2755Y-3.8776
X8.2819Y-3.8386
X8.2898Y-3.9142
X8.3515Y-3.486
X8.3666Y-3.2814
X8.3677Y-3.0761
X8.3924Y-3.1106
X8.3929Y-3.15
X8.4254Y-3.4825
X8.4365Y-3.0684
X8.4767Y-3.1329
X8.4775Y-3.29
X8.5124Y-2.759
X8.518Y-2.688
X8.5225Y-3.293
X8.5255Y-3.512
X8.5423Y-2.6276
X8.573Y-2.8795
X8.5781Y-3.4227
X8.5844Y-2.7808
X8.598Y-2.9176
X8.6172Y-3.4275
X8.632Y-3.531
X8.6347Y-3.3027
X8.6559Y-2.8552
T3
X7.9707Y-2.8746
X8.0328Y-3.1402
X8.0403Y-3.0707
X8.1771Y-3.2023
X8.1772Y-2.9943
X8.2252Y-3.1761
X8.277Y-4.136
X8.28Y-4.5955
X8.3451Y-2.8115
X8.3681Y-3.3571
X8.3998Y-3.3085
X8.4015Y-4.347
X8.406Y-4.791
T4
X7.9264Y-4.6677
X7.9264Y-4.9677
X8.2264Y-4.6677
X8.2264Y-4.9677
X8.4264Y-4.6677
X8.4264Y-4.9677
X8.6264Y-4.6677
X8.6264Y-4.9677
X7.9264Y-3.3591
X7.9264Y-3.6591
X8.2264Y-3.3591
X8.2264Y-3.6591
X8.4264Y-3.3591
X8.4264Y-3.6591
X8.6264Y-3.3591
X8.6264Y-3.6591
X7.9264Y-3.7953
X7.9264Y-4.0953
X8.2264Y-3.7953
X8.2264Y-4.0953
X8.4264Y-3.7953
X8.4264Y-4.0953
X8.6264Y-3.7953
X8.6264Y-4.0953
X7.9264Y-4.2315
X7.9264Y-4.5315
X8.2264Y-4.2315
X8.2264Y-4.5315
X8.4264Y-4.2315
X8.4264Y-4.5315
X8.6264Y-4.2315
X8.6264Y-4.5315
T6
X8.134Y-2.4395
X8.1742Y-2.5096
X8.2143Y-2.4395
X8.2545Y-2.5096
X8.2946Y-2.4395
X8.3348Y-2.5096
X8.375Y-2.4395
X8.4151Y-2.5096
X8.1352Y-5.3014
X8.1754Y-5.3715
X8.2155Y-5.3014
X8.2557Y-5.3715
X8.2959Y-5.3014
X8.336Y-5.3715
X8.3762Y-5.3014
X8.4163Y-5.3715
T7
X7.9541Y-2.4746
X8.5943Y-2.4746
X7.9561Y-5.3365
X8.5963Y-5.3365
T8
X8.0455Y-3.0031
X8.0455Y-3.1999
T9
X8.0242Y-2.3395
X8.5242Y-2.3395
X8.0262Y-5.4715
X8.5262Y-5.4715
T2
G00X7.95Y-2.949
M15
G01X7.9244Y-2.949
M16
G05
G00X7.95Y-3.2541
M15
G01X7.9244Y-3.2541
M16
G05
T5
G00X8.0977Y-2.9549
M15
G01X8.076Y-2.9549
M16
G05
G00X8.0977Y-3.2482
M15
G01X8.076Y-3.2482
M16
G05
T0
M30
