G04 #@! TF.GenerationSoftware,KiCad,Pcbnew,(5.1.4)-1*
G04 #@! TF.CreationDate,2020-09-12T21:49:09-05:00*
G04 #@! TF.ProjectId,NetworkBreaker,4e657477-6f72-46b4-9272-65616b65722e,rev?*
G04 #@! TF.SameCoordinates,Original*
G04 #@! TF.FileFunction,Soldermask,Top*
G04 #@! TF.FilePolarity,Negative*
%FSLAX46Y46*%
G04 Gerber Fmt 4.6, Leading zero omitted, Abs format (unit mm)*
G04 Created by KiCad (PCBNEW (5.1.4)-1) date 2020-09-12 21:49:09*
%MOMM*%
%LPD*%
G04 APERTURE LIST*
%ADD10C,0.150000*%
%ADD11C,0.975000*%
%ADD12C,1.600000*%
%ADD13R,1.800000X1.600000*%
%ADD14R,0.400000X1.200000*%
%ADD15O,0.800000X0.800000*%
%ADD16O,1.800000X1.150000*%
%ADD17O,2.000000X1.450000*%
%ADD18R,1.300000X0.450000*%
%ADD19C,2.000000*%
%ADD20C,3.250000*%
%ADD21C,1.500000*%
%ADD22R,1.500000X1.500000*%
G04 APERTURE END LIST*
D10*
G36*
X216755142Y-79191174D02*
G01*
X216778803Y-79194684D01*
X216802007Y-79200496D01*
X216824529Y-79208554D01*
X216846153Y-79218782D01*
X216866670Y-79231079D01*
X216885883Y-79245329D01*
X216903607Y-79261393D01*
X216919671Y-79279117D01*
X216933921Y-79298330D01*
X216946218Y-79318847D01*
X216956446Y-79340471D01*
X216964504Y-79362993D01*
X216970316Y-79386197D01*
X216973826Y-79409858D01*
X216975000Y-79433750D01*
X216975000Y-80346250D01*
X216973826Y-80370142D01*
X216970316Y-80393803D01*
X216964504Y-80417007D01*
X216956446Y-80439529D01*
X216946218Y-80461153D01*
X216933921Y-80481670D01*
X216919671Y-80500883D01*
X216903607Y-80518607D01*
X216885883Y-80534671D01*
X216866670Y-80548921D01*
X216846153Y-80561218D01*
X216824529Y-80571446D01*
X216802007Y-80579504D01*
X216778803Y-80585316D01*
X216755142Y-80588826D01*
X216731250Y-80590000D01*
X216243750Y-80590000D01*
X216219858Y-80588826D01*
X216196197Y-80585316D01*
X216172993Y-80579504D01*
X216150471Y-80571446D01*
X216128847Y-80561218D01*
X216108330Y-80548921D01*
X216089117Y-80534671D01*
X216071393Y-80518607D01*
X216055329Y-80500883D01*
X216041079Y-80481670D01*
X216028782Y-80461153D01*
X216018554Y-80439529D01*
X216010496Y-80417007D01*
X216004684Y-80393803D01*
X216001174Y-80370142D01*
X216000000Y-80346250D01*
X216000000Y-79433750D01*
X216001174Y-79409858D01*
X216004684Y-79386197D01*
X216010496Y-79362993D01*
X216018554Y-79340471D01*
X216028782Y-79318847D01*
X216041079Y-79298330D01*
X216055329Y-79279117D01*
X216071393Y-79261393D01*
X216089117Y-79245329D01*
X216108330Y-79231079D01*
X216128847Y-79218782D01*
X216150471Y-79208554D01*
X216172993Y-79200496D01*
X216196197Y-79194684D01*
X216219858Y-79191174D01*
X216243750Y-79190000D01*
X216731250Y-79190000D01*
X216755142Y-79191174D01*
X216755142Y-79191174D01*
G37*
D11*
X216487500Y-79890000D03*
D10*
G36*
X214880142Y-79191174D02*
G01*
X214903803Y-79194684D01*
X214927007Y-79200496D01*
X214949529Y-79208554D01*
X214971153Y-79218782D01*
X214991670Y-79231079D01*
X215010883Y-79245329D01*
X215028607Y-79261393D01*
X215044671Y-79279117D01*
X215058921Y-79298330D01*
X215071218Y-79318847D01*
X215081446Y-79340471D01*
X215089504Y-79362993D01*
X215095316Y-79386197D01*
X215098826Y-79409858D01*
X215100000Y-79433750D01*
X215100000Y-80346250D01*
X215098826Y-80370142D01*
X215095316Y-80393803D01*
X215089504Y-80417007D01*
X215081446Y-80439529D01*
X215071218Y-80461153D01*
X215058921Y-80481670D01*
X215044671Y-80500883D01*
X215028607Y-80518607D01*
X215010883Y-80534671D01*
X214991670Y-80548921D01*
X214971153Y-80561218D01*
X214949529Y-80571446D01*
X214927007Y-80579504D01*
X214903803Y-80585316D01*
X214880142Y-80588826D01*
X214856250Y-80590000D01*
X214368750Y-80590000D01*
X214344858Y-80588826D01*
X214321197Y-80585316D01*
X214297993Y-80579504D01*
X214275471Y-80571446D01*
X214253847Y-80561218D01*
X214233330Y-80548921D01*
X214214117Y-80534671D01*
X214196393Y-80518607D01*
X214180329Y-80500883D01*
X214166079Y-80481670D01*
X214153782Y-80461153D01*
X214143554Y-80439529D01*
X214135496Y-80417007D01*
X214129684Y-80393803D01*
X214126174Y-80370142D01*
X214125000Y-80346250D01*
X214125000Y-79433750D01*
X214126174Y-79409858D01*
X214129684Y-79386197D01*
X214135496Y-79362993D01*
X214143554Y-79340471D01*
X214153782Y-79318847D01*
X214166079Y-79298330D01*
X214180329Y-79279117D01*
X214196393Y-79261393D01*
X214214117Y-79245329D01*
X214233330Y-79231079D01*
X214253847Y-79218782D01*
X214275471Y-79208554D01*
X214297993Y-79200496D01*
X214321197Y-79194684D01*
X214344858Y-79191174D01*
X214368750Y-79190000D01*
X214856250Y-79190000D01*
X214880142Y-79191174D01*
X214880142Y-79191174D01*
G37*
D11*
X214612500Y-79890000D03*
D10*
G36*
X216615142Y-81496174D02*
G01*
X216638803Y-81499684D01*
X216662007Y-81505496D01*
X216684529Y-81513554D01*
X216706153Y-81523782D01*
X216726670Y-81536079D01*
X216745883Y-81550329D01*
X216763607Y-81566393D01*
X216779671Y-81584117D01*
X216793921Y-81603330D01*
X216806218Y-81623847D01*
X216816446Y-81645471D01*
X216824504Y-81667993D01*
X216830316Y-81691197D01*
X216833826Y-81714858D01*
X216835000Y-81738750D01*
X216835000Y-82651250D01*
X216833826Y-82675142D01*
X216830316Y-82698803D01*
X216824504Y-82722007D01*
X216816446Y-82744529D01*
X216806218Y-82766153D01*
X216793921Y-82786670D01*
X216779671Y-82805883D01*
X216763607Y-82823607D01*
X216745883Y-82839671D01*
X216726670Y-82853921D01*
X216706153Y-82866218D01*
X216684529Y-82876446D01*
X216662007Y-82884504D01*
X216638803Y-82890316D01*
X216615142Y-82893826D01*
X216591250Y-82895000D01*
X216103750Y-82895000D01*
X216079858Y-82893826D01*
X216056197Y-82890316D01*
X216032993Y-82884504D01*
X216010471Y-82876446D01*
X215988847Y-82866218D01*
X215968330Y-82853921D01*
X215949117Y-82839671D01*
X215931393Y-82823607D01*
X215915329Y-82805883D01*
X215901079Y-82786670D01*
X215888782Y-82766153D01*
X215878554Y-82744529D01*
X215870496Y-82722007D01*
X215864684Y-82698803D01*
X215861174Y-82675142D01*
X215860000Y-82651250D01*
X215860000Y-81738750D01*
X215861174Y-81714858D01*
X215864684Y-81691197D01*
X215870496Y-81667993D01*
X215878554Y-81645471D01*
X215888782Y-81623847D01*
X215901079Y-81603330D01*
X215915329Y-81584117D01*
X215931393Y-81566393D01*
X215949117Y-81550329D01*
X215968330Y-81536079D01*
X215988847Y-81523782D01*
X216010471Y-81513554D01*
X216032993Y-81505496D01*
X216056197Y-81499684D01*
X216079858Y-81496174D01*
X216103750Y-81495000D01*
X216591250Y-81495000D01*
X216615142Y-81496174D01*
X216615142Y-81496174D01*
G37*
D11*
X216347500Y-82195000D03*
D10*
G36*
X214740142Y-81496174D02*
G01*
X214763803Y-81499684D01*
X214787007Y-81505496D01*
X214809529Y-81513554D01*
X214831153Y-81523782D01*
X214851670Y-81536079D01*
X214870883Y-81550329D01*
X214888607Y-81566393D01*
X214904671Y-81584117D01*
X214918921Y-81603330D01*
X214931218Y-81623847D01*
X214941446Y-81645471D01*
X214949504Y-81667993D01*
X214955316Y-81691197D01*
X214958826Y-81714858D01*
X214960000Y-81738750D01*
X214960000Y-82651250D01*
X214958826Y-82675142D01*
X214955316Y-82698803D01*
X214949504Y-82722007D01*
X214941446Y-82744529D01*
X214931218Y-82766153D01*
X214918921Y-82786670D01*
X214904671Y-82805883D01*
X214888607Y-82823607D01*
X214870883Y-82839671D01*
X214851670Y-82853921D01*
X214831153Y-82866218D01*
X214809529Y-82876446D01*
X214787007Y-82884504D01*
X214763803Y-82890316D01*
X214740142Y-82893826D01*
X214716250Y-82895000D01*
X214228750Y-82895000D01*
X214204858Y-82893826D01*
X214181197Y-82890316D01*
X214157993Y-82884504D01*
X214135471Y-82876446D01*
X214113847Y-82866218D01*
X214093330Y-82853921D01*
X214074117Y-82839671D01*
X214056393Y-82823607D01*
X214040329Y-82805883D01*
X214026079Y-82786670D01*
X214013782Y-82766153D01*
X214003554Y-82744529D01*
X213995496Y-82722007D01*
X213989684Y-82698803D01*
X213986174Y-82675142D01*
X213985000Y-82651250D01*
X213985000Y-81738750D01*
X213986174Y-81714858D01*
X213989684Y-81691197D01*
X213995496Y-81667993D01*
X214003554Y-81645471D01*
X214013782Y-81623847D01*
X214026079Y-81603330D01*
X214040329Y-81584117D01*
X214056393Y-81566393D01*
X214074117Y-81550329D01*
X214093330Y-81536079D01*
X214113847Y-81523782D01*
X214135471Y-81513554D01*
X214157993Y-81505496D01*
X214181197Y-81499684D01*
X214204858Y-81496174D01*
X214228750Y-81495000D01*
X214716250Y-81495000D01*
X214740142Y-81496174D01*
X214740142Y-81496174D01*
G37*
D11*
X214472500Y-82195000D03*
D10*
G36*
X216615142Y-76969507D02*
G01*
X216638803Y-76973017D01*
X216662007Y-76978829D01*
X216684529Y-76986887D01*
X216706153Y-76997115D01*
X216726670Y-77009412D01*
X216745883Y-77023662D01*
X216763607Y-77039726D01*
X216779671Y-77057450D01*
X216793921Y-77076663D01*
X216806218Y-77097180D01*
X216816446Y-77118804D01*
X216824504Y-77141326D01*
X216830316Y-77164530D01*
X216833826Y-77188191D01*
X216835000Y-77212083D01*
X216835000Y-78124583D01*
X216833826Y-78148475D01*
X216830316Y-78172136D01*
X216824504Y-78195340D01*
X216816446Y-78217862D01*
X216806218Y-78239486D01*
X216793921Y-78260003D01*
X216779671Y-78279216D01*
X216763607Y-78296940D01*
X216745883Y-78313004D01*
X216726670Y-78327254D01*
X216706153Y-78339551D01*
X216684529Y-78349779D01*
X216662007Y-78357837D01*
X216638803Y-78363649D01*
X216615142Y-78367159D01*
X216591250Y-78368333D01*
X216103750Y-78368333D01*
X216079858Y-78367159D01*
X216056197Y-78363649D01*
X216032993Y-78357837D01*
X216010471Y-78349779D01*
X215988847Y-78339551D01*
X215968330Y-78327254D01*
X215949117Y-78313004D01*
X215931393Y-78296940D01*
X215915329Y-78279216D01*
X215901079Y-78260003D01*
X215888782Y-78239486D01*
X215878554Y-78217862D01*
X215870496Y-78195340D01*
X215864684Y-78172136D01*
X215861174Y-78148475D01*
X215860000Y-78124583D01*
X215860000Y-77212083D01*
X215861174Y-77188191D01*
X215864684Y-77164530D01*
X215870496Y-77141326D01*
X215878554Y-77118804D01*
X215888782Y-77097180D01*
X215901079Y-77076663D01*
X215915329Y-77057450D01*
X215931393Y-77039726D01*
X215949117Y-77023662D01*
X215968330Y-77009412D01*
X215988847Y-76997115D01*
X216010471Y-76986887D01*
X216032993Y-76978829D01*
X216056197Y-76973017D01*
X216079858Y-76969507D01*
X216103750Y-76968333D01*
X216591250Y-76968333D01*
X216615142Y-76969507D01*
X216615142Y-76969507D01*
G37*
D11*
X216347500Y-77668333D03*
D10*
G36*
X214740142Y-76969507D02*
G01*
X214763803Y-76973017D01*
X214787007Y-76978829D01*
X214809529Y-76986887D01*
X214831153Y-76997115D01*
X214851670Y-77009412D01*
X214870883Y-77023662D01*
X214888607Y-77039726D01*
X214904671Y-77057450D01*
X214918921Y-77076663D01*
X214931218Y-77097180D01*
X214941446Y-77118804D01*
X214949504Y-77141326D01*
X214955316Y-77164530D01*
X214958826Y-77188191D01*
X214960000Y-77212083D01*
X214960000Y-78124583D01*
X214958826Y-78148475D01*
X214955316Y-78172136D01*
X214949504Y-78195340D01*
X214941446Y-78217862D01*
X214931218Y-78239486D01*
X214918921Y-78260003D01*
X214904671Y-78279216D01*
X214888607Y-78296940D01*
X214870883Y-78313004D01*
X214851670Y-78327254D01*
X214831153Y-78339551D01*
X214809529Y-78349779D01*
X214787007Y-78357837D01*
X214763803Y-78363649D01*
X214740142Y-78367159D01*
X214716250Y-78368333D01*
X214228750Y-78368333D01*
X214204858Y-78367159D01*
X214181197Y-78363649D01*
X214157993Y-78357837D01*
X214135471Y-78349779D01*
X214113847Y-78339551D01*
X214093330Y-78327254D01*
X214074117Y-78313004D01*
X214056393Y-78296940D01*
X214040329Y-78279216D01*
X214026079Y-78260003D01*
X214013782Y-78239486D01*
X214003554Y-78217862D01*
X213995496Y-78195340D01*
X213989684Y-78172136D01*
X213986174Y-78148475D01*
X213985000Y-78124583D01*
X213985000Y-77212083D01*
X213986174Y-77188191D01*
X213989684Y-77164530D01*
X213995496Y-77141326D01*
X214003554Y-77118804D01*
X214013782Y-77097180D01*
X214026079Y-77076663D01*
X214040329Y-77057450D01*
X214056393Y-77039726D01*
X214074117Y-77023662D01*
X214093330Y-77009412D01*
X214113847Y-76997115D01*
X214135471Y-76986887D01*
X214157993Y-76978829D01*
X214181197Y-76973017D01*
X214204858Y-76969507D01*
X214228750Y-76968333D01*
X214716250Y-76968333D01*
X214740142Y-76969507D01*
X214740142Y-76969507D01*
G37*
D11*
X214472500Y-77668333D03*
D10*
G36*
X216615142Y-74706174D02*
G01*
X216638803Y-74709684D01*
X216662007Y-74715496D01*
X216684529Y-74723554D01*
X216706153Y-74733782D01*
X216726670Y-74746079D01*
X216745883Y-74760329D01*
X216763607Y-74776393D01*
X216779671Y-74794117D01*
X216793921Y-74813330D01*
X216806218Y-74833847D01*
X216816446Y-74855471D01*
X216824504Y-74877993D01*
X216830316Y-74901197D01*
X216833826Y-74924858D01*
X216835000Y-74948750D01*
X216835000Y-75861250D01*
X216833826Y-75885142D01*
X216830316Y-75908803D01*
X216824504Y-75932007D01*
X216816446Y-75954529D01*
X216806218Y-75976153D01*
X216793921Y-75996670D01*
X216779671Y-76015883D01*
X216763607Y-76033607D01*
X216745883Y-76049671D01*
X216726670Y-76063921D01*
X216706153Y-76076218D01*
X216684529Y-76086446D01*
X216662007Y-76094504D01*
X216638803Y-76100316D01*
X216615142Y-76103826D01*
X216591250Y-76105000D01*
X216103750Y-76105000D01*
X216079858Y-76103826D01*
X216056197Y-76100316D01*
X216032993Y-76094504D01*
X216010471Y-76086446D01*
X215988847Y-76076218D01*
X215968330Y-76063921D01*
X215949117Y-76049671D01*
X215931393Y-76033607D01*
X215915329Y-76015883D01*
X215901079Y-75996670D01*
X215888782Y-75976153D01*
X215878554Y-75954529D01*
X215870496Y-75932007D01*
X215864684Y-75908803D01*
X215861174Y-75885142D01*
X215860000Y-75861250D01*
X215860000Y-74948750D01*
X215861174Y-74924858D01*
X215864684Y-74901197D01*
X215870496Y-74877993D01*
X215878554Y-74855471D01*
X215888782Y-74833847D01*
X215901079Y-74813330D01*
X215915329Y-74794117D01*
X215931393Y-74776393D01*
X215949117Y-74760329D01*
X215968330Y-74746079D01*
X215988847Y-74733782D01*
X216010471Y-74723554D01*
X216032993Y-74715496D01*
X216056197Y-74709684D01*
X216079858Y-74706174D01*
X216103750Y-74705000D01*
X216591250Y-74705000D01*
X216615142Y-74706174D01*
X216615142Y-74706174D01*
G37*
D11*
X216347500Y-75405000D03*
D10*
G36*
X214740142Y-74706174D02*
G01*
X214763803Y-74709684D01*
X214787007Y-74715496D01*
X214809529Y-74723554D01*
X214831153Y-74733782D01*
X214851670Y-74746079D01*
X214870883Y-74760329D01*
X214888607Y-74776393D01*
X214904671Y-74794117D01*
X214918921Y-74813330D01*
X214931218Y-74833847D01*
X214941446Y-74855471D01*
X214949504Y-74877993D01*
X214955316Y-74901197D01*
X214958826Y-74924858D01*
X214960000Y-74948750D01*
X214960000Y-75861250D01*
X214958826Y-75885142D01*
X214955316Y-75908803D01*
X214949504Y-75932007D01*
X214941446Y-75954529D01*
X214931218Y-75976153D01*
X214918921Y-75996670D01*
X214904671Y-76015883D01*
X214888607Y-76033607D01*
X214870883Y-76049671D01*
X214851670Y-76063921D01*
X214831153Y-76076218D01*
X214809529Y-76086446D01*
X214787007Y-76094504D01*
X214763803Y-76100316D01*
X214740142Y-76103826D01*
X214716250Y-76105000D01*
X214228750Y-76105000D01*
X214204858Y-76103826D01*
X214181197Y-76100316D01*
X214157993Y-76094504D01*
X214135471Y-76086446D01*
X214113847Y-76076218D01*
X214093330Y-76063921D01*
X214074117Y-76049671D01*
X214056393Y-76033607D01*
X214040329Y-76015883D01*
X214026079Y-75996670D01*
X214013782Y-75976153D01*
X214003554Y-75954529D01*
X213995496Y-75932007D01*
X213989684Y-75908803D01*
X213986174Y-75885142D01*
X213985000Y-75861250D01*
X213985000Y-74948750D01*
X213986174Y-74924858D01*
X213989684Y-74901197D01*
X213995496Y-74877993D01*
X214003554Y-74855471D01*
X214013782Y-74833847D01*
X214026079Y-74813330D01*
X214040329Y-74794117D01*
X214056393Y-74776393D01*
X214074117Y-74760329D01*
X214093330Y-74746079D01*
X214113847Y-74733782D01*
X214135471Y-74723554D01*
X214157993Y-74715496D01*
X214181197Y-74709684D01*
X214204858Y-74706174D01*
X214228750Y-74705000D01*
X214716250Y-74705000D01*
X214740142Y-74706174D01*
X214740142Y-74706174D01*
G37*
D11*
X214472500Y-75405000D03*
D12*
X214030000Y-92940000D03*
X219110000Y-92940000D03*
X208950000Y-92940000D03*
X201330000Y-85320000D03*
D13*
X201330000Y-92940000D03*
D12*
X219110000Y-85320000D03*
X214030000Y-85320000D03*
X208950000Y-85320000D03*
X214030000Y-104020000D03*
X219110000Y-104020000D03*
X208950000Y-104020000D03*
X201330000Y-96400000D03*
D13*
X201330000Y-104020000D03*
D12*
X219110000Y-96400000D03*
X214030000Y-96400000D03*
X208950000Y-96400000D03*
X214030000Y-115100000D03*
X219110000Y-115100000D03*
X208950000Y-115100000D03*
X201330000Y-107480000D03*
D13*
X201330000Y-115100000D03*
D12*
X219110000Y-107480000D03*
X214030000Y-107480000D03*
X208950000Y-107480000D03*
X214030000Y-126180000D03*
X219110000Y-126180000D03*
X208950000Y-126180000D03*
X201330000Y-118560000D03*
D13*
X201330000Y-126180000D03*
D12*
X219110000Y-118560000D03*
X214030000Y-118560000D03*
X208950000Y-118560000D03*
D10*
G36*
X220235142Y-81451174D02*
G01*
X220258803Y-81454684D01*
X220282007Y-81460496D01*
X220304529Y-81468554D01*
X220326153Y-81478782D01*
X220346670Y-81491079D01*
X220365883Y-81505329D01*
X220383607Y-81521393D01*
X220399671Y-81539117D01*
X220413921Y-81558330D01*
X220426218Y-81578847D01*
X220436446Y-81600471D01*
X220444504Y-81622993D01*
X220450316Y-81646197D01*
X220453826Y-81669858D01*
X220455000Y-81693750D01*
X220455000Y-82606250D01*
X220453826Y-82630142D01*
X220450316Y-82653803D01*
X220444504Y-82677007D01*
X220436446Y-82699529D01*
X220426218Y-82721153D01*
X220413921Y-82741670D01*
X220399671Y-82760883D01*
X220383607Y-82778607D01*
X220365883Y-82794671D01*
X220346670Y-82808921D01*
X220326153Y-82821218D01*
X220304529Y-82831446D01*
X220282007Y-82839504D01*
X220258803Y-82845316D01*
X220235142Y-82848826D01*
X220211250Y-82850000D01*
X219723750Y-82850000D01*
X219699858Y-82848826D01*
X219676197Y-82845316D01*
X219652993Y-82839504D01*
X219630471Y-82831446D01*
X219608847Y-82821218D01*
X219588330Y-82808921D01*
X219569117Y-82794671D01*
X219551393Y-82778607D01*
X219535329Y-82760883D01*
X219521079Y-82741670D01*
X219508782Y-82721153D01*
X219498554Y-82699529D01*
X219490496Y-82677007D01*
X219484684Y-82653803D01*
X219481174Y-82630142D01*
X219480000Y-82606250D01*
X219480000Y-81693750D01*
X219481174Y-81669858D01*
X219484684Y-81646197D01*
X219490496Y-81622993D01*
X219498554Y-81600471D01*
X219508782Y-81578847D01*
X219521079Y-81558330D01*
X219535329Y-81539117D01*
X219551393Y-81521393D01*
X219569117Y-81505329D01*
X219588330Y-81491079D01*
X219608847Y-81478782D01*
X219630471Y-81468554D01*
X219652993Y-81460496D01*
X219676197Y-81454684D01*
X219699858Y-81451174D01*
X219723750Y-81450000D01*
X220211250Y-81450000D01*
X220235142Y-81451174D01*
X220235142Y-81451174D01*
G37*
D11*
X219967500Y-82150000D03*
D10*
G36*
X218360142Y-81451174D02*
G01*
X218383803Y-81454684D01*
X218407007Y-81460496D01*
X218429529Y-81468554D01*
X218451153Y-81478782D01*
X218471670Y-81491079D01*
X218490883Y-81505329D01*
X218508607Y-81521393D01*
X218524671Y-81539117D01*
X218538921Y-81558330D01*
X218551218Y-81578847D01*
X218561446Y-81600471D01*
X218569504Y-81622993D01*
X218575316Y-81646197D01*
X218578826Y-81669858D01*
X218580000Y-81693750D01*
X218580000Y-82606250D01*
X218578826Y-82630142D01*
X218575316Y-82653803D01*
X218569504Y-82677007D01*
X218561446Y-82699529D01*
X218551218Y-82721153D01*
X218538921Y-82741670D01*
X218524671Y-82760883D01*
X218508607Y-82778607D01*
X218490883Y-82794671D01*
X218471670Y-82808921D01*
X218451153Y-82821218D01*
X218429529Y-82831446D01*
X218407007Y-82839504D01*
X218383803Y-82845316D01*
X218360142Y-82848826D01*
X218336250Y-82850000D01*
X217848750Y-82850000D01*
X217824858Y-82848826D01*
X217801197Y-82845316D01*
X217777993Y-82839504D01*
X217755471Y-82831446D01*
X217733847Y-82821218D01*
X217713330Y-82808921D01*
X217694117Y-82794671D01*
X217676393Y-82778607D01*
X217660329Y-82760883D01*
X217646079Y-82741670D01*
X217633782Y-82721153D01*
X217623554Y-82699529D01*
X217615496Y-82677007D01*
X217609684Y-82653803D01*
X217606174Y-82630142D01*
X217605000Y-82606250D01*
X217605000Y-81693750D01*
X217606174Y-81669858D01*
X217609684Y-81646197D01*
X217615496Y-81622993D01*
X217623554Y-81600471D01*
X217633782Y-81578847D01*
X217646079Y-81558330D01*
X217660329Y-81539117D01*
X217676393Y-81521393D01*
X217694117Y-81505329D01*
X217713330Y-81491079D01*
X217733847Y-81478782D01*
X217755471Y-81468554D01*
X217777993Y-81460496D01*
X217801197Y-81454684D01*
X217824858Y-81451174D01*
X217848750Y-81450000D01*
X218336250Y-81450000D01*
X218360142Y-81451174D01*
X218360142Y-81451174D01*
G37*
D11*
X218092500Y-82150000D03*
D10*
G36*
X220235142Y-79217840D02*
G01*
X220258803Y-79221350D01*
X220282007Y-79227162D01*
X220304529Y-79235220D01*
X220326153Y-79245448D01*
X220346670Y-79257745D01*
X220365883Y-79271995D01*
X220383607Y-79288059D01*
X220399671Y-79305783D01*
X220413921Y-79324996D01*
X220426218Y-79345513D01*
X220436446Y-79367137D01*
X220444504Y-79389659D01*
X220450316Y-79412863D01*
X220453826Y-79436524D01*
X220455000Y-79460416D01*
X220455000Y-80372916D01*
X220453826Y-80396808D01*
X220450316Y-80420469D01*
X220444504Y-80443673D01*
X220436446Y-80466195D01*
X220426218Y-80487819D01*
X220413921Y-80508336D01*
X220399671Y-80527549D01*
X220383607Y-80545273D01*
X220365883Y-80561337D01*
X220346670Y-80575587D01*
X220326153Y-80587884D01*
X220304529Y-80598112D01*
X220282007Y-80606170D01*
X220258803Y-80611982D01*
X220235142Y-80615492D01*
X220211250Y-80616666D01*
X219723750Y-80616666D01*
X219699858Y-80615492D01*
X219676197Y-80611982D01*
X219652993Y-80606170D01*
X219630471Y-80598112D01*
X219608847Y-80587884D01*
X219588330Y-80575587D01*
X219569117Y-80561337D01*
X219551393Y-80545273D01*
X219535329Y-80527549D01*
X219521079Y-80508336D01*
X219508782Y-80487819D01*
X219498554Y-80466195D01*
X219490496Y-80443673D01*
X219484684Y-80420469D01*
X219481174Y-80396808D01*
X219480000Y-80372916D01*
X219480000Y-79460416D01*
X219481174Y-79436524D01*
X219484684Y-79412863D01*
X219490496Y-79389659D01*
X219498554Y-79367137D01*
X219508782Y-79345513D01*
X219521079Y-79324996D01*
X219535329Y-79305783D01*
X219551393Y-79288059D01*
X219569117Y-79271995D01*
X219588330Y-79257745D01*
X219608847Y-79245448D01*
X219630471Y-79235220D01*
X219652993Y-79227162D01*
X219676197Y-79221350D01*
X219699858Y-79217840D01*
X219723750Y-79216666D01*
X220211250Y-79216666D01*
X220235142Y-79217840D01*
X220235142Y-79217840D01*
G37*
D11*
X219967500Y-79916666D03*
D10*
G36*
X218360142Y-79217840D02*
G01*
X218383803Y-79221350D01*
X218407007Y-79227162D01*
X218429529Y-79235220D01*
X218451153Y-79245448D01*
X218471670Y-79257745D01*
X218490883Y-79271995D01*
X218508607Y-79288059D01*
X218524671Y-79305783D01*
X218538921Y-79324996D01*
X218551218Y-79345513D01*
X218561446Y-79367137D01*
X218569504Y-79389659D01*
X218575316Y-79412863D01*
X218578826Y-79436524D01*
X218580000Y-79460416D01*
X218580000Y-80372916D01*
X218578826Y-80396808D01*
X218575316Y-80420469D01*
X218569504Y-80443673D01*
X218561446Y-80466195D01*
X218551218Y-80487819D01*
X218538921Y-80508336D01*
X218524671Y-80527549D01*
X218508607Y-80545273D01*
X218490883Y-80561337D01*
X218471670Y-80575587D01*
X218451153Y-80587884D01*
X218429529Y-80598112D01*
X218407007Y-80606170D01*
X218383803Y-80611982D01*
X218360142Y-80615492D01*
X218336250Y-80616666D01*
X217848750Y-80616666D01*
X217824858Y-80615492D01*
X217801197Y-80611982D01*
X217777993Y-80606170D01*
X217755471Y-80598112D01*
X217733847Y-80587884D01*
X217713330Y-80575587D01*
X217694117Y-80561337D01*
X217676393Y-80545273D01*
X217660329Y-80527549D01*
X217646079Y-80508336D01*
X217633782Y-80487819D01*
X217623554Y-80466195D01*
X217615496Y-80443673D01*
X217609684Y-80420469D01*
X217606174Y-80396808D01*
X217605000Y-80372916D01*
X217605000Y-79460416D01*
X217606174Y-79436524D01*
X217609684Y-79412863D01*
X217615496Y-79389659D01*
X217623554Y-79367137D01*
X217633782Y-79345513D01*
X217646079Y-79324996D01*
X217660329Y-79305783D01*
X217676393Y-79288059D01*
X217694117Y-79271995D01*
X217713330Y-79257745D01*
X217733847Y-79245448D01*
X217755471Y-79235220D01*
X217777993Y-79227162D01*
X217801197Y-79221350D01*
X217824858Y-79217840D01*
X217848750Y-79216666D01*
X218336250Y-79216666D01*
X218360142Y-79217840D01*
X218360142Y-79217840D01*
G37*
D11*
X218092500Y-79916666D03*
D10*
G36*
X220235142Y-76984507D02*
G01*
X220258803Y-76988017D01*
X220282007Y-76993829D01*
X220304529Y-77001887D01*
X220326153Y-77012115D01*
X220346670Y-77024412D01*
X220365883Y-77038662D01*
X220383607Y-77054726D01*
X220399671Y-77072450D01*
X220413921Y-77091663D01*
X220426218Y-77112180D01*
X220436446Y-77133804D01*
X220444504Y-77156326D01*
X220450316Y-77179530D01*
X220453826Y-77203191D01*
X220455000Y-77227083D01*
X220455000Y-78139583D01*
X220453826Y-78163475D01*
X220450316Y-78187136D01*
X220444504Y-78210340D01*
X220436446Y-78232862D01*
X220426218Y-78254486D01*
X220413921Y-78275003D01*
X220399671Y-78294216D01*
X220383607Y-78311940D01*
X220365883Y-78328004D01*
X220346670Y-78342254D01*
X220326153Y-78354551D01*
X220304529Y-78364779D01*
X220282007Y-78372837D01*
X220258803Y-78378649D01*
X220235142Y-78382159D01*
X220211250Y-78383333D01*
X219723750Y-78383333D01*
X219699858Y-78382159D01*
X219676197Y-78378649D01*
X219652993Y-78372837D01*
X219630471Y-78364779D01*
X219608847Y-78354551D01*
X219588330Y-78342254D01*
X219569117Y-78328004D01*
X219551393Y-78311940D01*
X219535329Y-78294216D01*
X219521079Y-78275003D01*
X219508782Y-78254486D01*
X219498554Y-78232862D01*
X219490496Y-78210340D01*
X219484684Y-78187136D01*
X219481174Y-78163475D01*
X219480000Y-78139583D01*
X219480000Y-77227083D01*
X219481174Y-77203191D01*
X219484684Y-77179530D01*
X219490496Y-77156326D01*
X219498554Y-77133804D01*
X219508782Y-77112180D01*
X219521079Y-77091663D01*
X219535329Y-77072450D01*
X219551393Y-77054726D01*
X219569117Y-77038662D01*
X219588330Y-77024412D01*
X219608847Y-77012115D01*
X219630471Y-77001887D01*
X219652993Y-76993829D01*
X219676197Y-76988017D01*
X219699858Y-76984507D01*
X219723750Y-76983333D01*
X220211250Y-76983333D01*
X220235142Y-76984507D01*
X220235142Y-76984507D01*
G37*
D11*
X219967500Y-77683333D03*
D10*
G36*
X218360142Y-76984507D02*
G01*
X218383803Y-76988017D01*
X218407007Y-76993829D01*
X218429529Y-77001887D01*
X218451153Y-77012115D01*
X218471670Y-77024412D01*
X218490883Y-77038662D01*
X218508607Y-77054726D01*
X218524671Y-77072450D01*
X218538921Y-77091663D01*
X218551218Y-77112180D01*
X218561446Y-77133804D01*
X218569504Y-77156326D01*
X218575316Y-77179530D01*
X218578826Y-77203191D01*
X218580000Y-77227083D01*
X218580000Y-78139583D01*
X218578826Y-78163475D01*
X218575316Y-78187136D01*
X218569504Y-78210340D01*
X218561446Y-78232862D01*
X218551218Y-78254486D01*
X218538921Y-78275003D01*
X218524671Y-78294216D01*
X218508607Y-78311940D01*
X218490883Y-78328004D01*
X218471670Y-78342254D01*
X218451153Y-78354551D01*
X218429529Y-78364779D01*
X218407007Y-78372837D01*
X218383803Y-78378649D01*
X218360142Y-78382159D01*
X218336250Y-78383333D01*
X217848750Y-78383333D01*
X217824858Y-78382159D01*
X217801197Y-78378649D01*
X217777993Y-78372837D01*
X217755471Y-78364779D01*
X217733847Y-78354551D01*
X217713330Y-78342254D01*
X217694117Y-78328004D01*
X217676393Y-78311940D01*
X217660329Y-78294216D01*
X217646079Y-78275003D01*
X217633782Y-78254486D01*
X217623554Y-78232862D01*
X217615496Y-78210340D01*
X217609684Y-78187136D01*
X217606174Y-78163475D01*
X217605000Y-78139583D01*
X217605000Y-77227083D01*
X217606174Y-77203191D01*
X217609684Y-77179530D01*
X217615496Y-77156326D01*
X217623554Y-77133804D01*
X217633782Y-77112180D01*
X217646079Y-77091663D01*
X217660329Y-77072450D01*
X217676393Y-77054726D01*
X217694117Y-77038662D01*
X217713330Y-77024412D01*
X217733847Y-77012115D01*
X217755471Y-77001887D01*
X217777993Y-76993829D01*
X217801197Y-76988017D01*
X217824858Y-76984507D01*
X217848750Y-76983333D01*
X218336250Y-76983333D01*
X218360142Y-76984507D01*
X218360142Y-76984507D01*
G37*
D11*
X218092500Y-77683333D03*
D10*
G36*
X220235142Y-74751174D02*
G01*
X220258803Y-74754684D01*
X220282007Y-74760496D01*
X220304529Y-74768554D01*
X220326153Y-74778782D01*
X220346670Y-74791079D01*
X220365883Y-74805329D01*
X220383607Y-74821393D01*
X220399671Y-74839117D01*
X220413921Y-74858330D01*
X220426218Y-74878847D01*
X220436446Y-74900471D01*
X220444504Y-74922993D01*
X220450316Y-74946197D01*
X220453826Y-74969858D01*
X220455000Y-74993750D01*
X220455000Y-75906250D01*
X220453826Y-75930142D01*
X220450316Y-75953803D01*
X220444504Y-75977007D01*
X220436446Y-75999529D01*
X220426218Y-76021153D01*
X220413921Y-76041670D01*
X220399671Y-76060883D01*
X220383607Y-76078607D01*
X220365883Y-76094671D01*
X220346670Y-76108921D01*
X220326153Y-76121218D01*
X220304529Y-76131446D01*
X220282007Y-76139504D01*
X220258803Y-76145316D01*
X220235142Y-76148826D01*
X220211250Y-76150000D01*
X219723750Y-76150000D01*
X219699858Y-76148826D01*
X219676197Y-76145316D01*
X219652993Y-76139504D01*
X219630471Y-76131446D01*
X219608847Y-76121218D01*
X219588330Y-76108921D01*
X219569117Y-76094671D01*
X219551393Y-76078607D01*
X219535329Y-76060883D01*
X219521079Y-76041670D01*
X219508782Y-76021153D01*
X219498554Y-75999529D01*
X219490496Y-75977007D01*
X219484684Y-75953803D01*
X219481174Y-75930142D01*
X219480000Y-75906250D01*
X219480000Y-74993750D01*
X219481174Y-74969858D01*
X219484684Y-74946197D01*
X219490496Y-74922993D01*
X219498554Y-74900471D01*
X219508782Y-74878847D01*
X219521079Y-74858330D01*
X219535329Y-74839117D01*
X219551393Y-74821393D01*
X219569117Y-74805329D01*
X219588330Y-74791079D01*
X219608847Y-74778782D01*
X219630471Y-74768554D01*
X219652993Y-74760496D01*
X219676197Y-74754684D01*
X219699858Y-74751174D01*
X219723750Y-74750000D01*
X220211250Y-74750000D01*
X220235142Y-74751174D01*
X220235142Y-74751174D01*
G37*
D11*
X219967500Y-75450000D03*
D10*
G36*
X218360142Y-74751174D02*
G01*
X218383803Y-74754684D01*
X218407007Y-74760496D01*
X218429529Y-74768554D01*
X218451153Y-74778782D01*
X218471670Y-74791079D01*
X218490883Y-74805329D01*
X218508607Y-74821393D01*
X218524671Y-74839117D01*
X218538921Y-74858330D01*
X218551218Y-74878847D01*
X218561446Y-74900471D01*
X218569504Y-74922993D01*
X218575316Y-74946197D01*
X218578826Y-74969858D01*
X218580000Y-74993750D01*
X218580000Y-75906250D01*
X218578826Y-75930142D01*
X218575316Y-75953803D01*
X218569504Y-75977007D01*
X218561446Y-75999529D01*
X218551218Y-76021153D01*
X218538921Y-76041670D01*
X218524671Y-76060883D01*
X218508607Y-76078607D01*
X218490883Y-76094671D01*
X218471670Y-76108921D01*
X218451153Y-76121218D01*
X218429529Y-76131446D01*
X218407007Y-76139504D01*
X218383803Y-76145316D01*
X218360142Y-76148826D01*
X218336250Y-76150000D01*
X217848750Y-76150000D01*
X217824858Y-76148826D01*
X217801197Y-76145316D01*
X217777993Y-76139504D01*
X217755471Y-76131446D01*
X217733847Y-76121218D01*
X217713330Y-76108921D01*
X217694117Y-76094671D01*
X217676393Y-76078607D01*
X217660329Y-76060883D01*
X217646079Y-76041670D01*
X217633782Y-76021153D01*
X217623554Y-75999529D01*
X217615496Y-75977007D01*
X217609684Y-75953803D01*
X217606174Y-75930142D01*
X217605000Y-75906250D01*
X217605000Y-74993750D01*
X217606174Y-74969858D01*
X217609684Y-74946197D01*
X217615496Y-74922993D01*
X217623554Y-74900471D01*
X217633782Y-74878847D01*
X217646079Y-74858330D01*
X217660329Y-74839117D01*
X217676393Y-74821393D01*
X217694117Y-74805329D01*
X217713330Y-74791079D01*
X217733847Y-74778782D01*
X217755471Y-74768554D01*
X217777993Y-74760496D01*
X217801197Y-74754684D01*
X217824858Y-74751174D01*
X217848750Y-74750000D01*
X218336250Y-74750000D01*
X218360142Y-74751174D01*
X218360142Y-74751174D01*
G37*
D11*
X218092500Y-75450000D03*
D14*
X212534900Y-81429200D03*
X211899900Y-81429200D03*
X211264900Y-81429200D03*
X210629900Y-81429200D03*
X209994900Y-81429200D03*
X209359900Y-81429200D03*
X208724900Y-81429200D03*
X208089900Y-81429200D03*
X208089900Y-76229200D03*
X208724900Y-76229200D03*
X209359900Y-76229200D03*
X209994900Y-76229200D03*
X210629900Y-76229200D03*
X211264900Y-76229200D03*
X211899900Y-76229200D03*
X212534900Y-76229200D03*
D15*
X204356000Y-81278400D03*
X204356000Y-76278400D03*
D16*
X201606000Y-82653400D03*
X201606000Y-74903400D03*
D17*
X205406000Y-82503400D03*
X205406000Y-75053400D03*
D18*
X205456000Y-80078400D03*
X205456000Y-79428400D03*
X205456000Y-78778400D03*
X205456000Y-78128400D03*
X205456000Y-77478400D03*
D19*
X202034000Y-62853600D03*
X218294000Y-62853600D03*
D20*
X216514000Y-59423600D03*
X203814000Y-59423600D03*
D21*
X213744000Y-63743600D03*
X211704000Y-63743600D03*
X209664000Y-63743600D03*
X207624000Y-63743600D03*
X212724000Y-61963600D03*
X210684000Y-61963600D03*
X208644000Y-61963600D03*
D22*
X206604000Y-61963600D03*
D19*
X218344800Y-135546400D03*
X202084800Y-135546400D03*
D20*
X203864800Y-138976400D03*
X216564800Y-138976400D03*
D21*
X206634800Y-134656400D03*
X208674800Y-134656400D03*
X210714800Y-134656400D03*
X212754800Y-134656400D03*
X207654800Y-136436400D03*
X209694800Y-136436400D03*
X211734800Y-136436400D03*
D22*
X213774800Y-136436400D03*
M02*
