G04 #@! TF.GenerationSoftware,KiCad,Pcbnew,(5.1.6-0-10_14)*
G04 #@! TF.CreationDate,2020-09-12T18:40:15-05:00*
G04 #@! TF.ProjectId,NetworkBreaker,4e657477-6f72-46b4-9272-65616b65722e,rev?*
G04 #@! TF.SameCoordinates,Original*
G04 #@! TF.FileFunction,Legend,Top*
G04 #@! TF.FilePolarity,Positive*
%FSLAX46Y46*%
G04 Gerber Fmt 4.6, Leading zero omitted, Abs format (unit mm)*
G04 Created by KiCad (PCBNEW (5.1.6-0-10_14)) date 2020-09-12 18:40:15*
%MOMM*%
%LPD*%
G01*
G04 APERTURE LIST*
%ADD10C,0.150000*%
%ADD11C,0.120000*%
G04 APERTURE END LIST*
D10*
X204997533Y-120251780D02*
X204664200Y-119775590D01*
X204426104Y-120251780D02*
X204426104Y-119251780D01*
X204807057Y-119251780D01*
X204902295Y-119299400D01*
X204949914Y-119347019D01*
X204997533Y-119442257D01*
X204997533Y-119585114D01*
X204949914Y-119680352D01*
X204902295Y-119727971D01*
X204807057Y-119775590D01*
X204426104Y-119775590D01*
X205330866Y-119251780D02*
X205997533Y-120251780D01*
X205997533Y-119251780D02*
X205330866Y-120251780D01*
X206378485Y-120251780D02*
X206378485Y-119251780D01*
X206616580Y-119251780D01*
X206759438Y-119299400D01*
X206854676Y-119394638D01*
X206902295Y-119489876D01*
X206949914Y-119680352D01*
X206949914Y-119823209D01*
X206902295Y-120013685D01*
X206854676Y-120108923D01*
X206759438Y-120204161D01*
X206616580Y-120251780D01*
X206378485Y-120251780D01*
D11*
X215337022Y-82841200D02*
X215854178Y-82841200D01*
X215337022Y-81421200D02*
X215854178Y-81421200D01*
X217314200Y-83091200D02*
X219999200Y-83091200D01*
X217314200Y-81171200D02*
X217314200Y-83091200D01*
X219999200Y-81171200D02*
X217314200Y-81171200D01*
X215337022Y-80606000D02*
X215854178Y-80606000D01*
X215337022Y-79186000D02*
X215854178Y-79186000D01*
X215337022Y-78370800D02*
X215854178Y-78370800D01*
X215337022Y-76950800D02*
X215854178Y-76950800D01*
X215337022Y-76135600D02*
X215854178Y-76135600D01*
X215337022Y-74715600D02*
X215854178Y-74715600D01*
X217314200Y-80856000D02*
X219999200Y-80856000D01*
X217314200Y-78936000D02*
X217314200Y-80856000D01*
X219999200Y-78936000D02*
X217314200Y-78936000D01*
X217314200Y-78620800D02*
X219999200Y-78620800D01*
X217314200Y-76700800D02*
X217314200Y-78620800D01*
X219999200Y-76700800D02*
X217314200Y-76700800D01*
X217314200Y-76385600D02*
X219999200Y-76385600D01*
X217314200Y-74465600D02*
X217314200Y-76385600D01*
X219999200Y-74465600D02*
X217314200Y-74465600D01*
D10*
X213037400Y-75554200D02*
X213037400Y-80829200D01*
X207637400Y-76829200D02*
X207637400Y-80829200D01*
X205956000Y-80578400D02*
X205956000Y-81578400D01*
X205956000Y-76978400D02*
X205956000Y-75978400D01*
X206381000Y-76978400D02*
X205956000Y-76978400D01*
X206381000Y-77703400D02*
X206381000Y-76978400D01*
X202806000Y-82928400D02*
X204206000Y-82928400D01*
X200256000Y-82928400D02*
X200406000Y-82928400D01*
X200256000Y-82628400D02*
X200256000Y-82928400D01*
X199806000Y-82628400D02*
X200256000Y-82628400D01*
X200256000Y-74928400D02*
X199806000Y-74928400D01*
X200256000Y-74628400D02*
X200256000Y-74928400D01*
X200406000Y-74628400D02*
X200256000Y-74628400D01*
X204206000Y-74628400D02*
X202806000Y-74628400D01*
D11*
X201104000Y-60963600D02*
X201604000Y-61463600D01*
X201104000Y-61963600D02*
X201104000Y-60963600D01*
X201604000Y-61463600D02*
X201104000Y-61963600D01*
X218484000Y-69778600D02*
X218484000Y-64103600D01*
X201844000Y-69778600D02*
X201844000Y-64103600D01*
X201844000Y-69778600D02*
X218484000Y-69778600D01*
X218484000Y-53898600D02*
X218484000Y-61603600D01*
X201844000Y-53898600D02*
X201844000Y-61603600D01*
X201844000Y-53898600D02*
X218484000Y-53898600D01*
X219274800Y-137436400D02*
X218774800Y-136936400D01*
X219274800Y-136436400D02*
X219274800Y-137436400D01*
X218774800Y-136936400D02*
X219274800Y-136436400D01*
X201894800Y-128621400D02*
X201894800Y-134296400D01*
X218534800Y-128621400D02*
X218534800Y-134296400D01*
X218534800Y-128621400D02*
X201894800Y-128621400D01*
X201894800Y-144501400D02*
X201894800Y-136796400D01*
X218534800Y-144501400D02*
X218534800Y-136796400D01*
X218534800Y-144501400D02*
X201894800Y-144501400D01*
X200787300Y-122074800D02*
X200787300Y-122774800D01*
X201987300Y-122074800D02*
X200787300Y-122074800D01*
X201987300Y-122774800D02*
X201987300Y-122074800D01*
X200787300Y-122774800D02*
X201987300Y-122774800D01*
X201587300Y-122774800D02*
X201187300Y-122074800D01*
X201387300Y-122074800D02*
X201387300Y-120974800D01*
X201387300Y-122774800D02*
X201387300Y-123874800D01*
X220587300Y-117174800D02*
X220587300Y-127574800D01*
X199987300Y-117174800D02*
X220587300Y-117174800D01*
X199987300Y-127574800D02*
X199987300Y-117174800D01*
X220587300Y-127574800D02*
X199987300Y-127574800D01*
X199787300Y-127774800D02*
X199787300Y-126274800D01*
X201487300Y-127774800D02*
X199787300Y-127774800D01*
X200787300Y-110340000D02*
X200787300Y-111040000D01*
X201987300Y-110340000D02*
X200787300Y-110340000D01*
X201987300Y-111040000D02*
X201987300Y-110340000D01*
X200787300Y-111040000D02*
X201987300Y-111040000D01*
X201587300Y-111040000D02*
X201187300Y-110340000D01*
X201387300Y-110340000D02*
X201387300Y-109240000D01*
X201387300Y-111040000D02*
X201387300Y-112140000D01*
X220587300Y-105440000D02*
X220587300Y-115840000D01*
X199987300Y-105440000D02*
X220587300Y-105440000D01*
X199987300Y-115840000D02*
X199987300Y-105440000D01*
X220587300Y-115840000D02*
X199987300Y-115840000D01*
X199787300Y-116040000D02*
X199787300Y-114540000D01*
X201487300Y-116040000D02*
X199787300Y-116040000D01*
X200787300Y-99570400D02*
X200787300Y-100270400D01*
X201987300Y-99570400D02*
X200787300Y-99570400D01*
X201987300Y-100270400D02*
X201987300Y-99570400D01*
X200787300Y-100270400D02*
X201987300Y-100270400D01*
X201587300Y-100270400D02*
X201187300Y-99570400D01*
X201387300Y-99570400D02*
X201387300Y-98470400D01*
X201387300Y-100270400D02*
X201387300Y-101370400D01*
X220587300Y-94670400D02*
X220587300Y-105070400D01*
X199987300Y-94670400D02*
X220587300Y-94670400D01*
X199987300Y-105070400D02*
X199987300Y-94670400D01*
X220587300Y-105070400D02*
X199987300Y-105070400D01*
X199787300Y-105270400D02*
X199787300Y-103770400D01*
X201487300Y-105270400D02*
X199787300Y-105270400D01*
X200787300Y-88800800D02*
X200787300Y-89500800D01*
X201987300Y-88800800D02*
X200787300Y-88800800D01*
X201987300Y-89500800D02*
X201987300Y-88800800D01*
X200787300Y-89500800D02*
X201987300Y-89500800D01*
X201587300Y-89500800D02*
X201187300Y-88800800D01*
X201387300Y-88800800D02*
X201387300Y-87700800D01*
X201387300Y-89500800D02*
X201387300Y-90600800D01*
X220587300Y-83900800D02*
X220587300Y-94300800D01*
X199987300Y-83900800D02*
X220587300Y-83900800D01*
X199987300Y-94300800D02*
X199987300Y-83900800D01*
X220587300Y-94300800D02*
X199987300Y-94300800D01*
X199787300Y-94500800D02*
X199787300Y-93000800D01*
X201487300Y-94500800D02*
X199787300Y-94500800D01*
D10*
X215428933Y-80933580D02*
X215095600Y-80457390D01*
X214857504Y-80933580D02*
X214857504Y-79933580D01*
X215238457Y-79933580D01*
X215333695Y-79981200D01*
X215381314Y-80028819D01*
X215428933Y-80124057D01*
X215428933Y-80266914D01*
X215381314Y-80362152D01*
X215333695Y-80409771D01*
X215238457Y-80457390D01*
X214857504Y-80457390D01*
X216286076Y-79933580D02*
X216095600Y-79933580D01*
X216000361Y-79981200D01*
X215952742Y-80028819D01*
X215857504Y-80171676D01*
X215809885Y-80362152D01*
X215809885Y-80743104D01*
X215857504Y-80838342D01*
X215905123Y-80885961D01*
X216000361Y-80933580D01*
X216190838Y-80933580D01*
X216286076Y-80885961D01*
X216333695Y-80838342D01*
X216381314Y-80743104D01*
X216381314Y-80505009D01*
X216333695Y-80409771D01*
X216286076Y-80362152D01*
X216190838Y-80314533D01*
X216000361Y-80314533D01*
X215905123Y-80362152D01*
X215857504Y-80409771D01*
X215809885Y-80505009D01*
X218261104Y-80933580D02*
X218261104Y-79933580D01*
X218499200Y-79933580D01*
X218642057Y-79981200D01*
X218737295Y-80076438D01*
X218784914Y-80171676D01*
X218832533Y-80362152D01*
X218832533Y-80505009D01*
X218784914Y-80695485D01*
X218737295Y-80790723D01*
X218642057Y-80885961D01*
X218499200Y-80933580D01*
X218261104Y-80933580D01*
X219689676Y-80266914D02*
X219689676Y-80933580D01*
X219451580Y-79885961D02*
X219213485Y-80600247D01*
X219832533Y-80600247D01*
X215428933Y-78698380D02*
X215095600Y-78222190D01*
X214857504Y-78698380D02*
X214857504Y-77698380D01*
X215238457Y-77698380D01*
X215333695Y-77746000D01*
X215381314Y-77793619D01*
X215428933Y-77888857D01*
X215428933Y-78031714D01*
X215381314Y-78126952D01*
X215333695Y-78174571D01*
X215238457Y-78222190D01*
X214857504Y-78222190D01*
X215762266Y-77698380D02*
X216381314Y-77698380D01*
X216047980Y-78079333D01*
X216190838Y-78079333D01*
X216286076Y-78126952D01*
X216333695Y-78174571D01*
X216381314Y-78269809D01*
X216381314Y-78507904D01*
X216333695Y-78603142D01*
X216286076Y-78650761D01*
X216190838Y-78698380D01*
X215905123Y-78698380D01*
X215809885Y-78650761D01*
X215762266Y-78603142D01*
X215428933Y-76463180D02*
X215095600Y-75986990D01*
X214857504Y-76463180D02*
X214857504Y-75463180D01*
X215238457Y-75463180D01*
X215333695Y-75510800D01*
X215381314Y-75558419D01*
X215428933Y-75653657D01*
X215428933Y-75796514D01*
X215381314Y-75891752D01*
X215333695Y-75939371D01*
X215238457Y-75986990D01*
X214857504Y-75986990D01*
X215809885Y-75558419D02*
X215857504Y-75510800D01*
X215952742Y-75463180D01*
X216190838Y-75463180D01*
X216286076Y-75510800D01*
X216333695Y-75558419D01*
X216381314Y-75653657D01*
X216381314Y-75748895D01*
X216333695Y-75891752D01*
X215762266Y-76463180D01*
X216381314Y-76463180D01*
X215428933Y-74227980D02*
X215095600Y-73751790D01*
X214857504Y-74227980D02*
X214857504Y-73227980D01*
X215238457Y-73227980D01*
X215333695Y-73275600D01*
X215381314Y-73323219D01*
X215428933Y-73418457D01*
X215428933Y-73561314D01*
X215381314Y-73656552D01*
X215333695Y-73704171D01*
X215238457Y-73751790D01*
X214857504Y-73751790D01*
X216381314Y-74227980D02*
X215809885Y-74227980D01*
X216095600Y-74227980D02*
X216095600Y-73227980D01*
X216000361Y-73370838D01*
X215905123Y-73466076D01*
X215809885Y-73513695D01*
X218261104Y-78698380D02*
X218261104Y-77698380D01*
X218499200Y-77698380D01*
X218642057Y-77746000D01*
X218737295Y-77841238D01*
X218784914Y-77936476D01*
X218832533Y-78126952D01*
X218832533Y-78269809D01*
X218784914Y-78460285D01*
X218737295Y-78555523D01*
X218642057Y-78650761D01*
X218499200Y-78698380D01*
X218261104Y-78698380D01*
X219165866Y-77698380D02*
X219784914Y-77698380D01*
X219451580Y-78079333D01*
X219594438Y-78079333D01*
X219689676Y-78126952D01*
X219737295Y-78174571D01*
X219784914Y-78269809D01*
X219784914Y-78507904D01*
X219737295Y-78603142D01*
X219689676Y-78650761D01*
X219594438Y-78698380D01*
X219308723Y-78698380D01*
X219213485Y-78650761D01*
X219165866Y-78603142D01*
X218261104Y-76463180D02*
X218261104Y-75463180D01*
X218499200Y-75463180D01*
X218642057Y-75510800D01*
X218737295Y-75606038D01*
X218784914Y-75701276D01*
X218832533Y-75891752D01*
X218832533Y-76034609D01*
X218784914Y-76225085D01*
X218737295Y-76320323D01*
X218642057Y-76415561D01*
X218499200Y-76463180D01*
X218261104Y-76463180D01*
X219213485Y-75558419D02*
X219261104Y-75510800D01*
X219356342Y-75463180D01*
X219594438Y-75463180D01*
X219689676Y-75510800D01*
X219737295Y-75558419D01*
X219784914Y-75653657D01*
X219784914Y-75748895D01*
X219737295Y-75891752D01*
X219165866Y-76463180D01*
X219784914Y-76463180D01*
X218261104Y-74227980D02*
X218261104Y-73227980D01*
X218499200Y-73227980D01*
X218642057Y-73275600D01*
X218737295Y-73370838D01*
X218784914Y-73466076D01*
X218832533Y-73656552D01*
X218832533Y-73799409D01*
X218784914Y-73989885D01*
X218737295Y-74085123D01*
X218642057Y-74180361D01*
X218499200Y-74227980D01*
X218261104Y-74227980D01*
X219784914Y-74227980D02*
X219213485Y-74227980D01*
X219499200Y-74227980D02*
X219499200Y-73227980D01*
X219403961Y-73370838D01*
X219308723Y-73466076D01*
X219213485Y-73513695D01*
X213264780Y-79591104D02*
X214074304Y-79591104D01*
X214169542Y-79543485D01*
X214217161Y-79495866D01*
X214264780Y-79400628D01*
X214264780Y-79210152D01*
X214217161Y-79114914D01*
X214169542Y-79067295D01*
X214074304Y-79019676D01*
X213264780Y-79019676D01*
X213360019Y-78591104D02*
X213312400Y-78543485D01*
X213264780Y-78448247D01*
X213264780Y-78210152D01*
X213312400Y-78114914D01*
X213360019Y-78067295D01*
X213455257Y-78019676D01*
X213550495Y-78019676D01*
X213693352Y-78067295D01*
X214264780Y-78638723D01*
X214264780Y-78019676D01*
X206508380Y-79111733D02*
X207222666Y-79111733D01*
X207365523Y-79159352D01*
X207460761Y-79254590D01*
X207508380Y-79397447D01*
X207508380Y-79492685D01*
X206841714Y-78206971D02*
X207508380Y-78206971D01*
X206460761Y-78445066D02*
X207175047Y-78683161D01*
X207175047Y-78064114D01*
X200464416Y-54151580D02*
X200464416Y-54865866D01*
X200416797Y-55008723D01*
X200321559Y-55103961D01*
X200178702Y-55151580D01*
X200083464Y-55151580D01*
X200892988Y-54246819D02*
X200940607Y-54199200D01*
X201035845Y-54151580D01*
X201273940Y-54151580D01*
X201369178Y-54199200D01*
X201416797Y-54246819D01*
X201464416Y-54342057D01*
X201464416Y-54437295D01*
X201416797Y-54580152D01*
X200845369Y-55151580D01*
X201464416Y-55151580D01*
X219304866Y-143153180D02*
X219304866Y-143867466D01*
X219257247Y-144010323D01*
X219162009Y-144105561D01*
X219019152Y-144153180D01*
X218923914Y-144153180D01*
X220304866Y-144153180D02*
X219733438Y-144153180D01*
X220019152Y-144153180D02*
X220019152Y-143153180D01*
X219923914Y-143296038D01*
X219828676Y-143391276D01*
X219733438Y-143438895D01*
X202497019Y-121791804D02*
X203497019Y-121791804D01*
X202497019Y-122363233D02*
X203068447Y-121934661D01*
X203497019Y-122363233D02*
X202925590Y-121791804D01*
X203163685Y-123220376D02*
X202497019Y-123220376D01*
X203544638Y-122982280D02*
X202830352Y-122744185D01*
X202830352Y-123363233D01*
X202547819Y-109896136D02*
X203547819Y-109896136D01*
X202547819Y-110467565D02*
X203119247Y-110038993D01*
X203547819Y-110467565D02*
X202976390Y-109896136D01*
X203547819Y-110800898D02*
X203547819Y-111419946D01*
X203166866Y-111086612D01*
X203166866Y-111229470D01*
X203119247Y-111324708D01*
X203071628Y-111372327D01*
X202976390Y-111419946D01*
X202738295Y-111419946D01*
X202643057Y-111372327D01*
X202595438Y-111324708D01*
X202547819Y-111229470D01*
X202547819Y-110943755D01*
X202595438Y-110848517D01*
X202643057Y-110800898D01*
X202801819Y-98965670D02*
X203801819Y-98965670D01*
X202801819Y-99537099D02*
X203373247Y-99108527D01*
X203801819Y-99537099D02*
X203230390Y-98965670D01*
X203706580Y-99918051D02*
X203754200Y-99965670D01*
X203801819Y-100060908D01*
X203801819Y-100299004D01*
X203754200Y-100394242D01*
X203706580Y-100441861D01*
X203611342Y-100489480D01*
X203516104Y-100489480D01*
X203373247Y-100441861D01*
X202801819Y-99870432D01*
X202801819Y-100489480D01*
X203208219Y-88187604D02*
X204208219Y-88187604D01*
X203208219Y-88759033D02*
X203779647Y-88330461D01*
X204208219Y-88759033D02*
X203636790Y-88187604D01*
X203208219Y-89711414D02*
X203208219Y-89139985D01*
X203208219Y-89425700D02*
X204208219Y-89425700D01*
X204065361Y-89330461D01*
X203970123Y-89235223D01*
X203922504Y-89139985D01*
M02*
