G04 #@! TF.GenerationSoftware,KiCad,Pcbnew,(5.1.4)-1*
G04 #@! TF.CreationDate,2020-09-13T00:14:35-05:00*
G04 #@! TF.ProjectId,NetworkBreaker,4e657477-6f72-46b4-9272-65616b65722e,rev?*
G04 #@! TF.SameCoordinates,Original*
G04 #@! TF.FileFunction,Legend,Bot*
G04 #@! TF.FilePolarity,Positive*
%FSLAX46Y46*%
G04 Gerber Fmt 4.6, Leading zero omitted, Abs format (unit mm)*
G04 Created by KiCad (PCBNEW (5.1.4)-1) date 2020-09-13 00:14:35*
%MOMM*%
%LPD*%
G04 APERTURE LIST*
%ADD10C,0.150000*%
%ADD11C,0.120000*%
G04 APERTURE END LIST*
D10*
X254379523Y-104041904D02*
X253922380Y-104041904D01*
X254150952Y-104841904D02*
X254150952Y-104041904D01*
X253731904Y-104041904D02*
X253198571Y-104841904D01*
X253198571Y-104041904D02*
X253731904Y-104841904D01*
X256383333Y-104841904D02*
X256650000Y-104460952D01*
X256840476Y-104841904D02*
X256840476Y-104041904D01*
X256535714Y-104041904D01*
X256459523Y-104080000D01*
X256421428Y-104118095D01*
X256383333Y-104194285D01*
X256383333Y-104308571D01*
X256421428Y-104384761D01*
X256459523Y-104422857D01*
X256535714Y-104460952D01*
X256840476Y-104460952D01*
X256116666Y-104041904D02*
X255583333Y-104841904D01*
X255583333Y-104041904D02*
X256116666Y-104841904D01*
X251659523Y-104080000D02*
X251735714Y-104041904D01*
X251850000Y-104041904D01*
X251964285Y-104080000D01*
X252040476Y-104156190D01*
X252078571Y-104232380D01*
X252116666Y-104384761D01*
X252116666Y-104499047D01*
X252078571Y-104651428D01*
X252040476Y-104727619D01*
X251964285Y-104803809D01*
X251850000Y-104841904D01*
X251773809Y-104841904D01*
X251659523Y-104803809D01*
X251621428Y-104765714D01*
X251621428Y-104499047D01*
X251773809Y-104499047D01*
X251278571Y-104841904D02*
X251278571Y-104041904D01*
X250821428Y-104841904D01*
X250821428Y-104041904D01*
X250440476Y-104841904D02*
X250440476Y-104041904D01*
X250250000Y-104041904D01*
X250135714Y-104080000D01*
X250059523Y-104156190D01*
X250021428Y-104232380D01*
X249983333Y-104384761D01*
X249983333Y-104499047D01*
X250021428Y-104651428D01*
X250059523Y-104727619D01*
X250135714Y-104803809D01*
X250250000Y-104841904D01*
X250440476Y-104841904D01*
X259288095Y-104841904D02*
X259554761Y-104460952D01*
X259745238Y-104841904D02*
X259745238Y-104041904D01*
X259440476Y-104041904D01*
X259364285Y-104080000D01*
X259326190Y-104118095D01*
X259288095Y-104194285D01*
X259288095Y-104308571D01*
X259326190Y-104384761D01*
X259364285Y-104422857D01*
X259440476Y-104460952D01*
X259745238Y-104460952D01*
X259059523Y-104041904D02*
X258602380Y-104041904D01*
X258830952Y-104841904D02*
X258830952Y-104041904D01*
X258373809Y-104803809D02*
X258259523Y-104841904D01*
X258069047Y-104841904D01*
X257992857Y-104803809D01*
X257954761Y-104765714D01*
X257916666Y-104689523D01*
X257916666Y-104613333D01*
X257954761Y-104537142D01*
X257992857Y-104499047D01*
X258069047Y-104460952D01*
X258221428Y-104422857D01*
X258297619Y-104384761D01*
X258335714Y-104346666D01*
X258373809Y-104270476D01*
X258373809Y-104194285D01*
X258335714Y-104118095D01*
X258297619Y-104080000D01*
X258221428Y-104041904D01*
X258030952Y-104041904D01*
X257916666Y-104080000D01*
X248454285Y-104041904D02*
X248835238Y-104041904D01*
X248873333Y-104422857D01*
X248835238Y-104384761D01*
X248759047Y-104346666D01*
X248568571Y-104346666D01*
X248492380Y-104384761D01*
X248454285Y-104422857D01*
X248416190Y-104499047D01*
X248416190Y-104689523D01*
X248454285Y-104765714D01*
X248492380Y-104803809D01*
X248568571Y-104841904D01*
X248759047Y-104841904D01*
X248835238Y-104803809D01*
X248873333Y-104765714D01*
X248149523Y-104308571D02*
X247959047Y-104841904D01*
X247768571Y-104308571D01*
X262028095Y-104765714D02*
X262066190Y-104803809D01*
X262180476Y-104841904D01*
X262256666Y-104841904D01*
X262370952Y-104803809D01*
X262447142Y-104727619D01*
X262485238Y-104651428D01*
X262523333Y-104499047D01*
X262523333Y-104384761D01*
X262485238Y-104232380D01*
X262447142Y-104156190D01*
X262370952Y-104080000D01*
X262256666Y-104041904D01*
X262180476Y-104041904D01*
X262066190Y-104080000D01*
X262028095Y-104118095D01*
X261799523Y-104041904D02*
X261342380Y-104041904D01*
X261570952Y-104841904D02*
X261570952Y-104041904D01*
X261113809Y-104803809D02*
X260999523Y-104841904D01*
X260809047Y-104841904D01*
X260732857Y-104803809D01*
X260694761Y-104765714D01*
X260656666Y-104689523D01*
X260656666Y-104613333D01*
X260694761Y-104537142D01*
X260732857Y-104499047D01*
X260809047Y-104460952D01*
X260961428Y-104422857D01*
X261037619Y-104384761D01*
X261075714Y-104346666D01*
X261113809Y-104270476D01*
X261113809Y-104194285D01*
X261075714Y-104118095D01*
X261037619Y-104080000D01*
X260961428Y-104041904D01*
X260770952Y-104041904D01*
X260656666Y-104080000D01*
X240251733Y-148953780D02*
X240251733Y-147953780D01*
X239680304Y-148953780D01*
X239680304Y-147953780D01*
X239061257Y-148953780D02*
X239156495Y-148906161D01*
X239204114Y-148858542D01*
X239251733Y-148763304D01*
X239251733Y-148477590D01*
X239204114Y-148382352D01*
X239156495Y-148334733D01*
X239061257Y-148287114D01*
X238918400Y-148287114D01*
X238823161Y-148334733D01*
X238775542Y-148382352D01*
X238727923Y-148477590D01*
X238727923Y-148763304D01*
X238775542Y-148858542D01*
X238823161Y-148906161D01*
X238918400Y-148953780D01*
X239061257Y-148953780D01*
X238299352Y-148953780D02*
X238299352Y-148287114D01*
X238299352Y-148477590D02*
X238251733Y-148382352D01*
X238204114Y-148334733D01*
X238108876Y-148287114D01*
X238013638Y-148287114D01*
X237680304Y-148953780D02*
X237680304Y-148287114D01*
X237680304Y-148382352D02*
X237632685Y-148334733D01*
X237537447Y-148287114D01*
X237394590Y-148287114D01*
X237299352Y-148334733D01*
X237251733Y-148429971D01*
X237251733Y-148953780D01*
X237251733Y-148429971D02*
X237204114Y-148334733D01*
X237108876Y-148287114D01*
X236966019Y-148287114D01*
X236870780Y-148334733D01*
X236823161Y-148429971D01*
X236823161Y-148953780D01*
X235918400Y-148953780D02*
X235918400Y-148429971D01*
X235966019Y-148334733D01*
X236061257Y-148287114D01*
X236251733Y-148287114D01*
X236346971Y-148334733D01*
X235918400Y-148906161D02*
X236013638Y-148953780D01*
X236251733Y-148953780D01*
X236346971Y-148906161D01*
X236394590Y-148810923D01*
X236394590Y-148715685D01*
X236346971Y-148620447D01*
X236251733Y-148572828D01*
X236013638Y-148572828D01*
X235918400Y-148525209D01*
X235299352Y-148953780D02*
X235394590Y-148906161D01*
X235442209Y-148810923D01*
X235442209Y-147953780D01*
X234775542Y-148953780D02*
X234870780Y-148906161D01*
X234918400Y-148810923D01*
X234918400Y-147953780D01*
X234489828Y-148287114D02*
X234251733Y-148953780D01*
X234013638Y-148287114D02*
X234251733Y-148953780D01*
X234346971Y-149191876D01*
X234394590Y-149239495D01*
X234489828Y-149287114D01*
X232299352Y-148858542D02*
X232346971Y-148906161D01*
X232489828Y-148953780D01*
X232585066Y-148953780D01*
X232727923Y-148906161D01*
X232823161Y-148810923D01*
X232870780Y-148715685D01*
X232918400Y-148525209D01*
X232918400Y-148382352D01*
X232870780Y-148191876D01*
X232823161Y-148096638D01*
X232727923Y-148001400D01*
X232585066Y-147953780D01*
X232489828Y-147953780D01*
X232346971Y-148001400D01*
X232299352Y-148049019D01*
X231727923Y-148953780D02*
X231823161Y-148906161D01*
X231870780Y-148858542D01*
X231918400Y-148763304D01*
X231918400Y-148477590D01*
X231870780Y-148382352D01*
X231823161Y-148334733D01*
X231727923Y-148287114D01*
X231585066Y-148287114D01*
X231489828Y-148334733D01*
X231442209Y-148382352D01*
X231394590Y-148477590D01*
X231394590Y-148763304D01*
X231442209Y-148858542D01*
X231489828Y-148906161D01*
X231585066Y-148953780D01*
X231727923Y-148953780D01*
X230966019Y-148287114D02*
X230966019Y-148953780D01*
X230966019Y-148382352D02*
X230918400Y-148334733D01*
X230823161Y-148287114D01*
X230680304Y-148287114D01*
X230585066Y-148334733D01*
X230537447Y-148429971D01*
X230537447Y-148953780D01*
X230061257Y-148287114D02*
X230061257Y-148953780D01*
X230061257Y-148382352D02*
X230013638Y-148334733D01*
X229918400Y-148287114D01*
X229775542Y-148287114D01*
X229680304Y-148334733D01*
X229632685Y-148429971D01*
X229632685Y-148953780D01*
X228775542Y-148906161D02*
X228870780Y-148953780D01*
X229061257Y-148953780D01*
X229156495Y-148906161D01*
X229204114Y-148810923D01*
X229204114Y-148429971D01*
X229156495Y-148334733D01*
X229061257Y-148287114D01*
X228870780Y-148287114D01*
X228775542Y-148334733D01*
X228727923Y-148429971D01*
X228727923Y-148525209D01*
X229204114Y-148620447D01*
X227870780Y-148906161D02*
X227966019Y-148953780D01*
X228156495Y-148953780D01*
X228251733Y-148906161D01*
X228299352Y-148858542D01*
X228346971Y-148763304D01*
X228346971Y-148477590D01*
X228299352Y-148382352D01*
X228251733Y-148334733D01*
X228156495Y-148287114D01*
X227966019Y-148287114D01*
X227870780Y-148334733D01*
X227585066Y-148287114D02*
X227204114Y-148287114D01*
X227442209Y-147953780D02*
X227442209Y-148810923D01*
X227394590Y-148906161D01*
X227299352Y-148953780D01*
X227204114Y-148953780D01*
X226489828Y-148906161D02*
X226585066Y-148953780D01*
X226775542Y-148953780D01*
X226870780Y-148906161D01*
X226918400Y-148810923D01*
X226918400Y-148429971D01*
X226870780Y-148334733D01*
X226775542Y-148287114D01*
X226585066Y-148287114D01*
X226489828Y-148334733D01*
X226442209Y-148429971D01*
X226442209Y-148525209D01*
X226918400Y-148620447D01*
X225585066Y-148953780D02*
X225585066Y-147953780D01*
X225585066Y-148906161D02*
X225680304Y-148953780D01*
X225870780Y-148953780D01*
X225966019Y-148906161D01*
X226013638Y-148858542D01*
X226061257Y-148763304D01*
X226061257Y-148477590D01*
X226013638Y-148382352D01*
X225966019Y-148334733D01*
X225870780Y-148287114D01*
X225680304Y-148287114D01*
X225585066Y-148334733D01*
X215612857Y-148902980D02*
X215612857Y-147902980D01*
X215136666Y-148236314D02*
X215136666Y-148902980D01*
X215136666Y-148331552D02*
X215089047Y-148283933D01*
X214993809Y-148236314D01*
X214850952Y-148236314D01*
X214755714Y-148283933D01*
X214708095Y-148379171D01*
X214708095Y-148902980D01*
X214231904Y-148236314D02*
X214231904Y-149236314D01*
X214231904Y-148283933D02*
X214136666Y-148236314D01*
X213946190Y-148236314D01*
X213850952Y-148283933D01*
X213803333Y-148331552D01*
X213755714Y-148426790D01*
X213755714Y-148712504D01*
X213803333Y-148807742D01*
X213850952Y-148855361D01*
X213946190Y-148902980D01*
X214136666Y-148902980D01*
X214231904Y-148855361D01*
X212898571Y-148236314D02*
X212898571Y-148902980D01*
X213327142Y-148236314D02*
X213327142Y-148760123D01*
X213279523Y-148855361D01*
X213184285Y-148902980D01*
X213041428Y-148902980D01*
X212946190Y-148855361D01*
X212898571Y-148807742D01*
X212565238Y-148236314D02*
X212184285Y-148236314D01*
X212422380Y-147902980D02*
X212422380Y-148760123D01*
X212374761Y-148855361D01*
X212279523Y-148902980D01*
X212184285Y-148902980D01*
X254527057Y-148744266D02*
X254050866Y-148744266D01*
X254622295Y-149029980D02*
X254288961Y-148029980D01*
X253955628Y-149029980D01*
X253479438Y-149029980D02*
X253574676Y-148982361D01*
X253622295Y-148887123D01*
X253622295Y-148029980D01*
X253241342Y-148363314D02*
X252860390Y-148363314D01*
X253098485Y-148029980D02*
X253098485Y-148887123D01*
X253050866Y-148982361D01*
X252955628Y-149029980D01*
X252860390Y-149029980D01*
X252146104Y-148982361D02*
X252241342Y-149029980D01*
X252431819Y-149029980D01*
X252527057Y-148982361D01*
X252574676Y-148887123D01*
X252574676Y-148506171D01*
X252527057Y-148410933D01*
X252431819Y-148363314D01*
X252241342Y-148363314D01*
X252146104Y-148410933D01*
X252098485Y-148506171D01*
X252098485Y-148601409D01*
X252574676Y-148696647D01*
X251669914Y-149029980D02*
X251669914Y-148363314D01*
X251669914Y-148553790D02*
X251622295Y-148458552D01*
X251574676Y-148410933D01*
X251479438Y-148363314D01*
X251384200Y-148363314D01*
X251050866Y-148363314D02*
X251050866Y-149029980D01*
X251050866Y-148458552D02*
X251003247Y-148410933D01*
X250908009Y-148363314D01*
X250765152Y-148363314D01*
X250669914Y-148410933D01*
X250622295Y-148506171D01*
X250622295Y-149029980D01*
X249717533Y-149029980D02*
X249717533Y-148506171D01*
X249765152Y-148410933D01*
X249860390Y-148363314D01*
X250050866Y-148363314D01*
X250146104Y-148410933D01*
X249717533Y-148982361D02*
X249812771Y-149029980D01*
X250050866Y-149029980D01*
X250146104Y-148982361D01*
X250193723Y-148887123D01*
X250193723Y-148791885D01*
X250146104Y-148696647D01*
X250050866Y-148649028D01*
X249812771Y-148649028D01*
X249717533Y-148601409D01*
X249384200Y-148363314D02*
X249003247Y-148363314D01*
X249241342Y-148029980D02*
X249241342Y-148887123D01*
X249193723Y-148982361D01*
X249098485Y-149029980D01*
X249003247Y-149029980D01*
X248288961Y-148982361D02*
X248384200Y-149029980D01*
X248574676Y-149029980D01*
X248669914Y-148982361D01*
X248717533Y-148887123D01*
X248717533Y-148506171D01*
X248669914Y-148410933D01*
X248574676Y-148363314D01*
X248384200Y-148363314D01*
X248288961Y-148410933D01*
X248241342Y-148506171D01*
X248241342Y-148601409D01*
X248717533Y-148696647D01*
D11*
X247440000Y-101150000D02*
X247440000Y-102480000D01*
X248770000Y-101150000D02*
X247440000Y-101150000D01*
X250040000Y-101150000D02*
X250040000Y-103810000D01*
X250040000Y-103810000D02*
X262800000Y-103810000D01*
X250040000Y-101150000D02*
X262800000Y-101150000D01*
X262800000Y-101150000D02*
X262800000Y-103810000D01*
X219268578Y-112750000D02*
X218751422Y-112750000D01*
X219268578Y-111330000D02*
X218751422Y-111330000D01*
X207100000Y-103028578D02*
X207100000Y-102511422D01*
X208520000Y-103028578D02*
X208520000Y-102511422D01*
X240871422Y-136310000D02*
X241388578Y-136310000D01*
X240871422Y-137730000D02*
X241388578Y-137730000D01*
X231308578Y-114170000D02*
X230791422Y-114170000D01*
X231308578Y-112750000D02*
X230791422Y-112750000D01*
X259068578Y-114050000D02*
X258551422Y-114050000D01*
X259068578Y-112630000D02*
X258551422Y-112630000D01*
X223510000Y-119320000D02*
X223510000Y-120650000D01*
X223510000Y-120650000D02*
X224840000Y-120650000D01*
X226110000Y-120650000D02*
X261730000Y-120650000D01*
X261730000Y-117990000D02*
X261730000Y-120650000D01*
X226110000Y-117990000D02*
X261730000Y-117990000D01*
X226110000Y-117990000D02*
X226110000Y-120650000D01*
X223540000Y-110590000D02*
X223540000Y-111920000D01*
X223540000Y-111920000D02*
X224870000Y-111920000D01*
X226140000Y-111920000D02*
X261760000Y-111920000D01*
X261760000Y-109260000D02*
X261760000Y-111920000D01*
X226140000Y-109260000D02*
X261760000Y-109260000D01*
X226140000Y-109260000D02*
X226140000Y-111920000D01*
X207306000Y-98882500D02*
X207306000Y-100212500D01*
X207306000Y-100212500D02*
X208636000Y-100212500D01*
X207306000Y-97612500D02*
X209906000Y-97612500D01*
X209906000Y-97612500D02*
X209906000Y-100212500D01*
X209906000Y-100212500D02*
X258226000Y-100212500D01*
X258226000Y-95012500D02*
X258226000Y-100212500D01*
X207306000Y-95012500D02*
X258226000Y-95012500D01*
X207306000Y-95012500D02*
X207306000Y-97612500D01*
D10*
X219565000Y-139950000D02*
X225540000Y-139950000D01*
X221140000Y-134425000D02*
X225540000Y-134425000D01*
D11*
X261700000Y-137851422D02*
X261700000Y-138368578D01*
X260280000Y-137851422D02*
X260280000Y-138368578D01*
X249361422Y-136310000D02*
X249878578Y-136310000D01*
X249361422Y-137730000D02*
X249878578Y-137730000D01*
X245116422Y-136310000D02*
X245633578Y-136310000D01*
X245116422Y-137730000D02*
X245633578Y-137730000D01*
X213759200Y-108814578D02*
X213759200Y-108297422D01*
X215179200Y-108814578D02*
X215179200Y-108297422D01*
X213759200Y-105258578D02*
X213759200Y-104741422D01*
X215179200Y-105258578D02*
X215179200Y-104741422D01*
X210480000Y-102508748D02*
X210480000Y-103031252D01*
X209060000Y-102508748D02*
X209060000Y-103031252D01*
X212791600Y-108297422D02*
X212791600Y-108814578D01*
X211371600Y-108297422D02*
X211371600Y-108814578D01*
X212791600Y-104741422D02*
X212791600Y-105258578D01*
X211371600Y-104741422D02*
X211371600Y-105258578D01*
X219377936Y-100870000D02*
X220582064Y-100870000D01*
X219377936Y-102690000D02*
X220582064Y-102690000D01*
X215698578Y-102490000D02*
X215181422Y-102490000D01*
X215698578Y-101070000D02*
X215181422Y-101070000D01*
D10*
X221512200Y-110307000D02*
X221512200Y-105032000D01*
X216112200Y-109032000D02*
X216112200Y-105032000D01*
X245892380Y-102146666D02*
X246606666Y-102146666D01*
X246749523Y-102099047D01*
X246844761Y-102003809D01*
X246892380Y-101860952D01*
X246892380Y-101765714D01*
X245892380Y-103099047D02*
X245892380Y-102622857D01*
X246368571Y-102575238D01*
X246320952Y-102622857D01*
X246273333Y-102718095D01*
X246273333Y-102956190D01*
X246320952Y-103051428D01*
X246368571Y-103099047D01*
X246463809Y-103146666D01*
X246701904Y-103146666D01*
X246797142Y-103099047D01*
X246844761Y-103051428D01*
X246892380Y-102956190D01*
X246892380Y-102718095D01*
X246844761Y-102622857D01*
X246797142Y-102575238D01*
X219146666Y-114157142D02*
X219194285Y-114204761D01*
X219337142Y-114252380D01*
X219432380Y-114252380D01*
X219575238Y-114204761D01*
X219670476Y-114109523D01*
X219718095Y-114014285D01*
X219765714Y-113823809D01*
X219765714Y-113680952D01*
X219718095Y-113490476D01*
X219670476Y-113395238D01*
X219575238Y-113300000D01*
X219432380Y-113252380D01*
X219337142Y-113252380D01*
X219194285Y-113300000D01*
X219146666Y-113347619D01*
X218289523Y-113252380D02*
X218480000Y-113252380D01*
X218575238Y-113300000D01*
X218622857Y-113347619D01*
X218718095Y-113490476D01*
X218765714Y-113680952D01*
X218765714Y-114061904D01*
X218718095Y-114157142D01*
X218670476Y-114204761D01*
X218575238Y-114252380D01*
X218384761Y-114252380D01*
X218289523Y-114204761D01*
X218241904Y-114157142D01*
X218194285Y-114061904D01*
X218194285Y-113823809D01*
X218241904Y-113728571D01*
X218289523Y-113680952D01*
X218384761Y-113633333D01*
X218575238Y-113633333D01*
X218670476Y-113680952D01*
X218718095Y-113728571D01*
X218765714Y-113823809D01*
X208217142Y-105433333D02*
X208264761Y-105385714D01*
X208312380Y-105242857D01*
X208312380Y-105147619D01*
X208264761Y-105004761D01*
X208169523Y-104909523D01*
X208074285Y-104861904D01*
X207883809Y-104814285D01*
X207740952Y-104814285D01*
X207550476Y-104861904D01*
X207455238Y-104909523D01*
X207360000Y-105004761D01*
X207312380Y-105147619D01*
X207312380Y-105242857D01*
X207360000Y-105385714D01*
X207407619Y-105433333D01*
X207312380Y-106338095D02*
X207312380Y-105861904D01*
X207788571Y-105814285D01*
X207740952Y-105861904D01*
X207693333Y-105957142D01*
X207693333Y-106195238D01*
X207740952Y-106290476D01*
X207788571Y-106338095D01*
X207883809Y-106385714D01*
X208121904Y-106385714D01*
X208217142Y-106338095D01*
X208264761Y-106290476D01*
X208312380Y-106195238D01*
X208312380Y-105957142D01*
X208264761Y-105861904D01*
X208217142Y-105814285D01*
X241296666Y-139122380D02*
X241630000Y-138646190D01*
X241868095Y-139122380D02*
X241868095Y-138122380D01*
X241487142Y-138122380D01*
X241391904Y-138170000D01*
X241344285Y-138217619D01*
X241296666Y-138312857D01*
X241296666Y-138455714D01*
X241344285Y-138550952D01*
X241391904Y-138598571D01*
X241487142Y-138646190D01*
X241868095Y-138646190D01*
X240344285Y-139122380D02*
X240915714Y-139122380D01*
X240630000Y-139122380D02*
X240630000Y-138122380D01*
X240725238Y-138265238D01*
X240820476Y-138360476D01*
X240915714Y-138408095D01*
X231216666Y-112262380D02*
X231550000Y-111786190D01*
X231788095Y-112262380D02*
X231788095Y-111262380D01*
X231407142Y-111262380D01*
X231311904Y-111310000D01*
X231264285Y-111357619D01*
X231216666Y-111452857D01*
X231216666Y-111595714D01*
X231264285Y-111690952D01*
X231311904Y-111738571D01*
X231407142Y-111786190D01*
X231788095Y-111786190D01*
X230645238Y-111690952D02*
X230740476Y-111643333D01*
X230788095Y-111595714D01*
X230835714Y-111500476D01*
X230835714Y-111452857D01*
X230788095Y-111357619D01*
X230740476Y-111310000D01*
X230645238Y-111262380D01*
X230454761Y-111262380D01*
X230359523Y-111310000D01*
X230311904Y-111357619D01*
X230264285Y-111452857D01*
X230264285Y-111500476D01*
X230311904Y-111595714D01*
X230359523Y-111643333D01*
X230454761Y-111690952D01*
X230645238Y-111690952D01*
X230740476Y-111738571D01*
X230788095Y-111786190D01*
X230835714Y-111881428D01*
X230835714Y-112071904D01*
X230788095Y-112167142D01*
X230740476Y-112214761D01*
X230645238Y-112262380D01*
X230454761Y-112262380D01*
X230359523Y-112214761D01*
X230311904Y-112167142D01*
X230264285Y-112071904D01*
X230264285Y-111881428D01*
X230311904Y-111786190D01*
X230359523Y-111738571D01*
X230454761Y-111690952D01*
X258976666Y-112142380D02*
X259310000Y-111666190D01*
X259548095Y-112142380D02*
X259548095Y-111142380D01*
X259167142Y-111142380D01*
X259071904Y-111190000D01*
X259024285Y-111237619D01*
X258976666Y-111332857D01*
X258976666Y-111475714D01*
X259024285Y-111570952D01*
X259071904Y-111618571D01*
X259167142Y-111666190D01*
X259548095Y-111666190D01*
X258643333Y-111142380D02*
X257976666Y-111142380D01*
X258405238Y-112142380D01*
X221522380Y-118986666D02*
X222236666Y-118986666D01*
X222379523Y-118939047D01*
X222474761Y-118843809D01*
X222522380Y-118700952D01*
X222522380Y-118605714D01*
X221522380Y-119367619D02*
X221522380Y-120034285D01*
X222522380Y-119605714D01*
X221692380Y-111416666D02*
X222406666Y-111416666D01*
X222549523Y-111369047D01*
X222644761Y-111273809D01*
X222692380Y-111130952D01*
X222692380Y-111035714D01*
X221692380Y-112321428D02*
X221692380Y-112130952D01*
X221740000Y-112035714D01*
X221787619Y-111988095D01*
X221930476Y-111892857D01*
X222120952Y-111845238D01*
X222501904Y-111845238D01*
X222597142Y-111892857D01*
X222644761Y-111940476D01*
X222692380Y-112035714D01*
X222692380Y-112226190D01*
X222644761Y-112321428D01*
X222597142Y-112369047D01*
X222501904Y-112416666D01*
X222263809Y-112416666D01*
X222168571Y-112369047D01*
X222120952Y-112321428D01*
X222073333Y-112226190D01*
X222073333Y-112035714D01*
X222120952Y-111940476D01*
X222168571Y-111892857D01*
X222263809Y-111845238D01*
X206318380Y-96874404D02*
X205318380Y-96874404D01*
X205318380Y-97255357D01*
X205366000Y-97350595D01*
X205413619Y-97398214D01*
X205508857Y-97445833D01*
X205651714Y-97445833D01*
X205746952Y-97398214D01*
X205794571Y-97350595D01*
X205842190Y-97255357D01*
X205842190Y-96874404D01*
X206318380Y-98398214D02*
X206318380Y-97826785D01*
X206318380Y-98112500D02*
X205318380Y-98112500D01*
X205461238Y-98017261D01*
X205556476Y-97922023D01*
X205604095Y-97826785D01*
X224101904Y-140152380D02*
X224101904Y-140961904D01*
X224054285Y-141057142D01*
X224006666Y-141104761D01*
X223911428Y-141152380D01*
X223720952Y-141152380D01*
X223625714Y-141104761D01*
X223578095Y-141057142D01*
X223530476Y-140961904D01*
X223530476Y-140152380D01*
X222530476Y-141152380D02*
X223101904Y-141152380D01*
X222816190Y-141152380D02*
X222816190Y-140152380D01*
X222911428Y-140295238D01*
X223006666Y-140390476D01*
X223101904Y-140438095D01*
X259792380Y-137943333D02*
X259316190Y-137610000D01*
X259792380Y-137371904D02*
X258792380Y-137371904D01*
X258792380Y-137752857D01*
X258840000Y-137848095D01*
X258887619Y-137895714D01*
X258982857Y-137943333D01*
X259125714Y-137943333D01*
X259220952Y-137895714D01*
X259268571Y-137848095D01*
X259316190Y-137752857D01*
X259316190Y-137371904D01*
X258792380Y-138800476D02*
X258792380Y-138610000D01*
X258840000Y-138514761D01*
X258887619Y-138467142D01*
X259030476Y-138371904D01*
X259220952Y-138324285D01*
X259601904Y-138324285D01*
X259697142Y-138371904D01*
X259744761Y-138419523D01*
X259792380Y-138514761D01*
X259792380Y-138705238D01*
X259744761Y-138800476D01*
X259697142Y-138848095D01*
X259601904Y-138895714D01*
X259363809Y-138895714D01*
X259268571Y-138848095D01*
X259220952Y-138800476D01*
X259173333Y-138705238D01*
X259173333Y-138514761D01*
X259220952Y-138419523D01*
X259268571Y-138371904D01*
X259363809Y-138324285D01*
X249786666Y-139122380D02*
X250120000Y-138646190D01*
X250358095Y-139122380D02*
X250358095Y-138122380D01*
X249977142Y-138122380D01*
X249881904Y-138170000D01*
X249834285Y-138217619D01*
X249786666Y-138312857D01*
X249786666Y-138455714D01*
X249834285Y-138550952D01*
X249881904Y-138598571D01*
X249977142Y-138646190D01*
X250358095Y-138646190D01*
X249453333Y-138122380D02*
X248834285Y-138122380D01*
X249167619Y-138503333D01*
X249024761Y-138503333D01*
X248929523Y-138550952D01*
X248881904Y-138598571D01*
X248834285Y-138693809D01*
X248834285Y-138931904D01*
X248881904Y-139027142D01*
X248929523Y-139074761D01*
X249024761Y-139122380D01*
X249310476Y-139122380D01*
X249405714Y-139074761D01*
X249453333Y-139027142D01*
X245541666Y-139122380D02*
X245875000Y-138646190D01*
X246113095Y-139122380D02*
X246113095Y-138122380D01*
X245732142Y-138122380D01*
X245636904Y-138170000D01*
X245589285Y-138217619D01*
X245541666Y-138312857D01*
X245541666Y-138455714D01*
X245589285Y-138550952D01*
X245636904Y-138598571D01*
X245732142Y-138646190D01*
X246113095Y-138646190D01*
X245160714Y-138217619D02*
X245113095Y-138170000D01*
X245017857Y-138122380D01*
X244779761Y-138122380D01*
X244684523Y-138170000D01*
X244636904Y-138217619D01*
X244589285Y-138312857D01*
X244589285Y-138408095D01*
X244636904Y-138550952D01*
X245208333Y-139122380D01*
X244589285Y-139122380D01*
X214972380Y-111615133D02*
X214496190Y-111281800D01*
X214972380Y-111043704D02*
X213972380Y-111043704D01*
X213972380Y-111424657D01*
X214020000Y-111519895D01*
X214067619Y-111567514D01*
X214162857Y-111615133D01*
X214305714Y-111615133D01*
X214400952Y-111567514D01*
X214448571Y-111519895D01*
X214496190Y-111424657D01*
X214496190Y-111043704D01*
X213972380Y-112519895D02*
X213972380Y-112043704D01*
X214448571Y-111996085D01*
X214400952Y-112043704D01*
X214353333Y-112138942D01*
X214353333Y-112377038D01*
X214400952Y-112472276D01*
X214448571Y-112519895D01*
X214543809Y-112567514D01*
X214781904Y-112567514D01*
X214877142Y-112519895D01*
X214924761Y-112472276D01*
X214972380Y-112377038D01*
X214972380Y-112138942D01*
X214924761Y-112043704D01*
X214877142Y-111996085D01*
X216033333Y-103501904D02*
X216300000Y-103120952D01*
X216490476Y-103501904D02*
X216490476Y-102701904D01*
X216185714Y-102701904D01*
X216109523Y-102740000D01*
X216071428Y-102778095D01*
X216033333Y-102854285D01*
X216033333Y-102968571D01*
X216071428Y-103044761D01*
X216109523Y-103082857D01*
X216185714Y-103120952D01*
X216490476Y-103120952D01*
X215347619Y-102968571D02*
X215347619Y-103501904D01*
X215538095Y-102663809D02*
X215728571Y-103235238D01*
X215233333Y-103235238D01*
X209728571Y-105196666D02*
X209728571Y-104863333D01*
X210252380Y-104863333D02*
X209252380Y-104863333D01*
X209252380Y-105339523D01*
X209728571Y-106053809D02*
X209776190Y-106196666D01*
X209823809Y-106244285D01*
X209919047Y-106291904D01*
X210061904Y-106291904D01*
X210157142Y-106244285D01*
X210204761Y-106196666D01*
X210252380Y-106101428D01*
X210252380Y-105720476D01*
X209252380Y-105720476D01*
X209252380Y-106053809D01*
X209300000Y-106149047D01*
X209347619Y-106196666D01*
X209442857Y-106244285D01*
X209538095Y-106244285D01*
X209633333Y-106196666D01*
X209680952Y-106149047D01*
X209728571Y-106053809D01*
X209728571Y-105720476D01*
X210252380Y-107244285D02*
X210252380Y-106672857D01*
X210252380Y-106958571D02*
X209252380Y-106958571D01*
X209395238Y-106863333D01*
X209490476Y-106768095D01*
X209538095Y-106672857D01*
X212413342Y-111488133D02*
X212460961Y-111440514D01*
X212508580Y-111297657D01*
X212508580Y-111202419D01*
X212460961Y-111059561D01*
X212365723Y-110964323D01*
X212270485Y-110916704D01*
X212080009Y-110869085D01*
X211937152Y-110869085D01*
X211746676Y-110916704D01*
X211651438Y-110964323D01*
X211556200Y-111059561D01*
X211508580Y-111202419D01*
X211508580Y-111297657D01*
X211556200Y-111440514D01*
X211603819Y-111488133D01*
X211841914Y-112345276D02*
X212508580Y-112345276D01*
X211460961Y-112107180D02*
X212175247Y-111869085D01*
X212175247Y-112488133D01*
X211935714Y-102225066D02*
X211973809Y-102186971D01*
X212011904Y-102072685D01*
X212011904Y-101996495D01*
X211973809Y-101882209D01*
X211897619Y-101806019D01*
X211821428Y-101767923D01*
X211669047Y-101729828D01*
X211554761Y-101729828D01*
X211402380Y-101767923D01*
X211326190Y-101806019D01*
X211250000Y-101882209D01*
X211211904Y-101996495D01*
X211211904Y-102072685D01*
X211250000Y-102186971D01*
X211288095Y-102225066D01*
X211211904Y-102491733D02*
X211211904Y-102986971D01*
X211516666Y-102720304D01*
X211516666Y-102834590D01*
X211554761Y-102910780D01*
X211592857Y-102948876D01*
X211669047Y-102986971D01*
X211859523Y-102986971D01*
X211935714Y-102948876D01*
X211973809Y-102910780D01*
X212011904Y-102834590D01*
X212011904Y-102606019D01*
X211973809Y-102529828D01*
X211935714Y-102491733D01*
X223476666Y-102197142D02*
X223524285Y-102244761D01*
X223667142Y-102292380D01*
X223762380Y-102292380D01*
X223905238Y-102244761D01*
X224000476Y-102149523D01*
X224048095Y-102054285D01*
X224095714Y-101863809D01*
X224095714Y-101720952D01*
X224048095Y-101530476D01*
X224000476Y-101435238D01*
X223905238Y-101340000D01*
X223762380Y-101292380D01*
X223667142Y-101292380D01*
X223524285Y-101340000D01*
X223476666Y-101387619D01*
X223095714Y-101387619D02*
X223048095Y-101340000D01*
X222952857Y-101292380D01*
X222714761Y-101292380D01*
X222619523Y-101340000D01*
X222571904Y-101387619D01*
X222524285Y-101482857D01*
X222524285Y-101578095D01*
X222571904Y-101720952D01*
X223143333Y-102292380D01*
X222524285Y-102292380D01*
X213273333Y-101125714D02*
X213311428Y-101163809D01*
X213425714Y-101201904D01*
X213501904Y-101201904D01*
X213616190Y-101163809D01*
X213692380Y-101087619D01*
X213730476Y-101011428D01*
X213768571Y-100859047D01*
X213768571Y-100744761D01*
X213730476Y-100592380D01*
X213692380Y-100516190D01*
X213616190Y-100440000D01*
X213501904Y-100401904D01*
X213425714Y-100401904D01*
X213311428Y-100440000D01*
X213273333Y-100478095D01*
X212511428Y-101201904D02*
X212968571Y-101201904D01*
X212740000Y-101201904D02*
X212740000Y-100401904D01*
X212816190Y-100516190D01*
X212892380Y-100592380D01*
X212968571Y-100630476D01*
X221832380Y-103558095D02*
X222641904Y-103558095D01*
X222737142Y-103605714D01*
X222784761Y-103653333D01*
X222832380Y-103748571D01*
X222832380Y-103939047D01*
X222784761Y-104034285D01*
X222737142Y-104081904D01*
X222641904Y-104129523D01*
X221832380Y-104129523D01*
X221927619Y-104558095D02*
X221880000Y-104605714D01*
X221832380Y-104700952D01*
X221832380Y-104939047D01*
X221880000Y-105034285D01*
X221927619Y-105081904D01*
X222022857Y-105129523D01*
X222118095Y-105129523D01*
X222260952Y-105081904D01*
X222832380Y-104510476D01*
X222832380Y-105129523D01*
M02*
