G04 #@! TF.GenerationSoftware,KiCad,Pcbnew,(5.1.4)-1*
G04 #@! TF.CreationDate,2020-09-13T00:14:35-05:00*
G04 #@! TF.ProjectId,NetworkBreaker,4e657477-6f72-46b4-9272-65616b65722e,rev?*
G04 #@! TF.SameCoordinates,Original*
G04 #@! TF.FileFunction,Soldermask,Bot*
G04 #@! TF.FilePolarity,Negative*
%FSLAX46Y46*%
G04 Gerber Fmt 4.6, Leading zero omitted, Abs format (unit mm)*
G04 Created by KiCad (PCBNEW (5.1.4)-1) date 2020-09-13 00:14:35*
%MOMM*%
%LPD*%
G04 APERTURE LIST*
%ADD10O,1.700000X1.700000*%
%ADD11R,1.700000X1.700000*%
%ADD12C,0.150000*%
%ADD13C,0.975000*%
%ADD14C,1.600000*%
%ADD15R,1.800000X1.600000*%
%ADD16O,1.600000X1.600000*%
%ADD17R,1.600000X1.600000*%
%ADD18R,1.500000X0.450000*%
%ADD19C,1.150000*%
%ADD20C,1.250000*%
%ADD21R,0.400000X1.200000*%
%ADD22O,0.800000X0.800000*%
%ADD23O,1.800000X1.150000*%
%ADD24O,2.000000X1.450000*%
%ADD25C,2.000000*%
%ADD26C,3.250000*%
%ADD27C,1.500000*%
%ADD28R,1.500000X1.500000*%
%ADD29C,2.700000*%
G04 APERTURE END LIST*
D10*
X261470000Y-102480000D03*
X258930000Y-102480000D03*
X256390000Y-102480000D03*
X253850000Y-102480000D03*
X251310000Y-102480000D03*
D11*
X248770000Y-102480000D03*
D12*
G36*
X218340142Y-111341174D02*
G01*
X218363803Y-111344684D01*
X218387007Y-111350496D01*
X218409529Y-111358554D01*
X218431153Y-111368782D01*
X218451670Y-111381079D01*
X218470883Y-111395329D01*
X218488607Y-111411393D01*
X218504671Y-111429117D01*
X218518921Y-111448330D01*
X218531218Y-111468847D01*
X218541446Y-111490471D01*
X218549504Y-111512993D01*
X218555316Y-111536197D01*
X218558826Y-111559858D01*
X218560000Y-111583750D01*
X218560000Y-112496250D01*
X218558826Y-112520142D01*
X218555316Y-112543803D01*
X218549504Y-112567007D01*
X218541446Y-112589529D01*
X218531218Y-112611153D01*
X218518921Y-112631670D01*
X218504671Y-112650883D01*
X218488607Y-112668607D01*
X218470883Y-112684671D01*
X218451670Y-112698921D01*
X218431153Y-112711218D01*
X218409529Y-112721446D01*
X218387007Y-112729504D01*
X218363803Y-112735316D01*
X218340142Y-112738826D01*
X218316250Y-112740000D01*
X217828750Y-112740000D01*
X217804858Y-112738826D01*
X217781197Y-112735316D01*
X217757993Y-112729504D01*
X217735471Y-112721446D01*
X217713847Y-112711218D01*
X217693330Y-112698921D01*
X217674117Y-112684671D01*
X217656393Y-112668607D01*
X217640329Y-112650883D01*
X217626079Y-112631670D01*
X217613782Y-112611153D01*
X217603554Y-112589529D01*
X217595496Y-112567007D01*
X217589684Y-112543803D01*
X217586174Y-112520142D01*
X217585000Y-112496250D01*
X217585000Y-111583750D01*
X217586174Y-111559858D01*
X217589684Y-111536197D01*
X217595496Y-111512993D01*
X217603554Y-111490471D01*
X217613782Y-111468847D01*
X217626079Y-111448330D01*
X217640329Y-111429117D01*
X217656393Y-111411393D01*
X217674117Y-111395329D01*
X217693330Y-111381079D01*
X217713847Y-111368782D01*
X217735471Y-111358554D01*
X217757993Y-111350496D01*
X217781197Y-111344684D01*
X217804858Y-111341174D01*
X217828750Y-111340000D01*
X218316250Y-111340000D01*
X218340142Y-111341174D01*
X218340142Y-111341174D01*
G37*
D13*
X218072500Y-112040000D03*
D12*
G36*
X220215142Y-111341174D02*
G01*
X220238803Y-111344684D01*
X220262007Y-111350496D01*
X220284529Y-111358554D01*
X220306153Y-111368782D01*
X220326670Y-111381079D01*
X220345883Y-111395329D01*
X220363607Y-111411393D01*
X220379671Y-111429117D01*
X220393921Y-111448330D01*
X220406218Y-111468847D01*
X220416446Y-111490471D01*
X220424504Y-111512993D01*
X220430316Y-111536197D01*
X220433826Y-111559858D01*
X220435000Y-111583750D01*
X220435000Y-112496250D01*
X220433826Y-112520142D01*
X220430316Y-112543803D01*
X220424504Y-112567007D01*
X220416446Y-112589529D01*
X220406218Y-112611153D01*
X220393921Y-112631670D01*
X220379671Y-112650883D01*
X220363607Y-112668607D01*
X220345883Y-112684671D01*
X220326670Y-112698921D01*
X220306153Y-112711218D01*
X220284529Y-112721446D01*
X220262007Y-112729504D01*
X220238803Y-112735316D01*
X220215142Y-112738826D01*
X220191250Y-112740000D01*
X219703750Y-112740000D01*
X219679858Y-112738826D01*
X219656197Y-112735316D01*
X219632993Y-112729504D01*
X219610471Y-112721446D01*
X219588847Y-112711218D01*
X219568330Y-112698921D01*
X219549117Y-112684671D01*
X219531393Y-112668607D01*
X219515329Y-112650883D01*
X219501079Y-112631670D01*
X219488782Y-112611153D01*
X219478554Y-112589529D01*
X219470496Y-112567007D01*
X219464684Y-112543803D01*
X219461174Y-112520142D01*
X219460000Y-112496250D01*
X219460000Y-111583750D01*
X219461174Y-111559858D01*
X219464684Y-111536197D01*
X219470496Y-111512993D01*
X219478554Y-111490471D01*
X219488782Y-111468847D01*
X219501079Y-111448330D01*
X219515329Y-111429117D01*
X219531393Y-111411393D01*
X219549117Y-111395329D01*
X219568330Y-111381079D01*
X219588847Y-111368782D01*
X219610471Y-111358554D01*
X219632993Y-111350496D01*
X219656197Y-111344684D01*
X219679858Y-111341174D01*
X219703750Y-111340000D01*
X220191250Y-111340000D01*
X220215142Y-111341174D01*
X220215142Y-111341174D01*
G37*
D13*
X219947500Y-112040000D03*
D12*
G36*
X208290142Y-101346174D02*
G01*
X208313803Y-101349684D01*
X208337007Y-101355496D01*
X208359529Y-101363554D01*
X208381153Y-101373782D01*
X208401670Y-101386079D01*
X208420883Y-101400329D01*
X208438607Y-101416393D01*
X208454671Y-101434117D01*
X208468921Y-101453330D01*
X208481218Y-101473847D01*
X208491446Y-101495471D01*
X208499504Y-101517993D01*
X208505316Y-101541197D01*
X208508826Y-101564858D01*
X208510000Y-101588750D01*
X208510000Y-102076250D01*
X208508826Y-102100142D01*
X208505316Y-102123803D01*
X208499504Y-102147007D01*
X208491446Y-102169529D01*
X208481218Y-102191153D01*
X208468921Y-102211670D01*
X208454671Y-102230883D01*
X208438607Y-102248607D01*
X208420883Y-102264671D01*
X208401670Y-102278921D01*
X208381153Y-102291218D01*
X208359529Y-102301446D01*
X208337007Y-102309504D01*
X208313803Y-102315316D01*
X208290142Y-102318826D01*
X208266250Y-102320000D01*
X207353750Y-102320000D01*
X207329858Y-102318826D01*
X207306197Y-102315316D01*
X207282993Y-102309504D01*
X207260471Y-102301446D01*
X207238847Y-102291218D01*
X207218330Y-102278921D01*
X207199117Y-102264671D01*
X207181393Y-102248607D01*
X207165329Y-102230883D01*
X207151079Y-102211670D01*
X207138782Y-102191153D01*
X207128554Y-102169529D01*
X207120496Y-102147007D01*
X207114684Y-102123803D01*
X207111174Y-102100142D01*
X207110000Y-102076250D01*
X207110000Y-101588750D01*
X207111174Y-101564858D01*
X207114684Y-101541197D01*
X207120496Y-101517993D01*
X207128554Y-101495471D01*
X207138782Y-101473847D01*
X207151079Y-101453330D01*
X207165329Y-101434117D01*
X207181393Y-101416393D01*
X207199117Y-101400329D01*
X207218330Y-101386079D01*
X207238847Y-101373782D01*
X207260471Y-101363554D01*
X207282993Y-101355496D01*
X207306197Y-101349684D01*
X207329858Y-101346174D01*
X207353750Y-101345000D01*
X208266250Y-101345000D01*
X208290142Y-101346174D01*
X208290142Y-101346174D01*
G37*
D13*
X207810000Y-101832500D03*
D12*
G36*
X208290142Y-103221174D02*
G01*
X208313803Y-103224684D01*
X208337007Y-103230496D01*
X208359529Y-103238554D01*
X208381153Y-103248782D01*
X208401670Y-103261079D01*
X208420883Y-103275329D01*
X208438607Y-103291393D01*
X208454671Y-103309117D01*
X208468921Y-103328330D01*
X208481218Y-103348847D01*
X208491446Y-103370471D01*
X208499504Y-103392993D01*
X208505316Y-103416197D01*
X208508826Y-103439858D01*
X208510000Y-103463750D01*
X208510000Y-103951250D01*
X208508826Y-103975142D01*
X208505316Y-103998803D01*
X208499504Y-104022007D01*
X208491446Y-104044529D01*
X208481218Y-104066153D01*
X208468921Y-104086670D01*
X208454671Y-104105883D01*
X208438607Y-104123607D01*
X208420883Y-104139671D01*
X208401670Y-104153921D01*
X208381153Y-104166218D01*
X208359529Y-104176446D01*
X208337007Y-104184504D01*
X208313803Y-104190316D01*
X208290142Y-104193826D01*
X208266250Y-104195000D01*
X207353750Y-104195000D01*
X207329858Y-104193826D01*
X207306197Y-104190316D01*
X207282993Y-104184504D01*
X207260471Y-104176446D01*
X207238847Y-104166218D01*
X207218330Y-104153921D01*
X207199117Y-104139671D01*
X207181393Y-104123607D01*
X207165329Y-104105883D01*
X207151079Y-104086670D01*
X207138782Y-104066153D01*
X207128554Y-104044529D01*
X207120496Y-104022007D01*
X207114684Y-103998803D01*
X207111174Y-103975142D01*
X207110000Y-103951250D01*
X207110000Y-103463750D01*
X207111174Y-103439858D01*
X207114684Y-103416197D01*
X207120496Y-103392993D01*
X207128554Y-103370471D01*
X207138782Y-103348847D01*
X207151079Y-103328330D01*
X207165329Y-103309117D01*
X207181393Y-103291393D01*
X207199117Y-103275329D01*
X207218330Y-103261079D01*
X207238847Y-103248782D01*
X207260471Y-103238554D01*
X207282993Y-103230496D01*
X207306197Y-103224684D01*
X207329858Y-103221174D01*
X207353750Y-103220000D01*
X208266250Y-103220000D01*
X208290142Y-103221174D01*
X208290142Y-103221174D01*
G37*
D13*
X207810000Y-103707500D03*
D14*
X255790000Y-133000000D03*
X260870000Y-133000000D03*
X250710000Y-133000000D03*
X243090000Y-125380000D03*
D15*
X243090000Y-133000000D03*
D14*
X260870000Y-125380000D03*
X255790000Y-125380000D03*
X250710000Y-125380000D03*
X235015000Y-133000000D03*
X240095000Y-133000000D03*
X229935000Y-133000000D03*
X222315000Y-125380000D03*
D15*
X222315000Y-133000000D03*
D14*
X240095000Y-125380000D03*
X235015000Y-125380000D03*
X229935000Y-125380000D03*
D12*
G36*
X242335142Y-136321174D02*
G01*
X242358803Y-136324684D01*
X242382007Y-136330496D01*
X242404529Y-136338554D01*
X242426153Y-136348782D01*
X242446670Y-136361079D01*
X242465883Y-136375329D01*
X242483607Y-136391393D01*
X242499671Y-136409117D01*
X242513921Y-136428330D01*
X242526218Y-136448847D01*
X242536446Y-136470471D01*
X242544504Y-136492993D01*
X242550316Y-136516197D01*
X242553826Y-136539858D01*
X242555000Y-136563750D01*
X242555000Y-137476250D01*
X242553826Y-137500142D01*
X242550316Y-137523803D01*
X242544504Y-137547007D01*
X242536446Y-137569529D01*
X242526218Y-137591153D01*
X242513921Y-137611670D01*
X242499671Y-137630883D01*
X242483607Y-137648607D01*
X242465883Y-137664671D01*
X242446670Y-137678921D01*
X242426153Y-137691218D01*
X242404529Y-137701446D01*
X242382007Y-137709504D01*
X242358803Y-137715316D01*
X242335142Y-137718826D01*
X242311250Y-137720000D01*
X241823750Y-137720000D01*
X241799858Y-137718826D01*
X241776197Y-137715316D01*
X241752993Y-137709504D01*
X241730471Y-137701446D01*
X241708847Y-137691218D01*
X241688330Y-137678921D01*
X241669117Y-137664671D01*
X241651393Y-137648607D01*
X241635329Y-137630883D01*
X241621079Y-137611670D01*
X241608782Y-137591153D01*
X241598554Y-137569529D01*
X241590496Y-137547007D01*
X241584684Y-137523803D01*
X241581174Y-137500142D01*
X241580000Y-137476250D01*
X241580000Y-136563750D01*
X241581174Y-136539858D01*
X241584684Y-136516197D01*
X241590496Y-136492993D01*
X241598554Y-136470471D01*
X241608782Y-136448847D01*
X241621079Y-136428330D01*
X241635329Y-136409117D01*
X241651393Y-136391393D01*
X241669117Y-136375329D01*
X241688330Y-136361079D01*
X241708847Y-136348782D01*
X241730471Y-136338554D01*
X241752993Y-136330496D01*
X241776197Y-136324684D01*
X241799858Y-136321174D01*
X241823750Y-136320000D01*
X242311250Y-136320000D01*
X242335142Y-136321174D01*
X242335142Y-136321174D01*
G37*
D13*
X242067500Y-137020000D03*
D12*
G36*
X240460142Y-136321174D02*
G01*
X240483803Y-136324684D01*
X240507007Y-136330496D01*
X240529529Y-136338554D01*
X240551153Y-136348782D01*
X240571670Y-136361079D01*
X240590883Y-136375329D01*
X240608607Y-136391393D01*
X240624671Y-136409117D01*
X240638921Y-136428330D01*
X240651218Y-136448847D01*
X240661446Y-136470471D01*
X240669504Y-136492993D01*
X240675316Y-136516197D01*
X240678826Y-136539858D01*
X240680000Y-136563750D01*
X240680000Y-137476250D01*
X240678826Y-137500142D01*
X240675316Y-137523803D01*
X240669504Y-137547007D01*
X240661446Y-137569529D01*
X240651218Y-137591153D01*
X240638921Y-137611670D01*
X240624671Y-137630883D01*
X240608607Y-137648607D01*
X240590883Y-137664671D01*
X240571670Y-137678921D01*
X240551153Y-137691218D01*
X240529529Y-137701446D01*
X240507007Y-137709504D01*
X240483803Y-137715316D01*
X240460142Y-137718826D01*
X240436250Y-137720000D01*
X239948750Y-137720000D01*
X239924858Y-137718826D01*
X239901197Y-137715316D01*
X239877993Y-137709504D01*
X239855471Y-137701446D01*
X239833847Y-137691218D01*
X239813330Y-137678921D01*
X239794117Y-137664671D01*
X239776393Y-137648607D01*
X239760329Y-137630883D01*
X239746079Y-137611670D01*
X239733782Y-137591153D01*
X239723554Y-137569529D01*
X239715496Y-137547007D01*
X239709684Y-137523803D01*
X239706174Y-137500142D01*
X239705000Y-137476250D01*
X239705000Y-136563750D01*
X239706174Y-136539858D01*
X239709684Y-136516197D01*
X239715496Y-136492993D01*
X239723554Y-136470471D01*
X239733782Y-136448847D01*
X239746079Y-136428330D01*
X239760329Y-136409117D01*
X239776393Y-136391393D01*
X239794117Y-136375329D01*
X239813330Y-136361079D01*
X239833847Y-136348782D01*
X239855471Y-136338554D01*
X239877993Y-136330496D01*
X239901197Y-136324684D01*
X239924858Y-136321174D01*
X239948750Y-136320000D01*
X240436250Y-136320000D01*
X240460142Y-136321174D01*
X240460142Y-136321174D01*
G37*
D13*
X240192500Y-137020000D03*
D12*
G36*
X230380142Y-112761174D02*
G01*
X230403803Y-112764684D01*
X230427007Y-112770496D01*
X230449529Y-112778554D01*
X230471153Y-112788782D01*
X230491670Y-112801079D01*
X230510883Y-112815329D01*
X230528607Y-112831393D01*
X230544671Y-112849117D01*
X230558921Y-112868330D01*
X230571218Y-112888847D01*
X230581446Y-112910471D01*
X230589504Y-112932993D01*
X230595316Y-112956197D01*
X230598826Y-112979858D01*
X230600000Y-113003750D01*
X230600000Y-113916250D01*
X230598826Y-113940142D01*
X230595316Y-113963803D01*
X230589504Y-113987007D01*
X230581446Y-114009529D01*
X230571218Y-114031153D01*
X230558921Y-114051670D01*
X230544671Y-114070883D01*
X230528607Y-114088607D01*
X230510883Y-114104671D01*
X230491670Y-114118921D01*
X230471153Y-114131218D01*
X230449529Y-114141446D01*
X230427007Y-114149504D01*
X230403803Y-114155316D01*
X230380142Y-114158826D01*
X230356250Y-114160000D01*
X229868750Y-114160000D01*
X229844858Y-114158826D01*
X229821197Y-114155316D01*
X229797993Y-114149504D01*
X229775471Y-114141446D01*
X229753847Y-114131218D01*
X229733330Y-114118921D01*
X229714117Y-114104671D01*
X229696393Y-114088607D01*
X229680329Y-114070883D01*
X229666079Y-114051670D01*
X229653782Y-114031153D01*
X229643554Y-114009529D01*
X229635496Y-113987007D01*
X229629684Y-113963803D01*
X229626174Y-113940142D01*
X229625000Y-113916250D01*
X229625000Y-113003750D01*
X229626174Y-112979858D01*
X229629684Y-112956197D01*
X229635496Y-112932993D01*
X229643554Y-112910471D01*
X229653782Y-112888847D01*
X229666079Y-112868330D01*
X229680329Y-112849117D01*
X229696393Y-112831393D01*
X229714117Y-112815329D01*
X229733330Y-112801079D01*
X229753847Y-112788782D01*
X229775471Y-112778554D01*
X229797993Y-112770496D01*
X229821197Y-112764684D01*
X229844858Y-112761174D01*
X229868750Y-112760000D01*
X230356250Y-112760000D01*
X230380142Y-112761174D01*
X230380142Y-112761174D01*
G37*
D13*
X230112500Y-113460000D03*
D12*
G36*
X232255142Y-112761174D02*
G01*
X232278803Y-112764684D01*
X232302007Y-112770496D01*
X232324529Y-112778554D01*
X232346153Y-112788782D01*
X232366670Y-112801079D01*
X232385883Y-112815329D01*
X232403607Y-112831393D01*
X232419671Y-112849117D01*
X232433921Y-112868330D01*
X232446218Y-112888847D01*
X232456446Y-112910471D01*
X232464504Y-112932993D01*
X232470316Y-112956197D01*
X232473826Y-112979858D01*
X232475000Y-113003750D01*
X232475000Y-113916250D01*
X232473826Y-113940142D01*
X232470316Y-113963803D01*
X232464504Y-113987007D01*
X232456446Y-114009529D01*
X232446218Y-114031153D01*
X232433921Y-114051670D01*
X232419671Y-114070883D01*
X232403607Y-114088607D01*
X232385883Y-114104671D01*
X232366670Y-114118921D01*
X232346153Y-114131218D01*
X232324529Y-114141446D01*
X232302007Y-114149504D01*
X232278803Y-114155316D01*
X232255142Y-114158826D01*
X232231250Y-114160000D01*
X231743750Y-114160000D01*
X231719858Y-114158826D01*
X231696197Y-114155316D01*
X231672993Y-114149504D01*
X231650471Y-114141446D01*
X231628847Y-114131218D01*
X231608330Y-114118921D01*
X231589117Y-114104671D01*
X231571393Y-114088607D01*
X231555329Y-114070883D01*
X231541079Y-114051670D01*
X231528782Y-114031153D01*
X231518554Y-114009529D01*
X231510496Y-113987007D01*
X231504684Y-113963803D01*
X231501174Y-113940142D01*
X231500000Y-113916250D01*
X231500000Y-113003750D01*
X231501174Y-112979858D01*
X231504684Y-112956197D01*
X231510496Y-112932993D01*
X231518554Y-112910471D01*
X231528782Y-112888847D01*
X231541079Y-112868330D01*
X231555329Y-112849117D01*
X231571393Y-112831393D01*
X231589117Y-112815329D01*
X231608330Y-112801079D01*
X231628847Y-112788782D01*
X231650471Y-112778554D01*
X231672993Y-112770496D01*
X231696197Y-112764684D01*
X231719858Y-112761174D01*
X231743750Y-112760000D01*
X232231250Y-112760000D01*
X232255142Y-112761174D01*
X232255142Y-112761174D01*
G37*
D13*
X231987500Y-113460000D03*
D12*
G36*
X258140142Y-112641174D02*
G01*
X258163803Y-112644684D01*
X258187007Y-112650496D01*
X258209529Y-112658554D01*
X258231153Y-112668782D01*
X258251670Y-112681079D01*
X258270883Y-112695329D01*
X258288607Y-112711393D01*
X258304671Y-112729117D01*
X258318921Y-112748330D01*
X258331218Y-112768847D01*
X258341446Y-112790471D01*
X258349504Y-112812993D01*
X258355316Y-112836197D01*
X258358826Y-112859858D01*
X258360000Y-112883750D01*
X258360000Y-113796250D01*
X258358826Y-113820142D01*
X258355316Y-113843803D01*
X258349504Y-113867007D01*
X258341446Y-113889529D01*
X258331218Y-113911153D01*
X258318921Y-113931670D01*
X258304671Y-113950883D01*
X258288607Y-113968607D01*
X258270883Y-113984671D01*
X258251670Y-113998921D01*
X258231153Y-114011218D01*
X258209529Y-114021446D01*
X258187007Y-114029504D01*
X258163803Y-114035316D01*
X258140142Y-114038826D01*
X258116250Y-114040000D01*
X257628750Y-114040000D01*
X257604858Y-114038826D01*
X257581197Y-114035316D01*
X257557993Y-114029504D01*
X257535471Y-114021446D01*
X257513847Y-114011218D01*
X257493330Y-113998921D01*
X257474117Y-113984671D01*
X257456393Y-113968607D01*
X257440329Y-113950883D01*
X257426079Y-113931670D01*
X257413782Y-113911153D01*
X257403554Y-113889529D01*
X257395496Y-113867007D01*
X257389684Y-113843803D01*
X257386174Y-113820142D01*
X257385000Y-113796250D01*
X257385000Y-112883750D01*
X257386174Y-112859858D01*
X257389684Y-112836197D01*
X257395496Y-112812993D01*
X257403554Y-112790471D01*
X257413782Y-112768847D01*
X257426079Y-112748330D01*
X257440329Y-112729117D01*
X257456393Y-112711393D01*
X257474117Y-112695329D01*
X257493330Y-112681079D01*
X257513847Y-112668782D01*
X257535471Y-112658554D01*
X257557993Y-112650496D01*
X257581197Y-112644684D01*
X257604858Y-112641174D01*
X257628750Y-112640000D01*
X258116250Y-112640000D01*
X258140142Y-112641174D01*
X258140142Y-112641174D01*
G37*
D13*
X257872500Y-113340000D03*
D12*
G36*
X260015142Y-112641174D02*
G01*
X260038803Y-112644684D01*
X260062007Y-112650496D01*
X260084529Y-112658554D01*
X260106153Y-112668782D01*
X260126670Y-112681079D01*
X260145883Y-112695329D01*
X260163607Y-112711393D01*
X260179671Y-112729117D01*
X260193921Y-112748330D01*
X260206218Y-112768847D01*
X260216446Y-112790471D01*
X260224504Y-112812993D01*
X260230316Y-112836197D01*
X260233826Y-112859858D01*
X260235000Y-112883750D01*
X260235000Y-113796250D01*
X260233826Y-113820142D01*
X260230316Y-113843803D01*
X260224504Y-113867007D01*
X260216446Y-113889529D01*
X260206218Y-113911153D01*
X260193921Y-113931670D01*
X260179671Y-113950883D01*
X260163607Y-113968607D01*
X260145883Y-113984671D01*
X260126670Y-113998921D01*
X260106153Y-114011218D01*
X260084529Y-114021446D01*
X260062007Y-114029504D01*
X260038803Y-114035316D01*
X260015142Y-114038826D01*
X259991250Y-114040000D01*
X259503750Y-114040000D01*
X259479858Y-114038826D01*
X259456197Y-114035316D01*
X259432993Y-114029504D01*
X259410471Y-114021446D01*
X259388847Y-114011218D01*
X259368330Y-113998921D01*
X259349117Y-113984671D01*
X259331393Y-113968607D01*
X259315329Y-113950883D01*
X259301079Y-113931670D01*
X259288782Y-113911153D01*
X259278554Y-113889529D01*
X259270496Y-113867007D01*
X259264684Y-113843803D01*
X259261174Y-113820142D01*
X259260000Y-113796250D01*
X259260000Y-112883750D01*
X259261174Y-112859858D01*
X259264684Y-112836197D01*
X259270496Y-112812993D01*
X259278554Y-112790471D01*
X259288782Y-112768847D01*
X259301079Y-112748330D01*
X259315329Y-112729117D01*
X259331393Y-112711393D01*
X259349117Y-112695329D01*
X259368330Y-112681079D01*
X259388847Y-112668782D01*
X259410471Y-112658554D01*
X259432993Y-112650496D01*
X259456197Y-112644684D01*
X259479858Y-112641174D01*
X259503750Y-112640000D01*
X259991250Y-112640000D01*
X260015142Y-112641174D01*
X260015142Y-112641174D01*
G37*
D13*
X259747500Y-113340000D03*
D10*
X260400000Y-119320000D03*
X257860000Y-119320000D03*
X255320000Y-119320000D03*
X252780000Y-119320000D03*
X250240000Y-119320000D03*
X247700000Y-119320000D03*
X245160000Y-119320000D03*
X242620000Y-119320000D03*
X240080000Y-119320000D03*
X237540000Y-119320000D03*
X235000000Y-119320000D03*
X232460000Y-119320000D03*
X229920000Y-119320000D03*
X227380000Y-119320000D03*
D11*
X224840000Y-119320000D03*
D10*
X260430000Y-110590000D03*
X257890000Y-110590000D03*
X255350000Y-110590000D03*
X252810000Y-110590000D03*
X250270000Y-110590000D03*
X247730000Y-110590000D03*
X245190000Y-110590000D03*
X242650000Y-110590000D03*
X240110000Y-110590000D03*
X237570000Y-110590000D03*
X235030000Y-110590000D03*
X232490000Y-110590000D03*
X229950000Y-110590000D03*
X227410000Y-110590000D03*
D11*
X224870000Y-110590000D03*
D16*
X260420000Y-107090000D03*
X260420000Y-122330000D03*
X224860000Y-107090000D03*
X257880000Y-122330000D03*
X227400000Y-107090000D03*
X255340000Y-122330000D03*
X229940000Y-107090000D03*
X252800000Y-122330000D03*
X232480000Y-107090000D03*
X250260000Y-122330000D03*
X235020000Y-107090000D03*
X247720000Y-122330000D03*
X237560000Y-107090000D03*
X245180000Y-122330000D03*
X240100000Y-107090000D03*
X242640000Y-122330000D03*
X242640000Y-107090000D03*
X240100000Y-122330000D03*
X245180000Y-107090000D03*
X237560000Y-122330000D03*
X247720000Y-107090000D03*
X235020000Y-122330000D03*
X250260000Y-107090000D03*
X232480000Y-122330000D03*
X252800000Y-107090000D03*
X229940000Y-122330000D03*
X255340000Y-107090000D03*
X227400000Y-122330000D03*
X257880000Y-107090000D03*
D17*
X224860000Y-122330000D03*
D10*
X256896000Y-96342500D03*
X256896000Y-98882500D03*
X254356000Y-96342500D03*
X254356000Y-98882500D03*
X251816000Y-96342500D03*
X251816000Y-98882500D03*
X249276000Y-96342500D03*
X249276000Y-98882500D03*
X246736000Y-96342500D03*
X246736000Y-98882500D03*
X244196000Y-96342500D03*
X244196000Y-98882500D03*
X241656000Y-96342500D03*
X241656000Y-98882500D03*
X239116000Y-96342500D03*
X239116000Y-98882500D03*
X236576000Y-96342500D03*
X236576000Y-98882500D03*
X234036000Y-96342500D03*
X234036000Y-98882500D03*
X231496000Y-96342500D03*
X231496000Y-98882500D03*
X228956000Y-96342500D03*
X228956000Y-98882500D03*
X226416000Y-96342500D03*
X226416000Y-98882500D03*
X223876000Y-96342500D03*
X223876000Y-98882500D03*
X221336000Y-96342500D03*
X221336000Y-98882500D03*
X218796000Y-96342500D03*
X218796000Y-98882500D03*
X216256000Y-96342500D03*
X216256000Y-98882500D03*
X213716000Y-96342500D03*
X213716000Y-98882500D03*
X211176000Y-96342500D03*
X211176000Y-98882500D03*
X208636000Y-96342500D03*
D11*
X208636000Y-98882500D03*
D18*
X226290000Y-139425000D03*
X226290000Y-138775000D03*
X226290000Y-138125000D03*
X226290000Y-137475000D03*
X226290000Y-136825000D03*
X226290000Y-136175000D03*
X226290000Y-135525000D03*
X226290000Y-134875000D03*
X220390000Y-134875000D03*
X220390000Y-135525000D03*
X220390000Y-136175000D03*
X220390000Y-136825000D03*
X220390000Y-137475000D03*
X220390000Y-138125000D03*
X220390000Y-138775000D03*
X220390000Y-139425000D03*
D12*
G36*
X261470142Y-138561174D02*
G01*
X261493803Y-138564684D01*
X261517007Y-138570496D01*
X261539529Y-138578554D01*
X261561153Y-138588782D01*
X261581670Y-138601079D01*
X261600883Y-138615329D01*
X261618607Y-138631393D01*
X261634671Y-138649117D01*
X261648921Y-138668330D01*
X261661218Y-138688847D01*
X261671446Y-138710471D01*
X261679504Y-138732993D01*
X261685316Y-138756197D01*
X261688826Y-138779858D01*
X261690000Y-138803750D01*
X261690000Y-139291250D01*
X261688826Y-139315142D01*
X261685316Y-139338803D01*
X261679504Y-139362007D01*
X261671446Y-139384529D01*
X261661218Y-139406153D01*
X261648921Y-139426670D01*
X261634671Y-139445883D01*
X261618607Y-139463607D01*
X261600883Y-139479671D01*
X261581670Y-139493921D01*
X261561153Y-139506218D01*
X261539529Y-139516446D01*
X261517007Y-139524504D01*
X261493803Y-139530316D01*
X261470142Y-139533826D01*
X261446250Y-139535000D01*
X260533750Y-139535000D01*
X260509858Y-139533826D01*
X260486197Y-139530316D01*
X260462993Y-139524504D01*
X260440471Y-139516446D01*
X260418847Y-139506218D01*
X260398330Y-139493921D01*
X260379117Y-139479671D01*
X260361393Y-139463607D01*
X260345329Y-139445883D01*
X260331079Y-139426670D01*
X260318782Y-139406153D01*
X260308554Y-139384529D01*
X260300496Y-139362007D01*
X260294684Y-139338803D01*
X260291174Y-139315142D01*
X260290000Y-139291250D01*
X260290000Y-138803750D01*
X260291174Y-138779858D01*
X260294684Y-138756197D01*
X260300496Y-138732993D01*
X260308554Y-138710471D01*
X260318782Y-138688847D01*
X260331079Y-138668330D01*
X260345329Y-138649117D01*
X260361393Y-138631393D01*
X260379117Y-138615329D01*
X260398330Y-138601079D01*
X260418847Y-138588782D01*
X260440471Y-138578554D01*
X260462993Y-138570496D01*
X260486197Y-138564684D01*
X260509858Y-138561174D01*
X260533750Y-138560000D01*
X261446250Y-138560000D01*
X261470142Y-138561174D01*
X261470142Y-138561174D01*
G37*
D13*
X260990000Y-139047500D03*
D12*
G36*
X261470142Y-136686174D02*
G01*
X261493803Y-136689684D01*
X261517007Y-136695496D01*
X261539529Y-136703554D01*
X261561153Y-136713782D01*
X261581670Y-136726079D01*
X261600883Y-136740329D01*
X261618607Y-136756393D01*
X261634671Y-136774117D01*
X261648921Y-136793330D01*
X261661218Y-136813847D01*
X261671446Y-136835471D01*
X261679504Y-136857993D01*
X261685316Y-136881197D01*
X261688826Y-136904858D01*
X261690000Y-136928750D01*
X261690000Y-137416250D01*
X261688826Y-137440142D01*
X261685316Y-137463803D01*
X261679504Y-137487007D01*
X261671446Y-137509529D01*
X261661218Y-137531153D01*
X261648921Y-137551670D01*
X261634671Y-137570883D01*
X261618607Y-137588607D01*
X261600883Y-137604671D01*
X261581670Y-137618921D01*
X261561153Y-137631218D01*
X261539529Y-137641446D01*
X261517007Y-137649504D01*
X261493803Y-137655316D01*
X261470142Y-137658826D01*
X261446250Y-137660000D01*
X260533750Y-137660000D01*
X260509858Y-137658826D01*
X260486197Y-137655316D01*
X260462993Y-137649504D01*
X260440471Y-137641446D01*
X260418847Y-137631218D01*
X260398330Y-137618921D01*
X260379117Y-137604671D01*
X260361393Y-137588607D01*
X260345329Y-137570883D01*
X260331079Y-137551670D01*
X260318782Y-137531153D01*
X260308554Y-137509529D01*
X260300496Y-137487007D01*
X260294684Y-137463803D01*
X260291174Y-137440142D01*
X260290000Y-137416250D01*
X260290000Y-136928750D01*
X260291174Y-136904858D01*
X260294684Y-136881197D01*
X260300496Y-136857993D01*
X260308554Y-136835471D01*
X260318782Y-136813847D01*
X260331079Y-136793330D01*
X260345329Y-136774117D01*
X260361393Y-136756393D01*
X260379117Y-136740329D01*
X260398330Y-136726079D01*
X260418847Y-136713782D01*
X260440471Y-136703554D01*
X260462993Y-136695496D01*
X260486197Y-136689684D01*
X260509858Y-136686174D01*
X260533750Y-136685000D01*
X261446250Y-136685000D01*
X261470142Y-136686174D01*
X261470142Y-136686174D01*
G37*
D13*
X260990000Y-137172500D03*
D12*
G36*
X250825142Y-136321174D02*
G01*
X250848803Y-136324684D01*
X250872007Y-136330496D01*
X250894529Y-136338554D01*
X250916153Y-136348782D01*
X250936670Y-136361079D01*
X250955883Y-136375329D01*
X250973607Y-136391393D01*
X250989671Y-136409117D01*
X251003921Y-136428330D01*
X251016218Y-136448847D01*
X251026446Y-136470471D01*
X251034504Y-136492993D01*
X251040316Y-136516197D01*
X251043826Y-136539858D01*
X251045000Y-136563750D01*
X251045000Y-137476250D01*
X251043826Y-137500142D01*
X251040316Y-137523803D01*
X251034504Y-137547007D01*
X251026446Y-137569529D01*
X251016218Y-137591153D01*
X251003921Y-137611670D01*
X250989671Y-137630883D01*
X250973607Y-137648607D01*
X250955883Y-137664671D01*
X250936670Y-137678921D01*
X250916153Y-137691218D01*
X250894529Y-137701446D01*
X250872007Y-137709504D01*
X250848803Y-137715316D01*
X250825142Y-137718826D01*
X250801250Y-137720000D01*
X250313750Y-137720000D01*
X250289858Y-137718826D01*
X250266197Y-137715316D01*
X250242993Y-137709504D01*
X250220471Y-137701446D01*
X250198847Y-137691218D01*
X250178330Y-137678921D01*
X250159117Y-137664671D01*
X250141393Y-137648607D01*
X250125329Y-137630883D01*
X250111079Y-137611670D01*
X250098782Y-137591153D01*
X250088554Y-137569529D01*
X250080496Y-137547007D01*
X250074684Y-137523803D01*
X250071174Y-137500142D01*
X250070000Y-137476250D01*
X250070000Y-136563750D01*
X250071174Y-136539858D01*
X250074684Y-136516197D01*
X250080496Y-136492993D01*
X250088554Y-136470471D01*
X250098782Y-136448847D01*
X250111079Y-136428330D01*
X250125329Y-136409117D01*
X250141393Y-136391393D01*
X250159117Y-136375329D01*
X250178330Y-136361079D01*
X250198847Y-136348782D01*
X250220471Y-136338554D01*
X250242993Y-136330496D01*
X250266197Y-136324684D01*
X250289858Y-136321174D01*
X250313750Y-136320000D01*
X250801250Y-136320000D01*
X250825142Y-136321174D01*
X250825142Y-136321174D01*
G37*
D13*
X250557500Y-137020000D03*
D12*
G36*
X248950142Y-136321174D02*
G01*
X248973803Y-136324684D01*
X248997007Y-136330496D01*
X249019529Y-136338554D01*
X249041153Y-136348782D01*
X249061670Y-136361079D01*
X249080883Y-136375329D01*
X249098607Y-136391393D01*
X249114671Y-136409117D01*
X249128921Y-136428330D01*
X249141218Y-136448847D01*
X249151446Y-136470471D01*
X249159504Y-136492993D01*
X249165316Y-136516197D01*
X249168826Y-136539858D01*
X249170000Y-136563750D01*
X249170000Y-137476250D01*
X249168826Y-137500142D01*
X249165316Y-137523803D01*
X249159504Y-137547007D01*
X249151446Y-137569529D01*
X249141218Y-137591153D01*
X249128921Y-137611670D01*
X249114671Y-137630883D01*
X249098607Y-137648607D01*
X249080883Y-137664671D01*
X249061670Y-137678921D01*
X249041153Y-137691218D01*
X249019529Y-137701446D01*
X248997007Y-137709504D01*
X248973803Y-137715316D01*
X248950142Y-137718826D01*
X248926250Y-137720000D01*
X248438750Y-137720000D01*
X248414858Y-137718826D01*
X248391197Y-137715316D01*
X248367993Y-137709504D01*
X248345471Y-137701446D01*
X248323847Y-137691218D01*
X248303330Y-137678921D01*
X248284117Y-137664671D01*
X248266393Y-137648607D01*
X248250329Y-137630883D01*
X248236079Y-137611670D01*
X248223782Y-137591153D01*
X248213554Y-137569529D01*
X248205496Y-137547007D01*
X248199684Y-137523803D01*
X248196174Y-137500142D01*
X248195000Y-137476250D01*
X248195000Y-136563750D01*
X248196174Y-136539858D01*
X248199684Y-136516197D01*
X248205496Y-136492993D01*
X248213554Y-136470471D01*
X248223782Y-136448847D01*
X248236079Y-136428330D01*
X248250329Y-136409117D01*
X248266393Y-136391393D01*
X248284117Y-136375329D01*
X248303330Y-136361079D01*
X248323847Y-136348782D01*
X248345471Y-136338554D01*
X248367993Y-136330496D01*
X248391197Y-136324684D01*
X248414858Y-136321174D01*
X248438750Y-136320000D01*
X248926250Y-136320000D01*
X248950142Y-136321174D01*
X248950142Y-136321174D01*
G37*
D13*
X248682500Y-137020000D03*
D12*
G36*
X246580142Y-136321174D02*
G01*
X246603803Y-136324684D01*
X246627007Y-136330496D01*
X246649529Y-136338554D01*
X246671153Y-136348782D01*
X246691670Y-136361079D01*
X246710883Y-136375329D01*
X246728607Y-136391393D01*
X246744671Y-136409117D01*
X246758921Y-136428330D01*
X246771218Y-136448847D01*
X246781446Y-136470471D01*
X246789504Y-136492993D01*
X246795316Y-136516197D01*
X246798826Y-136539858D01*
X246800000Y-136563750D01*
X246800000Y-137476250D01*
X246798826Y-137500142D01*
X246795316Y-137523803D01*
X246789504Y-137547007D01*
X246781446Y-137569529D01*
X246771218Y-137591153D01*
X246758921Y-137611670D01*
X246744671Y-137630883D01*
X246728607Y-137648607D01*
X246710883Y-137664671D01*
X246691670Y-137678921D01*
X246671153Y-137691218D01*
X246649529Y-137701446D01*
X246627007Y-137709504D01*
X246603803Y-137715316D01*
X246580142Y-137718826D01*
X246556250Y-137720000D01*
X246068750Y-137720000D01*
X246044858Y-137718826D01*
X246021197Y-137715316D01*
X245997993Y-137709504D01*
X245975471Y-137701446D01*
X245953847Y-137691218D01*
X245933330Y-137678921D01*
X245914117Y-137664671D01*
X245896393Y-137648607D01*
X245880329Y-137630883D01*
X245866079Y-137611670D01*
X245853782Y-137591153D01*
X245843554Y-137569529D01*
X245835496Y-137547007D01*
X245829684Y-137523803D01*
X245826174Y-137500142D01*
X245825000Y-137476250D01*
X245825000Y-136563750D01*
X245826174Y-136539858D01*
X245829684Y-136516197D01*
X245835496Y-136492993D01*
X245843554Y-136470471D01*
X245853782Y-136448847D01*
X245866079Y-136428330D01*
X245880329Y-136409117D01*
X245896393Y-136391393D01*
X245914117Y-136375329D01*
X245933330Y-136361079D01*
X245953847Y-136348782D01*
X245975471Y-136338554D01*
X245997993Y-136330496D01*
X246021197Y-136324684D01*
X246044858Y-136321174D01*
X246068750Y-136320000D01*
X246556250Y-136320000D01*
X246580142Y-136321174D01*
X246580142Y-136321174D01*
G37*
D13*
X246312500Y-137020000D03*
D12*
G36*
X244705142Y-136321174D02*
G01*
X244728803Y-136324684D01*
X244752007Y-136330496D01*
X244774529Y-136338554D01*
X244796153Y-136348782D01*
X244816670Y-136361079D01*
X244835883Y-136375329D01*
X244853607Y-136391393D01*
X244869671Y-136409117D01*
X244883921Y-136428330D01*
X244896218Y-136448847D01*
X244906446Y-136470471D01*
X244914504Y-136492993D01*
X244920316Y-136516197D01*
X244923826Y-136539858D01*
X244925000Y-136563750D01*
X244925000Y-137476250D01*
X244923826Y-137500142D01*
X244920316Y-137523803D01*
X244914504Y-137547007D01*
X244906446Y-137569529D01*
X244896218Y-137591153D01*
X244883921Y-137611670D01*
X244869671Y-137630883D01*
X244853607Y-137648607D01*
X244835883Y-137664671D01*
X244816670Y-137678921D01*
X244796153Y-137691218D01*
X244774529Y-137701446D01*
X244752007Y-137709504D01*
X244728803Y-137715316D01*
X244705142Y-137718826D01*
X244681250Y-137720000D01*
X244193750Y-137720000D01*
X244169858Y-137718826D01*
X244146197Y-137715316D01*
X244122993Y-137709504D01*
X244100471Y-137701446D01*
X244078847Y-137691218D01*
X244058330Y-137678921D01*
X244039117Y-137664671D01*
X244021393Y-137648607D01*
X244005329Y-137630883D01*
X243991079Y-137611670D01*
X243978782Y-137591153D01*
X243968554Y-137569529D01*
X243960496Y-137547007D01*
X243954684Y-137523803D01*
X243951174Y-137500142D01*
X243950000Y-137476250D01*
X243950000Y-136563750D01*
X243951174Y-136539858D01*
X243954684Y-136516197D01*
X243960496Y-136492993D01*
X243968554Y-136470471D01*
X243978782Y-136448847D01*
X243991079Y-136428330D01*
X244005329Y-136409117D01*
X244021393Y-136391393D01*
X244039117Y-136375329D01*
X244058330Y-136361079D01*
X244078847Y-136348782D01*
X244100471Y-136338554D01*
X244122993Y-136330496D01*
X244146197Y-136324684D01*
X244169858Y-136321174D01*
X244193750Y-136320000D01*
X244681250Y-136320000D01*
X244705142Y-136321174D01*
X244705142Y-136321174D01*
G37*
D13*
X244437500Y-137020000D03*
D14*
X214240000Y-133000000D03*
X219320000Y-133000000D03*
X209160000Y-133000000D03*
X201540000Y-125380000D03*
D15*
X201540000Y-133000000D03*
D14*
X219320000Y-125380000D03*
X214240000Y-125380000D03*
X209160000Y-125380000D03*
X214230000Y-122370000D03*
X219310000Y-122370000D03*
X209150000Y-122370000D03*
X201530000Y-114750000D03*
D15*
X201530000Y-122370000D03*
D14*
X219310000Y-114750000D03*
X214230000Y-114750000D03*
X209150000Y-114750000D03*
D12*
G36*
X214949342Y-107132174D02*
G01*
X214973003Y-107135684D01*
X214996207Y-107141496D01*
X215018729Y-107149554D01*
X215040353Y-107159782D01*
X215060870Y-107172079D01*
X215080083Y-107186329D01*
X215097807Y-107202393D01*
X215113871Y-107220117D01*
X215128121Y-107239330D01*
X215140418Y-107259847D01*
X215150646Y-107281471D01*
X215158704Y-107303993D01*
X215164516Y-107327197D01*
X215168026Y-107350858D01*
X215169200Y-107374750D01*
X215169200Y-107862250D01*
X215168026Y-107886142D01*
X215164516Y-107909803D01*
X215158704Y-107933007D01*
X215150646Y-107955529D01*
X215140418Y-107977153D01*
X215128121Y-107997670D01*
X215113871Y-108016883D01*
X215097807Y-108034607D01*
X215080083Y-108050671D01*
X215060870Y-108064921D01*
X215040353Y-108077218D01*
X215018729Y-108087446D01*
X214996207Y-108095504D01*
X214973003Y-108101316D01*
X214949342Y-108104826D01*
X214925450Y-108106000D01*
X214012950Y-108106000D01*
X213989058Y-108104826D01*
X213965397Y-108101316D01*
X213942193Y-108095504D01*
X213919671Y-108087446D01*
X213898047Y-108077218D01*
X213877530Y-108064921D01*
X213858317Y-108050671D01*
X213840593Y-108034607D01*
X213824529Y-108016883D01*
X213810279Y-107997670D01*
X213797982Y-107977153D01*
X213787754Y-107955529D01*
X213779696Y-107933007D01*
X213773884Y-107909803D01*
X213770374Y-107886142D01*
X213769200Y-107862250D01*
X213769200Y-107374750D01*
X213770374Y-107350858D01*
X213773884Y-107327197D01*
X213779696Y-107303993D01*
X213787754Y-107281471D01*
X213797982Y-107259847D01*
X213810279Y-107239330D01*
X213824529Y-107220117D01*
X213840593Y-107202393D01*
X213858317Y-107186329D01*
X213877530Y-107172079D01*
X213898047Y-107159782D01*
X213919671Y-107149554D01*
X213942193Y-107141496D01*
X213965397Y-107135684D01*
X213989058Y-107132174D01*
X214012950Y-107131000D01*
X214925450Y-107131000D01*
X214949342Y-107132174D01*
X214949342Y-107132174D01*
G37*
D13*
X214469200Y-107618500D03*
D12*
G36*
X214949342Y-109007174D02*
G01*
X214973003Y-109010684D01*
X214996207Y-109016496D01*
X215018729Y-109024554D01*
X215040353Y-109034782D01*
X215060870Y-109047079D01*
X215080083Y-109061329D01*
X215097807Y-109077393D01*
X215113871Y-109095117D01*
X215128121Y-109114330D01*
X215140418Y-109134847D01*
X215150646Y-109156471D01*
X215158704Y-109178993D01*
X215164516Y-109202197D01*
X215168026Y-109225858D01*
X215169200Y-109249750D01*
X215169200Y-109737250D01*
X215168026Y-109761142D01*
X215164516Y-109784803D01*
X215158704Y-109808007D01*
X215150646Y-109830529D01*
X215140418Y-109852153D01*
X215128121Y-109872670D01*
X215113871Y-109891883D01*
X215097807Y-109909607D01*
X215080083Y-109925671D01*
X215060870Y-109939921D01*
X215040353Y-109952218D01*
X215018729Y-109962446D01*
X214996207Y-109970504D01*
X214973003Y-109976316D01*
X214949342Y-109979826D01*
X214925450Y-109981000D01*
X214012950Y-109981000D01*
X213989058Y-109979826D01*
X213965397Y-109976316D01*
X213942193Y-109970504D01*
X213919671Y-109962446D01*
X213898047Y-109952218D01*
X213877530Y-109939921D01*
X213858317Y-109925671D01*
X213840593Y-109909607D01*
X213824529Y-109891883D01*
X213810279Y-109872670D01*
X213797982Y-109852153D01*
X213787754Y-109830529D01*
X213779696Y-109808007D01*
X213773884Y-109784803D01*
X213770374Y-109761142D01*
X213769200Y-109737250D01*
X213769200Y-109249750D01*
X213770374Y-109225858D01*
X213773884Y-109202197D01*
X213779696Y-109178993D01*
X213787754Y-109156471D01*
X213797982Y-109134847D01*
X213810279Y-109114330D01*
X213824529Y-109095117D01*
X213840593Y-109077393D01*
X213858317Y-109061329D01*
X213877530Y-109047079D01*
X213898047Y-109034782D01*
X213919671Y-109024554D01*
X213942193Y-109016496D01*
X213965397Y-109010684D01*
X213989058Y-109007174D01*
X214012950Y-109006000D01*
X214925450Y-109006000D01*
X214949342Y-109007174D01*
X214949342Y-109007174D01*
G37*
D13*
X214469200Y-109493500D03*
D12*
G36*
X214949342Y-103576174D02*
G01*
X214973003Y-103579684D01*
X214996207Y-103585496D01*
X215018729Y-103593554D01*
X215040353Y-103603782D01*
X215060870Y-103616079D01*
X215080083Y-103630329D01*
X215097807Y-103646393D01*
X215113871Y-103664117D01*
X215128121Y-103683330D01*
X215140418Y-103703847D01*
X215150646Y-103725471D01*
X215158704Y-103747993D01*
X215164516Y-103771197D01*
X215168026Y-103794858D01*
X215169200Y-103818750D01*
X215169200Y-104306250D01*
X215168026Y-104330142D01*
X215164516Y-104353803D01*
X215158704Y-104377007D01*
X215150646Y-104399529D01*
X215140418Y-104421153D01*
X215128121Y-104441670D01*
X215113871Y-104460883D01*
X215097807Y-104478607D01*
X215080083Y-104494671D01*
X215060870Y-104508921D01*
X215040353Y-104521218D01*
X215018729Y-104531446D01*
X214996207Y-104539504D01*
X214973003Y-104545316D01*
X214949342Y-104548826D01*
X214925450Y-104550000D01*
X214012950Y-104550000D01*
X213989058Y-104548826D01*
X213965397Y-104545316D01*
X213942193Y-104539504D01*
X213919671Y-104531446D01*
X213898047Y-104521218D01*
X213877530Y-104508921D01*
X213858317Y-104494671D01*
X213840593Y-104478607D01*
X213824529Y-104460883D01*
X213810279Y-104441670D01*
X213797982Y-104421153D01*
X213787754Y-104399529D01*
X213779696Y-104377007D01*
X213773884Y-104353803D01*
X213770374Y-104330142D01*
X213769200Y-104306250D01*
X213769200Y-103818750D01*
X213770374Y-103794858D01*
X213773884Y-103771197D01*
X213779696Y-103747993D01*
X213787754Y-103725471D01*
X213797982Y-103703847D01*
X213810279Y-103683330D01*
X213824529Y-103664117D01*
X213840593Y-103646393D01*
X213858317Y-103630329D01*
X213877530Y-103616079D01*
X213898047Y-103603782D01*
X213919671Y-103593554D01*
X213942193Y-103585496D01*
X213965397Y-103579684D01*
X213989058Y-103576174D01*
X214012950Y-103575000D01*
X214925450Y-103575000D01*
X214949342Y-103576174D01*
X214949342Y-103576174D01*
G37*
D13*
X214469200Y-104062500D03*
D12*
G36*
X214949342Y-105451174D02*
G01*
X214973003Y-105454684D01*
X214996207Y-105460496D01*
X215018729Y-105468554D01*
X215040353Y-105478782D01*
X215060870Y-105491079D01*
X215080083Y-105505329D01*
X215097807Y-105521393D01*
X215113871Y-105539117D01*
X215128121Y-105558330D01*
X215140418Y-105578847D01*
X215150646Y-105600471D01*
X215158704Y-105622993D01*
X215164516Y-105646197D01*
X215168026Y-105669858D01*
X215169200Y-105693750D01*
X215169200Y-106181250D01*
X215168026Y-106205142D01*
X215164516Y-106228803D01*
X215158704Y-106252007D01*
X215150646Y-106274529D01*
X215140418Y-106296153D01*
X215128121Y-106316670D01*
X215113871Y-106335883D01*
X215097807Y-106353607D01*
X215080083Y-106369671D01*
X215060870Y-106383921D01*
X215040353Y-106396218D01*
X215018729Y-106406446D01*
X214996207Y-106414504D01*
X214973003Y-106420316D01*
X214949342Y-106423826D01*
X214925450Y-106425000D01*
X214012950Y-106425000D01*
X213989058Y-106423826D01*
X213965397Y-106420316D01*
X213942193Y-106414504D01*
X213919671Y-106406446D01*
X213898047Y-106396218D01*
X213877530Y-106383921D01*
X213858317Y-106369671D01*
X213840593Y-106353607D01*
X213824529Y-106335883D01*
X213810279Y-106316670D01*
X213797982Y-106296153D01*
X213787754Y-106274529D01*
X213779696Y-106252007D01*
X213773884Y-106228803D01*
X213770374Y-106205142D01*
X213769200Y-106181250D01*
X213769200Y-105693750D01*
X213770374Y-105669858D01*
X213773884Y-105646197D01*
X213779696Y-105622993D01*
X213787754Y-105600471D01*
X213797982Y-105578847D01*
X213810279Y-105558330D01*
X213824529Y-105539117D01*
X213840593Y-105521393D01*
X213858317Y-105505329D01*
X213877530Y-105491079D01*
X213898047Y-105478782D01*
X213919671Y-105468554D01*
X213942193Y-105460496D01*
X213965397Y-105454684D01*
X213989058Y-105451174D01*
X214012950Y-105450000D01*
X214925450Y-105450000D01*
X214949342Y-105451174D01*
X214949342Y-105451174D01*
G37*
D13*
X214469200Y-105937500D03*
D12*
G36*
X210244505Y-103221204D02*
G01*
X210268773Y-103224804D01*
X210292572Y-103230765D01*
X210315671Y-103239030D01*
X210337850Y-103249520D01*
X210358893Y-103262132D01*
X210378599Y-103276747D01*
X210396777Y-103293223D01*
X210413253Y-103311401D01*
X210427868Y-103331107D01*
X210440480Y-103352150D01*
X210450970Y-103374329D01*
X210459235Y-103397428D01*
X210465196Y-103421227D01*
X210468796Y-103445495D01*
X210470000Y-103469999D01*
X210470000Y-104120001D01*
X210468796Y-104144505D01*
X210465196Y-104168773D01*
X210459235Y-104192572D01*
X210450970Y-104215671D01*
X210440480Y-104237850D01*
X210427868Y-104258893D01*
X210413253Y-104278599D01*
X210396777Y-104296777D01*
X210378599Y-104313253D01*
X210358893Y-104327868D01*
X210337850Y-104340480D01*
X210315671Y-104350970D01*
X210292572Y-104359235D01*
X210268773Y-104365196D01*
X210244505Y-104368796D01*
X210220001Y-104370000D01*
X209319999Y-104370000D01*
X209295495Y-104368796D01*
X209271227Y-104365196D01*
X209247428Y-104359235D01*
X209224329Y-104350970D01*
X209202150Y-104340480D01*
X209181107Y-104327868D01*
X209161401Y-104313253D01*
X209143223Y-104296777D01*
X209126747Y-104278599D01*
X209112132Y-104258893D01*
X209099520Y-104237850D01*
X209089030Y-104215671D01*
X209080765Y-104192572D01*
X209074804Y-104168773D01*
X209071204Y-104144505D01*
X209070000Y-104120001D01*
X209070000Y-103469999D01*
X209071204Y-103445495D01*
X209074804Y-103421227D01*
X209080765Y-103397428D01*
X209089030Y-103374329D01*
X209099520Y-103352150D01*
X209112132Y-103331107D01*
X209126747Y-103311401D01*
X209143223Y-103293223D01*
X209161401Y-103276747D01*
X209181107Y-103262132D01*
X209202150Y-103249520D01*
X209224329Y-103239030D01*
X209247428Y-103230765D01*
X209271227Y-103224804D01*
X209295495Y-103221204D01*
X209319999Y-103220000D01*
X210220001Y-103220000D01*
X210244505Y-103221204D01*
X210244505Y-103221204D01*
G37*
D19*
X209770000Y-103795000D03*
D12*
G36*
X210244505Y-101171204D02*
G01*
X210268773Y-101174804D01*
X210292572Y-101180765D01*
X210315671Y-101189030D01*
X210337850Y-101199520D01*
X210358893Y-101212132D01*
X210378599Y-101226747D01*
X210396777Y-101243223D01*
X210413253Y-101261401D01*
X210427868Y-101281107D01*
X210440480Y-101302150D01*
X210450970Y-101324329D01*
X210459235Y-101347428D01*
X210465196Y-101371227D01*
X210468796Y-101395495D01*
X210470000Y-101419999D01*
X210470000Y-102070001D01*
X210468796Y-102094505D01*
X210465196Y-102118773D01*
X210459235Y-102142572D01*
X210450970Y-102165671D01*
X210440480Y-102187850D01*
X210427868Y-102208893D01*
X210413253Y-102228599D01*
X210396777Y-102246777D01*
X210378599Y-102263253D01*
X210358893Y-102277868D01*
X210337850Y-102290480D01*
X210315671Y-102300970D01*
X210292572Y-102309235D01*
X210268773Y-102315196D01*
X210244505Y-102318796D01*
X210220001Y-102320000D01*
X209319999Y-102320000D01*
X209295495Y-102318796D01*
X209271227Y-102315196D01*
X209247428Y-102309235D01*
X209224329Y-102300970D01*
X209202150Y-102290480D01*
X209181107Y-102277868D01*
X209161401Y-102263253D01*
X209143223Y-102246777D01*
X209126747Y-102228599D01*
X209112132Y-102208893D01*
X209099520Y-102187850D01*
X209089030Y-102165671D01*
X209080765Y-102142572D01*
X209074804Y-102118773D01*
X209071204Y-102094505D01*
X209070000Y-102070001D01*
X209070000Y-101419999D01*
X209071204Y-101395495D01*
X209074804Y-101371227D01*
X209080765Y-101347428D01*
X209089030Y-101324329D01*
X209099520Y-101302150D01*
X209112132Y-101281107D01*
X209126747Y-101261401D01*
X209143223Y-101243223D01*
X209161401Y-101226747D01*
X209181107Y-101212132D01*
X209202150Y-101199520D01*
X209224329Y-101189030D01*
X209247428Y-101180765D01*
X209271227Y-101174804D01*
X209295495Y-101171204D01*
X209319999Y-101170000D01*
X210220001Y-101170000D01*
X210244505Y-101171204D01*
X210244505Y-101171204D01*
G37*
D19*
X209770000Y-101745000D03*
D12*
G36*
X212561742Y-109007174D02*
G01*
X212585403Y-109010684D01*
X212608607Y-109016496D01*
X212631129Y-109024554D01*
X212652753Y-109034782D01*
X212673270Y-109047079D01*
X212692483Y-109061329D01*
X212710207Y-109077393D01*
X212726271Y-109095117D01*
X212740521Y-109114330D01*
X212752818Y-109134847D01*
X212763046Y-109156471D01*
X212771104Y-109178993D01*
X212776916Y-109202197D01*
X212780426Y-109225858D01*
X212781600Y-109249750D01*
X212781600Y-109737250D01*
X212780426Y-109761142D01*
X212776916Y-109784803D01*
X212771104Y-109808007D01*
X212763046Y-109830529D01*
X212752818Y-109852153D01*
X212740521Y-109872670D01*
X212726271Y-109891883D01*
X212710207Y-109909607D01*
X212692483Y-109925671D01*
X212673270Y-109939921D01*
X212652753Y-109952218D01*
X212631129Y-109962446D01*
X212608607Y-109970504D01*
X212585403Y-109976316D01*
X212561742Y-109979826D01*
X212537850Y-109981000D01*
X211625350Y-109981000D01*
X211601458Y-109979826D01*
X211577797Y-109976316D01*
X211554593Y-109970504D01*
X211532071Y-109962446D01*
X211510447Y-109952218D01*
X211489930Y-109939921D01*
X211470717Y-109925671D01*
X211452993Y-109909607D01*
X211436929Y-109891883D01*
X211422679Y-109872670D01*
X211410382Y-109852153D01*
X211400154Y-109830529D01*
X211392096Y-109808007D01*
X211386284Y-109784803D01*
X211382774Y-109761142D01*
X211381600Y-109737250D01*
X211381600Y-109249750D01*
X211382774Y-109225858D01*
X211386284Y-109202197D01*
X211392096Y-109178993D01*
X211400154Y-109156471D01*
X211410382Y-109134847D01*
X211422679Y-109114330D01*
X211436929Y-109095117D01*
X211452993Y-109077393D01*
X211470717Y-109061329D01*
X211489930Y-109047079D01*
X211510447Y-109034782D01*
X211532071Y-109024554D01*
X211554593Y-109016496D01*
X211577797Y-109010684D01*
X211601458Y-109007174D01*
X211625350Y-109006000D01*
X212537850Y-109006000D01*
X212561742Y-109007174D01*
X212561742Y-109007174D01*
G37*
D13*
X212081600Y-109493500D03*
D12*
G36*
X212561742Y-107132174D02*
G01*
X212585403Y-107135684D01*
X212608607Y-107141496D01*
X212631129Y-107149554D01*
X212652753Y-107159782D01*
X212673270Y-107172079D01*
X212692483Y-107186329D01*
X212710207Y-107202393D01*
X212726271Y-107220117D01*
X212740521Y-107239330D01*
X212752818Y-107259847D01*
X212763046Y-107281471D01*
X212771104Y-107303993D01*
X212776916Y-107327197D01*
X212780426Y-107350858D01*
X212781600Y-107374750D01*
X212781600Y-107862250D01*
X212780426Y-107886142D01*
X212776916Y-107909803D01*
X212771104Y-107933007D01*
X212763046Y-107955529D01*
X212752818Y-107977153D01*
X212740521Y-107997670D01*
X212726271Y-108016883D01*
X212710207Y-108034607D01*
X212692483Y-108050671D01*
X212673270Y-108064921D01*
X212652753Y-108077218D01*
X212631129Y-108087446D01*
X212608607Y-108095504D01*
X212585403Y-108101316D01*
X212561742Y-108104826D01*
X212537850Y-108106000D01*
X211625350Y-108106000D01*
X211601458Y-108104826D01*
X211577797Y-108101316D01*
X211554593Y-108095504D01*
X211532071Y-108087446D01*
X211510447Y-108077218D01*
X211489930Y-108064921D01*
X211470717Y-108050671D01*
X211452993Y-108034607D01*
X211436929Y-108016883D01*
X211422679Y-107997670D01*
X211410382Y-107977153D01*
X211400154Y-107955529D01*
X211392096Y-107933007D01*
X211386284Y-107909803D01*
X211382774Y-107886142D01*
X211381600Y-107862250D01*
X211381600Y-107374750D01*
X211382774Y-107350858D01*
X211386284Y-107327197D01*
X211392096Y-107303993D01*
X211400154Y-107281471D01*
X211410382Y-107259847D01*
X211422679Y-107239330D01*
X211436929Y-107220117D01*
X211452993Y-107202393D01*
X211470717Y-107186329D01*
X211489930Y-107172079D01*
X211510447Y-107159782D01*
X211532071Y-107149554D01*
X211554593Y-107141496D01*
X211577797Y-107135684D01*
X211601458Y-107132174D01*
X211625350Y-107131000D01*
X212537850Y-107131000D01*
X212561742Y-107132174D01*
X212561742Y-107132174D01*
G37*
D13*
X212081600Y-107618500D03*
D12*
G36*
X212561742Y-105451174D02*
G01*
X212585403Y-105454684D01*
X212608607Y-105460496D01*
X212631129Y-105468554D01*
X212652753Y-105478782D01*
X212673270Y-105491079D01*
X212692483Y-105505329D01*
X212710207Y-105521393D01*
X212726271Y-105539117D01*
X212740521Y-105558330D01*
X212752818Y-105578847D01*
X212763046Y-105600471D01*
X212771104Y-105622993D01*
X212776916Y-105646197D01*
X212780426Y-105669858D01*
X212781600Y-105693750D01*
X212781600Y-106181250D01*
X212780426Y-106205142D01*
X212776916Y-106228803D01*
X212771104Y-106252007D01*
X212763046Y-106274529D01*
X212752818Y-106296153D01*
X212740521Y-106316670D01*
X212726271Y-106335883D01*
X212710207Y-106353607D01*
X212692483Y-106369671D01*
X212673270Y-106383921D01*
X212652753Y-106396218D01*
X212631129Y-106406446D01*
X212608607Y-106414504D01*
X212585403Y-106420316D01*
X212561742Y-106423826D01*
X212537850Y-106425000D01*
X211625350Y-106425000D01*
X211601458Y-106423826D01*
X211577797Y-106420316D01*
X211554593Y-106414504D01*
X211532071Y-106406446D01*
X211510447Y-106396218D01*
X211489930Y-106383921D01*
X211470717Y-106369671D01*
X211452993Y-106353607D01*
X211436929Y-106335883D01*
X211422679Y-106316670D01*
X211410382Y-106296153D01*
X211400154Y-106274529D01*
X211392096Y-106252007D01*
X211386284Y-106228803D01*
X211382774Y-106205142D01*
X211381600Y-106181250D01*
X211381600Y-105693750D01*
X211382774Y-105669858D01*
X211386284Y-105646197D01*
X211392096Y-105622993D01*
X211400154Y-105600471D01*
X211410382Y-105578847D01*
X211422679Y-105558330D01*
X211436929Y-105539117D01*
X211452993Y-105521393D01*
X211470717Y-105505329D01*
X211489930Y-105491079D01*
X211510447Y-105478782D01*
X211532071Y-105468554D01*
X211554593Y-105460496D01*
X211577797Y-105454684D01*
X211601458Y-105451174D01*
X211625350Y-105450000D01*
X212537850Y-105450000D01*
X212561742Y-105451174D01*
X212561742Y-105451174D01*
G37*
D13*
X212081600Y-105937500D03*
D12*
G36*
X212561742Y-103576174D02*
G01*
X212585403Y-103579684D01*
X212608607Y-103585496D01*
X212631129Y-103593554D01*
X212652753Y-103603782D01*
X212673270Y-103616079D01*
X212692483Y-103630329D01*
X212710207Y-103646393D01*
X212726271Y-103664117D01*
X212740521Y-103683330D01*
X212752818Y-103703847D01*
X212763046Y-103725471D01*
X212771104Y-103747993D01*
X212776916Y-103771197D01*
X212780426Y-103794858D01*
X212781600Y-103818750D01*
X212781600Y-104306250D01*
X212780426Y-104330142D01*
X212776916Y-104353803D01*
X212771104Y-104377007D01*
X212763046Y-104399529D01*
X212752818Y-104421153D01*
X212740521Y-104441670D01*
X212726271Y-104460883D01*
X212710207Y-104478607D01*
X212692483Y-104494671D01*
X212673270Y-104508921D01*
X212652753Y-104521218D01*
X212631129Y-104531446D01*
X212608607Y-104539504D01*
X212585403Y-104545316D01*
X212561742Y-104548826D01*
X212537850Y-104550000D01*
X211625350Y-104550000D01*
X211601458Y-104548826D01*
X211577797Y-104545316D01*
X211554593Y-104539504D01*
X211532071Y-104531446D01*
X211510447Y-104521218D01*
X211489930Y-104508921D01*
X211470717Y-104494671D01*
X211452993Y-104478607D01*
X211436929Y-104460883D01*
X211422679Y-104441670D01*
X211410382Y-104421153D01*
X211400154Y-104399529D01*
X211392096Y-104377007D01*
X211386284Y-104353803D01*
X211382774Y-104330142D01*
X211381600Y-104306250D01*
X211381600Y-103818750D01*
X211382774Y-103794858D01*
X211386284Y-103771197D01*
X211392096Y-103747993D01*
X211400154Y-103725471D01*
X211410382Y-103703847D01*
X211422679Y-103683330D01*
X211436929Y-103664117D01*
X211452993Y-103646393D01*
X211470717Y-103630329D01*
X211489930Y-103616079D01*
X211510447Y-103603782D01*
X211532071Y-103593554D01*
X211554593Y-103585496D01*
X211577797Y-103579684D01*
X211601458Y-103576174D01*
X211625350Y-103575000D01*
X212537850Y-103575000D01*
X212561742Y-103576174D01*
X212561742Y-103576174D01*
G37*
D13*
X212081600Y-104062500D03*
D12*
G36*
X221779504Y-100906204D02*
G01*
X221803773Y-100909804D01*
X221827571Y-100915765D01*
X221850671Y-100924030D01*
X221872849Y-100934520D01*
X221893893Y-100947133D01*
X221913598Y-100961747D01*
X221931777Y-100978223D01*
X221948253Y-100996402D01*
X221962867Y-101016107D01*
X221975480Y-101037151D01*
X221985970Y-101059329D01*
X221994235Y-101082429D01*
X222000196Y-101106227D01*
X222003796Y-101130496D01*
X222005000Y-101155000D01*
X222005000Y-102405000D01*
X222003796Y-102429504D01*
X222000196Y-102453773D01*
X221994235Y-102477571D01*
X221985970Y-102500671D01*
X221975480Y-102522849D01*
X221962867Y-102543893D01*
X221948253Y-102563598D01*
X221931777Y-102581777D01*
X221913598Y-102598253D01*
X221893893Y-102612867D01*
X221872849Y-102625480D01*
X221850671Y-102635970D01*
X221827571Y-102644235D01*
X221803773Y-102650196D01*
X221779504Y-102653796D01*
X221755000Y-102655000D01*
X221005000Y-102655000D01*
X220980496Y-102653796D01*
X220956227Y-102650196D01*
X220932429Y-102644235D01*
X220909329Y-102635970D01*
X220887151Y-102625480D01*
X220866107Y-102612867D01*
X220846402Y-102598253D01*
X220828223Y-102581777D01*
X220811747Y-102563598D01*
X220797133Y-102543893D01*
X220784520Y-102522849D01*
X220774030Y-102500671D01*
X220765765Y-102477571D01*
X220759804Y-102453773D01*
X220756204Y-102429504D01*
X220755000Y-102405000D01*
X220755000Y-101155000D01*
X220756204Y-101130496D01*
X220759804Y-101106227D01*
X220765765Y-101082429D01*
X220774030Y-101059329D01*
X220784520Y-101037151D01*
X220797133Y-101016107D01*
X220811747Y-100996402D01*
X220828223Y-100978223D01*
X220846402Y-100961747D01*
X220866107Y-100947133D01*
X220887151Y-100934520D01*
X220909329Y-100924030D01*
X220932429Y-100915765D01*
X220956227Y-100909804D01*
X220980496Y-100906204D01*
X221005000Y-100905000D01*
X221755000Y-100905000D01*
X221779504Y-100906204D01*
X221779504Y-100906204D01*
G37*
D20*
X221380000Y-101780000D03*
D12*
G36*
X218979504Y-100906204D02*
G01*
X219003773Y-100909804D01*
X219027571Y-100915765D01*
X219050671Y-100924030D01*
X219072849Y-100934520D01*
X219093893Y-100947133D01*
X219113598Y-100961747D01*
X219131777Y-100978223D01*
X219148253Y-100996402D01*
X219162867Y-101016107D01*
X219175480Y-101037151D01*
X219185970Y-101059329D01*
X219194235Y-101082429D01*
X219200196Y-101106227D01*
X219203796Y-101130496D01*
X219205000Y-101155000D01*
X219205000Y-102405000D01*
X219203796Y-102429504D01*
X219200196Y-102453773D01*
X219194235Y-102477571D01*
X219185970Y-102500671D01*
X219175480Y-102522849D01*
X219162867Y-102543893D01*
X219148253Y-102563598D01*
X219131777Y-102581777D01*
X219113598Y-102598253D01*
X219093893Y-102612867D01*
X219072849Y-102625480D01*
X219050671Y-102635970D01*
X219027571Y-102644235D01*
X219003773Y-102650196D01*
X218979504Y-102653796D01*
X218955000Y-102655000D01*
X218205000Y-102655000D01*
X218180496Y-102653796D01*
X218156227Y-102650196D01*
X218132429Y-102644235D01*
X218109329Y-102635970D01*
X218087151Y-102625480D01*
X218066107Y-102612867D01*
X218046402Y-102598253D01*
X218028223Y-102581777D01*
X218011747Y-102563598D01*
X217997133Y-102543893D01*
X217984520Y-102522849D01*
X217974030Y-102500671D01*
X217965765Y-102477571D01*
X217959804Y-102453773D01*
X217956204Y-102429504D01*
X217955000Y-102405000D01*
X217955000Y-101155000D01*
X217956204Y-101130496D01*
X217959804Y-101106227D01*
X217965765Y-101082429D01*
X217974030Y-101059329D01*
X217984520Y-101037151D01*
X217997133Y-101016107D01*
X218011747Y-100996402D01*
X218028223Y-100978223D01*
X218046402Y-100961747D01*
X218066107Y-100947133D01*
X218087151Y-100934520D01*
X218109329Y-100924030D01*
X218132429Y-100915765D01*
X218156227Y-100909804D01*
X218180496Y-100906204D01*
X218205000Y-100905000D01*
X218955000Y-100905000D01*
X218979504Y-100906204D01*
X218979504Y-100906204D01*
G37*
D20*
X218580000Y-101780000D03*
D12*
G36*
X214770142Y-101081174D02*
G01*
X214793803Y-101084684D01*
X214817007Y-101090496D01*
X214839529Y-101098554D01*
X214861153Y-101108782D01*
X214881670Y-101121079D01*
X214900883Y-101135329D01*
X214918607Y-101151393D01*
X214934671Y-101169117D01*
X214948921Y-101188330D01*
X214961218Y-101208847D01*
X214971446Y-101230471D01*
X214979504Y-101252993D01*
X214985316Y-101276197D01*
X214988826Y-101299858D01*
X214990000Y-101323750D01*
X214990000Y-102236250D01*
X214988826Y-102260142D01*
X214985316Y-102283803D01*
X214979504Y-102307007D01*
X214971446Y-102329529D01*
X214961218Y-102351153D01*
X214948921Y-102371670D01*
X214934671Y-102390883D01*
X214918607Y-102408607D01*
X214900883Y-102424671D01*
X214881670Y-102438921D01*
X214861153Y-102451218D01*
X214839529Y-102461446D01*
X214817007Y-102469504D01*
X214793803Y-102475316D01*
X214770142Y-102478826D01*
X214746250Y-102480000D01*
X214258750Y-102480000D01*
X214234858Y-102478826D01*
X214211197Y-102475316D01*
X214187993Y-102469504D01*
X214165471Y-102461446D01*
X214143847Y-102451218D01*
X214123330Y-102438921D01*
X214104117Y-102424671D01*
X214086393Y-102408607D01*
X214070329Y-102390883D01*
X214056079Y-102371670D01*
X214043782Y-102351153D01*
X214033554Y-102329529D01*
X214025496Y-102307007D01*
X214019684Y-102283803D01*
X214016174Y-102260142D01*
X214015000Y-102236250D01*
X214015000Y-101323750D01*
X214016174Y-101299858D01*
X214019684Y-101276197D01*
X214025496Y-101252993D01*
X214033554Y-101230471D01*
X214043782Y-101208847D01*
X214056079Y-101188330D01*
X214070329Y-101169117D01*
X214086393Y-101151393D01*
X214104117Y-101135329D01*
X214123330Y-101121079D01*
X214143847Y-101108782D01*
X214165471Y-101098554D01*
X214187993Y-101090496D01*
X214211197Y-101084684D01*
X214234858Y-101081174D01*
X214258750Y-101080000D01*
X214746250Y-101080000D01*
X214770142Y-101081174D01*
X214770142Y-101081174D01*
G37*
D13*
X214502500Y-101780000D03*
D12*
G36*
X216645142Y-101081174D02*
G01*
X216668803Y-101084684D01*
X216692007Y-101090496D01*
X216714529Y-101098554D01*
X216736153Y-101108782D01*
X216756670Y-101121079D01*
X216775883Y-101135329D01*
X216793607Y-101151393D01*
X216809671Y-101169117D01*
X216823921Y-101188330D01*
X216836218Y-101208847D01*
X216846446Y-101230471D01*
X216854504Y-101252993D01*
X216860316Y-101276197D01*
X216863826Y-101299858D01*
X216865000Y-101323750D01*
X216865000Y-102236250D01*
X216863826Y-102260142D01*
X216860316Y-102283803D01*
X216854504Y-102307007D01*
X216846446Y-102329529D01*
X216836218Y-102351153D01*
X216823921Y-102371670D01*
X216809671Y-102390883D01*
X216793607Y-102408607D01*
X216775883Y-102424671D01*
X216756670Y-102438921D01*
X216736153Y-102451218D01*
X216714529Y-102461446D01*
X216692007Y-102469504D01*
X216668803Y-102475316D01*
X216645142Y-102478826D01*
X216621250Y-102480000D01*
X216133750Y-102480000D01*
X216109858Y-102478826D01*
X216086197Y-102475316D01*
X216062993Y-102469504D01*
X216040471Y-102461446D01*
X216018847Y-102451218D01*
X215998330Y-102438921D01*
X215979117Y-102424671D01*
X215961393Y-102408607D01*
X215945329Y-102390883D01*
X215931079Y-102371670D01*
X215918782Y-102351153D01*
X215908554Y-102329529D01*
X215900496Y-102307007D01*
X215894684Y-102283803D01*
X215891174Y-102260142D01*
X215890000Y-102236250D01*
X215890000Y-101323750D01*
X215891174Y-101299858D01*
X215894684Y-101276197D01*
X215900496Y-101252993D01*
X215908554Y-101230471D01*
X215918782Y-101208847D01*
X215931079Y-101188330D01*
X215945329Y-101169117D01*
X215961393Y-101151393D01*
X215979117Y-101135329D01*
X215998330Y-101121079D01*
X216018847Y-101108782D01*
X216040471Y-101098554D01*
X216062993Y-101090496D01*
X216086197Y-101084684D01*
X216109858Y-101081174D01*
X216133750Y-101080000D01*
X216621250Y-101080000D01*
X216645142Y-101081174D01*
X216645142Y-101081174D01*
G37*
D13*
X216377500Y-101780000D03*
D21*
X221009700Y-104432000D03*
X220374700Y-104432000D03*
X219739700Y-104432000D03*
X219104700Y-104432000D03*
X218469700Y-104432000D03*
X217834700Y-104432000D03*
X217199700Y-104432000D03*
X216564700Y-104432000D03*
X216564700Y-109632000D03*
X217199700Y-109632000D03*
X217834700Y-109632000D03*
X218469700Y-109632000D03*
X219104700Y-109632000D03*
X219739700Y-109632000D03*
X220374700Y-109632000D03*
X221009700Y-109632000D03*
D22*
X204000500Y-108454500D03*
X204000500Y-103454500D03*
D23*
X201250500Y-109829500D03*
X201250500Y-102079500D03*
D24*
X205050500Y-109679500D03*
X205050500Y-102229500D03*
D25*
X260541500Y-141871000D03*
X244281500Y-141871000D03*
D26*
X246061500Y-145301000D03*
X258761500Y-145301000D03*
D27*
X248831500Y-140981000D03*
X250871500Y-140981000D03*
X252911500Y-140981000D03*
X254951500Y-140981000D03*
X249851500Y-142761000D03*
X251891500Y-142761000D03*
X253931500Y-142761000D03*
D28*
X255971500Y-142761000D03*
D25*
X241305750Y-141871000D03*
X225045750Y-141871000D03*
D26*
X226825750Y-145301000D03*
X239525750Y-145301000D03*
D27*
X229595750Y-140981000D03*
X231635750Y-140981000D03*
X233675750Y-140981000D03*
X235715750Y-140981000D03*
X230615750Y-142761000D03*
X232655750Y-142761000D03*
X234695750Y-142761000D03*
D28*
X236735750Y-142761000D03*
D25*
X222070000Y-141871000D03*
X205810000Y-141871000D03*
D26*
X207590000Y-145301000D03*
X220290000Y-145301000D03*
D27*
X210360000Y-140981000D03*
X212400000Y-140981000D03*
X214440000Y-140981000D03*
X216480000Y-140981000D03*
X211380000Y-142761000D03*
X213420000Y-142761000D03*
X215460000Y-142761000D03*
D28*
X217500000Y-142761000D03*
D29*
X203500000Y-146500000D03*
X261500000Y-97500000D03*
X203500000Y-97500000D03*
M02*
