G04 #@! TF.GenerationSoftware,KiCad,Pcbnew,(5.1.4)-1*
G04 #@! TF.CreationDate,2020-09-13T00:14:35-05:00*
G04 #@! TF.ProjectId,NetworkBreaker,4e657477-6f72-46b4-9272-65616b65722e,rev?*
G04 #@! TF.SameCoordinates,Original*
G04 #@! TF.FileFunction,Legend,Top*
G04 #@! TF.FilePolarity,Positive*
%FSLAX46Y46*%
G04 Gerber Fmt 4.6, Leading zero omitted, Abs format (unit mm)*
G04 Created by KiCad (PCBNEW (5.1.4)-1) date 2020-09-13 00:14:35*
%MOMM*%
%LPD*%
G04 APERTURE LIST*
%ADD10C,0.150000*%
%ADD11C,0.100000*%
%ADD12C,0.200000*%
%ADD13C,0.120000*%
G04 APERTURE END LIST*
D10*
X243446666Y-145942857D02*
X243446666Y-145466666D01*
X243732380Y-146038095D02*
X242732380Y-145704761D01*
X243732380Y-145371428D01*
X243732380Y-144895238D02*
X243684761Y-144990476D01*
X243589523Y-145038095D01*
X242732380Y-145038095D01*
X243065714Y-144657142D02*
X243065714Y-144276190D01*
X242732380Y-144514285D02*
X243589523Y-144514285D01*
X243684761Y-144466666D01*
X243732380Y-144371428D01*
X243732380Y-144276190D01*
X243684761Y-143561904D02*
X243732380Y-143657142D01*
X243732380Y-143847619D01*
X243684761Y-143942857D01*
X243589523Y-143990476D01*
X243208571Y-143990476D01*
X243113333Y-143942857D01*
X243065714Y-143847619D01*
X243065714Y-143657142D01*
X243113333Y-143561904D01*
X243208571Y-143514285D01*
X243303809Y-143514285D01*
X243399047Y-143990476D01*
X243732380Y-143085714D02*
X243065714Y-143085714D01*
X243256190Y-143085714D02*
X243160952Y-143038095D01*
X243113333Y-142990476D01*
X243065714Y-142895238D01*
X243065714Y-142800000D01*
X243065714Y-142466666D02*
X243732380Y-142466666D01*
X243160952Y-142466666D02*
X243113333Y-142419047D01*
X243065714Y-142323809D01*
X243065714Y-142180952D01*
X243113333Y-142085714D01*
X243208571Y-142038095D01*
X243732380Y-142038095D01*
X243732380Y-141133333D02*
X243208571Y-141133333D01*
X243113333Y-141180952D01*
X243065714Y-141276190D01*
X243065714Y-141466666D01*
X243113333Y-141561904D01*
X243684761Y-141133333D02*
X243732380Y-141228571D01*
X243732380Y-141466666D01*
X243684761Y-141561904D01*
X243589523Y-141609523D01*
X243494285Y-141609523D01*
X243399047Y-141561904D01*
X243351428Y-141466666D01*
X243351428Y-141228571D01*
X243303809Y-141133333D01*
X243065714Y-140800000D02*
X243065714Y-140419047D01*
X242732380Y-140657142D02*
X243589523Y-140657142D01*
X243684761Y-140609523D01*
X243732380Y-140514285D01*
X243732380Y-140419047D01*
X243684761Y-139704761D02*
X243732380Y-139800000D01*
X243732380Y-139990476D01*
X243684761Y-140085714D01*
X243589523Y-140133333D01*
X243208571Y-140133333D01*
X243113333Y-140085714D01*
X243065714Y-139990476D01*
X243065714Y-139800000D01*
X243113333Y-139704761D01*
X243208571Y-139657142D01*
X243303809Y-139657142D01*
X243399047Y-140133333D01*
X224392380Y-149633333D02*
X223392380Y-149633333D01*
X224392380Y-149061904D01*
X223392380Y-149061904D01*
X224392380Y-148442857D02*
X224344761Y-148538095D01*
X224297142Y-148585714D01*
X224201904Y-148633333D01*
X223916190Y-148633333D01*
X223820952Y-148585714D01*
X223773333Y-148538095D01*
X223725714Y-148442857D01*
X223725714Y-148300000D01*
X223773333Y-148204761D01*
X223820952Y-148157142D01*
X223916190Y-148109523D01*
X224201904Y-148109523D01*
X224297142Y-148157142D01*
X224344761Y-148204761D01*
X224392380Y-148300000D01*
X224392380Y-148442857D01*
X224392380Y-147680952D02*
X223725714Y-147680952D01*
X223916190Y-147680952D02*
X223820952Y-147633333D01*
X223773333Y-147585714D01*
X223725714Y-147490476D01*
X223725714Y-147395238D01*
X224392380Y-147061904D02*
X223725714Y-147061904D01*
X223820952Y-147061904D02*
X223773333Y-147014285D01*
X223725714Y-146919047D01*
X223725714Y-146776190D01*
X223773333Y-146680952D01*
X223868571Y-146633333D01*
X224392380Y-146633333D01*
X223868571Y-146633333D02*
X223773333Y-146585714D01*
X223725714Y-146490476D01*
X223725714Y-146347619D01*
X223773333Y-146252380D01*
X223868571Y-146204761D01*
X224392380Y-146204761D01*
X224392380Y-145300000D02*
X223868571Y-145300000D01*
X223773333Y-145347619D01*
X223725714Y-145442857D01*
X223725714Y-145633333D01*
X223773333Y-145728571D01*
X224344761Y-145300000D02*
X224392380Y-145395238D01*
X224392380Y-145633333D01*
X224344761Y-145728571D01*
X224249523Y-145776190D01*
X224154285Y-145776190D01*
X224059047Y-145728571D01*
X224011428Y-145633333D01*
X224011428Y-145395238D01*
X223963809Y-145300000D01*
X224392380Y-144680952D02*
X224344761Y-144776190D01*
X224249523Y-144823809D01*
X223392380Y-144823809D01*
X224392380Y-144157142D02*
X224344761Y-144252380D01*
X224249523Y-144300000D01*
X223392380Y-144300000D01*
X223725714Y-143871428D02*
X224392380Y-143633333D01*
X223725714Y-143395238D02*
X224392380Y-143633333D01*
X224630476Y-143728571D01*
X224678095Y-143776190D01*
X224725714Y-143871428D01*
X224297142Y-141680952D02*
X224344761Y-141728571D01*
X224392380Y-141871428D01*
X224392380Y-141966666D01*
X224344761Y-142109523D01*
X224249523Y-142204761D01*
X224154285Y-142252380D01*
X223963809Y-142300000D01*
X223820952Y-142300000D01*
X223630476Y-142252380D01*
X223535238Y-142204761D01*
X223440000Y-142109523D01*
X223392380Y-141966666D01*
X223392380Y-141871428D01*
X223440000Y-141728571D01*
X223487619Y-141680952D01*
X224392380Y-141109523D02*
X224344761Y-141204761D01*
X224297142Y-141252380D01*
X224201904Y-141300000D01*
X223916190Y-141300000D01*
X223820952Y-141252380D01*
X223773333Y-141204761D01*
X223725714Y-141109523D01*
X223725714Y-140966666D01*
X223773333Y-140871428D01*
X223820952Y-140823809D01*
X223916190Y-140776190D01*
X224201904Y-140776190D01*
X224297142Y-140823809D01*
X224344761Y-140871428D01*
X224392380Y-140966666D01*
X224392380Y-141109523D01*
X223725714Y-140347619D02*
X224392380Y-140347619D01*
X223820952Y-140347619D02*
X223773333Y-140300000D01*
X223725714Y-140204761D01*
X223725714Y-140061904D01*
X223773333Y-139966666D01*
X223868571Y-139919047D01*
X224392380Y-139919047D01*
X223725714Y-139442857D02*
X224392380Y-139442857D01*
X223820952Y-139442857D02*
X223773333Y-139395238D01*
X223725714Y-139300000D01*
X223725714Y-139157142D01*
X223773333Y-139061904D01*
X223868571Y-139014285D01*
X224392380Y-139014285D01*
X224344761Y-138157142D02*
X224392380Y-138252380D01*
X224392380Y-138442857D01*
X224344761Y-138538095D01*
X224249523Y-138585714D01*
X223868571Y-138585714D01*
X223773333Y-138538095D01*
X223725714Y-138442857D01*
X223725714Y-138252380D01*
X223773333Y-138157142D01*
X223868571Y-138109523D01*
X223963809Y-138109523D01*
X224059047Y-138585714D01*
X224344761Y-137252380D02*
X224392380Y-137347619D01*
X224392380Y-137538095D01*
X224344761Y-137633333D01*
X224297142Y-137680952D01*
X224201904Y-137728571D01*
X223916190Y-137728571D01*
X223820952Y-137680952D01*
X223773333Y-137633333D01*
X223725714Y-137538095D01*
X223725714Y-137347619D01*
X223773333Y-137252380D01*
X223725714Y-136966666D02*
X223725714Y-136585714D01*
X223392380Y-136823809D02*
X224249523Y-136823809D01*
X224344761Y-136776190D01*
X224392380Y-136680952D01*
X224392380Y-136585714D01*
X224344761Y-135871428D02*
X224392380Y-135966666D01*
X224392380Y-136157142D01*
X224344761Y-136252380D01*
X224249523Y-136300000D01*
X223868571Y-136300000D01*
X223773333Y-136252380D01*
X223725714Y-136157142D01*
X223725714Y-135966666D01*
X223773333Y-135871428D01*
X223868571Y-135823809D01*
X223963809Y-135823809D01*
X224059047Y-136300000D01*
X224392380Y-134966666D02*
X223392380Y-134966666D01*
X224344761Y-134966666D02*
X224392380Y-135061904D01*
X224392380Y-135252380D01*
X224344761Y-135347619D01*
X224297142Y-135395238D01*
X224201904Y-135442857D01*
X223916190Y-135442857D01*
X223820952Y-135395238D01*
X223773333Y-135347619D01*
X223725714Y-135252380D01*
X223725714Y-135061904D01*
X223773333Y-134966666D01*
X204871980Y-140517657D02*
X203871980Y-140517657D01*
X204205314Y-140041466D02*
X204871980Y-140041466D01*
X204300552Y-140041466D02*
X204252933Y-139993847D01*
X204205314Y-139898609D01*
X204205314Y-139755752D01*
X204252933Y-139660514D01*
X204348171Y-139612895D01*
X204871980Y-139612895D01*
X204205314Y-139136704D02*
X205205314Y-139136704D01*
X204252933Y-139136704D02*
X204205314Y-139041466D01*
X204205314Y-138850990D01*
X204252933Y-138755752D01*
X204300552Y-138708133D01*
X204395790Y-138660514D01*
X204681504Y-138660514D01*
X204776742Y-138708133D01*
X204824361Y-138755752D01*
X204871980Y-138850990D01*
X204871980Y-139041466D01*
X204824361Y-139136704D01*
X204205314Y-137803371D02*
X204871980Y-137803371D01*
X204205314Y-138231942D02*
X204729123Y-138231942D01*
X204824361Y-138184323D01*
X204871980Y-138089085D01*
X204871980Y-137946228D01*
X204824361Y-137850990D01*
X204776742Y-137803371D01*
X204205314Y-137470038D02*
X204205314Y-137089085D01*
X203871980Y-137327180D02*
X204729123Y-137327180D01*
X204824361Y-137279561D01*
X204871980Y-137184323D01*
X204871980Y-137089085D01*
X211967142Y-149242380D02*
X211967142Y-148242380D01*
X212443333Y-148575714D02*
X212443333Y-149242380D01*
X212443333Y-148670952D02*
X212490952Y-148623333D01*
X212586190Y-148575714D01*
X212729047Y-148575714D01*
X212824285Y-148623333D01*
X212871904Y-148718571D01*
X212871904Y-149242380D01*
X213348095Y-148575714D02*
X213348095Y-149575714D01*
X213348095Y-148623333D02*
X213443333Y-148575714D01*
X213633809Y-148575714D01*
X213729047Y-148623333D01*
X213776666Y-148670952D01*
X213824285Y-148766190D01*
X213824285Y-149051904D01*
X213776666Y-149147142D01*
X213729047Y-149194761D01*
X213633809Y-149242380D01*
X213443333Y-149242380D01*
X213348095Y-149194761D01*
X214681428Y-148575714D02*
X214681428Y-149242380D01*
X214252857Y-148575714D02*
X214252857Y-149099523D01*
X214300476Y-149194761D01*
X214395714Y-149242380D01*
X214538571Y-149242380D01*
X214633809Y-149194761D01*
X214681428Y-149147142D01*
X215014761Y-148575714D02*
X215395714Y-148575714D01*
X215157619Y-148242380D02*
X215157619Y-149099523D01*
X215205238Y-149194761D01*
X215300476Y-149242380D01*
X215395714Y-149242380D01*
X261261904Y-104785714D02*
X261223809Y-104823809D01*
X261109523Y-104861904D01*
X261033333Y-104861904D01*
X260919047Y-104823809D01*
X260842857Y-104747619D01*
X260804761Y-104671428D01*
X260766666Y-104519047D01*
X260766666Y-104404761D01*
X260804761Y-104252380D01*
X260842857Y-104176190D01*
X260919047Y-104100000D01*
X261033333Y-104061904D01*
X261109523Y-104061904D01*
X261223809Y-104100000D01*
X261261904Y-104138095D01*
X261490476Y-104061904D02*
X261947619Y-104061904D01*
X261719047Y-104861904D02*
X261719047Y-104061904D01*
X262176190Y-104823809D02*
X262290476Y-104861904D01*
X262480952Y-104861904D01*
X262557142Y-104823809D01*
X262595238Y-104785714D01*
X262633333Y-104709523D01*
X262633333Y-104633333D01*
X262595238Y-104557142D01*
X262557142Y-104519047D01*
X262480952Y-104480952D01*
X262328571Y-104442857D01*
X262252380Y-104404761D01*
X262214285Y-104366666D01*
X262176190Y-104290476D01*
X262176190Y-104214285D01*
X262214285Y-104138095D01*
X262252380Y-104100000D01*
X262328571Y-104061904D01*
X262519047Y-104061904D01*
X262633333Y-104100000D01*
X258521904Y-104861904D02*
X258255238Y-104480952D01*
X258064761Y-104861904D02*
X258064761Y-104061904D01*
X258369523Y-104061904D01*
X258445714Y-104100000D01*
X258483809Y-104138095D01*
X258521904Y-104214285D01*
X258521904Y-104328571D01*
X258483809Y-104404761D01*
X258445714Y-104442857D01*
X258369523Y-104480952D01*
X258064761Y-104480952D01*
X258750476Y-104061904D02*
X259207619Y-104061904D01*
X258979047Y-104861904D02*
X258979047Y-104061904D01*
X259436190Y-104823809D02*
X259550476Y-104861904D01*
X259740952Y-104861904D01*
X259817142Y-104823809D01*
X259855238Y-104785714D01*
X259893333Y-104709523D01*
X259893333Y-104633333D01*
X259855238Y-104557142D01*
X259817142Y-104519047D01*
X259740952Y-104480952D01*
X259588571Y-104442857D01*
X259512380Y-104404761D01*
X259474285Y-104366666D01*
X259436190Y-104290476D01*
X259436190Y-104214285D01*
X259474285Y-104138095D01*
X259512380Y-104100000D01*
X259588571Y-104061904D01*
X259779047Y-104061904D01*
X259893333Y-104100000D01*
X256226666Y-104861904D02*
X255960000Y-104480952D01*
X255769523Y-104861904D02*
X255769523Y-104061904D01*
X256074285Y-104061904D01*
X256150476Y-104100000D01*
X256188571Y-104138095D01*
X256226666Y-104214285D01*
X256226666Y-104328571D01*
X256188571Y-104404761D01*
X256150476Y-104442857D01*
X256074285Y-104480952D01*
X255769523Y-104480952D01*
X256493333Y-104061904D02*
X257026666Y-104861904D01*
X257026666Y-104061904D02*
X256493333Y-104861904D01*
X253270476Y-104061904D02*
X253727619Y-104061904D01*
X253499047Y-104861904D02*
X253499047Y-104061904D01*
X253918095Y-104061904D02*
X254451428Y-104861904D01*
X254451428Y-104061904D02*
X253918095Y-104861904D01*
X250550476Y-104100000D02*
X250474285Y-104061904D01*
X250360000Y-104061904D01*
X250245714Y-104100000D01*
X250169523Y-104176190D01*
X250131428Y-104252380D01*
X250093333Y-104404761D01*
X250093333Y-104519047D01*
X250131428Y-104671428D01*
X250169523Y-104747619D01*
X250245714Y-104823809D01*
X250360000Y-104861904D01*
X250436190Y-104861904D01*
X250550476Y-104823809D01*
X250588571Y-104785714D01*
X250588571Y-104519047D01*
X250436190Y-104519047D01*
X250931428Y-104861904D02*
X250931428Y-104061904D01*
X251388571Y-104861904D01*
X251388571Y-104061904D01*
X251769523Y-104861904D02*
X251769523Y-104061904D01*
X251960000Y-104061904D01*
X252074285Y-104100000D01*
X252150476Y-104176190D01*
X252188571Y-104252380D01*
X252226666Y-104404761D01*
X252226666Y-104519047D01*
X252188571Y-104671428D01*
X252150476Y-104747619D01*
X252074285Y-104823809D01*
X251960000Y-104861904D01*
X251769523Y-104861904D01*
X248335714Y-104061904D02*
X247954761Y-104061904D01*
X247916666Y-104442857D01*
X247954761Y-104404761D01*
X248030952Y-104366666D01*
X248221428Y-104366666D01*
X248297619Y-104404761D01*
X248335714Y-104442857D01*
X248373809Y-104519047D01*
X248373809Y-104709523D01*
X248335714Y-104785714D01*
X248297619Y-104823809D01*
X248221428Y-104861904D01*
X248030952Y-104861904D01*
X247954761Y-104823809D01*
X247916666Y-104785714D01*
X248640476Y-104328571D02*
X248830952Y-104861904D01*
X249021428Y-104328571D01*
X218370000Y-100210000D02*
X218374000Y-104842000D01*
X246593400Y-100210000D02*
X218370000Y-100210000D01*
X246593400Y-104842000D02*
X246593400Y-100210000D01*
X218374000Y-104842000D02*
X246593400Y-104842000D01*
X218850000Y-100680000D02*
X218850000Y-104400000D01*
X246009200Y-100680000D02*
X218850000Y-100680000D01*
X246009200Y-104410200D02*
X246009200Y-100680000D01*
X218856600Y-104410200D02*
X246009200Y-104410200D01*
D11*
X219397980Y-103857704D02*
X219397980Y-103057704D01*
X219740838Y-103857704D02*
X219740838Y-103438657D01*
X219702742Y-103362466D01*
X219626552Y-103324371D01*
X219512266Y-103324371D01*
X219436076Y-103362466D01*
X219397980Y-103400561D01*
X220007504Y-103324371D02*
X220312266Y-103324371D01*
X220121790Y-103057704D02*
X220121790Y-103743419D01*
X220159885Y-103819609D01*
X220236076Y-103857704D01*
X220312266Y-103857704D01*
X220464647Y-103324371D02*
X220769409Y-103324371D01*
X220578933Y-103057704D02*
X220578933Y-103743419D01*
X220617028Y-103819609D01*
X220693219Y-103857704D01*
X220769409Y-103857704D01*
X221036076Y-103324371D02*
X221036076Y-104124371D01*
X221036076Y-103362466D02*
X221112266Y-103324371D01*
X221264647Y-103324371D01*
X221340838Y-103362466D01*
X221378933Y-103400561D01*
X221417028Y-103476752D01*
X221417028Y-103705323D01*
X221378933Y-103781514D01*
X221340838Y-103819609D01*
X221264647Y-103857704D01*
X221112266Y-103857704D01*
X221036076Y-103819609D01*
X221721790Y-103819609D02*
X221797980Y-103857704D01*
X221950361Y-103857704D01*
X222026552Y-103819609D01*
X222064647Y-103743419D01*
X222064647Y-103705323D01*
X222026552Y-103629133D01*
X221950361Y-103591038D01*
X221836076Y-103591038D01*
X221759885Y-103552942D01*
X221721790Y-103476752D01*
X221721790Y-103438657D01*
X221759885Y-103362466D01*
X221836076Y-103324371D01*
X221950361Y-103324371D01*
X222026552Y-103362466D01*
X222407504Y-103781514D02*
X222445599Y-103819609D01*
X222407504Y-103857704D01*
X222369409Y-103819609D01*
X222407504Y-103781514D01*
X222407504Y-103857704D01*
X222407504Y-103362466D02*
X222445599Y-103400561D01*
X222407504Y-103438657D01*
X222369409Y-103400561D01*
X222407504Y-103362466D01*
X222407504Y-103438657D01*
X223359885Y-103019609D02*
X222674171Y-104048180D01*
X224197980Y-103019609D02*
X223512266Y-104048180D01*
X224807504Y-103324371D02*
X224807504Y-103971990D01*
X224769409Y-104048180D01*
X224731314Y-104086276D01*
X224655123Y-104124371D01*
X224540838Y-104124371D01*
X224464647Y-104086276D01*
X224807504Y-103819609D02*
X224731314Y-103857704D01*
X224578933Y-103857704D01*
X224502742Y-103819609D01*
X224464647Y-103781514D01*
X224426552Y-103705323D01*
X224426552Y-103476752D01*
X224464647Y-103400561D01*
X224502742Y-103362466D01*
X224578933Y-103324371D01*
X224731314Y-103324371D01*
X224807504Y-103362466D01*
X225188457Y-103857704D02*
X225188457Y-103324371D01*
X225188457Y-103057704D02*
X225150361Y-103095800D01*
X225188457Y-103133895D01*
X225226552Y-103095800D01*
X225188457Y-103057704D01*
X225188457Y-103133895D01*
X225455123Y-103324371D02*
X225759885Y-103324371D01*
X225569409Y-103057704D02*
X225569409Y-103743419D01*
X225607504Y-103819609D01*
X225683695Y-103857704D01*
X225759885Y-103857704D01*
X226026552Y-103857704D02*
X226026552Y-103057704D01*
X226369409Y-103857704D02*
X226369409Y-103438657D01*
X226331314Y-103362466D01*
X226255123Y-103324371D01*
X226140838Y-103324371D01*
X226064647Y-103362466D01*
X226026552Y-103400561D01*
X227093219Y-103324371D02*
X227093219Y-103857704D01*
X226750361Y-103324371D02*
X226750361Y-103743419D01*
X226788457Y-103819609D01*
X226864647Y-103857704D01*
X226978933Y-103857704D01*
X227055123Y-103819609D01*
X227093219Y-103781514D01*
X227474171Y-103857704D02*
X227474171Y-103057704D01*
X227474171Y-103362466D02*
X227550361Y-103324371D01*
X227702742Y-103324371D01*
X227778933Y-103362466D01*
X227817028Y-103400561D01*
X227855123Y-103476752D01*
X227855123Y-103705323D01*
X227817028Y-103781514D01*
X227778933Y-103819609D01*
X227702742Y-103857704D01*
X227550361Y-103857704D01*
X227474171Y-103819609D01*
X228197980Y-103781514D02*
X228236076Y-103819609D01*
X228197980Y-103857704D01*
X228159885Y-103819609D01*
X228197980Y-103781514D01*
X228197980Y-103857704D01*
X228921790Y-103819609D02*
X228845599Y-103857704D01*
X228693219Y-103857704D01*
X228617028Y-103819609D01*
X228578933Y-103781514D01*
X228540838Y-103705323D01*
X228540838Y-103476752D01*
X228578933Y-103400561D01*
X228617028Y-103362466D01*
X228693219Y-103324371D01*
X228845599Y-103324371D01*
X228921790Y-103362466D01*
X229378933Y-103857704D02*
X229302742Y-103819609D01*
X229264647Y-103781514D01*
X229226552Y-103705323D01*
X229226552Y-103476752D01*
X229264647Y-103400561D01*
X229302742Y-103362466D01*
X229378933Y-103324371D01*
X229493219Y-103324371D01*
X229569409Y-103362466D01*
X229607504Y-103400561D01*
X229645599Y-103476752D01*
X229645599Y-103705323D01*
X229607504Y-103781514D01*
X229569409Y-103819609D01*
X229493219Y-103857704D01*
X229378933Y-103857704D01*
X229988457Y-103857704D02*
X229988457Y-103324371D01*
X229988457Y-103400561D02*
X230026552Y-103362466D01*
X230102742Y-103324371D01*
X230217028Y-103324371D01*
X230293219Y-103362466D01*
X230331314Y-103438657D01*
X230331314Y-103857704D01*
X230331314Y-103438657D02*
X230369409Y-103362466D01*
X230445599Y-103324371D01*
X230559885Y-103324371D01*
X230636076Y-103362466D01*
X230674171Y-103438657D01*
X230674171Y-103857704D01*
X231626552Y-103019609D02*
X230940838Y-104048180D01*
X232236076Y-103857704D02*
X232236076Y-103438657D01*
X232197980Y-103362466D01*
X232121790Y-103324371D01*
X231969409Y-103324371D01*
X231893219Y-103362466D01*
X232236076Y-103819609D02*
X232159885Y-103857704D01*
X231969409Y-103857704D01*
X231893219Y-103819609D01*
X231855123Y-103743419D01*
X231855123Y-103667228D01*
X231893219Y-103591038D01*
X231969409Y-103552942D01*
X232159885Y-103552942D01*
X232236076Y-103514847D01*
X232617028Y-103857704D02*
X232617028Y-103057704D01*
X232693219Y-103552942D02*
X232921790Y-103857704D01*
X232921790Y-103324371D02*
X232617028Y-103629133D01*
X233607504Y-103324371D02*
X233607504Y-103857704D01*
X233264647Y-103324371D02*
X233264647Y-103743419D01*
X233302742Y-103819609D01*
X233378933Y-103857704D01*
X233493219Y-103857704D01*
X233569409Y-103819609D01*
X233607504Y-103781514D01*
X233988457Y-103857704D02*
X233988457Y-103057704D01*
X234064647Y-103552942D02*
X234293219Y-103857704D01*
X234293219Y-103324371D02*
X233988457Y-103629133D01*
X234940838Y-103819609D02*
X234864647Y-103857704D01*
X234712266Y-103857704D01*
X234636076Y-103819609D01*
X234597980Y-103743419D01*
X234597980Y-103438657D01*
X234636076Y-103362466D01*
X234712266Y-103324371D01*
X234864647Y-103324371D01*
X234940838Y-103362466D01*
X234978933Y-103438657D01*
X234978933Y-103514847D01*
X234597980Y-103591038D01*
X235321790Y-103857704D02*
X235321790Y-103324371D01*
X235321790Y-103476752D02*
X235359885Y-103400561D01*
X235397980Y-103362466D01*
X235474171Y-103324371D01*
X235550361Y-103324371D01*
X236388457Y-103019609D02*
X235702742Y-104048180D01*
X236655123Y-103857704D02*
X236655123Y-103057704D01*
X237112266Y-103857704D01*
X237112266Y-103057704D01*
X237797980Y-103819609D02*
X237721790Y-103857704D01*
X237569409Y-103857704D01*
X237493219Y-103819609D01*
X237455123Y-103743419D01*
X237455123Y-103438657D01*
X237493219Y-103362466D01*
X237569409Y-103324371D01*
X237721790Y-103324371D01*
X237797980Y-103362466D01*
X237836076Y-103438657D01*
X237836076Y-103514847D01*
X237455123Y-103591038D01*
X238064647Y-103324371D02*
X238369409Y-103324371D01*
X238178933Y-103057704D02*
X238178933Y-103743419D01*
X238217028Y-103819609D01*
X238293219Y-103857704D01*
X238369409Y-103857704D01*
X238559885Y-103324371D02*
X238712266Y-103857704D01*
X238864647Y-103476752D01*
X239017028Y-103857704D01*
X239169409Y-103324371D01*
X239588457Y-103857704D02*
X239512266Y-103819609D01*
X239474171Y-103781514D01*
X239436076Y-103705323D01*
X239436076Y-103476752D01*
X239474171Y-103400561D01*
X239512266Y-103362466D01*
X239588457Y-103324371D01*
X239702742Y-103324371D01*
X239778933Y-103362466D01*
X239817028Y-103400561D01*
X239855123Y-103476752D01*
X239855123Y-103705323D01*
X239817028Y-103781514D01*
X239778933Y-103819609D01*
X239702742Y-103857704D01*
X239588457Y-103857704D01*
X240197980Y-103857704D02*
X240197980Y-103324371D01*
X240197980Y-103476752D02*
X240236076Y-103400561D01*
X240274171Y-103362466D01*
X240350361Y-103324371D01*
X240426552Y-103324371D01*
X240693219Y-103857704D02*
X240693219Y-103057704D01*
X240769409Y-103552942D02*
X240997980Y-103857704D01*
X240997980Y-103324371D02*
X240693219Y-103629133D01*
X241607504Y-103438657D02*
X241721790Y-103476752D01*
X241759885Y-103514847D01*
X241797980Y-103591038D01*
X241797980Y-103705323D01*
X241759885Y-103781514D01*
X241721790Y-103819609D01*
X241645600Y-103857704D01*
X241340838Y-103857704D01*
X241340838Y-103057704D01*
X241607504Y-103057704D01*
X241683695Y-103095800D01*
X241721790Y-103133895D01*
X241759885Y-103210085D01*
X241759885Y-103286276D01*
X241721790Y-103362466D01*
X241683695Y-103400561D01*
X241607504Y-103438657D01*
X241340838Y-103438657D01*
X242140838Y-103857704D02*
X242140838Y-103324371D01*
X242140838Y-103476752D02*
X242178933Y-103400561D01*
X242217028Y-103362466D01*
X242293219Y-103324371D01*
X242369409Y-103324371D01*
X242940838Y-103819609D02*
X242864647Y-103857704D01*
X242712266Y-103857704D01*
X242636076Y-103819609D01*
X242597980Y-103743419D01*
X242597980Y-103438657D01*
X242636076Y-103362466D01*
X242712266Y-103324371D01*
X242864647Y-103324371D01*
X242940838Y-103362466D01*
X242978933Y-103438657D01*
X242978933Y-103514847D01*
X242597980Y-103591038D01*
X243664647Y-103857704D02*
X243664647Y-103438657D01*
X243626552Y-103362466D01*
X243550361Y-103324371D01*
X243397980Y-103324371D01*
X243321790Y-103362466D01*
X243664647Y-103819609D02*
X243588457Y-103857704D01*
X243397980Y-103857704D01*
X243321790Y-103819609D01*
X243283695Y-103743419D01*
X243283695Y-103667228D01*
X243321790Y-103591038D01*
X243397980Y-103552942D01*
X243588457Y-103552942D01*
X243664647Y-103514847D01*
X244045600Y-103857704D02*
X244045600Y-103057704D01*
X244121790Y-103552942D02*
X244350361Y-103857704D01*
X244350361Y-103324371D02*
X244045600Y-103629133D01*
X244997980Y-103819609D02*
X244921790Y-103857704D01*
X244769409Y-103857704D01*
X244693219Y-103819609D01*
X244655123Y-103743419D01*
X244655123Y-103438657D01*
X244693219Y-103362466D01*
X244769409Y-103324371D01*
X244921790Y-103324371D01*
X244997980Y-103362466D01*
X245036076Y-103438657D01*
X245036076Y-103514847D01*
X244655123Y-103591038D01*
X245378933Y-103857704D02*
X245378933Y-103324371D01*
X245378933Y-103476752D02*
X245417028Y-103400561D01*
X245455123Y-103362466D01*
X245531314Y-103324371D01*
X245607504Y-103324371D01*
D12*
X223100625Y-102418571D02*
X223288125Y-100918571D01*
X223957767Y-102418571D01*
X224145267Y-100918571D01*
X225252410Y-102347142D02*
X225100625Y-102418571D01*
X224814910Y-102418571D01*
X224680982Y-102347142D01*
X224627410Y-102204285D01*
X224698839Y-101632857D01*
X224788125Y-101490000D01*
X224939910Y-101418571D01*
X225225625Y-101418571D01*
X225359553Y-101490000D01*
X225413125Y-101632857D01*
X225395267Y-101775714D01*
X224663125Y-101918571D01*
X225868482Y-101418571D02*
X226439910Y-101418571D01*
X226145267Y-100918571D02*
X225984553Y-102204285D01*
X226038125Y-102347142D01*
X226172053Y-102418571D01*
X226314910Y-102418571D01*
X226797053Y-101418571D02*
X226957767Y-102418571D01*
X227332767Y-101704285D01*
X227529196Y-102418571D01*
X227939910Y-101418571D01*
X228600625Y-102418571D02*
X228466696Y-102347142D01*
X228404196Y-102275714D01*
X228350625Y-102132857D01*
X228404196Y-101704285D01*
X228493482Y-101561428D01*
X228573839Y-101490000D01*
X228725625Y-101418571D01*
X228939910Y-101418571D01*
X229073839Y-101490000D01*
X229136339Y-101561428D01*
X229189910Y-101704285D01*
X229136339Y-102132857D01*
X229047053Y-102275714D01*
X228966696Y-102347142D01*
X228814910Y-102418571D01*
X228600625Y-102418571D01*
X229743482Y-102418571D02*
X229868482Y-101418571D01*
X229832767Y-101704285D02*
X229922053Y-101561428D01*
X230002410Y-101490000D01*
X230154196Y-101418571D01*
X230297053Y-101418571D01*
X230672053Y-102418571D02*
X230859553Y-100918571D01*
X230886339Y-101847142D02*
X231243482Y-102418571D01*
X231368482Y-101418571D02*
X230725625Y-101990000D01*
X232966696Y-102347142D02*
X233172053Y-102418571D01*
X233529196Y-102418571D01*
X233680982Y-102347142D01*
X233761339Y-102275714D01*
X233850625Y-102132857D01*
X233868482Y-101990000D01*
X233814910Y-101847142D01*
X233752410Y-101775714D01*
X233618482Y-101704285D01*
X233341696Y-101632857D01*
X233207767Y-101561428D01*
X233145267Y-101490000D01*
X233091696Y-101347142D01*
X233109553Y-101204285D01*
X233198839Y-101061428D01*
X233279196Y-100990000D01*
X233430982Y-100918571D01*
X233788125Y-100918571D01*
X233993482Y-100990000D01*
X234439910Y-101418571D02*
X234600625Y-102418571D01*
X234975625Y-101704285D01*
X235172053Y-102418571D01*
X235582767Y-101418571D01*
X236029196Y-102418571D02*
X236154196Y-101418571D01*
X236216696Y-100918571D02*
X236136339Y-100990000D01*
X236198839Y-101061428D01*
X236279196Y-100990000D01*
X236216696Y-100918571D01*
X236198839Y-101061428D01*
X236654196Y-101418571D02*
X237225625Y-101418571D01*
X236930982Y-100918571D02*
X236770267Y-102204285D01*
X236823839Y-102347142D01*
X236957767Y-102418571D01*
X237100625Y-102418571D01*
X238252410Y-102347142D02*
X238100625Y-102418571D01*
X237814910Y-102418571D01*
X237680982Y-102347142D01*
X237618482Y-102275714D01*
X237564910Y-102132857D01*
X237618482Y-101704285D01*
X237707767Y-101561428D01*
X237788125Y-101490000D01*
X237939910Y-101418571D01*
X238225625Y-101418571D01*
X238359553Y-101490000D01*
X238886339Y-102418571D02*
X239073839Y-100918571D01*
X239529196Y-102418571D02*
X239627410Y-101632857D01*
X239573839Y-101490000D01*
X239439910Y-101418571D01*
X239225625Y-101418571D01*
X239073839Y-101490000D01*
X238993482Y-101561428D01*
X240823839Y-102347142D02*
X240672053Y-102418571D01*
X240386339Y-102418571D01*
X240252410Y-102347142D01*
X240198839Y-102204285D01*
X240270267Y-101632857D01*
X240359553Y-101490000D01*
X240511339Y-101418571D01*
X240797053Y-101418571D01*
X240930982Y-101490000D01*
X240984553Y-101632857D01*
X240966696Y-101775714D01*
X240234553Y-101918571D01*
X241529196Y-102418571D02*
X241654196Y-101418571D01*
X241618482Y-101704285D02*
X241707767Y-101561428D01*
X241788125Y-101490000D01*
X241939910Y-101418571D01*
X242082767Y-101418571D01*
D13*
X242490000Y-128900000D02*
X242490000Y-129600000D01*
X243690000Y-128900000D02*
X242490000Y-128900000D01*
X243690000Y-129600000D02*
X243690000Y-128900000D01*
X242490000Y-129600000D02*
X243690000Y-129600000D01*
X243290000Y-129600000D02*
X242890000Y-128900000D01*
X243090000Y-128900000D02*
X243090000Y-127800000D01*
X243090000Y-129600000D02*
X243090000Y-130700000D01*
X262290000Y-124000000D02*
X262290000Y-134400000D01*
X241690000Y-124000000D02*
X262290000Y-124000000D01*
X241690000Y-134400000D02*
X241690000Y-124000000D01*
X262290000Y-134400000D02*
X241690000Y-134400000D01*
X241490000Y-134600000D02*
X241490000Y-133100000D01*
X243190000Y-134600000D02*
X241490000Y-134600000D01*
X221715000Y-128900000D02*
X221715000Y-129600000D01*
X222915000Y-128900000D02*
X221715000Y-128900000D01*
X222915000Y-129600000D02*
X222915000Y-128900000D01*
X221715000Y-129600000D02*
X222915000Y-129600000D01*
X222515000Y-129600000D02*
X222115000Y-128900000D01*
X222315000Y-128900000D02*
X222315000Y-127800000D01*
X222315000Y-129600000D02*
X222315000Y-130700000D01*
X241515000Y-124000000D02*
X241515000Y-134400000D01*
X220915000Y-124000000D02*
X241515000Y-124000000D01*
X220915000Y-134400000D02*
X220915000Y-124000000D01*
X241515000Y-134400000D02*
X220915000Y-134400000D01*
X220715000Y-134600000D02*
X220715000Y-133100000D01*
X222415000Y-134600000D02*
X220715000Y-134600000D01*
X220920000Y-105690000D02*
X220920000Y-123730000D01*
X264360000Y-105690000D02*
X220920000Y-105690000D01*
X264360000Y-123730000D02*
X264360000Y-105690000D01*
X261690000Y-121060000D02*
X261690000Y-123730000D01*
X226130000Y-121060000D02*
X261690000Y-121060000D01*
X226130000Y-121060000D02*
X226130000Y-123730000D01*
X261690000Y-108360000D02*
X261690000Y-105690000D01*
X223590000Y-108360000D02*
X261690000Y-108360000D01*
X223590000Y-108360000D02*
X223590000Y-105690000D01*
X220920000Y-123730000D02*
X223590000Y-123730000D01*
X226130000Y-123730000D02*
X264360000Y-123730000D01*
X223590000Y-121060000D02*
X223590000Y-123730000D01*
X226130000Y-121060000D02*
X223590000Y-121060000D01*
X200940000Y-128900000D02*
X200940000Y-129600000D01*
X202140000Y-128900000D02*
X200940000Y-128900000D01*
X202140000Y-129600000D02*
X202140000Y-128900000D01*
X200940000Y-129600000D02*
X202140000Y-129600000D01*
X201740000Y-129600000D02*
X201340000Y-128900000D01*
X201540000Y-128900000D02*
X201540000Y-127800000D01*
X201540000Y-129600000D02*
X201540000Y-130700000D01*
X220740000Y-124000000D02*
X220740000Y-134400000D01*
X200140000Y-124000000D02*
X220740000Y-124000000D01*
X200140000Y-134400000D02*
X200140000Y-124000000D01*
X220740000Y-134400000D02*
X200140000Y-134400000D01*
X199940000Y-134600000D02*
X199940000Y-133100000D01*
X201640000Y-134600000D02*
X199940000Y-134600000D01*
X200930000Y-118270000D02*
X200930000Y-118970000D01*
X202130000Y-118270000D02*
X200930000Y-118270000D01*
X202130000Y-118970000D02*
X202130000Y-118270000D01*
X200930000Y-118970000D02*
X202130000Y-118970000D01*
X201730000Y-118970000D02*
X201330000Y-118270000D01*
X201530000Y-118270000D02*
X201530000Y-117170000D01*
X201530000Y-118970000D02*
X201530000Y-120070000D01*
X220730000Y-113370000D02*
X220730000Y-123770000D01*
X200130000Y-113370000D02*
X220730000Y-113370000D01*
X200130000Y-123770000D02*
X200130000Y-113370000D01*
X220730000Y-123770000D02*
X200130000Y-123770000D01*
X199930000Y-123970000D02*
X199930000Y-122470000D01*
X201630000Y-123970000D02*
X199930000Y-123970000D01*
X264370000Y-144814999D02*
X264370000Y-142129999D01*
X262450000Y-144814999D02*
X264370000Y-144814999D01*
X262450000Y-142129999D02*
X262450000Y-144814999D01*
X264370000Y-141421666D02*
X264370000Y-138736666D01*
X262450000Y-141421666D02*
X264370000Y-141421666D01*
X262450000Y-138736666D02*
X262450000Y-141421666D01*
X264370000Y-138028333D02*
X264370000Y-135343333D01*
X262450000Y-138028333D02*
X264370000Y-138028333D01*
X262450000Y-135343333D02*
X262450000Y-138028333D01*
X264370000Y-134635000D02*
X264370000Y-131950000D01*
X262450000Y-134635000D02*
X264370000Y-134635000D01*
X262450000Y-131950000D02*
X262450000Y-134635000D01*
D10*
X205600500Y-107754500D02*
X205600500Y-108754500D01*
X205600500Y-104154500D02*
X205600500Y-103154500D01*
X206025500Y-104154500D02*
X205600500Y-104154500D01*
X206025500Y-104879500D02*
X206025500Y-104154500D01*
X202450500Y-110104500D02*
X203850500Y-110104500D01*
X199900500Y-110104500D02*
X200050500Y-110104500D01*
X199900500Y-109804500D02*
X199900500Y-110104500D01*
X199450500Y-109804500D02*
X199900500Y-109804500D01*
X199900500Y-102104500D02*
X199450500Y-102104500D01*
X199900500Y-101804500D02*
X199900500Y-102104500D01*
X200050500Y-101804500D02*
X199900500Y-101804500D01*
X203850500Y-101804500D02*
X202450500Y-101804500D01*
D13*
X261471500Y-143761000D02*
X260971500Y-143261000D01*
X261471500Y-142761000D02*
X261471500Y-143761000D01*
X260971500Y-143261000D02*
X261471500Y-142761000D01*
X244091500Y-134946000D02*
X244091500Y-140621000D01*
X260731500Y-134946000D02*
X260731500Y-140621000D01*
X260731500Y-134946000D02*
X244091500Y-134946000D01*
X244091500Y-150826000D02*
X244091500Y-143121000D01*
X260731500Y-150826000D02*
X260731500Y-143121000D01*
X260731500Y-150826000D02*
X244091500Y-150826000D01*
X242235750Y-143761000D02*
X241735750Y-143261000D01*
X242235750Y-142761000D02*
X242235750Y-143761000D01*
X241735750Y-143261000D02*
X242235750Y-142761000D01*
X224855750Y-134946000D02*
X224855750Y-140621000D01*
X241495750Y-134946000D02*
X241495750Y-140621000D01*
X241495750Y-134946000D02*
X224855750Y-134946000D01*
X224855750Y-150826000D02*
X224855750Y-143121000D01*
X241495750Y-150826000D02*
X241495750Y-143121000D01*
X241495750Y-150826000D02*
X224855750Y-150826000D01*
X223000000Y-143761000D02*
X222500000Y-143261000D01*
X223000000Y-142761000D02*
X223000000Y-143761000D01*
X222500000Y-143261000D02*
X223000000Y-142761000D01*
X205620000Y-134946000D02*
X205620000Y-140621000D01*
X222260000Y-134946000D02*
X222260000Y-140621000D01*
X222260000Y-134946000D02*
X205620000Y-134946000D01*
X205620000Y-150826000D02*
X205620000Y-143121000D01*
X222260000Y-150826000D02*
X222260000Y-143121000D01*
X222260000Y-150826000D02*
X205620000Y-150826000D01*
D10*
X251651904Y-123552380D02*
X251651904Y-122552380D01*
X252223333Y-123552380D02*
X251794761Y-122980952D01*
X252223333Y-122552380D02*
X251651904Y-123123809D01*
X253175714Y-123552380D02*
X252604285Y-123552380D01*
X252890000Y-123552380D02*
X252890000Y-122552380D01*
X252794761Y-122695238D01*
X252699523Y-122790476D01*
X252604285Y-122838095D01*
X230876904Y-123552380D02*
X230876904Y-122552380D01*
X231448333Y-123552380D02*
X231019761Y-122980952D01*
X231448333Y-122552380D02*
X230876904Y-123123809D01*
X231829285Y-122647619D02*
X231876904Y-122600000D01*
X231972142Y-122552380D01*
X232210238Y-122552380D01*
X232305476Y-122600000D01*
X232353095Y-122647619D01*
X232400714Y-122742857D01*
X232400714Y-122838095D01*
X232353095Y-122980952D01*
X231781666Y-123552380D01*
X232400714Y-123552380D01*
X219946666Y-115424285D02*
X219946666Y-114948095D01*
X220232380Y-115519523D02*
X219232380Y-115186190D01*
X220232380Y-114852857D01*
X220232380Y-113995714D02*
X220232380Y-114567142D01*
X220232380Y-114281428D02*
X219232380Y-114281428D01*
X219375238Y-114376666D01*
X219470476Y-114471904D01*
X219518095Y-114567142D01*
X210101904Y-123552380D02*
X210101904Y-122552380D01*
X210673333Y-123552380D02*
X210244761Y-122980952D01*
X210673333Y-122552380D02*
X210101904Y-123123809D01*
X211530476Y-122885714D02*
X211530476Y-123552380D01*
X211292380Y-122504761D02*
X211054285Y-123219047D01*
X211673333Y-123219047D01*
X210091904Y-112922380D02*
X210091904Y-111922380D01*
X210663333Y-112922380D02*
X210234761Y-112350952D01*
X210663333Y-111922380D02*
X210091904Y-112493809D01*
X210996666Y-111922380D02*
X211615714Y-111922380D01*
X211282380Y-112303333D01*
X211425238Y-112303333D01*
X211520476Y-112350952D01*
X211568095Y-112398571D01*
X211615714Y-112493809D01*
X211615714Y-112731904D01*
X211568095Y-112827142D01*
X211520476Y-112874761D01*
X211425238Y-112922380D01*
X211139523Y-112922380D01*
X211044285Y-112874761D01*
X210996666Y-112827142D01*
X263982380Y-146838095D02*
X262982380Y-146838095D01*
X262982380Y-146600000D01*
X263030000Y-146457142D01*
X263125238Y-146361904D01*
X263220476Y-146314285D01*
X263410952Y-146266666D01*
X263553809Y-146266666D01*
X263744285Y-146314285D01*
X263839523Y-146361904D01*
X263934761Y-146457142D01*
X263982380Y-146600000D01*
X263982380Y-146838095D01*
X263315714Y-145409523D02*
X263982380Y-145409523D01*
X262934761Y-145647619D02*
X263649047Y-145885714D01*
X263649047Y-145266666D01*
X262212380Y-140474761D02*
X261212380Y-140474761D01*
X261212380Y-140236666D01*
X261260000Y-140093808D01*
X261355238Y-139998570D01*
X261450476Y-139950951D01*
X261640952Y-139903332D01*
X261783809Y-139903332D01*
X261974285Y-139950951D01*
X262069523Y-139998570D01*
X262164761Y-140093808D01*
X262212380Y-140236666D01*
X262212380Y-140474761D01*
X261212380Y-139569999D02*
X261212380Y-138950951D01*
X261593333Y-139284285D01*
X261593333Y-139141427D01*
X261640952Y-139046189D01*
X261688571Y-138998570D01*
X261783809Y-138950951D01*
X262021904Y-138950951D01*
X262117142Y-138998570D01*
X262164761Y-139046189D01*
X262212380Y-139141427D01*
X262212380Y-139427142D01*
X262164761Y-139522380D01*
X262117142Y-139569999D01*
X262212380Y-137081428D02*
X261212380Y-137081428D01*
X261212380Y-136843333D01*
X261260000Y-136700475D01*
X261355238Y-136605237D01*
X261450476Y-136557618D01*
X261640952Y-136509999D01*
X261783809Y-136509999D01*
X261974285Y-136557618D01*
X262069523Y-136605237D01*
X262164761Y-136700475D01*
X262212380Y-136843333D01*
X262212380Y-137081428D01*
X261307619Y-136129047D02*
X261260000Y-136081428D01*
X261212380Y-135986190D01*
X261212380Y-135748094D01*
X261260000Y-135652856D01*
X261307619Y-135605237D01*
X261402857Y-135557618D01*
X261498095Y-135557618D01*
X261640952Y-135605237D01*
X262212380Y-136176666D01*
X262212380Y-135557618D01*
X263802380Y-130878095D02*
X262802380Y-130878095D01*
X262802380Y-130640000D01*
X262850000Y-130497142D01*
X262945238Y-130401904D01*
X263040476Y-130354285D01*
X263230952Y-130306666D01*
X263373809Y-130306666D01*
X263564285Y-130354285D01*
X263659523Y-130401904D01*
X263754761Y-130497142D01*
X263802380Y-130640000D01*
X263802380Y-130878095D01*
X263802380Y-129354285D02*
X263802380Y-129925714D01*
X263802380Y-129640000D02*
X262802380Y-129640000D01*
X262945238Y-129735238D01*
X263040476Y-129830476D01*
X263088095Y-129925714D01*
X206152880Y-106287833D02*
X206867166Y-106287833D01*
X207010023Y-106335452D01*
X207105261Y-106430690D01*
X207152880Y-106573547D01*
X207152880Y-106668785D01*
X206486214Y-105383071D02*
X207152880Y-105383071D01*
X206105261Y-105621166D02*
X206819547Y-105859261D01*
X206819547Y-105240214D01*
X261576666Y-148312380D02*
X261576666Y-149026666D01*
X261529047Y-149169523D01*
X261433809Y-149264761D01*
X261290952Y-149312380D01*
X261195714Y-149312380D01*
X261957619Y-148312380D02*
X262576666Y-148312380D01*
X262243333Y-148693333D01*
X262386190Y-148693333D01*
X262481428Y-148740952D01*
X262529047Y-148788571D01*
X262576666Y-148883809D01*
X262576666Y-149121904D01*
X262529047Y-149217142D01*
X262481428Y-149264761D01*
X262386190Y-149312380D01*
X262100476Y-149312380D01*
X262005238Y-149264761D01*
X261957619Y-149217142D01*
X242436666Y-148282380D02*
X242436666Y-148996666D01*
X242389047Y-149139523D01*
X242293809Y-149234761D01*
X242150952Y-149282380D01*
X242055714Y-149282380D01*
X242865238Y-148377619D02*
X242912857Y-148330000D01*
X243008095Y-148282380D01*
X243246190Y-148282380D01*
X243341428Y-148330000D01*
X243389047Y-148377619D01*
X243436666Y-148472857D01*
X243436666Y-148568095D01*
X243389047Y-148710952D01*
X242817619Y-149282380D01*
X243436666Y-149282380D01*
X204096666Y-141412380D02*
X204096666Y-142126666D01*
X204049047Y-142269523D01*
X203953809Y-142364761D01*
X203810952Y-142412380D01*
X203715714Y-142412380D01*
X205096666Y-142412380D02*
X204525238Y-142412380D01*
X204810952Y-142412380D02*
X204810952Y-141412380D01*
X204715714Y-141555238D01*
X204620476Y-141650476D01*
X204525238Y-141698095D01*
M02*
