G04 #@! TF.GenerationSoftware,KiCad,Pcbnew,(5.1.4)-1*
G04 #@! TF.CreationDate,2020-09-13T00:14:35-05:00*
G04 #@! TF.ProjectId,NetworkBreaker,4e657477-6f72-46b4-9272-65616b65722e,rev?*
G04 #@! TF.SameCoordinates,Original*
G04 #@! TF.FileFunction,Soldermask,Top*
G04 #@! TF.FilePolarity,Negative*
%FSLAX46Y46*%
G04 Gerber Fmt 4.6, Leading zero omitted, Abs format (unit mm)*
G04 Created by KiCad (PCBNEW (5.1.4)-1) date 2020-09-13 00:14:35*
%MOMM*%
%LPD*%
G04 APERTURE LIST*
%ADD10O,1.700000X1.700000*%
%ADD11R,1.700000X1.700000*%
%ADD12C,1.600000*%
%ADD13R,1.800000X1.600000*%
%ADD14O,1.600000X1.600000*%
%ADD15R,1.600000X1.600000*%
%ADD16C,0.150000*%
%ADD17C,0.975000*%
%ADD18O,0.800000X0.800000*%
%ADD19O,1.800000X1.150000*%
%ADD20O,2.000000X1.450000*%
%ADD21R,1.300000X0.450000*%
%ADD22C,2.000000*%
%ADD23C,3.250000*%
%ADD24C,1.500000*%
%ADD25R,1.500000X1.500000*%
%ADD26C,2.700000*%
G04 APERTURE END LIST*
D10*
X261470000Y-102480000D03*
X258930000Y-102480000D03*
X256390000Y-102480000D03*
X253850000Y-102480000D03*
X251310000Y-102480000D03*
D11*
X248770000Y-102480000D03*
D12*
X255790000Y-133000000D03*
X260870000Y-133000000D03*
X250710000Y-133000000D03*
X243090000Y-125380000D03*
D13*
X243090000Y-133000000D03*
D12*
X260870000Y-125380000D03*
X255790000Y-125380000D03*
X250710000Y-125380000D03*
X235015000Y-133000000D03*
X240095000Y-133000000D03*
X229935000Y-133000000D03*
X222315000Y-125380000D03*
D13*
X222315000Y-133000000D03*
D12*
X240095000Y-125380000D03*
X235015000Y-125380000D03*
X229935000Y-125380000D03*
D10*
X260400000Y-119320000D03*
X257860000Y-119320000D03*
X255320000Y-119320000D03*
X252780000Y-119320000D03*
X250240000Y-119320000D03*
X247700000Y-119320000D03*
X245160000Y-119320000D03*
X242620000Y-119320000D03*
X240080000Y-119320000D03*
X237540000Y-119320000D03*
X235000000Y-119320000D03*
X232460000Y-119320000D03*
X229920000Y-119320000D03*
X227380000Y-119320000D03*
D11*
X224840000Y-119320000D03*
D10*
X260430000Y-110590000D03*
X257890000Y-110590000D03*
X255350000Y-110590000D03*
X252810000Y-110590000D03*
X250270000Y-110590000D03*
X247730000Y-110590000D03*
X245190000Y-110590000D03*
X242650000Y-110590000D03*
X240110000Y-110590000D03*
X237570000Y-110590000D03*
X235030000Y-110590000D03*
X232490000Y-110590000D03*
X229950000Y-110590000D03*
X227410000Y-110590000D03*
D11*
X224870000Y-110590000D03*
D14*
X260420000Y-107090000D03*
X260420000Y-122330000D03*
X224860000Y-107090000D03*
X257880000Y-122330000D03*
X227400000Y-107090000D03*
X255340000Y-122330000D03*
X229940000Y-107090000D03*
X252800000Y-122330000D03*
X232480000Y-107090000D03*
X250260000Y-122330000D03*
X235020000Y-107090000D03*
X247720000Y-122330000D03*
X237560000Y-107090000D03*
X245180000Y-122330000D03*
X240100000Y-107090000D03*
X242640000Y-122330000D03*
X242640000Y-107090000D03*
X240100000Y-122330000D03*
X245180000Y-107090000D03*
X237560000Y-122330000D03*
X247720000Y-107090000D03*
X235020000Y-122330000D03*
X250260000Y-107090000D03*
X232480000Y-122330000D03*
X252800000Y-107090000D03*
X229940000Y-122330000D03*
X255340000Y-107090000D03*
X227400000Y-122330000D03*
X257880000Y-107090000D03*
D15*
X224860000Y-122330000D03*
D10*
X256896000Y-96342500D03*
X256896000Y-98882500D03*
X254356000Y-96342500D03*
X254356000Y-98882500D03*
X251816000Y-96342500D03*
X251816000Y-98882500D03*
X249276000Y-96342500D03*
X249276000Y-98882500D03*
X246736000Y-96342500D03*
X246736000Y-98882500D03*
X244196000Y-96342500D03*
X244196000Y-98882500D03*
X241656000Y-96342500D03*
X241656000Y-98882500D03*
X239116000Y-96342500D03*
X239116000Y-98882500D03*
X236576000Y-96342500D03*
X236576000Y-98882500D03*
X234036000Y-96342500D03*
X234036000Y-98882500D03*
X231496000Y-96342500D03*
X231496000Y-98882500D03*
X228956000Y-96342500D03*
X228956000Y-98882500D03*
X226416000Y-96342500D03*
X226416000Y-98882500D03*
X223876000Y-96342500D03*
X223876000Y-98882500D03*
X221336000Y-96342500D03*
X221336000Y-98882500D03*
X218796000Y-96342500D03*
X218796000Y-98882500D03*
X216256000Y-96342500D03*
X216256000Y-98882500D03*
X213716000Y-96342500D03*
X213716000Y-98882500D03*
X211176000Y-96342500D03*
X211176000Y-98882500D03*
X208636000Y-96342500D03*
D11*
X208636000Y-98882500D03*
D12*
X214240000Y-133000000D03*
X219320000Y-133000000D03*
X209160000Y-133000000D03*
X201540000Y-125380000D03*
D13*
X201540000Y-133000000D03*
D12*
X219320000Y-125380000D03*
X214240000Y-125380000D03*
X209160000Y-125380000D03*
X214230000Y-122370000D03*
X219310000Y-122370000D03*
X209150000Y-122370000D03*
X201530000Y-114750000D03*
D13*
X201530000Y-122370000D03*
D12*
X219310000Y-114750000D03*
X214230000Y-114750000D03*
X209150000Y-114750000D03*
D16*
G36*
X263890142Y-141706173D02*
G01*
X263913803Y-141709683D01*
X263937007Y-141715495D01*
X263959529Y-141723553D01*
X263981153Y-141733781D01*
X264001670Y-141746078D01*
X264020883Y-141760328D01*
X264038607Y-141776392D01*
X264054671Y-141794116D01*
X264068921Y-141813329D01*
X264081218Y-141833846D01*
X264091446Y-141855470D01*
X264099504Y-141877992D01*
X264105316Y-141901196D01*
X264108826Y-141924857D01*
X264110000Y-141948749D01*
X264110000Y-142436249D01*
X264108826Y-142460141D01*
X264105316Y-142483802D01*
X264099504Y-142507006D01*
X264091446Y-142529528D01*
X264081218Y-142551152D01*
X264068921Y-142571669D01*
X264054671Y-142590882D01*
X264038607Y-142608606D01*
X264020883Y-142624670D01*
X264001670Y-142638920D01*
X263981153Y-142651217D01*
X263959529Y-142661445D01*
X263937007Y-142669503D01*
X263913803Y-142675315D01*
X263890142Y-142678825D01*
X263866250Y-142679999D01*
X262953750Y-142679999D01*
X262929858Y-142678825D01*
X262906197Y-142675315D01*
X262882993Y-142669503D01*
X262860471Y-142661445D01*
X262838847Y-142651217D01*
X262818330Y-142638920D01*
X262799117Y-142624670D01*
X262781393Y-142608606D01*
X262765329Y-142590882D01*
X262751079Y-142571669D01*
X262738782Y-142551152D01*
X262728554Y-142529528D01*
X262720496Y-142507006D01*
X262714684Y-142483802D01*
X262711174Y-142460141D01*
X262710000Y-142436249D01*
X262710000Y-141948749D01*
X262711174Y-141924857D01*
X262714684Y-141901196D01*
X262720496Y-141877992D01*
X262728554Y-141855470D01*
X262738782Y-141833846D01*
X262751079Y-141813329D01*
X262765329Y-141794116D01*
X262781393Y-141776392D01*
X262799117Y-141760328D01*
X262818330Y-141746078D01*
X262838847Y-141733781D01*
X262860471Y-141723553D01*
X262882993Y-141715495D01*
X262906197Y-141709683D01*
X262929858Y-141706173D01*
X262953750Y-141704999D01*
X263866250Y-141704999D01*
X263890142Y-141706173D01*
X263890142Y-141706173D01*
G37*
D17*
X263410000Y-142192499D03*
D16*
G36*
X263890142Y-143581173D02*
G01*
X263913803Y-143584683D01*
X263937007Y-143590495D01*
X263959529Y-143598553D01*
X263981153Y-143608781D01*
X264001670Y-143621078D01*
X264020883Y-143635328D01*
X264038607Y-143651392D01*
X264054671Y-143669116D01*
X264068921Y-143688329D01*
X264081218Y-143708846D01*
X264091446Y-143730470D01*
X264099504Y-143752992D01*
X264105316Y-143776196D01*
X264108826Y-143799857D01*
X264110000Y-143823749D01*
X264110000Y-144311249D01*
X264108826Y-144335141D01*
X264105316Y-144358802D01*
X264099504Y-144382006D01*
X264091446Y-144404528D01*
X264081218Y-144426152D01*
X264068921Y-144446669D01*
X264054671Y-144465882D01*
X264038607Y-144483606D01*
X264020883Y-144499670D01*
X264001670Y-144513920D01*
X263981153Y-144526217D01*
X263959529Y-144536445D01*
X263937007Y-144544503D01*
X263913803Y-144550315D01*
X263890142Y-144553825D01*
X263866250Y-144554999D01*
X262953750Y-144554999D01*
X262929858Y-144553825D01*
X262906197Y-144550315D01*
X262882993Y-144544503D01*
X262860471Y-144536445D01*
X262838847Y-144526217D01*
X262818330Y-144513920D01*
X262799117Y-144499670D01*
X262781393Y-144483606D01*
X262765329Y-144465882D01*
X262751079Y-144446669D01*
X262738782Y-144426152D01*
X262728554Y-144404528D01*
X262720496Y-144382006D01*
X262714684Y-144358802D01*
X262711174Y-144335141D01*
X262710000Y-144311249D01*
X262710000Y-143823749D01*
X262711174Y-143799857D01*
X262714684Y-143776196D01*
X262720496Y-143752992D01*
X262728554Y-143730470D01*
X262738782Y-143708846D01*
X262751079Y-143688329D01*
X262765329Y-143669116D01*
X262781393Y-143651392D01*
X262799117Y-143635328D01*
X262818330Y-143621078D01*
X262838847Y-143608781D01*
X262860471Y-143598553D01*
X262882993Y-143590495D01*
X262906197Y-143584683D01*
X262929858Y-143581173D01*
X262953750Y-143579999D01*
X263866250Y-143579999D01*
X263890142Y-143581173D01*
X263890142Y-143581173D01*
G37*
D17*
X263410000Y-144067499D03*
D16*
G36*
X263890142Y-138312840D02*
G01*
X263913803Y-138316350D01*
X263937007Y-138322162D01*
X263959529Y-138330220D01*
X263981153Y-138340448D01*
X264001670Y-138352745D01*
X264020883Y-138366995D01*
X264038607Y-138383059D01*
X264054671Y-138400783D01*
X264068921Y-138419996D01*
X264081218Y-138440513D01*
X264091446Y-138462137D01*
X264099504Y-138484659D01*
X264105316Y-138507863D01*
X264108826Y-138531524D01*
X264110000Y-138555416D01*
X264110000Y-139042916D01*
X264108826Y-139066808D01*
X264105316Y-139090469D01*
X264099504Y-139113673D01*
X264091446Y-139136195D01*
X264081218Y-139157819D01*
X264068921Y-139178336D01*
X264054671Y-139197549D01*
X264038607Y-139215273D01*
X264020883Y-139231337D01*
X264001670Y-139245587D01*
X263981153Y-139257884D01*
X263959529Y-139268112D01*
X263937007Y-139276170D01*
X263913803Y-139281982D01*
X263890142Y-139285492D01*
X263866250Y-139286666D01*
X262953750Y-139286666D01*
X262929858Y-139285492D01*
X262906197Y-139281982D01*
X262882993Y-139276170D01*
X262860471Y-139268112D01*
X262838847Y-139257884D01*
X262818330Y-139245587D01*
X262799117Y-139231337D01*
X262781393Y-139215273D01*
X262765329Y-139197549D01*
X262751079Y-139178336D01*
X262738782Y-139157819D01*
X262728554Y-139136195D01*
X262720496Y-139113673D01*
X262714684Y-139090469D01*
X262711174Y-139066808D01*
X262710000Y-139042916D01*
X262710000Y-138555416D01*
X262711174Y-138531524D01*
X262714684Y-138507863D01*
X262720496Y-138484659D01*
X262728554Y-138462137D01*
X262738782Y-138440513D01*
X262751079Y-138419996D01*
X262765329Y-138400783D01*
X262781393Y-138383059D01*
X262799117Y-138366995D01*
X262818330Y-138352745D01*
X262838847Y-138340448D01*
X262860471Y-138330220D01*
X262882993Y-138322162D01*
X262906197Y-138316350D01*
X262929858Y-138312840D01*
X262953750Y-138311666D01*
X263866250Y-138311666D01*
X263890142Y-138312840D01*
X263890142Y-138312840D01*
G37*
D17*
X263410000Y-138799166D03*
D16*
G36*
X263890142Y-140187840D02*
G01*
X263913803Y-140191350D01*
X263937007Y-140197162D01*
X263959529Y-140205220D01*
X263981153Y-140215448D01*
X264001670Y-140227745D01*
X264020883Y-140241995D01*
X264038607Y-140258059D01*
X264054671Y-140275783D01*
X264068921Y-140294996D01*
X264081218Y-140315513D01*
X264091446Y-140337137D01*
X264099504Y-140359659D01*
X264105316Y-140382863D01*
X264108826Y-140406524D01*
X264110000Y-140430416D01*
X264110000Y-140917916D01*
X264108826Y-140941808D01*
X264105316Y-140965469D01*
X264099504Y-140988673D01*
X264091446Y-141011195D01*
X264081218Y-141032819D01*
X264068921Y-141053336D01*
X264054671Y-141072549D01*
X264038607Y-141090273D01*
X264020883Y-141106337D01*
X264001670Y-141120587D01*
X263981153Y-141132884D01*
X263959529Y-141143112D01*
X263937007Y-141151170D01*
X263913803Y-141156982D01*
X263890142Y-141160492D01*
X263866250Y-141161666D01*
X262953750Y-141161666D01*
X262929858Y-141160492D01*
X262906197Y-141156982D01*
X262882993Y-141151170D01*
X262860471Y-141143112D01*
X262838847Y-141132884D01*
X262818330Y-141120587D01*
X262799117Y-141106337D01*
X262781393Y-141090273D01*
X262765329Y-141072549D01*
X262751079Y-141053336D01*
X262738782Y-141032819D01*
X262728554Y-141011195D01*
X262720496Y-140988673D01*
X262714684Y-140965469D01*
X262711174Y-140941808D01*
X262710000Y-140917916D01*
X262710000Y-140430416D01*
X262711174Y-140406524D01*
X262714684Y-140382863D01*
X262720496Y-140359659D01*
X262728554Y-140337137D01*
X262738782Y-140315513D01*
X262751079Y-140294996D01*
X262765329Y-140275783D01*
X262781393Y-140258059D01*
X262799117Y-140241995D01*
X262818330Y-140227745D01*
X262838847Y-140215448D01*
X262860471Y-140205220D01*
X262882993Y-140197162D01*
X262906197Y-140191350D01*
X262929858Y-140187840D01*
X262953750Y-140186666D01*
X263866250Y-140186666D01*
X263890142Y-140187840D01*
X263890142Y-140187840D01*
G37*
D17*
X263410000Y-140674166D03*
D16*
G36*
X263890142Y-134919507D02*
G01*
X263913803Y-134923017D01*
X263937007Y-134928829D01*
X263959529Y-134936887D01*
X263981153Y-134947115D01*
X264001670Y-134959412D01*
X264020883Y-134973662D01*
X264038607Y-134989726D01*
X264054671Y-135007450D01*
X264068921Y-135026663D01*
X264081218Y-135047180D01*
X264091446Y-135068804D01*
X264099504Y-135091326D01*
X264105316Y-135114530D01*
X264108826Y-135138191D01*
X264110000Y-135162083D01*
X264110000Y-135649583D01*
X264108826Y-135673475D01*
X264105316Y-135697136D01*
X264099504Y-135720340D01*
X264091446Y-135742862D01*
X264081218Y-135764486D01*
X264068921Y-135785003D01*
X264054671Y-135804216D01*
X264038607Y-135821940D01*
X264020883Y-135838004D01*
X264001670Y-135852254D01*
X263981153Y-135864551D01*
X263959529Y-135874779D01*
X263937007Y-135882837D01*
X263913803Y-135888649D01*
X263890142Y-135892159D01*
X263866250Y-135893333D01*
X262953750Y-135893333D01*
X262929858Y-135892159D01*
X262906197Y-135888649D01*
X262882993Y-135882837D01*
X262860471Y-135874779D01*
X262838847Y-135864551D01*
X262818330Y-135852254D01*
X262799117Y-135838004D01*
X262781393Y-135821940D01*
X262765329Y-135804216D01*
X262751079Y-135785003D01*
X262738782Y-135764486D01*
X262728554Y-135742862D01*
X262720496Y-135720340D01*
X262714684Y-135697136D01*
X262711174Y-135673475D01*
X262710000Y-135649583D01*
X262710000Y-135162083D01*
X262711174Y-135138191D01*
X262714684Y-135114530D01*
X262720496Y-135091326D01*
X262728554Y-135068804D01*
X262738782Y-135047180D01*
X262751079Y-135026663D01*
X262765329Y-135007450D01*
X262781393Y-134989726D01*
X262799117Y-134973662D01*
X262818330Y-134959412D01*
X262838847Y-134947115D01*
X262860471Y-134936887D01*
X262882993Y-134928829D01*
X262906197Y-134923017D01*
X262929858Y-134919507D01*
X262953750Y-134918333D01*
X263866250Y-134918333D01*
X263890142Y-134919507D01*
X263890142Y-134919507D01*
G37*
D17*
X263410000Y-135405833D03*
D16*
G36*
X263890142Y-136794507D02*
G01*
X263913803Y-136798017D01*
X263937007Y-136803829D01*
X263959529Y-136811887D01*
X263981153Y-136822115D01*
X264001670Y-136834412D01*
X264020883Y-136848662D01*
X264038607Y-136864726D01*
X264054671Y-136882450D01*
X264068921Y-136901663D01*
X264081218Y-136922180D01*
X264091446Y-136943804D01*
X264099504Y-136966326D01*
X264105316Y-136989530D01*
X264108826Y-137013191D01*
X264110000Y-137037083D01*
X264110000Y-137524583D01*
X264108826Y-137548475D01*
X264105316Y-137572136D01*
X264099504Y-137595340D01*
X264091446Y-137617862D01*
X264081218Y-137639486D01*
X264068921Y-137660003D01*
X264054671Y-137679216D01*
X264038607Y-137696940D01*
X264020883Y-137713004D01*
X264001670Y-137727254D01*
X263981153Y-137739551D01*
X263959529Y-137749779D01*
X263937007Y-137757837D01*
X263913803Y-137763649D01*
X263890142Y-137767159D01*
X263866250Y-137768333D01*
X262953750Y-137768333D01*
X262929858Y-137767159D01*
X262906197Y-137763649D01*
X262882993Y-137757837D01*
X262860471Y-137749779D01*
X262838847Y-137739551D01*
X262818330Y-137727254D01*
X262799117Y-137713004D01*
X262781393Y-137696940D01*
X262765329Y-137679216D01*
X262751079Y-137660003D01*
X262738782Y-137639486D01*
X262728554Y-137617862D01*
X262720496Y-137595340D01*
X262714684Y-137572136D01*
X262711174Y-137548475D01*
X262710000Y-137524583D01*
X262710000Y-137037083D01*
X262711174Y-137013191D01*
X262714684Y-136989530D01*
X262720496Y-136966326D01*
X262728554Y-136943804D01*
X262738782Y-136922180D01*
X262751079Y-136901663D01*
X262765329Y-136882450D01*
X262781393Y-136864726D01*
X262799117Y-136848662D01*
X262818330Y-136834412D01*
X262838847Y-136822115D01*
X262860471Y-136811887D01*
X262882993Y-136803829D01*
X262906197Y-136798017D01*
X262929858Y-136794507D01*
X262953750Y-136793333D01*
X263866250Y-136793333D01*
X263890142Y-136794507D01*
X263890142Y-136794507D01*
G37*
D17*
X263410000Y-137280833D03*
D16*
G36*
X263890142Y-131526174D02*
G01*
X263913803Y-131529684D01*
X263937007Y-131535496D01*
X263959529Y-131543554D01*
X263981153Y-131553782D01*
X264001670Y-131566079D01*
X264020883Y-131580329D01*
X264038607Y-131596393D01*
X264054671Y-131614117D01*
X264068921Y-131633330D01*
X264081218Y-131653847D01*
X264091446Y-131675471D01*
X264099504Y-131697993D01*
X264105316Y-131721197D01*
X264108826Y-131744858D01*
X264110000Y-131768750D01*
X264110000Y-132256250D01*
X264108826Y-132280142D01*
X264105316Y-132303803D01*
X264099504Y-132327007D01*
X264091446Y-132349529D01*
X264081218Y-132371153D01*
X264068921Y-132391670D01*
X264054671Y-132410883D01*
X264038607Y-132428607D01*
X264020883Y-132444671D01*
X264001670Y-132458921D01*
X263981153Y-132471218D01*
X263959529Y-132481446D01*
X263937007Y-132489504D01*
X263913803Y-132495316D01*
X263890142Y-132498826D01*
X263866250Y-132500000D01*
X262953750Y-132500000D01*
X262929858Y-132498826D01*
X262906197Y-132495316D01*
X262882993Y-132489504D01*
X262860471Y-132481446D01*
X262838847Y-132471218D01*
X262818330Y-132458921D01*
X262799117Y-132444671D01*
X262781393Y-132428607D01*
X262765329Y-132410883D01*
X262751079Y-132391670D01*
X262738782Y-132371153D01*
X262728554Y-132349529D01*
X262720496Y-132327007D01*
X262714684Y-132303803D01*
X262711174Y-132280142D01*
X262710000Y-132256250D01*
X262710000Y-131768750D01*
X262711174Y-131744858D01*
X262714684Y-131721197D01*
X262720496Y-131697993D01*
X262728554Y-131675471D01*
X262738782Y-131653847D01*
X262751079Y-131633330D01*
X262765329Y-131614117D01*
X262781393Y-131596393D01*
X262799117Y-131580329D01*
X262818330Y-131566079D01*
X262838847Y-131553782D01*
X262860471Y-131543554D01*
X262882993Y-131535496D01*
X262906197Y-131529684D01*
X262929858Y-131526174D01*
X262953750Y-131525000D01*
X263866250Y-131525000D01*
X263890142Y-131526174D01*
X263890142Y-131526174D01*
G37*
D17*
X263410000Y-132012500D03*
D16*
G36*
X263890142Y-133401174D02*
G01*
X263913803Y-133404684D01*
X263937007Y-133410496D01*
X263959529Y-133418554D01*
X263981153Y-133428782D01*
X264001670Y-133441079D01*
X264020883Y-133455329D01*
X264038607Y-133471393D01*
X264054671Y-133489117D01*
X264068921Y-133508330D01*
X264081218Y-133528847D01*
X264091446Y-133550471D01*
X264099504Y-133572993D01*
X264105316Y-133596197D01*
X264108826Y-133619858D01*
X264110000Y-133643750D01*
X264110000Y-134131250D01*
X264108826Y-134155142D01*
X264105316Y-134178803D01*
X264099504Y-134202007D01*
X264091446Y-134224529D01*
X264081218Y-134246153D01*
X264068921Y-134266670D01*
X264054671Y-134285883D01*
X264038607Y-134303607D01*
X264020883Y-134319671D01*
X264001670Y-134333921D01*
X263981153Y-134346218D01*
X263959529Y-134356446D01*
X263937007Y-134364504D01*
X263913803Y-134370316D01*
X263890142Y-134373826D01*
X263866250Y-134375000D01*
X262953750Y-134375000D01*
X262929858Y-134373826D01*
X262906197Y-134370316D01*
X262882993Y-134364504D01*
X262860471Y-134356446D01*
X262838847Y-134346218D01*
X262818330Y-134333921D01*
X262799117Y-134319671D01*
X262781393Y-134303607D01*
X262765329Y-134285883D01*
X262751079Y-134266670D01*
X262738782Y-134246153D01*
X262728554Y-134224529D01*
X262720496Y-134202007D01*
X262714684Y-134178803D01*
X262711174Y-134155142D01*
X262710000Y-134131250D01*
X262710000Y-133643750D01*
X262711174Y-133619858D01*
X262714684Y-133596197D01*
X262720496Y-133572993D01*
X262728554Y-133550471D01*
X262738782Y-133528847D01*
X262751079Y-133508330D01*
X262765329Y-133489117D01*
X262781393Y-133471393D01*
X262799117Y-133455329D01*
X262818330Y-133441079D01*
X262838847Y-133428782D01*
X262860471Y-133418554D01*
X262882993Y-133410496D01*
X262906197Y-133404684D01*
X262929858Y-133401174D01*
X262953750Y-133400000D01*
X263866250Y-133400000D01*
X263890142Y-133401174D01*
X263890142Y-133401174D01*
G37*
D17*
X263410000Y-133887500D03*
D18*
X204000500Y-108454500D03*
X204000500Y-103454500D03*
D19*
X201250500Y-109829500D03*
X201250500Y-102079500D03*
D20*
X205050500Y-109679500D03*
X205050500Y-102229500D03*
D21*
X205100500Y-107254500D03*
X205100500Y-106604500D03*
X205100500Y-105954500D03*
X205100500Y-105304500D03*
X205100500Y-104654500D03*
D22*
X260541500Y-141871000D03*
X244281500Y-141871000D03*
D23*
X246061500Y-145301000D03*
X258761500Y-145301000D03*
D24*
X248831500Y-140981000D03*
X250871500Y-140981000D03*
X252911500Y-140981000D03*
X254951500Y-140981000D03*
X249851500Y-142761000D03*
X251891500Y-142761000D03*
X253931500Y-142761000D03*
D25*
X255971500Y-142761000D03*
D22*
X241305750Y-141871000D03*
X225045750Y-141871000D03*
D23*
X226825750Y-145301000D03*
X239525750Y-145301000D03*
D24*
X229595750Y-140981000D03*
X231635750Y-140981000D03*
X233675750Y-140981000D03*
X235715750Y-140981000D03*
X230615750Y-142761000D03*
X232655750Y-142761000D03*
X234695750Y-142761000D03*
D25*
X236735750Y-142761000D03*
D22*
X222070000Y-141871000D03*
X205810000Y-141871000D03*
D23*
X207590000Y-145301000D03*
X220290000Y-145301000D03*
D24*
X210360000Y-140981000D03*
X212400000Y-140981000D03*
X214440000Y-140981000D03*
X216480000Y-140981000D03*
X211380000Y-142761000D03*
X213420000Y-142761000D03*
X215460000Y-142761000D03*
D25*
X217500000Y-142761000D03*
D26*
X203500000Y-146500000D03*
X261500000Y-97500000D03*
X203500000Y-97500000D03*
M02*
