M48
; DRILL file {KiCad (5.1.4)-1} date 9/13/2020 12:14:37 AM
; FORMAT={-:-/ absolute / inch / decimal}
; #@! TF.CreationDate,2020-09-13T00:14:37-05:00
; #@! TF.GenerationSoftware,Kicad,Pcbnew,(5.1.4)-1
FMAT,2
INCH
T1C0.0217
T2C0.0236
T3C0.0315
T4C0.0335
T5C0.0350
T6C0.0394
T7C0.0618
T8C0.0315
T9C0.1063
T10C0.1280
%
G90
G05
T2
X7.9284Y-4.1411
X7.9284Y-4.097
X7.9284Y-4.1856
X7.9284Y-4.2299
X7.9941Y-5.465
X8.0217Y-4.5469
X8.0302Y-5.5166
X8.0559Y-4.9362
X8.0756Y-4.4524
X8.1043Y-5.3315
X8.1453Y-4.1976
X8.2346Y-5.3311
X8.3323Y-5.1256
X8.3331Y-4.0504
X8.3413Y-4.4579
X8.4134Y-5.3323
X8.4929Y-4.3583
X8.5051Y-5.4205
X8.5351Y-5.0074
X8.5495Y-5.0949
X8.5539Y-4.1811
X8.5748Y-4.8862
X8.5923Y-4.9974
X8.5952Y-5.369
X8.6004Y-4.1811
X8.6055Y-4.0071
X8.6218Y-5.4268
X8.6598Y-4.4106
X8.6607Y-5.0066
X8.6807Y-5.1451
X8.6945Y-4.8925
X8.6996Y-4.1957
X8.7319Y-5.4033
X8.7473Y-4.0792
X8.7795Y-5.3291
X8.8319Y-5.476
X8.8722Y-4.1161
X8.8846Y-4.5614
X8.8982Y-4.7604
X8.9024Y-4.0425
X8.9114Y-4.1665
X8.9554Y-5.0715
X9.0004Y-4.5594
X9.0236Y-5.0705
X9.0262Y-5.1811
X9.1042Y-4.8516
X9.1283Y-4.5366
X9.174Y-5.3575
X9.1866Y-5.1764
X9.2114Y-5.478
X9.2169Y-5.0669
X9.2443Y-3.9868
X9.3091Y-4.0012
X9.3252Y-5.2177
X9.3551Y-4.9835
X9.3575Y-4.9331
X9.4132Y-4.0681
X9.4469Y-5.0072
X9.4469Y-5.1492
X9.4556Y-5.3256
X9.4984Y-5.4543
X9.568Y-3.9462
X9.5724Y-5.1484
X9.5815Y-5.4445
X9.587Y-5.2987
X9.614Y-3.9917
X9.6145Y-5.0647
X9.6429Y-5.0311
X9.6941Y-4.4669
X9.7067Y-4.0681
X9.712Y-3.9917
X9.7521Y-5.1258
X9.778Y-4.8941
X9.9631Y-5.3711
X9.9921Y-4.1614
X10.0339Y-5.176
X10.0431Y-5.3711
X10.1097Y-5.0367
X10.1134Y-4.1524
X10.1477Y-4.9243
X10.1902Y-5.3894
X10.1933Y-4.1634
X10.2169Y-5.4758
X10.2949Y-5.3398
X10.3705Y-5.2712
X10.3705Y-5.4048
X10.3705Y-5.5384
T3
X9.5705Y-4.9362
X9.5705Y-5.2362
X9.8705Y-4.9362
X9.8705Y-5.2362
X10.0705Y-4.9362
X10.0705Y-5.2362
X10.2705Y-4.9362
X10.2705Y-5.2362
X7.9343Y-4.5177
X7.9343Y-4.8177
X8.2343Y-4.5177
X8.2343Y-4.8177
X8.4343Y-4.5177
X8.4343Y-4.8177
X8.6343Y-4.5177
X8.6343Y-4.8177
X7.9346Y-4.9362
X7.9346Y-5.2362
X8.2346Y-4.9362
X8.2346Y-5.2362
X8.4346Y-4.9362
X8.4346Y-5.2362
X8.6346Y-4.9362
X8.6346Y-5.2362
X8.7526Y-4.9362
X8.7526Y-5.2362
X9.0526Y-4.9362
X9.0526Y-5.2362
X9.2526Y-4.9362
X9.2526Y-5.2362
X9.4526Y-4.9362
X9.4526Y-5.2362
X8.8528Y-4.2161
X8.8528Y-4.8161
X8.9528Y-4.2161
X8.9528Y-4.8161
X9.0528Y-4.2161
X9.0528Y-4.8161
X9.1528Y-4.2161
X9.1528Y-4.8161
X9.2528Y-4.2161
X9.2528Y-4.8161
X9.3528Y-4.2161
X9.3528Y-4.8161
X9.4528Y-4.2161
X9.4528Y-4.8161
X9.5528Y-4.2161
X9.5528Y-4.8161
X9.6528Y-4.2161
X9.6528Y-4.8161
X9.7528Y-4.2161
X9.7528Y-4.8161
X9.8528Y-4.2161
X9.8528Y-4.8161
X9.9528Y-4.2161
X9.9528Y-4.8161
X10.0528Y-4.2161
X10.0528Y-4.8161
X10.1528Y-4.2161
X10.1528Y-4.8161
X10.2528Y-4.2161
X10.2528Y-4.8161
T5
X9.7965Y-5.5504
X9.8367Y-5.6205
X9.8768Y-5.5504
X9.917Y-5.6205
X9.9571Y-5.5504
X9.9973Y-5.6205
X10.0375Y-5.5504
X10.0776Y-5.6205
X9.0392Y-5.5504
X9.0794Y-5.6205
X9.1195Y-5.5504
X9.1597Y-5.6205
X9.1998Y-5.5504
X9.24Y-5.6205
X9.2801Y-5.5504
X9.3203Y-5.6205
X8.2819Y-5.5504
X8.322Y-5.6205
X8.3622Y-5.5504
X8.4024Y-5.6205
X8.4425Y-5.5504
X8.4827Y-5.6205
X8.5228Y-5.5504
X8.563Y-5.6205
T6
X8.8531Y-4.3539
X8.9531Y-4.3539
X9.0531Y-4.3539
X9.1531Y-4.3539
X9.2531Y-4.3539
X9.3531Y-4.3539
X9.4531Y-4.3539
X9.5531Y-4.3539
X9.6531Y-4.3539
X9.7531Y-4.3539
X9.8531Y-4.3539
X9.9531Y-4.3539
X10.0531Y-4.3539
X10.1531Y-4.3539
X10.2531Y-4.3539
X9.7941Y-4.0346
X9.8941Y-4.0346
X9.9941Y-4.0346
X10.0941Y-4.0346
X10.1941Y-4.0346
X10.2941Y-4.0346
X8.214Y-3.793
X8.214Y-3.893
X8.314Y-3.793
X8.314Y-3.893
X8.414Y-3.793
X8.414Y-3.893
X8.514Y-3.793
X8.514Y-3.893
X8.614Y-3.793
X8.614Y-3.893
X8.714Y-3.793
X8.714Y-3.893
X8.814Y-3.793
X8.814Y-3.893
X8.914Y-3.793
X8.914Y-3.893
X9.014Y-3.793
X9.014Y-3.893
X9.114Y-3.793
X9.114Y-3.893
X9.214Y-3.793
X9.214Y-3.893
X9.314Y-3.793
X9.314Y-3.893
X9.414Y-3.793
X9.414Y-3.893
X9.514Y-3.793
X9.514Y-3.893
X9.614Y-3.793
X9.614Y-3.893
X9.714Y-3.793
X9.714Y-3.893
X9.814Y-3.793
X9.814Y-3.893
X9.914Y-3.793
X9.914Y-3.893
X10.014Y-3.793
X10.014Y-3.893
X10.114Y-3.793
X10.114Y-3.893
X8.852Y-4.6976
X8.952Y-4.6976
X9.052Y-4.6976
X9.152Y-4.6976
X9.252Y-4.6976
X9.352Y-4.6976
X9.452Y-4.6976
X9.552Y-4.6976
X9.652Y-4.6976
X9.752Y-4.6976
X9.852Y-4.6976
X9.952Y-4.6976
X10.052Y-4.6976
X10.152Y-4.6976
X10.252Y-4.6976
T7
X9.6174Y-5.5855
X10.2575Y-5.5855
X8.8601Y-5.5855
X9.5002Y-5.5855
X8.1028Y-5.5855
X8.7429Y-5.5855
T8
X8.0315Y-4.073
X8.0315Y-4.2699
T9
X10.2953Y-3.8386
X8.0118Y-5.7677
X8.0118Y-3.8386
T10
X9.6875Y-5.7205
X10.1875Y-5.7205
X8.9301Y-5.7205
X9.4301Y-5.7205
X8.1728Y-5.7205
X8.6728Y-5.7205
T1
G00X7.936Y-4.0189
M15
G01X7.9105Y-4.0189
M16
G05
G00X7.936Y-4.324
M15
G01X7.9105Y-4.324
M16
G05
T4
G00X8.0837Y-4.0248
M15
G01X8.062Y-4.0248
M16
G05
G00X8.0837Y-4.3181
M15
G01X8.062Y-4.3181
M16
G05
T0
M30
